<svg width="34" height="32" fill="none" xmlns="http://www.w3.org/2000/svg"><path fill-rule="evenodd" clip-rule="evenodd" d="M2 22c.475.286 1.499.578 2.428.842l.222.063C7.066 23.595 10.41 24 14 24c.742 0 1.474-.017 2.19-.05a9.92 9.92 0 0 0 .608 1.97c-.904.052-1.84.08-2.798.08-7.732 0-14-1.79-14-4V4c0-2.21 6.268-4 14-4s14 1.79 14 4v8.2c-.646-.131-1.315-.2-2-.2a9.953 9.953 0 0 0-5.288 1.511c-1.993.312-4.28.489-6.712.489-5.093 0-9.55-.777-12-1.938V16c.475.286 1.499.578 2.428.842l.222.063C7.066 17.595 10.41 18 14 18c.98 0 1.941-.03 2.871-.088a9.927 9.927 0 0 0-.66 2.038c-.72.033-1.459.05-2.211.05-5.093 0-9.55-.777-12-1.939V22ZM2 6.061V10c.475.286 1.499.578 2.428.842l.222.063C7.066 11.595 10.41 12 14 12c3.588 0 6.934-.404 9.35-1.095l.236-.067c.926-.263 1.945-.553 2.418-.838H26V6.061C23.55 7.223 19.093 8 14 8S4.45 7.223 2 6.061Zm21.35-2.966C20.934 2.405 17.588 2 14 2s-6.934.404-9.35 1.095c-.983.28-1.76.596-2.273.905.513.31 1.29.624 2.273.905C7.066 5.595 10.41 6 14 6c3.588 0 6.934-.404 9.35-1.095.983-.28 1.76-.596 2.273-.905-.513-.31-1.29-.624-2.273-.905Z" fill="#343741"/><path fill-rule="evenodd" clip-rule="evenodd" d="M18 22.533h.017a8 8 0 0 0 15.966 0H34v-1.066h-.017a8 8 0 0 0-15.965 0H18v1.066Zm2.157 3.2a6.892 6.892 0 0 1-1.07-3.2h3.188c.035 1.15.184 2.234.422 3.2h-2.54Zm2.118-4.266h-3.188a6.892 6.892 0 0 1 1.07-3.2h2.54c-.238.966-.387 2.05-.422 3.2Zm7.45 1.066h3.188a6.891 6.891 0 0 1-1.07 3.2h-2.54c.238-.966.387-2.05.422-3.2Zm2.118-4.266c.6.937.981 2.027 1.07 3.2h-3.188a15.437 15.437 0 0 0-.422-3.2h2.54ZM23.8 25.733c-.25-.931-.418-2.02-.457-3.2h5.316a14.312 14.312 0 0 1-.457 3.2h-4.402Zm4.402-7.466c.25.931.418 2.02.457 3.2h-5.316c.04-1.18.207-2.269.457-3.2h4.402Zm-4.306 10.341a6.934 6.934 0 0 1-2.898-1.808h2.016c.246.7.544 1.313.882 1.808Zm5.092-1.808h2.016a6.934 6.934 0 0 1-2.898 1.808c.338-.495.636-1.107.882-1.808ZM26 28.933c-.647 0-1.338-.81-1.854-2.133h3.708c-.516 1.322-1.207 2.133-1.854 2.133ZM23.013 17.2h-2.016a6.934 6.934 0 0 1 2.898-1.808c-.338.495-.636 1.107-.882 1.808Zm5.092-1.808a6.934 6.934 0 0 1 2.898 1.808h-2.016c-.246-.7-.544-1.313-.882-1.808ZM26 15.067c.647 0 1.338.81 1.854 2.133h-3.708c.516-1.322 1.207-2.133 1.854-2.133Z" fill="#343741"/></svg>