<svg width="128" height="128" fill="none" xmlns="http://www.w3.org/2000/svg"><path d="M128 0H0v128h128V0Z" fill="#512BD4"/><path d="M22.814 81.778c-.905 0-1.675-.302-2.308-.905-.634-.619-.95-1.353-.95-2.204 0-.866.316-1.608.95-2.227.633-.619 1.403-.928 2.308-.928.92 0 1.697.31 2.33.928.649.619.973 1.36.973 2.227 0 .85-.324 1.585-.973 2.204-.633.603-1.41.905-2.33.905ZM58.994 81.267h-5.883L37.612 56.816a10.928 10.928 0 0 1-.973-1.926h-.136c.121.712.182 2.235.182 4.57v21.807H31.48V48h6.268l14.979 23.872c.633.99 1.04 1.67 1.222 2.041h.09c-.15-.881-.226-2.374-.226-4.477V48h5.181v33.267ZM84.337 81.267H66.121V48h17.49v4.686H71.509v9.419h11.154v4.663H71.508v9.836h12.829v4.663ZM110.222 52.686H100.9v28.581h-5.385v-28.58h-9.3V48h24.007v4.686Z" fill="#fff"/></svg>