<svg width="128" height="128" fill="none" xmlns="http://www.w3.org/2000/svg"><path fill-rule="evenodd" clip-rule="evenodd" d="M4 64.002c0 5.536.776 10.876 2.096 16H84c8.836 0 16-7.164 16-16 0-8.84-7.164-16-16-16H6.096C4.776 53.122 4 58.466 4 64.002" fill="#343741"/><mask id="a" style="mask-type:alpha" maskUnits="userSpaceOnUse" x="10" y="0" width="108" height="37"><path fill-rule="evenodd" clip-rule="evenodd" d="M10.575.002h107.341v36H10.576v-36Z" fill="#fff"/></mask><g mask="url(#a)"><path fill-rule="evenodd" clip-rule="evenodd" d="M111.695 30.646a61.115 61.115 0 0 0 6.224-6.644c-11.732-14.62-29.72-24-49.92-24-25.284 0-47.044 14.708-57.424 36h87.468a20.14 20.14 0 0 0 13.652-5.356" fill="#FEC514"/></g><mask id="b" style="mask-type:alpha" maskUnits="userSpaceOnUse" x="10" y="92" width="108" height="37"><path fill-rule="evenodd" clip-rule="evenodd" d="M10.575 92.002h107.341V128H10.576V92.002Z" fill="#fff"/></mask><g mask="url(#b)"><path fill-rule="evenodd" clip-rule="evenodd" d="M98.043 92.002H10.575c10.384 21.288 32.14 36 57.424 36 20.2 0 38.188-9.384 49.92-24a60.788 60.788 0 0 0-6.224-6.648 20.118 20.118 0 0 0-13.652-5.352" fill="#00BFB3"/></g></svg>