<svg width="128" height="128" fill="none" xmlns="http://www.w3.org/2000/svg"><mask id="a" style="mask-type:alpha" maskUnits="userSpaceOnUse" x="8" y="1" width="110" height="126"><path d="M65.934 1.959a6.007 6.007 0 0 0-5.944 0L10.917 30.294C9.049 31.345 8 33.322 8 35.425v56.776c0 2.098 1.164 4.081 2.918 5.13l49.077 28.325a6.004 6.004 0 0 0 5.95 0l49.077-28.325c1.863-1.049 2.917-3.032 2.917-5.13V35.415c0-2.099-1.169-4.082-2.917-5.13L65.939 1.958h-.005Z" fill="#fff"/></mask><g mask="url(#a)"><path d="M65.934 1.959a6.007 6.007 0 0 0-5.944 0L10.917 30.295C9.049 31.344 8 33.322 8 35.425v56.776c0 2.098 1.164 4.081 2.918 5.13l49.077 28.326a6.014 6.014 0 0 0 5.95 0l49.077-28.326c1.863-1.049 2.917-3.032 2.917-5.13V35.415c0-2.099-1.169-4.082-2.917-5.13L65.939 1.958h-.005Z" fill="url(#b)"/><path d="M115.131 30.284 65.825 1.96a8.093 8.093 0 0 0-1.514-.585L9.039 96.037a6.166 6.166 0 0 0 1.633 1.399l49.312 28.33c1.399.82 3.033 1.049 4.546.585l51.885-94.903a6.106 6.106 0 0 0-1.284-1.164Z" fill="url(#c)"/><path fill-rule="evenodd" clip-rule="evenodd" d="M115.251 97.326c1.394-.82 2.443-2.218 2.913-3.732L64.071 1.264c-1.399-.234-2.918-.12-4.196.695L10.912 30.175l52.81 96.296a8.213 8.213 0 0 0 2.212-.7l49.312-28.445h.005Z" fill="url(#d)"/><path fill-rule="evenodd" clip-rule="evenodd" d="m115.251 97.326-49.197 28.33a7.037 7.037 0 0 1-2.213.7l.93 1.748 54.557-31.592v-.7l-1.399-2.332c-.23 1.633-1.279 3.027-2.683 3.846h.005Z" fill="url(#e)"/><path fill-rule="evenodd" clip-rule="evenodd" d="m115.251 97.326-49.197 28.33a7.037 7.037 0 0 1-2.213.7l.93 1.748 54.557-31.592v-.7l-1.399-2.332c-.23 1.633-1.279 3.027-2.683 3.846h.005Z" fill="url(#f)"/></g><defs><linearGradient id="b" x1="82.96" y1="23.081" x2="29.164" y2="107.608" gradientUnits="userSpaceOnUse"><stop stop-color="#41873F"/><stop offset=".329" stop-color="#418B3D"/><stop offset=".635" stop-color="#419637"/><stop offset=".932" stop-color="#3FA92D"/><stop offset="1" stop-color="#3FAE2A"/></linearGradient><linearGradient id="c" x1="55.511" y1="70.452" x2="190.242" y2="-2.744" gradientUnits="userSpaceOnUse"><stop offset=".138" stop-color="#41873F"/><stop offset=".403" stop-color="#54A044"/><stop offset=".714" stop-color="#66B848"/><stop offset=".908" stop-color="#6CC04A"/></linearGradient><linearGradient id="d" x1="6.204" y1="63.808" x2="119.771" y2="63.808" gradientUnits="userSpaceOnUse"><stop offset=".092" stop-color="#6CC04A"/><stop offset=".286" stop-color="#66B848"/><stop offset=".597" stop-color="#54A044"/><stop offset=".862" stop-color="#41873F"/></linearGradient><linearGradient id="e" x1="6.204" y1="110.886" x2="119.771" y2="110.886" gradientUnits="userSpaceOnUse"><stop offset=".092" stop-color="#6CC04A"/><stop offset=".286" stop-color="#66B848"/><stop offset=".597" stop-color="#54A044"/><stop offset=".862" stop-color="#41873F"/></linearGradient><linearGradient id="f" x1="136.317" y1="20.399" x2="107.542" y2="171.158" gradientUnits="userSpaceOnUse"><stop stop-color="#41873F"/><stop offset=".329" stop-color="#418B3D"/><stop offset=".635" stop-color="#419637"/><stop offset=".932" stop-color="#3FA92D"/><stop offset="1" stop-color="#3FAE2A"/></linearGradient></defs></svg>