<svg width="128" height="128" fill="none" xmlns="http://www.w3.org/2000/svg"><path d="M1.8 63.72c0 18.07 27.848 32.72 62.2 32.72 34.352 0 62.2-14.65 62.2-32.72S98.351 31 64 31C29.648 31 1.8 45.65 1.8 63.72Z" fill="url(#a)"/><path d="M64 94.01c33.01 0 59.77-13.562 59.77-30.29 0-16.73-26.76-30.291-59.77-30.291-33.01 0-59.77 13.562-59.77 30.29 0 16.73 26.76 30.29 59.77 30.29Z" fill="#777BB3"/><path d="M35.594 67.475c2.714 0 4.74-.5 6.022-1.487 1.269-.977 2.145-2.669 2.604-5.03.428-2.205.265-3.746-.485-4.577-.766-.849-2.423-1.28-4.925-1.28h-4.338l-2.404 12.374h3.526ZM21.406 82.717a.674.674 0 0 1-.662-.804l6.373-32.79a.675.675 0 0 1 .662-.546h13.736c4.317 0 7.53 1.172 9.55 3.485 2.03 2.324 2.657 5.573 1.863 9.656-.323 1.663-.88 3.208-1.652 4.59a15.374 15.374 0 0 1-3.04 3.81c-1.488 1.393-3.172 2.403-5.002 2.997-1.8.587-4.113.884-6.872.884H30.8l-1.588 8.172a.675.675 0 0 1-.663.546h-7.143Z" fill="#000"/><path d="M35.029 55.776h3.781c3.02 0 4.068.663 4.425 1.058.59.655.703 2.037.322 3.997-.427 2.193-1.218 3.748-2.352 4.622-1.162.894-3.05 1.347-5.611 1.347h-2.708l2.143-11.024Zm6.486-7.874H27.779a1.35 1.35 0 0 0-1.325 1.093l-6.373 32.79a1.35 1.35 0 0 0 1.325 1.607h7.143a1.35 1.35 0 0 0 1.325-1.093l1.482-7.625h5.006c2.83 0 5.213-.309 7.082-.917 1.921-.625 3.689-1.683 5.254-3.146a16.05 16.05 0 0 0 3.167-3.973c.808-1.446 1.389-3.058 1.725-4.792.836-4.298.157-7.74-2.018-10.228-2.153-2.466-5.537-3.716-10.057-3.716ZM31.249 68.15h4.345c2.88 0 5.025-.543 6.434-1.628 1.41-1.085 2.36-2.896 2.855-5.434.472-2.437.257-4.157-.646-5.159-.905-1.002-2.713-1.503-5.427-1.503h-4.894L31.25 68.15Zm10.266-18.898c4.132 0 7.146 1.084 9.041 3.253 1.895 2.17 2.465 5.197 1.71 9.084-.312 1.6-.838 3.065-1.579 4.39-.742 1.328-1.71 2.541-2.907 3.642-1.426 1.335-3.01 2.286-4.754 2.852-1.744.568-3.965.851-6.664.851h-6.119l-1.694 8.718h-7.143l6.373-32.79h13.736Z" fill="#fff"/><path d="M69.305 73.999a.674.674 0 0 1-.662-.804l2.819-14.508c.268-1.38.202-2.37-.186-2.788-.238-.256-.951-.685-3.061-.685h-5.108l-3.544 18.239a.675.675 0 0 1-.663.546h-7.086a.675.675 0 0 1-.663-.804l6.373-32.79a.675.675 0 0 1 .663-.545h7.086a.675.675 0 0 1 .663.803l-1.538 7.914h5.494c4.186 0 7.024.738 8.677 2.256 1.685 1.549 2.21 4.025 1.563 7.361l-2.965 15.259a.675.675 0 0 1-.663.546h-7.199Z" fill="#000"/><path d="M65.273 39.185h-7.086a1.35 1.35 0 0 0-1.325 1.092l-6.373 32.79a1.35 1.35 0 0 0 1.325 1.607H58.9a1.35 1.35 0 0 0 1.325-1.092l3.439-17.693h4.55c2.107 0 2.55.45 2.567.469.128.138.296.774.018 2.2L67.98 73.067a1.35 1.35 0 0 0 1.325 1.607h7.2a1.35 1.35 0 0 0 1.325-1.092l2.964-15.26c.696-3.58.1-6.268-1.768-7.986-1.784-1.638-4.771-2.434-9.134-2.434h-4.675l1.382-7.11a1.35 1.35 0 0 0-1.326-1.607Zm0 1.35-1.694 8.717h6.313c3.973 0 6.713.693 8.22 2.078 1.509 1.386 1.96 3.632 1.358 6.736l-2.966 15.258h-7.199l2.82-14.508c.32-1.65.202-2.776-.355-3.376-.557-.6-1.742-.901-3.555-.901H62.55L58.9 73.324h-7.087l6.373-32.79h7.086Z" fill="#fff"/><path d="M91.344 67.475c2.715 0 4.741-.5 6.023-1.487 1.269-.977 2.145-2.669 2.604-5.03.428-2.205.265-3.746-.485-4.577-.766-.849-2.423-1.28-4.925-1.28h-4.338L87.82 67.475h3.525ZM77.157 82.717a.674.674 0 0 1-.662-.804l6.373-32.79a.675.675 0 0 1 .663-.546h13.735c4.317 0 7.53 1.172 9.549 3.485 2.031 2.324 2.657 5.572 1.864 9.656-.324 1.663-.879 3.208-1.652 4.59a15.368 15.368 0 0 1-3.04 3.81c-1.488 1.393-3.173 2.403-5.002 2.997-1.8.587-4.113.884-6.872.884H86.55l-1.588 8.172a.675.675 0 0 1-.663.546h-7.143Z" fill="#000"/><path d="M90.78 55.776h3.782c3.02 0 4.068.663 4.424 1.058.592.655.703 2.037.323 3.997-.427 2.193-1.218 3.748-2.352 4.622-1.162.894-3.05 1.347-5.611 1.347h-2.708l2.143-11.024Zm6.487-7.874H83.53a1.35 1.35 0 0 0-1.325 1.093l-6.373 32.79a1.35 1.35 0 0 0 1.325 1.607h7.143a1.35 1.35 0 0 0 1.325-1.093l1.482-7.625h5.005c2.831 0 5.214-.309 7.082-.917 1.922-.625 3.69-1.683 5.255-3.147a16.054 16.054 0 0 0 3.167-3.972c.808-1.446 1.388-3.058 1.725-4.792.836-4.298.157-7.74-2.018-10.229-2.153-2.465-5.537-3.715-10.057-3.715ZM87 68.15h4.344c2.88 0 5.025-.543 6.435-1.628 1.41-1.085 2.36-2.896 2.854-5.434.473-2.437.258-4.157-.646-5.159-.904-1.002-2.713-1.503-5.426-1.503h-4.894L87 68.15Zm10.266-18.898c4.132 0 7.146 1.084 9.041 3.253 1.895 2.17 2.465 5.197 1.709 9.084-.311 1.6-.837 3.065-1.578 4.39-.742 1.328-1.71 2.541-2.907 3.642-1.427 1.335-3.011 2.286-4.755 2.852-1.743.568-3.964.851-6.663.851h-6.119l-1.694 8.718h-7.143l6.373-32.79h13.736Z" fill="#fff"/><defs><radialGradient id="a" cx="0" cy="0" r="1" gradientUnits="userSpaceOnUse" gradientTransform="translate(39.145 42.503) scale(81.6777)"><stop stop-color="#AEB2D5"/><stop offset=".3" stop-color="#AEB2D5"/><stop offset=".75" stop-color="#484C89"/><stop offset="1" stop-color="#484C89"/></radialGradient></defs></svg>