<svg fill="none" height="100" width="100" xmlns="http://www.w3.org/2000/svg"><path d="m60.414 61.235 20.642-19.74C76.768 24.777 59.739 14.7 43.02 18.987a31.251 31.251 0 0 0-18.341 13.09c.32-.007 35.734 29.158 35.734 29.158z" fill="#0364b8"/><path d="M38.132 35.793v.004a24.876 24.876 0 0 0-13.133-3.728c-.107 0-.212.007-.32.008C10.88 32.248-.168 43.574.003 57.373a24.988 24.988 0 0 0 4.49 13.984l30.923-3.873 23.709-19.117z" fill="#0078d4"/><path d="M81.055 41.494a20.239 20.239 0 0 0-9.422 1.61v-.001l-12.509 5.264L72.914 65.4l24.653 5.992c5.32-9.876 1.626-22.195-8.25-27.515a20.313 20.313 0 0 0-8.261-2.383z" fill="#1490df"/><path d="M4.492 71.357a24.964 24.964 0 0 0 20.507 10.71h54.685a20.307 20.307 0 0 0 17.883-10.673L59.124 48.367z" fill="#28a8ea"/></svg>