<svg fill="none" height="100" width="100" xmlns="http://www.w3.org/2000/svg"><path d="M21.01 63.192c0 5.782-4.723 10.505-10.505 10.505C4.723 73.697 0 68.974 0 63.192c0-5.782 4.723-10.505 10.505-10.505H21.01zM26.303 63.192c0-5.782 4.723-10.505 10.505-10.505 5.782 0 10.505 4.723 10.505 10.505v26.303c0 5.782-4.723 10.505-10.505 10.505-5.782 0-10.505-4.723-10.505-10.505z" fill="#e01e5a"/><path d="M36.808 21.01c-5.782 0-10.505-4.723-10.505-10.505C26.303 4.723 31.026 0 36.808 0c5.782 0 10.505 4.723 10.505 10.505V21.01zM36.808 26.303c5.782 0 10.505 4.723 10.505 10.505 0 5.782-4.723 10.505-10.505 10.505H10.505C4.723 47.313 0 42.589 0 36.808c0-5.782 4.723-10.505 10.505-10.505z" fill="#36c5f0"/><path d="M78.99 36.808c0-5.782 4.723-10.505 10.505-10.505 5.782 0 10.505 4.723 10.505 10.505 0 5.782-4.723 10.505-10.505 10.505H78.99zM73.697 36.808c0 5.782-4.723 10.505-10.505 10.505-5.782 0-10.505-4.723-10.505-10.505V10.505C52.687 4.723 57.41 0 63.192 0c5.782 0 10.505 4.723 10.505 10.505z" fill="#2eb67d"/><g fill="#ecb22e"><path d="M63.192 78.99c5.782 0 10.505 4.723 10.505 10.505S68.974 100 63.192 100c-5.782 0-10.505-4.723-10.505-10.505V78.99zM63.192 73.697c-5.782 0-10.505-4.723-10.505-10.505 0-5.782 4.723-10.505 10.505-10.505h26.303c5.782 0 10.505 4.723 10.505 10.505 0 5.782-4.723 10.505-10.505 10.505z"/></g></svg>