<svg xmlns="http://www.w3.org/2000/svg" viewBox="0 0 78.937 76.088" style="enable-background:new 0 0 78.937 76.088" xml:space="preserve"><path d="M14.925 56.097H0c.024-23.678 6.285-38.715 6.285-38.715-1.998 25.476 8.64 38.715 8.64 38.715zM75.204 0S27.815 18.717 19.031 56.097h39.892S30.274 48.593 75.204 0z" style="fill:#0088ce"/><path d="M27.849 66.221v2.253h.037c.299-.782.76-1.384 1.387-1.806.626-.421 1.375-.614 2.243-.577v.982c-1.299 0-2.262.813-2.579 1.123-.317.31-.561.678-.735 1.107a3.699 3.699 0 0 0-.261 1.405v5.12h-1.173v-9.606h1.081zm-6.932 0v9.606h1.173v-5.12c0-.508.086-.976.261-1.405.173-.429.419-.797.735-1.107.317-.31 1.28-1.123 2.578-1.123v-.982c-.869-.037-1.617.156-2.243.577-.626.422-1.089 1.024-1.387 1.806h-.037V66.22h-1.08zm25.081 1.323c.434.41.732.974.893 1.694h1.173c-.138-1.105-.562-1.929-1.276-2.475s-1.585-.82-2.615-.82c-.732 0-1.38.137-1.945.41a4.221 4.221 0 0 0-1.423 1.098c-.386.46-.677.996-.875 1.61a6.37 6.37 0 0 0-.298 1.965c0 .694.1 1.349.298 1.964.198.614.489 1.15.875 1.61.384.459.859.822 1.423 1.089.565.267 1.213.4 1.945.4 1.092 0 1.986-.326 2.681-.977.695-.652 1.123-1.561 1.284-2.727h-1.172a3.177 3.177 0 0 1-.298 1.098 3.053 3.053 0 0 1-.614.866 2.775 2.775 0 0 1-.856.568 2.61 2.61 0 0 1-1.024.204c-.558 0-1.048-.118-1.471-.354a3.222 3.222 0 0 1-1.052-.93 4.241 4.241 0 0 1-.632-1.313 5.36 5.36 0 0 1 0-2.997c.143-.49.353-.928.632-1.312a3.26 3.26 0 0 1 1.052-.931c.423-.236.913-.354 1.471-.354.781-.001 1.39.204 1.824.614m10.753 8.283v-9.606h-1.173v5.045c0 .484-.056.958-.167 1.424a3.9 3.9 0 0 1-.521 1.237c-.236.36-.533.648-.893.865-.36.217-.794.326-1.303.326-.931 0-1.586-.223-1.963-.67-.38-.447-.581-1.105-.605-1.973v-6.254h-1.173v6.236c0 .571.062 1.08.186 1.527.125.447.32.825.586 1.135.267.31.615.55 1.043.717.427.167.945.251 1.554.251.72 0 1.374-.17 1.964-.512a3.324 3.324 0 0 0 1.349-1.48h.038v1.731h1.078zm9.788 0v-13.29h-1.172v5.509h-.038a2.802 2.802 0 0 0-.53-.911 3.374 3.374 0 0 0-.792-.661 3.515 3.515 0 0 0-.958-.4 4.295 4.295 0 0 0-1.052-.131c-.731 0-1.368.137-1.908.41a3.935 3.935 0 0 0-1.349 1.107 4.685 4.685 0 0 0-.8 1.619 7.074 7.074 0 0 0-.261 1.946c0 .682.086 1.331.261 1.946.173.614.439 1.153.8 1.619.36.465.811.831 1.349 1.098.539.267 1.177.4 1.908.4a3.85 3.85 0 0 0 1.052-.149c.353-.099.685-.238.995-.418.31-.179.587-.4.828-.661.242-.26.425-.547.549-.857h.038v1.825h1.08zm-7.51-3.322a6.307 6.307 0 0 1 0-2.96c.118-.49.303-.928.558-1.313.254-.384.58-.697.977-.939s.875-.363 1.433-.363c.62 0 1.145.122 1.574.363.428.242.775.556 1.042.939.266.385.46.823.576 1.313.118.491.178.983.178 1.479 0 .497-.06.99-.178 1.481a3.83 3.83 0 0 1-.576 1.311 3.107 3.107 0 0 1-1.042.94c-.428.242-.953.363-1.574.363-.557 0-1.035-.122-1.433-.363s-.723-.555-.977-.94a4.068 4.068 0 0 1-.558-1.311m-20.682-4.9c.211.403.317.928.317 1.573l-.002 6.65h-1.115v-1.675a8.16 8.16 0 0 1-.642.828c-.217.242-.46.444-.727.605a3.354 3.354 0 0 1-.912.372c-.342.088-.747.13-1.219.13a4.8 4.8 0 0 1-1.257-.158 2.792 2.792 0 0 1-1.023-.503 2.377 2.377 0 0 1-.689-.875c-.168-.353-.252-.772-.252-1.256 0-.67.149-1.195.447-1.573a2.815 2.815 0 0 1 1.183-.864 6.689 6.689 0 0 1 1.656-.419c.614-.08 1.237-.158 1.871-.233a7.03 7.03 0 0 0 .651-.092 1.17 1.17 0 0 0 .466-.195.922.922 0 0 0 .289-.382c.067-.161.103-.372.103-.633 0-.396-.066-.578-.195-.833a1.55 1.55 0 0 0-.54-.604 2.178 2.178 0 0 0-.801-.308 5.484 5.484 0 0 0-.976-.084h-2.113v-.983h2.331c.399.005.798.042 1.196.118.422.081.8.233 1.136.456.334.221.606.535.817.938m-.856 2.973h-.038c-.075.137-.217.236-.428.298a4.09 4.09 0 0 1-.558.13c-.497.087-1.008.165-1.535.233a8.34 8.34 0 0 0-1.443.306c-.434.137-.791.333-1.071.587-.279.255-.418.619-.418 1.089 0 .298.058.562.176.792.117.23.276.427.474.595.198.168.429.295.689.382.262.087.528.13.801.13a4.03 4.03 0 0 0 1.285-.204c.41-.136.766-.335 1.071-.595.303-.261.546-.577.726-.95.179-.372.27-.794.27-1.266v-1.527zm-18.626-2.973c.211.403.317.928.317 1.573l-.002 6.65h-1.115v-1.675a8.02 8.02 0 0 1-.642.828 3.16 3.16 0 0 1-.727.605 3.34 3.34 0 0 1-.912.372c-.34.088-.746.13-1.219.13-.446 0-.865-.052-1.256-.158a2.788 2.788 0 0 1-1.024-.503 2.396 2.396 0 0 1-.688-.875c-.168-.353-.252-.772-.252-1.256 0-.67.15-1.195.447-1.573a2.818 2.818 0 0 1 1.182-.864 6.677 6.677 0 0 1 1.656-.419c.615-.08 1.238-.158 1.872-.233.249-.024.466-.056.652-.092.186-.038.34-.103.465-.195a.916.916 0 0 0 .29-.382c.067-.161.102-.372.102-.633 0-.396-.065-.578-.195-.833a1.544 1.544 0 0 0-.541-.604 2.182 2.182 0 0 0-.799-.308 5.507 5.507 0 0 0-.978-.084h-2.112v-.983h2.331c.399.005.797.042 1.196.118.422.081.8.233 1.135.456.334.221.606.535.817.938m-.856 2.973h-.037c-.075.137-.218.236-.428.298a4.09 4.09 0 0 1-.558.13 34.55 34.55 0 0 1-1.536.233 8.308 8.308 0 0 0-1.442.306c-.436.137-.792.333-1.072.587-.279.254-.419.618-.419 1.089 0 .298.059.562.177.792.118.23.276.427.474.595.198.168.429.295.689.382.262.087.528.13.801.13a4.02 4.02 0 0 0 1.285-.204 3.178 3.178 0 0 0 1.071-.595c.304-.261.546-.577.725-.95a2.87 2.87 0 0 0 .271-1.266v-1.527zm56.89-2.973c.211.403.317.928.317 1.572l-.002 6.651H74.1v-1.676a7.913 7.913 0 0 1-.642.828 3.16 3.16 0 0 1-1.639.977c-.341.087-.747.13-1.219.13a4.78 4.78 0 0 1-1.256-.158 2.776 2.776 0 0 1-1.023-.503 2.388 2.388 0 0 1-.689-.875c-.167-.353-.251-.772-.251-1.256 0-.67.149-1.195.447-1.573a2.8 2.8 0 0 1 1.183-.864 6.721 6.721 0 0 1 1.656-.42 147.11 147.11 0 0 1 1.871-.233c.247-.024.466-.056.651-.093.186-.037.341-.102.465-.195a.906.906 0 0 0 .289-.382c.069-.161.103-.372.103-.633 0-.396-.066-.578-.196-.833a1.549 1.549 0 0 0-.539-.605 2.175 2.175 0 0 0-.8-.307 5.417 5.417 0 0 0-.977-.085h-2.113v-.982h2.331c.4.004.798.042 1.197.118.422.081.8.233 1.136.456.33.223.603.537.814.941m-.856 2.973h-.037c-.075.137-.217.236-.428.299a4.384 4.384 0 0 1-.559.13c-.497.087-1.009.164-1.535.232a8.39 8.39 0 0 0-1.444.307c-.434.138-.791.333-1.07.588-.278.254-.418.617-.418 1.088 0 .297.058.561.177.791.117.229.276.427.473.595.199.169.429.296.689.382.261.087.528.13.8.13.447 0 .875-.068 1.284-.204.41-.136.766-.336 1.07-.596.304-.261.546-.577.726-.949.18-.372.27-.794.27-1.266v-1.527zM0 62.142v13.686h5.789c.741 0 1.377-.067 1.907-.201s.978-.306 1.342-.517c.364-.211.655-.457.872-.738a3.563 3.563 0 0 0 .728-1.697c.038-.275.057-.52.057-.738 0-.894-.262-1.645-.786-2.252-.524-.607-1.227-.968-2.109-1.082v-.039c.358-.076.681-.211.968-.402a3.123 3.123 0 0 0 1.236-1.619c.115-.338.173-.687.173-1.045 0-.639-.122-1.172-.365-1.6a2.942 2.942 0 0 0-.968-1.035 4.008 4.008 0 0 0-1.399-.556 8.288 8.288 0 0 0-1.658-.163H0zm1.304 6v-4.888h4.485c2.057 0 3.086.856 3.086 2.569 0 .319-.064.62-.192.9-.128.282-.32.527-.575.738-.256.21-.575.377-.958.498-.384.121-.837.182-1.361.182H1.304zm0 6.574v-5.462h4.485c1.163 0 2.054.22 2.674.661.62.44.93 1.102.93 1.984 0 .55-.096 1.006-.287 1.371a2.3 2.3 0 0 1-.786.872 3.149 3.149 0 0 1-1.15.45 7.354 7.354 0 0 1-1.38.125H1.304zm76.167.655h-.227v-1.383h.525c.167 0 .293.031.378.094.085.062.127.164.127.304 0 .125-.035.216-.104.274a.475.475 0 0 1-.257.104l.388.608h-.257l-.358-.591h-.214v.59zm.254-.785c.042 0 .083-.002.122-.005a.264.264 0 0 0 .102-.028.19.19 0 0 0 .07-.065.218.218 0 0 0 .027-.119.158.158 0 0 0-.028-.1.183.183 0 0 0-.072-.057.294.294 0 0 0-.097-.025 1.243 1.243 0 0 0-.103-.005h-.274v.404h.253zm-.005 1.293a1.218 1.218 0 0 1-1.217-1.217c0-.671.546-1.217 1.217-1.217s1.217.546 1.217 1.217-.546 1.217-1.217 1.217zm0-2.296a1.08 1.08 0 0 0 0 2.156 1.078 1.078 0 0 0 0-2.156z" style="fill:#000006"/></svg>