<svg xmlns="http://www.w3.org/2000/svg" viewBox="-12.06 13.62 35.251 35.399" xml:space="preserve" width="35.251" height="35.399"><defs><filter height="71.5" width="56.2" y="41.4" x="555.7" filterUnits="userSpaceOnUse" id="a"><feColorMatrix values="1 0 0 0 0 0 1 0 0 0 0 0 1 0 0 0 0 0 1 0"/></filter></defs><g stroke-width=".166"><path d="M9.224 24.2a15.473 15.473 0 0 1-3.672.41c-1.265 0-2.497-.146-3.673-.41a16.215 16.215 0 0 1 3.673-4.083A16.215 16.215 0 0 1 9.224 24.2zM20.3 15.21a16.634 16.634 0 0 0-4.643-.588c-3.584 0-7.11 1.057-10.105 3.056a17.932 17.932 0 0 0-10.108-3.056c-1.615 0-3.171.205-4.64.588-.617.147-1.235.354-1.823.588-.028.028-.058.058-.028.088.265.558.557 1.116.85 1.645.032.029.06.029.088.029a16.369 16.369 0 0 1 5.553-.969c3.085 0 5.964.85 8.432 2.35A18.2 18.2 0 0 0-.06 23.61a18.086 18.086 0 0 0-2.527 9.226A18.185 18.185 0 0 0 3.055 46c.264.264.558.528.85.762.235.207.47.384.706.56.294.235.616.47.939.676.03.028.06.028.088 0 .324-.206.618-.443.94-.677.236-.177.472-.352.707-.558.294-.235.586-.499.85-.763a18.159 18.159 0 0 0 5.613-13.162c0-2.585-.56-5.142-1.616-7.492-.117-.235-.236-.499-.353-.734a11.67 11.67 0 0 0-.588-1.027 18.805 18.805 0 0 0-3.936-4.673 16.44 16.44 0 0 1 8.432-2.35c1.88 0 3.79.324 5.551.97.03 0 .06 0 .089-.03.324-.53.588-1.087.852-1.615.03-.03 0-.088-.029-.088a14.977 14.977 0 0 0-1.85-.588z" fill="#151f34"/><path d="M11.72 32.866A16.156 16.156 0 0 1 7.286 44.03a16.225 16.225 0 0 1-.735-4.876 16.16 16.16 0 0 1 4.436-11.165 16.57 16.57 0 0 1 .735 4.877" fill="#348540"/><path d="M4.581 39.124c0 1.703-.265 3.35-.735 4.876A16.29 16.29 0 0 1-.589 32.837c0-1.705.265-3.35.765-4.876A16.399 16.399 0 0 1 4.58 39.124" fill="#7dbc42"/></g></svg>