<svg width="236" height="54" xmlns="http://www.w3.org/2000/svg"><g fill-rule="nonzero" fill="none"><path d="M145.77 24.922v-1.8h-2.247V20.31l-.08.02-2.107.646-.04.01v2.138h-3.33V21.93c0-.557.119-.975.367-1.253.239-.279.587-.418 1.024-.418.318 0 .647.08.975.219l.08.04v-1.9l-.04-.01c-.309-.108-.726-.168-1.243-.168-.657 0-1.253.14-1.77.427a3.006 3.006 0 0 0-1.213 1.203c-.288.517-.427 1.104-.427 1.76v1.293h-1.551v1.809h1.56v7.616h2.247v-7.616h3.33v4.842c0 1.988.945 3.002 2.795 3.002.308 0 .626-.04.954-.11.338-.069.557-.138.696-.218l.03-.02v-1.82l-.09.06c-.119.08-.278.15-.447.2-.179.049-.328.079-.447.079-.438 0-.756-.12-.955-.348-.199-.229-.308-.636-.308-1.213v-4.444l2.237-.02Zm-16.613 6.015c-.815 0-1.452-.269-1.909-.805-.457-.537-.686-1.293-.686-2.267 0-.994.229-1.78.686-2.327.457-.536 1.094-.815 1.889-.815.775 0 1.402.259 1.84.776.447.517.675 1.292.675 2.306 0 1.024-.209 1.81-.636 2.337-.408.526-1.034.795-1.86.795m.1-8.043c-1.55 0-2.783.457-3.668 1.352-.875.895-1.323 2.138-1.323 3.698 0 1.472.438 2.665 1.293 3.53.855.865 2.028 1.302 3.47 1.302 1.5 0 2.714-.457 3.599-1.372.874-.905 1.322-2.137 1.322-3.658 0-1.502-.418-2.695-1.243-3.55-.825-.865-1.978-1.302-3.45-1.302m-8.61 0c-1.053 0-1.928.268-2.594.805-.676.537-1.014 1.243-1.014 2.088 0 .437.07.835.218 1.173.15.338.368.626.666.875.299.249.756.497 1.363.766.507.208.894.387 1.133.526.238.14.408.279.497.408.09.13.14.308.14.537 0 .636-.478.944-1.452.944-.358 0-.776-.08-1.223-.228a4.512 4.512 0 0 1-1.253-.636l-.09-.07v2.157l.03.02c.319.15.716.269 1.193.368.468.1.895.15 1.273.15 1.143 0 2.068-.27 2.744-.806.676-.537 1.024-1.263 1.024-2.138 0-.636-.189-1.183-.547-1.62-.358-.438-.994-.835-1.869-1.193-.696-.279-1.143-.517-1.332-.696-.179-.17-.268-.418-.268-.726 0-.278.109-.497.338-.676.228-.179.556-.268.954-.268.378 0 .756.06 1.133.179.378.119.716.268.995.457l.089.06v-2.048l-.04-.02a4.603 4.603 0 0 0-1.004-.279 6.664 6.664 0 0 0-1.103-.11m-9.455 8.044c-.815 0-1.452-.269-1.91-.805-.456-.537-.685-1.293-.685-2.267 0-.994.229-1.78.686-2.327.447-.536 1.084-.815 1.889-.815.775 0 1.402.259 1.84.776.447.517.675 1.292.675 2.306 0 1.024-.209 1.81-.636 2.337-.418.526-1.044.795-1.86.795m.1-8.043c-1.55 0-2.784.457-3.668 1.352-.875.895-1.323 2.138-1.323 3.698 0 1.472.438 2.665 1.293 3.53.855.865 2.028 1.302 3.47 1.302 1.5 0 2.714-.457 3.599-1.372.874-.905 1.322-2.137 1.322-3.658 0-1.502-.418-2.695-1.243-3.55-.825-.865-1.988-1.302-3.45-1.302m-8.4 1.859v-1.63h-2.218v9.425h2.217v-4.822c0-.816.19-1.492.557-1.999.358-.507.845-.755 1.432-.755.198 0 .427.03.666.1.238.069.417.138.517.208l.09.07v-2.237l-.04-.02c-.21-.09-.498-.13-.866-.13a2.29 2.29 0 0 0-1.48.527c-.379.309-.647.736-.856 1.263h-.02Zm-6.185-1.86c-1.014 0-1.918.22-2.694.647a4.326 4.326 0 0 0-1.78 1.83c-.407.775-.606 1.69-.606 2.704 0 .894.199 1.71.597 2.425a4.219 4.219 0 0 0 1.66 1.68c.706.388 1.521.587 2.426.587 1.054 0 1.948-.209 2.674-.626l.03-.02v-2.028l-.09.07a4.329 4.329 0 0 1-1.083.566 3.19 3.19 0 0 1-1.064.209c-.865 0-1.57-.269-2.078-.805-.507-.537-.765-1.293-.765-2.237 0-.955.268-1.73.795-2.297.527-.567 1.223-.855 2.078-.855.726 0 1.441.249 2.107.736l.09.07V23.41l-.03-.02c-.248-.14-.596-.258-1.024-.348a4.989 4.989 0 0 0-1.243-.15m-6.611.23h-2.217v9.425h2.217v-9.425Zm-1.084-4.017c-.368 0-.686.12-.944.368a1.24 1.24 0 0 0-.398.924c0 .358.13.667.388.905.258.239.577.358.944.358.368 0 .696-.12.955-.358.258-.238.397-.547.397-.905 0-.357-.129-.666-.387-.914a1.296 1.296 0 0 0-.955-.378m-5.527 3.32v10.122h2.266V19.394H82.62l-3.977 9.763-3.858-9.763h-3.26v13.144h2.127V22.427h.07l4.076 10.12h1.6l4.007-10.12h.08Z" fill="#716E6F"/><path fill="#F05423" d="M53.43 25.43H43V15h10.43z"/><path fill="#84C441" d="M64.942 25.43h-10.43V15h10.43z"/><path fill="#2DABE2" d="M53.43 36.942H43v-10.43h10.43z"/><path fill="#F9BC15" d="M64.942 36.942h-10.43v-10.43h10.43z"/><path d="M157.136 35.136V16H156v19.136h1.136Zm11.682-3.59c.754 0 1.426-.144 2.017-.432a3.525 3.525 0 0 0 1.4-1.185c.344-.502.515-1.07.515-1.702 0-.738-.206-1.359-.62-1.86-.412-.502-.986-.814-1.72-.935v-.091c.586-.178 1.051-.498 1.394-.96.343-.462.514-1.021.514-1.676 0-.55-.138-1.061-.415-1.535a3.1 3.1 0 0 0-1.187-1.144c-.515-.29-1.133-.435-1.852-.435a4.35 4.35 0 0 0-1.844.386 3.476 3.476 0 0 0-1.355 1.077c-.345.46-.529.995-.551 1.605h1.363c.02-.386.14-.717.364-.991.223-.275.512-.485.866-.631a2.948 2.948 0 0 1 1.134-.219c.644 0 1.157.18 1.54.537.382.358.574.83.574 1.418 0 .613-.218 1.104-.654 1.471-.435.368-.998.551-1.687.551h-.932v1.25h.932c.882 0 1.561.203 2.037.608.475.406.713.93.713 1.574 0 .618-.242 1.117-.725 1.497-.483.381-1.097.571-1.844.571-.674 0-1.249-.162-1.724-.488-.475-.326-.734-.77-.776-1.33h-1.431c.03.61.216 1.145.56 1.605.342.46.806.82 1.391 1.077.586.258 1.253.386 2.003.386Zm10.114 0c.784.007 1.467-.164 2.048-.515a3.659 3.659 0 0 0 1.355-1.42 4.09 4.09 0 0 0 .483-1.975c0-.75-.166-1.415-.5-1.997a3.722 3.722 0 0 0-1.33-1.37 3.492 3.492 0 0 0-1.829-.496c-.598 0-1.146.137-1.642.412a3.45 3.45 0 0 0-1.222 1.133h-.09c.003-1.428.264-2.535.78-3.32.518-.787 1.227-1.18 2.129-1.18.613 0 1.106.173 1.477.52.371.347.621.787.75 1.321h1.386c-.14-.917-.533-1.66-1.179-2.233-.646-.572-1.457-.858-2.434-.858-1.311 0-2.343.559-3.097 1.676-.754 1.118-1.13 2.71-1.13 4.779 0 1.075.119 1.968.357 2.679.239.71.555 1.272.95 1.687.393.415.829.71 1.306.884.477.174.955.265 1.432.272Zm0-1.25c-.485 0-.918-.124-1.298-.37-.381-.246-.68-.57-.898-.971a2.675 2.675 0 0 1 .02-2.594c.227-.4.534-.723.92-.969a2.37 2.37 0 0 1 1.301-.37c.478 0 .903.118 1.276.353s.667.55.88.946c.215.396.322.834.322 1.315 0 .493-.111.94-.333 1.341a2.59 2.59 0 0 1-.903.96c-.38.24-.81.358-1.287.358Zm9.75 1.25c.738 0 1.398-.168 1.977-.503a3.65 3.65 0 0 0 1.367-1.375c.331-.582.497-1.244.497-1.986 0-.754-.16-1.424-.48-2.012a3.62 3.62 0 0 0-1.319-1.389c-.558-.339-1.194-.508-1.906-.508-.39 0-.765.062-1.125.187s-.659.282-.898.472h-.068l.41-3.432H192v-1.25h-6.045l-.705 5.727 1.318.16c.243-.175.551-.318.926-.43.375-.111.74-.165 1.097-.162.496.004.937.122 1.324.353.386.23.69.546.912.946.221.4.332.853.332 1.36 0 .497-.107.94-.32 1.333-.215.392-.509.7-.882.923a2.434 2.434 0 0 1-1.275.335c-.595 0-1.105-.17-1.531-.514a1.857 1.857 0 0 1-.72-1.304h-1.363c.03.591.207 1.118.529 1.58.322.462.75.826 1.284 1.09.534.266 1.134.398 1.8.398Z" fill="#343741"/></g></svg>