<svg width="180" height="139" fill="none" xmlns="http://www.w3.org/2000/svg"><path d="M3.787 59.084h-.136a1.399 1.399 0 0 0-.173-.468c0-.093-.396-.147-.446-.08a.734.734 0 0 0-.136.574.324.324 0 0 0 .075.12 1.77 1.77 0 0 0-.617.548 1.946 1.946 0 0 0-.324.788c-.031.436.074.87.298 1.233.224.363.555.635.94.771.409.09.835.01 1.191-.226a1.77 1.77 0 0 0 .727-1.043 2.73 2.73 0 0 0-.413-1.32 2.458 2.458 0 0 0-.986-.897zM5.458 73.35c-.284-.374-1.237-.267-1.782.187-.162.2-.251.456-.251.722 0 .265.09.521.251.72.188.225.441.373.718.422.276.048.56-.006.804-.154a1.69 1.69 0 0 0 .413-.903 1.758 1.758 0 0 0-.153-.994zm3.75-22.335c-.235 0-.396.374-.445.548a.494.494 0 0 0 .076.258.441.441 0 0 0 .196.17c.161 0 .36-.228.446-.401.086-.174-.037-.508-.273-.575zm-3.762-2.498c-.124-.4-.557-.414-.953-.133a.52.52 0 0 0-.191.178.575.575 0 0 0-.05.527c.034.085.087.16.154.216.21.214.842.561 1.027.401.186-.16.1-.895.013-1.189zM8.218 68.26c-.136.08-.408.535-.247.695a.517.517 0 0 0 .594 0c.136-.133.384-.44.235-.6a.51.51 0 0 0-.582-.094zM6.51 94.363a1.068 1.068 0 0 0-.309.32 1.16 1.16 0 0 0-.16.428c0 .187.222.467.408.587.026.089.068.17.123.241.13.162.306.274.5.317a.844.844 0 0 0 .577-.077h.074c.36.107.57-.093.656-.52a1.362 1.362 0 0 0-.173-.321 1.11 1.11 0 0 0-.223-.708 2.516 2.516 0 0 0-1.473-.294v.027zM2.438 35.212a.805.805 0 0 0-.687.159.913.913 0 0 0-.24.288.987.987 0 0 0-.112.368c.012.262.11.512.274.704.165.193.388.317.63.352a.891.891 0 0 0 .611-.255 1.03 1.03 0 0 0 .304-.627.949.949 0 0 0-.028-.361.905.905 0 0 0-.16-.318.83.83 0 0 0-.266-.222.771.771 0 0 0-.326-.088zm3.032 65.536c-.853-.214-1.51 0-1.62.614a1.369 1.369 0 0 0 .103 1.029c.083.155.195.288.33.392.134.104.287.176.449.212.162.036.329.035.49-.004.161-.038.313-.113.446-.219s.244-.242.325-.397c.08-.155.13-.327.146-.505a1.147 1.147 0 0 0-.155-.685 1.014 1.014 0 0 0-.513-.437zm3.8-30.844a1.616 1.616 0 0 0-.173 1.59.87.87 0 0 0 .283.207.812.812 0 0 0 .672 0 .868.868 0 0 0 .283-.207.896.896 0 0 0 .205-.302.955.955 0 0 0 0-.732.896.896 0 0 0-.205-.302c-.36-.415-.792-.535-1.065-.254zM3.367 82.46a1.874 1.874 0 0 0-.445 1.092c-.03.408.07.814.284 1.153.194.192.448.299.711.299.264 0 .518-.107.712-.3a1.21 1.21 0 0 0 .33-.374 1.336 1.336 0 0 0 .122-1.001 1.275 1.275 0 0 0-.23-.454c-.395-.548-1.138-.748-1.484-.414zm3.799 55.264c.446.16.805 0 .83-.481v-.481c.241.208.526.35.829.414.47.134.891 0 .99-.507.117-.462.358-.876.693-1.189.173-.169.31-.376.405-.606a1.924 1.924 0 0 0 0-1.461 1.804 1.804 0 0 0-.405-.605 3.553 3.553 0 0 1-.346-.468c0-.721-.335-.961-.718-1.028-.384-.067-.693.24-.867.641-.173.401-.408.842-.581 1.336-.174.494-.434.962-.075 1.496a.846.846 0 0 1 0 .534 4.73 4.73 0 0 0-.148.855s-.062-.093-.124-.12c-.507-.16-.804.548-.99.828-.186.281.087.695.507.842zm-.074-5.838c.425-.19.766-.548.953-1.002a2.023 2.023 0 0 0 1.104-.49c.316-.275.552-.643.679-1.059a1.585 1.585 0 0 0-.161-1.167 1.42 1.42 0 0 0-.388-.434 1.307 1.307 0 0 0-.516-.229 1.386 1.386 0 0 0-1.263.02 1.512 1.512 0 0 0-.505.435 1.663 1.663 0 0 0-.287.627 1.874 1.874 0 0 0-.618.146c-.953.415-1.35 1.203-1.015 2.084.155.415.447.754.819.951a1.57 1.57 0 0 0 1.198.118zm-4.938-32.42c.062 0 0-.281 0-.348a.258.258 0 0 0-.297 0 .307.307 0 0 0-.073.2c0 .075.026.147.073.201a.254.254 0 0 0 .297-.053zm10.297 25.514a1.434 1.434 0 0 0-.035-.991 1.288 1.288 0 0 0-.658-.692 1.29 1.29 0 0 0-.599-.024 1.333 1.333 0 0 0-.552.251.884.884 0 0 0-.28-.363.79.79 0 0 0-.413-.158.76.76 0 0 1 .186-.08c.47-.107.928-.775.668-1.817-.26-1.042-1.485-1.456-1.956-.855-.47.601-.26 1.056-.52 1.096-.26.04-.829-.201-1.101.227-.272.427.507 1.75.718 1.883.21.134.891.201.78.735-.112.534-.582.975-.384 1.509.198.535.582 1.79 1.41 1.857.83.067.682-.721 1.016-1.095.113-.126.2-.278.254-.444a1.29 1.29 0 0 0 .055-.518c.128.099.27.176.421.227a.797.797 0 0 0 .639-.152.904.904 0 0 0 .23-.26.976.976 0 0 0 .121-.336zM1.102 17.366a.936.936 0 0 0-.63.078 1.04 1.04 0 0 0-.46.47v1.429c.237.252.548.408.88.44.606.107 1.076-.16 1.175-.667a2.084 2.084 0 0 0-.256-1.02 1.888 1.888 0 0 0-.71-.73zM.31 127.531a1.84 1.84 0 0 0-.02-.701 1.767 1.767 0 0 0-.278-.634v1.683a.892.892 0 0 0 .297-.348zM1.424 30.19a.821.821 0 0 0 .446-.34.933.933 0 0 0 .148-.569c-.112-.48-1.176-.668-1.362-.32-.186.347.31 1.322.768 1.229zM.074 59.938v3.38c.194.032.393.02.582-.036.19-.055.367-.152.52-.284.327-.306.539-.731.593-1.195a2.014 2.014 0 0 0-.296-1.317 1.678 1.678 0 0 0-.64-.45 1.569 1.569 0 0 0-.759-.098zM3.391 80.83c-.16 0-.383.188-.482.348-.1.16 0 .521.21.601.21.08.433-.32.495-.494a.485.485 0 0 0-.046-.264.439.439 0 0 0-.177-.19zM.074 85.974 0 85.894v1.856a.935.935 0 0 0 .557.433c.23.062.474.027.68-.099a2.01 2.01 0 0 0 .445-.939c.066-.35.04-.715-.073-1.051a1.074 1.074 0 0 0-.745-.397 1.05 1.05 0 0 0-.79.277zm3.59-17.059a.948.948 0 0 0-1.238-.093c-.285.307-.149.587 0 .841a.597.597 0 0 0 .19.216.542.542 0 0 0 .532.045.578.578 0 0 0 .219-.18c.21-.254.42-.562.297-.829zM.074 73.43v1.67c.545.24.768-.334 1.114-.748-.334-.588-.643-1.015-1.114-.922zm0 6.172v2.244a1.517 1.517 0 0 0 1.238-.2 1.703 1.703 0 0 0 .087-1.803 1.07 1.07 0 0 0-.624-.367 1.02 1.02 0 0 0-.7.126zm10.533-17.58a.869.869 0 0 0 .258.252.8.8 0 0 0 .677.08.827.827 0 0 0 .303-.185.684.684 0 0 0 .234-.213.776.776 0 0 0 .104-.635.736.736 0 0 0-.152-.287.856.856 0 0 0-.246-.275.76.76 0 0 0-.683-.11.802.802 0 0 0-.31.184.955.955 0 0 0-.293.558.998.998 0 0 0 .108.631zm-7.711 53.166c.365.251.805.338 1.228.243a1.66 1.66 0 0 0 1.037-.75 2.284 2.284 0 0 0-.012-1.378 2.105 2.105 0 0 0-.792-1.08 1.542 1.542 0 0 0-.73-.147.683.683 0 0 0-.404-.235.646.646 0 0 0-.45.088.5.5 0 0 0-.202.128.556.556 0 0 0-.127.212.593.593 0 0 0 .056.488l-.086.107a1.592 1.592 0 0 0-.27.61 1.656 1.656 0 0 0 0 .676c.045.223.137.431.267.611s.296.326.485.427zm.954-10.326c-.706-.254-1.065 0-1.3.855-.235.855 0 1.336.495 1.523.331.013.66-.066.955-.23a1.98 1.98 0 0 0 .728-.705 1.283 1.283 0 0 0-.152-.925 1.152 1.152 0 0 0-.314-.34 1.065 1.065 0 0 0-.413-.178zM3.453 78.24c-.198 0-.52.307-.557.454-.037.147 0 .507.235.574.236.067.446-.147.508-.294s.012-.668-.186-.734zM2.154 97.075c-.174.32.123 1.108.507 1.335a.607.607 0 0 0 .763-.145.709.709 0 0 0 .14-.255c.298-.695.298-1.243 0-1.43a1.324 1.324 0 0 0-.77.033c-.248.088-.47.247-.64.462zm11.844 26.422a.786.786 0 0 0 .296-.254.874.874 0 0 0 .15-.374c.229-.009.452-.073.655-.186.204-.113.381-.273.52-.468a.714.714 0 0 0 .37.339.65.65 0 0 0 .485-.005.89.89 0 0 0 .522-.433c.115-.212.15-.464.097-.703a.89.89 0 0 0-.181-.303.81.81 0 0 0-.279-.2.765.765 0 0 0-.654.022.65.65 0 0 0-.235.147 1.832 1.832 0 0 0-.397-.638 1.671 1.671 0 0 0-.606-.404.99.99 0 0 0-.776.151 1.132 1.132 0 0 0-.461.691.51.51 0 0 0 0 .133c-.247-.01-.493.04-.718.147-.632.281-1.04 1.002-.842 1.496.213.36.528.636.898.788.37.151.776.17 1.156.054zm-1.151-55.303c.124-.094 0-.574 0-.748a.46.46 0 0 0-.446-.08.733.733 0 0 0-.136.574c.013.134.471.347.582.254zm-.817 2.164v-.347a.247.247 0 0 0-.297 0 .27.27 0 0 0-.077.193.287.287 0 0 0 .077.194.255.255 0 0 0 .297-.04zm-.346-14.988c-.198.147-.148.802 0 .922.149.12.57.374.743.28a.9.9 0 0 0 .17-.387.935.935 0 0 0-.022-.428c-.124-.187-.705-.534-.891-.387zm-.606-15.482a.338.338 0 0 0-.234.054.382.382 0 0 0-.15.2.627.627 0 0 0 .061.305.573.573 0 0 0 .199.229c.111.067.569 0 .618-.267.05-.267-.358-.454-.494-.521zM.074 65.536v.895a.856.856 0 0 0 .31-.468.515.515 0 0 0-.31-.427zm.83 29.989c.198-.374.309-1.336-.458-1.536a2.108 2.108 0 0 1-.434.08v2.244c.369-.152.681-.428.892-.788zm11.164-10.152a.982.982 0 0 0-.657.25 1.127 1.127 0 0 0-.358.645.878.878 0 0 0 .096.386c.06.118.147.218.252.292a.718.718 0 0 0 .716.07c.21-.134.198-.775.235-1.19a.388.388 0 0 0-.045-.297.348.348 0 0 0-.104-.107.317.317 0 0 0-.135-.05zM.866 120.051c.718.441 0 .961 1.09 1.496.228.125.48.191.736.191s.508-.066.736-.191h.1c.618-.094.915-1.136.816-2.071a1.639 1.639 0 0 0-.374-.696 1.464 1.464 0 0 0-.64-.412.578.578 0 0 0-.093-.3.52.52 0 0 0-.23-.195c-1.237-.628-1.472.722-1.893.668a4.934 4.934 0 0 1-1.102-.601v2.485c.285-.281.458-.561.854-.374zm11.226-17.259a.796.796 0 0 0-.38-.046.816.816 0 0 0-.362.139c-.21.12-.47.147-.68.481a2.155 2.155 0 0 0-.198 1.67c.094.248.25.463.452.621.2.158.438.252.686.274a1.04 1.04 0 0 0 .58-.136 1.15 1.15 0 0 0 .435-.438 1.564 1.564 0 0 0 .173-1.336c-.235-.495-.347-1.096-.706-1.229zM1.708 132.033c.363-.217.645-.564.796-.981.151-.417.163-.878.033-1.303a1.486 1.486 0 0 0-.68-.855 1.31 1.31 0 0 0-1.04-.107 2.114 2.114 0 0 0-.805.588v2.244c.23.212.506.361.8.433.296.072.604.066.896-.019zm.409-111.368a.94.94 0 0 0 .2.37.85.85 0 0 0 .332.231c.21 0 .804-.066.879-.36.074-.294-.397-.708-.62-.828-.222-.12-.853.213-.791.587zM.743 9.164a.952.952 0 0 0-.73.133v1.51a.776.776 0 0 0 .346.2.965.965 0 0 0 .679-.228 1.11 1.11 0 0 0 .373-.653.906.906 0 0 0-.151-.63.784.784 0 0 0-.517-.332zM3.651.975A.598.598 0 0 0 3.978.82a.676.676 0 0 0 .193-.325.646.646 0 0 0-.095-.29A.586.586 0 0 0 3.862 0a.527.527 0 0 0-.264.084.581.581 0 0 0-.194.21c-.037.16 0 .681.247.681zM1.436 12.69c-.62-.107-1.238.28-1.35.788-.007.405.11.8.335 1.125.224.324.542.558.903.665.446.08.966-.44 1.04-1.055a1.324 1.324 0 0 0-.151-.984 1.186 1.186 0 0 0-.336-.358 1.088 1.088 0 0 0-.441-.18zm1.25-5.036c0 .414 0 .828.483.949.482.12 1.015-.575.94-.882-.074-.307-.408-.468-.705-.574a.485.485 0 0 0-.483.049.547.547 0 0 0-.17.198.596.596 0 0 0-.065.26zM5.508 91.05c-.054.293-.024.598.086.872.111.275.297.507.533.664.507.174 1.126-.374 1.324-1.162a.746.746 0 0 0-.048-.586.678.678 0 0 0-.19-.221.619.619 0 0 0-.257-.115c-.594-.214-1.324.067-1.448.548zm.037-4.448a.917.917 0 0 0-.247.265 1.022 1.022 0 0 0 .012 1.07c.044.102.11.191.192.26a.62.62 0 0 0 .589.127.65.65 0 0 0 .27-.16.828.828 0 0 0 .262-.22.905.905 0 0 0 .158-.315.948.948 0 0 0-.075-.696.862.862 0 0 0-.221-.267.791.791 0 0 0-.301-.15.757.757 0 0 0-.64.126v-.04zm-.099-24.179a1.024 1.024 0 0 0-.295.563c-.038.217-.008.442.085.64.198.267.742.187 1.114-.147a.503.503 0 0 0 .157-.168.55.55 0 0 0-.083-.66c-.273-.348-.594-.562-.978-.228zm-.211 17.072a1.108 1.108 0 0 0-.149 1.336c.173.187.403.3.647.317a.953.953 0 0 0 .678-.224.833.833 0 0 0 .193-.256.892.892 0 0 0-.094-.933.897.897 0 0 0-.249-.287.792.792 0 0 0-.701-.132.832.832 0 0 0-.325.179zm16.475 58.536a1.439 1.439 0 0 0-.397.2h2.575a.744.744 0 0 1 .148-.133c.532-.321.495-.775.198-1.269 1.238 0 1.919-.681 2.005-1.857.062-.935-.371-1.336-1.46-1.51a6.784 6.784 0 0 0-.78-1.335.931.931 0 0 0-.68-.303.93.93 0 0 0-.681.303c-.421.521-.768 1.095-1.164 1.669-.854 0-.903 0-1.002 1.042.173.348.94.254.656.949a6.508 6.508 0 0 0-1.151 0 1.07 1.07 0 0 0-.57.329 1.208 1.208 0 0 0-.297.619c-.148.481.223.708.458.962.23.221.516.361.821.402.305.041.615-.02.887-.175.09-.454.177-.935.26-1.443l.409.361c.569.561.52.962-.236 1.189zm8.168.2h1.733a1.677 1.677 0 0 0-.099-.267 1.5 1.5 0 0 0 .458-.601 1.333 1.333 0 0 0 .1-1.175 1.238 1.238 0 0 0-.341-.484 1.112 1.112 0 0 0-.514-.251 6.772 6.772 0 0 0-1.04-.147c.174-.401.223-.762.409-.909a1.11 1.11 0 0 0 .341-.318c.092-.131.158-.281.193-.441a1.265 1.265 0 0 0-.163-.937 1.887 1.887 0 0 1-.099-.588c-.099-.668-.396-1.028-.792-.962-.396.067-.767.602-.557 1.336 0 .067.111.12.124.201.086.387 0 .641-.433.601-.149 0-.297-.107-.446-.12a1.419 1.419 0 0 0-.86.255 1.604 1.604 0 0 0-.576.733 1.43 1.43 0 0 0-.122.945c.069.32.244.602.494.792.276.272.612.463.976.554.364.091.744.08 1.103-.033.097.364.225.717.384 1.055.038.072.084.139.136.2a.65.65 0 0 0-.276.22.727.727 0 0 0-.133.341z" fill="#98A2B3" fill-opacity=".15"/><path d="M30.497 134.558a.295.295 0 0 0 0 .334.25.25 0 0 0 .18.078.25.25 0 0 0 .179-.078.326.326 0 0 0 0-.374c-.111-.08-.322.04-.359.04zm8.231 3.486a.64.64 0 0 0-.248.187h.916a.857.857 0 0 0-.668-.187zm13.528-18.047a.956.956 0 0 0 .692.181.996.996 0 0 0 .632-.354c.176-.237.272-.532.272-.835 0-.304-.096-.598-.272-.835a1.45 1.45 0 0 0-.897-.316 1.45 1.45 0 0 0-.898.316c-.272.374-.024 1.349.47 1.843zM.433 136.762c.25-.17.452-.414.579-.702.127-.289.175-.611.14-.928-.112-.334-.644-.588-1.14-.641v2.298a.66.66 0 0 0 .421-.027zm15.063 1.469h2.005a1.391 1.391 0 0 0-.492-.294 1.317 1.317 0 0 0-.56-.066c.278-.041.546-.136.792-.281.174-.115.322-.27.433-.454a.632.632 0 0 0 .237.172c.09.037.187.051.283.042a.68.68 0 0 0 .28-.055.728.728 0 0 0 .24-.167.788.788 0 0 0 .163-.252.841.841 0 0 0 .06-.301 1.163 1.163 0 0 0-.066-.449 1.092 1.092 0 0 0-.231-.379.896.896 0 0 0-.421-.174 2.454 2.454 0 0 0-.111-1.336c-.384-.788-1.399-.561-1.535-.775-.136-.213.47-1.509 0-2.471a2.469 2.469 0 0 0-1.279-.888 2.303 2.303 0 0 0-1.518.087c-.424.206-.8.512-1.102.895-.224.2-.384.471-.458.774a1.685 1.685 0 0 0-.017.771c.054.254.167.49.327.686.09.225.23.422.408.574.631.494 1.807.441 1.956.735.148.294-.607 1.536 0 2.458.156.253.374.457.628.588.255.132.538.187.82.16-.167.024-.33.073-.483.147a1.07 1.07 0 0 0-.359.253zM.57 25.782a1.849 1.849 0 0 0-.16-.684 1.728 1.728 0 0 0-.398-.559v1.964a1 1 0 0 0 .356-.291 1.09 1.09 0 0 0 .201-.43zm.742 111.661c-.507-.147-.903.147-1.151.788h2.08a1.495 1.495 0 0 0-.384-.505 1.356 1.356 0 0 0-.545-.283zm5.372.788h.532a.73.73 0 0 0-.532 0zM8.441 4.769a.892.892 0 0 0-.571.18 1.012 1.012 0 0 0-.357.515c-.087.44.495.854.854 1.001.359.147 1.238-.213 1.238-.668 0-.454-.805-.975-1.164-1.028zm12.773 93.454a1.144 1.144 0 0 0-.377.607 1.23 1.23 0 0 0 .043.73c.077.1.175.18.286.231a.717.717 0 0 0 .694-.044.797.797 0 0 0 .258-.268c.111-.24-.26-.748-.446-1.109a.353.353 0 0 0-.201-.172.324.324 0 0 0-.257.025zm2.006 6.466a.916.916 0 0 0-.435.533c-.074.233-.06.487.038.709a1 1 0 0 0 .44.522c.2.113.43.145.65.093.383-.161.792-.949.655-1.336a1.253 1.253 0 0 0-.597-.493 1.153 1.153 0 0 0-.752-.028zm-3.788 5.824c-.16 0-.582-.12-.656.134-.074.253.223.507.334.521.112.013.433.093.532-.187a.379.379 0 0 0-.007-.285.343.343 0 0 0-.084-.115.306.306 0 0 0-.119-.068zm.52 16.431a1.26 1.26 0 0 0 .705-.596c.159-.287.211-.627.149-.954h.185c.326-.213.572-.541.699-.928a1.91 1.91 0 0 0-.006-1.196 1.806 1.806 0 0 0-.82-.876 1.617 1.617 0 0 0-1.147-.126 1.713 1.713 0 0 0-.766.6 1.917 1.917 0 0 0-.348.95 1.77 1.77 0 0 0-.752.871 1.95 1.95 0 0 0-.09 1.186c.074.229.19.44.342.619.152.179.336.323.54.423a1.552 1.552 0 0 0 1.308.027zm.235 6.024a2.29 2.29 0 0 0 .804-.876 2.51 2.51 0 0 0 .285-1.194c.252.061.514.035.752-.072a1.27 1.27 0 0 0 .573-.53 1.593 1.593 0 0 0-.018-.952 1.467 1.467 0 0 0-.552-.744c-.47-.214-1.077.24-1.374.975.08-.223.08-.471 0-.695a.937.937 0 0 0-.18-.3.841.841 0 0 0-.272-.202.794.794 0 0 0-.65-.005 1.053 1.053 0 0 0-.436.585 1.15 1.15 0 0 0 .028.751l.087.147a1.584 1.584 0 0 0-.78.843c-.154.376-.17.801-.048 1.19.123.389.377.715.71.912a1.43 1.43 0 0 0 1.096.154l-.025.013zm.42-3.219zm.186-15.001a.617.617 0 0 0 .258-.106.663.663 0 0 0 .191-.213.724.724 0 0 0 .059-.576c-.136-.748-.446-1.189-.792-1.149a1.495 1.495 0 0 0-.604.539c-.153.235-.243.51-.263.797.05.32.718.761 1.151.708zm-3.898 3.326c.026.124.063.244.111.36-.371.414-.21.882.1 1.269a.919.919 0 0 0 .45-.007.967.967 0 0 0 .403-.22c.217.069.443.096.669.08h.569v1.122c.087.682.334.922.965.922a1.17 1.17 0 0 0 .75-.208 1.32 1.32 0 0 0 .488-.647 1.132 1.132 0 0 0 0-1.028 1.517 1.517 0 0 0 .149-1.336.69.69 0 0 0-.192-.212.625.625 0 0 0-.529-.095.642.642 0 0 0-.245.133 2.547 2.547 0 0 0-.42.374 3.683 3.683 0 0 0 0-.521 1.94 1.94 0 0 0-.406-.973 1.715 1.715 0 0 0-.832-.576c-.338-.04-.68.015-.993.16a1.993 1.993 0 0 0-.79.668 1.12 1.12 0 0 0-.247.735zm-3.379 10.606a.86.86 0 0 0 .407-.049.922.922 0 0 0 .349-.234 1.01 1.01 0 0 0 .22-.373c.048-.14.065-.291.051-.439.194.283.345.599.446.935.068.139.165.259.283.351a.927.927 0 0 0 .397.183 7.29 7.29 0 0 1 1.238.374.96.96 0 0 0 .758-.015 1.07 1.07 0 0 0 .541-.573c.223-.641.15-1.068-.272-1.335a.58.58 0 0 0 .062-.121c.21-.641-.074-1.122-.854-1.416a1.359 1.359 0 0 0-.916 0 .896.896 0 0 0-.251-.266.81.81 0 0 0-.33-.134 1.162 1.162 0 0 0-.676.164 1.293 1.293 0 0 0-.488.53.918.918 0 0 0-.181.356.965.965 0 0 0-.017.406 1.174 1.174 0 0 0-.548-.214 1.146 1.146 0 0 0-.578.08.656.656 0 0 0-.243.161.73.73 0 0 0-.158.255.771.771 0 0 0 .03.599c.067.175.167.334.292.467.126.133.274.238.438.308zm2.648-14.547a.81.81 0 0 0 .449.332.75.75 0 0 0 .541-.052c.36-.253.335-.561-.16-1.335a.694.694 0 0 0-.377.043.758.758 0 0 0-.31.236.838.838 0 0 0-.164.368.877.877 0 0 0 .021.408zm5.508-5.116a1.152 1.152 0 0 0 0 .908c.091.09.2.155.318.192a.747.747 0 0 0 .363.022 7.103 7.103 0 0 0 1.238-.414c.359-.134.42-.428.247-.842-.099 0-.26-.187-.359-.147a1.707 1.707 0 0 1-1.175-.16c-.124-.067-.52.214-.632.441zM8.874 29.856c-.507-.107-1.114.534-1.237 1.229a1.32 1.32 0 0 0 .224.99c.101.137.229.25.373.33.145.081.304.127.467.136.73.107 1.337-.28 1.386-.882a1.905 1.905 0 0 0-.317-1.128 1.677 1.677 0 0 0-.896-.675zm2.191-10.606a.846.846 0 0 0-.618.194.977.977 0 0 0-.335.593 1.007 1.007 0 0 0 .103.755.904.904 0 0 0 .254.278.83.83 0 0 0 .336.143.891.891 0 0 0 .68-.2c.194-.16.323-.395.36-.655a1.008 1.008 0 0 0-.16-.742.887.887 0 0 0-.274-.255.82.82 0 0 0-.346-.112zm-1.374 7.76c0-.08-.148-.24-.21-.24a.233.233 0 0 0-.158.038.264.264 0 0 0-.102.136.298.298 0 0 0 .044.206c.04.06.1.101.166.114a.262.262 0 0 0 .173-.076.302.302 0 0 0 .087-.178zM9.01 11.18a.98.98 0 0 0-.625.233c-.18.15-.307.36-.365.596a.907.907 0 0 0 .12.633c.057.092.13.17.216.232a.749.749 0 0 0 .283.124.807.807 0 0 0 .7-.075.892.892 0 0 0 .27-.258 1.007 1.007 0 0 0 .008-1.098.895.895 0 0 0-.265-.262.824.824 0 0 0-.341-.124zm3.602 23.19c-.346.134-.841.241-.953.695-.111.455.396.628.57.602.173-.027 1.138-.254 1.237-.602.1-.347-.742-.694-.854-.694zm3.553 75.034c-.681.214-1.028 1.336-.718 2.311.045.167.124.321.23.453.105.131.236.236.382.309a1.058 1.058 0 0 0 .935 0c.192-.058.371-.16.523-.299.153-.14.275-.314.359-.51a1.583 1.583 0 0 0-.004-1.249 1.555 1.555 0 0 0-.674-.86 1.371 1.371 0 0 0-1.034-.155zm3.713-3.78c-.595.2-1.028.908-.867 1.336.114.273.304.503.543.656.24.153.517.222.794.199.507-.188.705-1.029.433-1.79a.7.7 0 0 0-.14-.256.647.647 0 0 0-.226-.169.598.598 0 0 0-.537.024zm-7.427-13.946a.765.765 0 0 0 .108.833.67.67 0 0 0 .227.169.705.705 0 0 0 .591-.036.765.765 0 0 0 .24-.2.834.834 0 0 0 .146-.285.792.792 0 0 0-.073-.584.718.718 0 0 0-.19-.22.655.655 0 0 0-.256-.118.578.578 0 0 0-.483.039.629.629 0 0 0-.193.167.685.685 0 0 0-.117.235zM9.345 48.544c.705-.094.693-1.082.371-1.51-.322-.427-.173-.32 0-.855.173-.534.124-1.335-.804-1.415a1.695 1.695 0 0 0-1.119.566c-.296.33-.47.765-.49 1.224a2.27 2.27 0 0 0 .663 1.422c.378.368.87.57 1.379.568zm29.717 89.113a1.733 1.733 0 0 0 1.67-.214c.084-.09.148-.2.187-.321.23.282.536.48.876.566.339.086.694.057 1.017-.085.319-.178.559-.486.669-.855h.581c.545 0 .743-.721 1.139-.173.396.547 1.374 1.549 2.203.614a1.38 1.38 0 0 0 .26-.628c.262.121.552.156.832.1.28-.056.539-.2.744-.414.205-.214.346-.488.407-.789a1.68 1.68 0 0 0-.064-.9 1.118 1.118 0 0 0-.595-.615c.036-.293.005-.59-.09-.867a1.828 1.828 0 0 0-.454-.722 1.306 1.306 0 0 0-.941-.331 1.326 1.326 0 0 0-.903.437 2.512 2.512 0 0 0-.001 2.231.879.879 0 0 0-.668 0c-.433.281-.705-.948-1.324-.628-.619.321-1.176-.253-1.857.161a1.433 1.433 0 0 0-1.027 0 1.388 1.388 0 0 0-.523.242 1.526 1.526 0 0 0-.396.442 1.684 1.684 0 0 0-.195 1.186l-.087-.107c-.569-.548-1.002-.601-1.373-.174-.137.102-.25.235-.33.391a1.234 1.234 0 0 0 .243 1.453zm-.446-15.122c-.074 0-.074.441 0 .481a.603.603 0 0 0 .557.067.526.526 0 0 0 .194-.327.556.556 0 0 0-.07-.381c-.21-.307-.532.04-.68.16zm2.6-4.141c.173-.427 0-.668-.88-1.002a.805.805 0 0 0-.27.302.88.88 0 0 0 0 .812.798.798 0 0 0 .27.302.724.724 0 0 0 .506-.044.804.804 0 0 0 .374-.37zm-3.194 13.572c-.198-.16-.878.094-.916.227-.056.255-.056.52 0 .775a1.563 1.563 0 0 0-.73.787c-.15.347-.18.741-.086 1.11.242.413.586.745.991.962.406.217.86.309 1.31.267.364-.184.648-.509.798-.911.149-.402.152-.849.007-1.253a2.009 2.009 0 0 0-.533-.708 1.831 1.831 0 0 0-.766-.387c.05-.268.074-.735-.075-.869zm-1.262-7.28c-.965-1.63-2.228-1.082-3.107-.187-.299.294-.495.69-.557 1.122-.03.29-.002.584.084.861.085.277.226.53.411.742.384.521.31 1.202.867 1.51.298.164.62.272.953.32a2.316 2.316 0 0 0 0 2.137c.306.157.653.195.983.107.329-.088.62-.295.824-.587.433-.562.31-1.189-.347-1.764l-.123-.067c.3-.138.57-.343.792-.601.263-.246.464-.56.585-.913.12-.352.158-.732.108-1.104-.149-.775-1.027-.881-1.473-1.576zm3.651.281a.719.719 0 0 0-.136-.428c-.433-.481-.94-.307-1.436.08 0 .521-.062 1.082.47 1.336a.718.718 0 0 0 .608.022.768.768 0 0 0 .26-.183.843.843 0 0 0 .172-.28 2.068 2.068 0 0 0 .421 1.403c.247.247.568.39.904.402.337.013.666-.107.928-.335a.9.9 0 0 0 .336.164c.121.03.247.033.37.009.339-.13.623-.388.8-.727.178-.339.236-.735.165-1.116a1.468 1.468 0 0 0-.492-.66 1.303 1.303 0 0 0-.746-.262 1.696 1.696 0 0 0-1.188-.449 1.704 1.704 0 0 0-1.164.516 1.54 1.54 0 0 0-.272.508zm7.315-13.319a.285.285 0 0 0 0 .321.24.24 0 0 0 .288.067.26.26 0 0 0 .083-.067c.1-.134 0-.307-.062-.374s-.26 0-.31.053zm-15.706 1.109c-.446-.227-.83-.654-1.238-.507a.811.811 0 0 0-.34.201.902.902 0 0 0-.217.346 1.56 1.56 0 0 0-.285.829c.017.289.094.572.224.826.131.254.312.474.53.643a1.296 1.296 0 0 0 1.412 0c.17-.121.305-.289.392-.487.088-.197.123-.417.103-.635a1.537 1.537 0 0 0-.149-.687 1.418 1.418 0 0 0-.433-.529zm9.814 6.025c-.247.334-.383.708 0 1.082.161.135.36.209.564.209a.876.876 0 0 0 .563-.209c.21-.254 0-.815-.31-1.162a.474.474 0 0 0-.187-.172.436.436 0 0 0-.243-.046.451.451 0 0 0-.23.092.509.509 0 0 0-.157.206zm-.915-4.983h-.1a1.069 1.069 0 0 0-.066-.397 1.002 1.002 0 0 0-.206-.337.664.664 0 0 0-.233-.217.619.619 0 0 0-.598 0 .664.664 0 0 0-.233.217.883.883 0 0 0-.205.301.96.96 0 0 0 0 .732.897.897 0 0 0 .205.302.849.849 0 0 0 .538.196.849.849 0 0 0 .539-.196.502.502 0 0 0 .458.08c.148-.106.408-.213.334-.494a.333.333 0 0 0-.177-.2.302.302 0 0 0-.13-.023.286.286 0 0 0-.127.036zm-6.82-10.887c-.532.16-.94.882-.718 1.336.223.454 1.634.361 1.881-.107.248-.468-.631-1.389-1.163-1.229zm-1.238 2.632a.322.322 0 0 0-.185.191.357.357 0 0 0 .012.276c.086.16.272.481.57.401.296-.08.185-.561.123-.628-.062-.067-.272-.347-.52-.24zm-.495 18.247c.285.117.587.176.891.174.384 0 .495-.468.36-.855-.137-.388-.298-.668-.731-.548a.939.939 0 0 0-.49.502 1.046 1.046 0 0 0-.03.727zm4.542-17.499c-.705.133-.89.4-.965 1.335-.436.353-.85.736-1.238 1.149a.62.62 0 0 0-.155.312.647.647 0 0 0 .035.353.592.592 0 0 0 .212.27.524.524 0 0 0 .317.094c.594 0 1.237 0 1.782-.494v-.909c.656-.467 1.052-1.175.842-1.616a.827.827 0 0 0-.337-.399.729.729 0 0 0-.493-.095zm-6.374 12.65a.285.285 0 0 0-.134.044.321.321 0 0 0-.103.104.351.351 0 0 0-.035.293c0 .254.173.374.42.32.248-.053.347-.2.285-.467-.061-.267-.185-.361-.433-.294zm-.754 5.851a1.52 1.52 0 0 0-.928.621 1.75 1.75 0 0 0-.31 1.129c-.007.228.034.454.118.663.084.209.21.395.368.546.158.15.345.261.548.325.203.063.416.078.624.042 1.126-.267 1.659-1.095 1.56-1.857a2.114 2.114 0 0 0-.759-1.098 1.866 1.866 0 0 0-1.222-.371zm2.475 8.295c.172.091.355.154.544.187a.934.934 0 0 0 .063.398.87.87 0 0 0 .222.324c.179.152.403.23.63.217a.908.908 0 0 0 .608-.284 1.131 1.131 0 0 0-.001-1.269 2.226 2.226 0 0 0-.049-1.091 2.091 2.091 0 0 0-.557-.913 1.476 1.476 0 0 0-1.67-.147c.073-.294.098-.614 0-.748-.1-.133-.942.241-1.164.454-.223.214-.236.655.136.909a.897.897 0 0 0 .557.2c-.06.334-.028.679.093.993.121.314.325.582.587.77zm2.351-19.743c-.16.12-.383.788-.223.975.161.187.755 0 .842-.107.087-.107.26-.654.149-.828a.754.754 0 0 0-.767-.04zm1.944 2.738c-.087-.641-.372-.961-.978-.948a1.165 1.165 0 0 0-.514.115 1.252 1.252 0 0 0-.424.335 1.368 1.368 0 0 0-.256.495 1.434 1.434 0 0 0-.044.564c0 .775.458.882.433 1.336-.025.454.248.681.73.828.483.147 1.238.348 1.387-.374.148-.721-.248-.948-.458-.988-.21-.04-.47-.428-.235-.468.235-.04.457-.253.358-.895zm12.822-2.898a.778.778 0 0 0-.66-.218.794.794 0 0 0-.33.133.856.856 0 0 0-.248.272c-.37.454-.408.935-.111 1.175.233.163.506.248.783.243.278-.004.548-.098.777-.269a.977.977 0 0 0 .16-.717.984.984 0 0 0-.127-.351.902.902 0 0 0-.244-.268zm-35.51-29.99c.112.24 1.028.708 1.362.414.334-.293 0-1.335-.26-1.63a.894.894 0 0 0-1.114-.147c-.347.268-.16 1.003.012 1.363zm3.862 16.044c0-.2 0-.455-.297-.535a.289.289 0 0 0-.255.037.321.321 0 0 0-.094.098.35.35 0 0 0-.047.133c0 .187 0 .56.247.68.248.121.458-.32.446-.413zm-4.035-23.458a.564.564 0 0 0 .68 0 .66.66 0 0 0 .074-.588.519.519 0 0 0-.244-.135.495.495 0 0 0-.275.015c-.074.04-.359.441-.235.708zm3.231 27.799c.507.321.977.855 1.707.735l.545-.695c.78 0 1.485-.28 1.56-.775a.9.9 0 0 0-.067-.559.81.81 0 0 0-.379-.389c-.644-.347-.94-.254-1.498.441a10.18 10.18 0 0 0-1.633.147.539.539 0 0 0-.3.151.612.612 0 0 0-.169.309.647.647 0 0 0 .025.357c.042.113.114.21.208.278zm-2.798-78.453a.814.814 0 0 0 .78 0 .854.854 0 0 0 .193-.287.913.913 0 0 0 0-.695.854.854 0 0 0-.193-.287.716.716 0 0 0-.638.04.785.785 0 0 0-.25.228.86.86 0 0 0-.14.32.817.817 0 0 0 .044.374.763.763 0 0 0 .204.307zm74.052 113.078c.247-.02.487-.1.702-.234a1.7 1.7 0 0 0 .536-.541.81.81 0 0 0 .062-.187c.297.214.52 0 .718-.187a.617.617 0 0 0 .167-.236.657.657 0 0 0-.042-.575.583.583 0 0 0-.2-.204 1.968 1.968 0 0 0-.705-.134 1.57 1.57 0 0 0-.533-.735 1.296 1.296 0 0 0-.973-.224 1.36 1.36 0 0 0-.858.545 2.533 2.533 0 0 0 .185 2.231.806.806 0 0 0-.668.12c-.396.321-.792-.868-1.374-.468-.582.401-1.237-.16-1.894.415a1.37 1.37 0 0 0-.235.24.804.804 0 0 0-.198-.428.746.746 0 0 0-.503-.292.721.721 0 0 0-.549.172 1.185 1.185 0 0 0 0-.294.795.795 0 0 0-.086-.375.726.726 0 0 0-.248-.279c.197-.107.364-.268.483-.468.12-.2.188-.43.198-.668a1.653 1.653 0 0 0-.266-.8 1.483 1.483 0 0 0-.613-.535 1.047 1.047 0 0 0-.707.065 1.15 1.15 0 0 0-.53.509 1.502 1.502 0 0 0-1.034-.344 1.524 1.524 0 0 0-.996.451c-.19.213-.329.473-.404.757a1.954 1.954 0 0 0-.03.872.903.903 0 0 1 0 .174 1.156 1.156 0 0 0-.953.134 1.94 1.94 0 0 0-.743.647c-.192.281-.316.61-.358.956h3.18a2.442 2.442 0 0 0-.074-.615v-.107c.283.081.582.068.858-.037a1.48 1.48 0 0 0 .69-.55 2.28 2.28 0 0 0 .408-.668.752.752 0 0 0 .223.227 1.619 1.619 0 0 0-.693.895c.247.347.433.748.767.855h.136c.09.019.183.019.272 0a.702.702 0 0 0 .21-.12v.146h6.722l-.05-.106zM5.83 15.536a.947.947 0 0 0-.06-.706.866.866 0 0 0-.22-.274.791.791 0 0 0-.302-.156.788.788 0 0 0-.596.098.896.896 0 0 0-.382.503c-.049.24-.01.49.107.698.117.21.305.361.524.424a.635.635 0 0 0 .598-.048.706.706 0 0 0 .223-.228.772.772 0 0 0 .108-.311zm113.596 121.239a.47.47 0 0 0 0-.106c.233.054.476.025.693-.081.028.259.148.496.336.661a.883.883 0 0 0 .667.221.901.901 0 0 0 .557-.346c.141-.184.216-.417.21-.656a1.076 1.076 0 0 0-.301-.552.941.941 0 0 0-.541-.263c.079-.144.145-.296.198-.454a.77.77 0 0 0 .245.203.704.704 0 0 0 .3.078.97.97 0 0 0 .568-.227c.164-.136.285-.322.348-.535h.173c.225-.267.398-.58.508-.921.086-.508-.471-.936-1.003-.869a.5.5 0 0 0-.235.08.833.833 0 0 0-.359-.173 1.085 1.085 0 0 0-.731.136c-.224.13-.402.336-.507.585-.32-.2-.694-.274-1.059-.211a1.58 1.58 0 0 0-.946.558 1.89 1.89 0 0 0-.198 1.871 1.15 1.15 0 0 0-.525.002 1.205 1.205 0 0 0-.477.238 2.001 2.001 0 0 0-.652.685 2.192 2.192 0 0 0-.289.931h-.149c-.364.071-.69.285-.915.601h4.121c.087-.232.128-.481.121-.732a1.949 1.949 0 0 0-.158-.724zM2.636 25.568a1.247 1.247 0 0 0 .023 1.27c.116.187.28.334.47.424.192.09.403.118.609.082a6.258 6.258 0 0 0 1.757-.414c.311-.19.559-.48.71-.83.15-.35.197-.74.132-1.12-.099-.414-.582-1.202-1.3-.802-.767 1.19-1.311.348-2.116 1.002a1.96 1.96 0 0 0-.285.388z" fill="#98A2B3" fill-opacity=".15"/><path d="M43.753 118.942a2.039 2.039 0 0 0-.71.762 2.237 2.237 0 0 0-.268 1.041 1.15 1.15 0 0 0 .272.762c.14.163.309.295.496.387.188.093.39.144.596.152.207.007.412-.03.605-.108a1.55 1.55 0 0 0 .519-.351l.433-.387c.223.307.42.614.644.881a.85.85 0 0 0 .258.253.774.774 0 0 0 .679.073.817.817 0 0 0 .3-.192c.139-.118.26-.257.36-.414.027.1.083.189.16.254.322.253.545.066.755-.174a.617.617 0 0 0 .168-.236.657.657 0 0 0-.043-.575.583.583 0 0 0-.2-.204 2.274 2.274 0 0 1-.976-.336 2.467 2.467 0 0 1-.756-.746 5.447 5.447 0 0 0-1.126.066c-.11-.16-.23-.312-.36-.454a1.706 1.706 0 0 0-.842-.51 1.615 1.615 0 0 0-.964.056zm.507 9.471a.947.947 0 0 0 .33.261c.126.06.263.09.4.086.595-.133.508-.681.47-1.162-.445-.321-.878-.414-1.237.067a.84.84 0 0 0 .037.748zm2.203-3.206c-.185-.174-.346-.387-.619-.387-.272 0-.42.414-.26.774.085.168.2.315.338.435.138.119.297.207.467.26.06.017.122.018.182.004a.39.39 0 0 0 .165-.084.433.433 0 0 0 .148-.347 1.001 1.001 0 0 0-.144-.377.918.918 0 0 0-.277-.278z" fill="#98A2B3" fill-opacity=".15"/><path d="M44.83 122.161a1.12 1.12 0 0 0 .16.909.65.65 0 0 0 .828.204.697.697 0 0 0 .237-.204.824.824 0 0 0 .205-.548.824.824 0 0 0-.205-.548c-.186-.267-1.114-.173-1.225.187zm-1.548 7.802v-.067c-.296-.762-.952-1.176-1.472-.922-.19.081-.361.205-.503.364a1.56 1.56 0 0 0-.314.558.75.75 0 0 0-.867 0c-.507.347-.358.908-.235 1.483.532.133 1.077.387 1.411-.268a.778.778 0 0 0 0-.2c.32.181.679.268 1.04.254.052.434.255.831.567 1.111.312.28.71.422 1.116.398.34-.025.665-.169.924-.41a1.74 1.74 0 0 0 .512-.925c.111-.655-.706-1.336-1.56-1.497a1.009 1.009 0 0 0-.619.121zm2.588-18.208c.098-.067.234-.601.123-.708-.111-.107-.532 0-.68.16-.15.161-.075.455 0 .495a.615.615 0 0 0 .556.053zm-25.695-12.69c.458-.214.222-1.483-.297-1.683-.52-.2-1.238.106-1.238.574 0 .468 1.077 1.322 1.535 1.109zm19.283 34.478c.297.521.458 1.108 1.09.961a.87.87 0 0 0 .515-.341.998.998 0 0 0 .19-.62.74.74 0 0 0-.107-.517.643.643 0 0 0-.413-.285c-.631-.187-.953.241-1.275.802zm8.082-2.565c.36.574.867.614 1.51-.147.23-.61.424-1.234.582-1.87a.881.881 0 0 0-.085-.657.793.793 0 0 0-.218-.245.726.726 0 0 0-.291-.127h-.235c-.26-.334-.681-.401-1.238-.2-.557.2-1.015.922-.904 1.336.065.181.164.347.289.487.125.14.276.251.442.327a1.341 1.341 0 0 0 .148 1.096zm.013-14.441a.873.873 0 0 0-.112-.708.677.677 0 0 0-.136-.333c-.149-.121-.47-.334-.594-.161a.951.951 0 0 0 0 .201.786.786 0 0 0-.271.297.865.865 0 0 0 0 .808.786.786 0 0 0 .27.297.74.74 0 0 0 .481-.055.812.812 0 0 0 .361-.346zm-21.648-10.032c-.606.241-.78.815-.483 1.603.297.789.755.815 1.486.495.507-.241.755-.682.63-1.122a1.922 1.922 0 0 0-.693-.728 1.741 1.741 0 0 0-.94-.248zm-15.235-7.48c.21-.08.271-.414.247-.575-.025-.16-.347-.547-.545-.467-.198.08-.26.574-.21.721.05.147.309.388.507.32zm17.537 22.682a1.577 1.577 0 0 0 .174 1.884c.248.211.563.311.878.28.426-.069.81-.317 1.067-.69a1.87 1.87 0 0 0 .307-1.3 5.62 5.62 0 0 0-.916-.615 1.152 1.152 0 0 0-.827-.069c-.276.08-.517.26-.683.51zm-16.474-21.6c-.148 0-.21.401-.198.588.013.187.273.427.495.347.223-.08.186-.534.137-.708a.455.455 0 0 0-.186-.182.418.418 0 0 0-.248-.045zm-.829-6.96a1.42 1.42 0 0 0-.182-.802 1.267 1.267 0 0 0-.585-.534.816.816 0 0 0-.64.147.942.942 0 0 0-.363.588c-.052.238-.026.487.073.706.1.22.266.395.472.496.236.038.477.002.695-.105a1.27 1.27 0 0 0 .53-.496zM4.74 108.456a1.444 1.444 0 0 0-.284.548 1.313 1.313 0 0 0-.45.582 1.435 1.435 0 0 0-.082.753c.085.33.284.613.557.789.382.216.829.261 1.242.123.413-.137.758-.446.96-.858a5.876 5.876 0 0 0-.408-1.069 1.333 1.333 0 0 0-.532-.507c-.037-.401-.718-.628-1.003-.361zm5.446-21.373a.796.796 0 0 0-.207.242.858.858 0 0 0-.081.64.839.839 0 0 0 .14.293.884.884 0 0 0 .244.245.795.795 0 0 0 .95-.038.899.899 0 0 0 .227-.264.969.969 0 0 0 .104-.697.96.96 0 0 0-.139-.328.948.948 0 0 0-1.238-.094zM1.795 66.43c.11.165.273.277.458.315a.687.687 0 0 0 .532-.114c.322-.174.384-1.175.074-1.336a.908.908 0 0 0-.866 0 .683.683 0 0 0-.238.211.777.777 0 0 0-.11.635c.028.108.08.207.15.29zm9.53 28.574c-.619-.187-1.077.16-1.238.989-.16.828.174 1.148.929 1.335.544.134.99 0 1.126-.494a2.127 2.127 0 0 0-.176-1.036 1.953 1.953 0 0 0-.64-.794zm-4.703 6.238c.086.254.359.575.57.588.494 0 .73-.494.742-.842.57-.093 1.349-.561 1.423-.948.111-.588-.483-1.336-1.238-1.523-.755-.187-1.126.24-1.237 1.136-.037.283.02.572.16.814a1.203 1.203 0 0 0-.197.081.754.754 0 0 0-.196.315.805.805 0 0 0-.027.379zM8.9 79.99c-.286.293-.496.627-.236 1.054a.979.979 0 0 0 .619.224c.223 0 .44-.078.619-.224.044-.159.051-.327.021-.49a1.051 1.051 0 0 0-.195-.445.538.538 0 0 0-.159-.199.472.472 0 0 0-.469-.068.508.508 0 0 0-.2.147zM.965 114.013a1.775 1.775 0 0 0-.381-.596 1.624 1.624 0 0 0-.572-.38v2.405c.07.007.14.007.21 0 .14-.037.269-.104.382-.197a1.1 1.1 0 0 0 .277-.344 1.186 1.186 0 0 0 .084-.888zm.421-10.42c.297-.133.508-.975.36-1.429a.844.844 0 0 0-.182-.312.76.76 0 0 0-.29-.196.726.726 0 0 0-.22-.454.626.626 0 0 0-.447-.173 1.972 1.972 0 0 0-.595 0v1.549l.137.094c.21.614.878 1.082 1.237.921zm-.581-9.47a1.282 1.282 0 0 0 1.158-.084c.176-.105.329-.25.447-.424.118-.175.2-.375.239-.588a1.706 1.706 0 0 0-.079-1.125 1.531 1.531 0 0 0-.75-.785c-.632-.254-1.51.414-1.808 1.336v.935c.07.181.177.342.315.47.138.127.301.218.478.264zm-.731 13.972a.773.773 0 0 0 0-.507v.507zm0 .922v2.377c.208-.198.347-.467.396-.761.075-.895-.037-1.296-.396-1.616zm5.991 4.675c.171.267.418.468.704.571.285.104.594.105.88.004a1.05 1.05 0 0 0 .409-.441.69.69 0 0 0 .226-.192.761.761 0 0 0 .133-.276c.086-.347.123-.734-.298-.921a.81.81 0 0 0-.26 0 1.066 1.066 0 0 0-.494-.448.972.972 0 0 0-.644-.047c-.263.184-.467.45-.584.764a1.763 1.763 0 0 0-.072.986zm2.339-5.156a.362.362 0 0 0 .037-.315.337.337 0 0 0-.087-.133.304.304 0 0 0-.136-.073c-.222-.094-.37 0-.47.187a.598.598 0 0 0-.153-.171.538.538 0 0 0-.423-.094.555.555 0 0 0-.204.091c-.198.201-.73.588-.47 1.029.26.441.854.334 1.139.254a.435.435 0 0 0 .276-.228.493.493 0 0 0 .033-.373.31.31 0 0 0 .13.049.306.306 0 0 0 .254-.096.34.34 0 0 0 .074-.127zM2.55 52.832c-.21 0-.434.2-.47.36-.038.161 0 .655.247.709.247.053.495-.361.507-.521.013-.16-.123-.495-.284-.548zm3.713 51.763a1.6 1.6 0 0 0-.307.765c-.035.28.003.566.109.825.16 0 .458.28.705.227.261-.055.492-.216.647-.45a1.19 1.19 0 0 0 .183-.806 1.076 1.076 0 0 0-.258-.404.979.979 0 0 0-.398-.237.41.41 0 0 0-.163-.168.373.373 0 0 0-.221-.046.46.46 0 0 0-.18.111.518.518 0 0 0-.117.183zm5.47 4.475c.345-.206.616-.532.769-.924a2.04 2.04 0 0 0 .073-1.24 1.256 1.256 0 0 0-.646-.535 1.148 1.148 0 0 0-.814.014 1.214 1.214 0 0 0-.469.269 1.332 1.332 0 0 0-.321.456 1.424 1.424 0 0 0-.002 1.119c.103.299.302.548.56.702.26.155.56.204.85.139zm13.652-6.866a.6.6 0 0 0-.221.127.706.706 0 0 0-.187.741.74.74 0 0 0 .094.279c.05.085.114.158.192.213a.623.623 0 0 0 .53.096.738.738 0 0 0 .269-.151.817.817 0 0 0 .191-.253.86.86 0 0 0 .048-.638.74.74 0 0 0-.147-.252.677.677 0 0 0-.228-.169.637.637 0 0 0-.54.007zM1.312 90.476c.235-.147.136-.815 0-1.069a.638.638 0 0 0-.189-.216.565.565 0 0 0-.531-.074.601.601 0 0 0-.233.156.967.967 0 0 0 0 .829c.21.2.743.534.953.374zm23.516 22.588c.134.239.334.427.571.537.238.11.501.138.754.078.495-.214 1.101-1.456.916-1.897-.208-.288-.5-.49-.83-.573a1.376 1.376 0 0 0-.977.119c-.62.28-.768.908-.434 1.736zm-.495 1.764a1.6 1.6 0 0 0-.579.376 1.756 1.756 0 0 0-.386.599.847.847 0 0 0-.285-.227c-.68-.161-1.002.721-.817 1.108.11.159.268.271.446.32.177.048.365.03.532-.052a.667.667 0 0 0 .26-.374c.201.209.451.356.724.424.272.068.557.055.823-.037.21-.2.364-.461.44-.753a1.68 1.68 0 0 0-.007-.89 1.03 1.03 0 0 0-.496-.462.93.93 0 0 0-.655-.032zm3.082 14.026a1.074 1.074 0 0 0-.869.099 1.226 1.226 0 0 0-.554.729c-.085.31-.085.639 0 .948a.88.88 0 0 0-.31.192.942.942 0 0 0-.215.309 1.005 1.005 0 0 0-.02.755c.09.2.242.359.43.448a.8.8 0 0 0 .598.033c.16-.084.3-.212.401-.372.102-.159.164-.344.18-.536.272-.026.53-.148.73-.348.335-.387.223-.788.112-1.215-.111-.428-.037-.802-.483-1.042zM4.11 135.48c.242-.13.453-.318.619-.55.165-.231.279-.5.333-.786.234-.021.458-.108.65-.254a1.41 1.41 0 0 0 .44-.574c.123-.468-.669-1.523-1.238-1.657a1.103 1.103 0 0 0-.603.144c-.185.106-.34.264-.45.457a1.17 1.17 0 0 0-.532.08c-.99.414-1.51 1.336-1.237 2.151.086.224.227.418.408.561a.795.795 0 0 0-.348.159.88.88 0 0 0-.246.309 1.017 1.017 0 0 0 .1 1.242c.457.508.965.147 1.51-.067a2.365 2.365 0 0 0-.15-1.189c.245.074.504.064.743-.026zm18.7-8.282a1.81 1.81 0 0 0 1.02.781c.416.12.858.075 1.246-.127.153-.073.29-.179.404-.311.114-.132.202-.288.259-.457a1.438 1.438 0 0 0-.057-1.049c-.57-1.202-.965-1.202-2.116-.855a1.397 1.397 0 0 0-.47.33c-.134.143-.24.314-.31.503a1.605 1.605 0 0 0 .025 1.185zm4.395-10.22a.476.476 0 0 0-.105.301c0 .111.037.217.105.3a.609.609 0 0 0 .668 0c.161-.133.074-.494-.062-.654-.136-.16-.507-.134-.606.053zm-1.263 4.636c.276-.2.499-.474.646-.795.148-.321.215-.678.196-1.035a1.185 1.185 0 0 0-.253-.394 1.095 1.095 0 0 0-.376-.254 1.032 1.032 0 0 0-.869.047c-.705.253-.866.668-.581 1.522.284.855.73 1.123 1.237.909zM11.795 117.9c-.334.401-.656.828-.346 1.336a.791.791 0 0 0 .195.263.72.72 0 0 0 .279.153.705.705 0 0 0 .603-.109 1.09 1.09 0 0 0 .322-.356 1.18 1.18 0 0 0 .148-.472c-.087-.628-.545-.802-1.2-.815zm-.977-1.296a.938.938 0 0 0-.29-.455.829.829 0 0 0-.478-.199c-.198-1.336-1.324-1.59-2.376-1.456a1.747 1.747 0 0 0-1.065.547 2.086 2.086 0 0 0-.401.746 2.193 2.193 0 0 0-.081.857c.013.098.013.197 0 .294a.891.891 0 0 0-.398.495.975.975 0 0 0 .014.654c.1.354.31.66.594.868.27.403.64.717 1.066.906.426.188.893.245 1.348.163.348-.033.682-.16.972-.37.29-.211.526-.497.686-.832a1.433 1.433 0 0 0-.099-1.162.723.723 0 0 0 .279-.146.782.782 0 0 0 .197-.257.836.836 0 0 0 .032-.653zm-6.474 12.05a1.076 1.076 0 0 0-.727.121 1.21 1.21 0 0 0-.51.573.987.987 0 0 0 .043.764.912.912 0 0 0 .235.299c.097.08.209.137.328.166a.88.88 0 0 0 .654-.057.983.983 0 0 0 .46-.504 1.55 1.55 0 0 0-.07-.752 1.441 1.441 0 0 0-.413-.61zM2.55 48.851a.793.793 0 0 0-.343.02.83.83 0 0 0-.308.162.905.905 0 0 0-.223.28.975.975 0 0 0-.104.353c0 .44.247.534.557.601.31.067.792-.2.743-.614a3.077 3.077 0 0 0-.322-.802zm11.807 59.311a1.19 1.19 0 0 0-.472-.211 1.148 1.148 0 0 0-.512.013 1.208 1.208 0 0 0-.463.235 1.304 1.304 0 0 0-.335.417c-.396.668-.124 1.015-.408 1.336-.285.321-.186.695.099 1.095a2.625 2.625 0 0 0-.632.121 1.454 1.454 0 0 0-.832.754 1.647 1.647 0 0 0-.096 1.169c.143.473.444.872.844 1.119.4.247.872.324 1.322.217a2.03 2.03 0 0 0 .89-.969c.189-.421.241-.898.15-1.355a1.156 1.156 0 0 0-.235-.428.653.653 0 0 0 .192-.212.716.716 0 0 0 .061-.576.698.698 0 0 0-.142-.254c-.149-.16-.136-.628.074-.521.21.107.495 0 .768-.561a1.035 1.035 0 0 0-.001-1.122.927.927 0 0 0-.272-.267zM2.909 41.651c-.257.203-.457.48-.577.798-.12.318-.156.666-.104 1.005.136.495.26 1.029.94.976h1.486a.68.68 0 0 0 .904-.177.799.799 0 0 0 .148-.318c.07-.253.043-.526-.073-.758a.948.948 0 0 0-.546-.484 2.445 2.445 0 0 1-.804-.521 1.254 1.254 0 0 0-.609-.502 1.151 1.151 0 0 0-.765-.019zm1.906-3.086c0 .334.123 1.096.544 1.15.421.053.644-.535.743-.802a.622.622 0 0 0-.113-.743.533.533 0 0 0-.221-.126c-.396-.146-.978.12-.953.521zm9.023 78.293a.815.815 0 0 0-.293.178.903.903 0 0 0-.203.289.951.951 0 0 0-.024.709.815.815 0 0 0 .18.272.758.758 0 0 0 .267.171.702.702 0 0 0 .605-.056.926.926 0 0 0 .444-.529c.079-.232.07-.488-.024-.713a.714.714 0 0 0-.166-.243.658.658 0 0 0-.243-.148.613.613 0 0 0-.543.07zM5.681 33.61a.77.77 0 0 0-.645.112.862.862 0 0 0-.24.25.934.934 0 0 0-.13.332c-.02.242.032.485.15.693.119.207.296.367.506.456a.77.77 0 0 0 .637-.149.872.872 0 0 0 .227-.262.941.941 0 0 0 .114-.337.92.92 0 0 0-.08-.699.831.831 0 0 0-.23-.26.761.761 0 0 0-.309-.137zm60.833 101.188a.571.571 0 0 0 .074.615c.112.12.57.253.694.08.123-.174-.075-.641-.186-.735a.478.478 0 0 0-.582.04zm85.488-26.262c-.185 0-.779.254-.792.508-.012.253.508.601.656.574.149-.027.619-.254.656-.468.037-.213-.322-.574-.52-.614zm-.408 16.992a1.536 1.536 0 0 0 .099 1.108.428.428 0 0 0 .125.142.38.38 0 0 0 .506-.048 1.035 1.035 0 0 0 .136-.788c0-.267 0-.535-.173-.748-.173-.214-.569.013-.693.334zm-2.278-7c0-.374-.408-.387-.581-.414-.174-.027-.359.254-.334.334.022.1.065.194.125.275.06.081.135.146.221.192a.433.433 0 0 0 .36-.064.52.52 0 0 0 .209-.323zm.038 12.303c-.136.681.198 1.109 1.151 1.068a12.232 12.232 0 0 0 1.646-.854.779.779 0 0 0 .237-.221.848.848 0 0 0 .143-.643.859.859 0 0 0-.12-.312.842.842 0 0 0-.193-.266.784.784 0 0 0-.273-.165.731.731 0 0 0-.611.057 2.312 2.312 0 0 1-.73.2 1.185 1.185 0 0 0-.824.314c-.23.209-.381.501-.426.822zm-13.838-16.484c.21 0 .421-.454.409-.615-.013-.16-.161-.467-.384-.467s-.371.28-.396.441c-.025.16.173.641.371.641zm17.935 3.567c-.384 0-.731.2-.743.721a.996.996 0 0 0 .239.587.87.87 0 0 0 .528.295c.31 0 .57-.521.545-1.042-.025-.521-.211-.602-.569-.561zm-18.603 2.484a.293.293 0 0 0 .084.195.252.252 0 0 0 .188.072c.161 0 .21-.2.21-.294 0-.093-.198-.2-.26-.2-.061 0-.222.107-.222.227zm-3.837-11.435c0-.093-.124-.494-.359-.494s-.322.441-.334.615a.483.483 0 0 0 .119.245.434.434 0 0 0 .227.129c.149 0 .31-.281.347-.495zm3.181 19.103c-.533-.214-1.052-.521-1.399.2a1.029 1.029 0 0 0-.134.644.994.994 0 0 0 .283.585c.123.12.371.254.495.2.405-.174.797-.38 1.176-.614.965.441 1.794.347 2.054-.281a1.999 1.999 0 0 0-.092-1.175 1.83 1.83 0 0 0-.725-.882c-.656-.334-1.002-.08-1.658 1.323zm13.169-5.29c0 .908.718 1.549 1.782 1.563.195.007.389-.029.57-.106.181-.077.346-.194.483-.344a1.54 1.54 0 0 0 .314-.524c.071-.196.102-.406.094-.616a2 2 0 0 0-.531-1.231 1.722 1.722 0 0 0-1.153-.545 1.814 1.814 0 0 0-1.067.612 2.08 2.08 0 0 0-.492 1.191zm-4.097-11.716c0-.253-.594-.627-.879-.721-.284-.093-.631.241-.656.748a.6.6 0 0 0 .018.273.56.56 0 0 0 .138.229.49.49 0 0 0 .476.126c.272-.053.928-.401.903-.655zm10.05 11.475a.94.94 0 0 0-.335.314 1.04 1.04 0 0 0-.16.448.784.784 0 0 0 .012.327.742.742 0 0 0 .146.288.67.67 0 0 0 .248.189.631.631 0 0 0 .3.051.705.705 0 0 0 .511-.212.812.812 0 0 0 .231-.536c.062-.321-.643-.976-.953-.869zm-11.981 2.338c.198 0 .731-.441.706-.695-.025-.253-.669-.614-.78-.547-.111.067-.668.521-.582.748.063.135.156.25.27.336a.803.803 0 0 0 .386.158zm.681 1.51c-.148.601-.433 1.135.111 1.522a.841.841 0 0 0 1.139-.12.776.776 0 0 0 .173-.975c-.321-.614-.829-.561-1.423-.427zm-1.287-4.769c.062.587.829 1.108 1.584 1.055.755-.054 1.003-.588.928-1.496a1.361 1.361 0 0 0-.377-.705 1.195 1.195 0 0 0-.687-.337c-.545.04-1.498 1.068-1.448 1.483zm11.053 11.755c.071.305.228.578.45.781.222.204.497.328.787.354.276-.125.512-.332.683-.597.171-.265.269-.576.283-.899a.893.893 0 0 0-.086-.35.835.835 0 0 0-.215-.279.733.733 0 0 0-.64-.159c-.879.067-1.3.428-1.262 1.149zm-1.634-6.506c-.099-.561-.347-.961-.891-.881a.74.74 0 0 0-.309.201.823.823 0 0 0-.186.333c-.012.15.008.301.057.442.049.141.127.268.227.373.495.347.792-.094 1.102-.468zm-6.436 2.525c-.817-.2-1.733.16-1.647.975.132.723.49 1.374 1.015 1.844.372.427.991 0 .916.761-.074.762-.074 2.124 1.127 2.124.312-.048.601-.205.824-.445.224-.241.368-.554.413-.891.169.208.379.37.615.474.237.104.492.148.747.127.388-.083.736-.316.977-.655s.36-.761.335-1.188a1.532 1.532 0 0 0-.439-.946 1.321 1.321 0 0 0-.91-.39 2.125 2.125 0 0 0-.942.552c-.266.266-.465.6-.581.971a.868.868 0 0 0-.495-.481c-.483-.16.149-1.216-.507-1.469-.656-.254-.619-1.149-1.448-1.363zm1.906-2.391c-.262.34-.391.776-.361 1.217.03.441.217.852.522 1.147a1.47 1.47 0 0 0 1.918.147c.52-.374.359-1.456-.099-2.257a1.497 1.497 0 0 0-.947-.521 1.445 1.445 0 0 0-1.033.267zm-23.22-9.418c0 .401-.16.922.161 1.229.322.308.693-.106.755-.28.062-.174.297-1.216 0-1.443-.297-.227-.903.361-.916.494zm-14.53 19.517c0 .16.161.668.371.641.211-.026.372-.401.359-.521-.012-.12-.099-.601-.309-.561a.534.534 0 0 0-.27.154.6.6 0 0 0-.151.287zm1.287-24.78c-.13.212-.178.47-.134.72.044.249.177.47.369.616.09.081.194.142.306.178a.807.807 0 0 0 .674-.088.877.877 0 0 0 .258-.25c.122-.216.165-.473.119-.721a1.013 1.013 0 0 0-.367-.615.819.819 0 0 0-.644-.202.801.801 0 0 0-.325.117.878.878 0 0 0-.256.245zm20.212 13.439a1.538 1.538 0 0 0-.149.828c-.18.135-.33.312-.439.518a1.688 1.688 0 0 0-.192.671c-.035.418.072.836.299 1.177.227.34.56.582.939.679.411-.047.8-.221 1.123-.501.322-.279.564-.652.696-1.075.222-.087.426-.222.598-.396.172-.175.31-.385.405-.619.222-.721-.594-1.162-1.09-1.029-.495.134-.346 0-.705-.387a.89.89 0 0 0-.343-.297.835.835 0 0 0-.849.076.932.932 0 0 0-.293.355zm-17.576-6.306c-.383-.106-1.237 0-1.237.895.656 1.27-.298 1.416-.112 2.485.046.157.113.305.198.441.109.193.266.347.454.446a1.023 1.023 0 0 0 1.17-.151c.161-.144.281-.334.344-.549.218-.61.364-1.247.433-1.897a1.9 1.9 0 0 0-.372-1.055 1.68 1.68 0 0 0-.878-.615zm2.971 10.113c.124-.534-.322-.721-.693-.895-.495.2-.78.561-.57 1.109.075.2.421.441.557.387.136-.053.644-.347.706-.601zm5.087-5.691a.804.804 0 0 0-.292-.211.756.756 0 0 0-.684.052.821.821 0 0 0-.262.253.918.918 0 0 0-.171.326.984.984 0 0 0 .074.731.9.9 0 0 0 .233.279.946.946 0 0 0 1.238-.121.889.889 0 0 0 .17-.32.947.947 0 0 0-.075-.717.857.857 0 0 0-.231-.272zm-2.872-4.702a1.433 1.433 0 0 0-.046.943c.091.309.283.573.542.74.128.111.275.193.433.242a1.16 1.16 0 0 0 .951-.116c.144-.085.271-.201.373-.339.102-.139.179-.298.224-.468.045-.171.059-.349.041-.525a1.429 1.429 0 0 0-.148-.502 1.339 1.339 0 0 0-.315-.402 1.548 1.548 0 0 0-1.098-.18 1.636 1.636 0 0 0-.957.607zm-7.673 16.431c.47.067.965-.414 1.175-1.122.062-.241.099-.468.161-.708a2.756 2.756 0 0 0 1.448-.708c.116.079.236.15.359.213.146.042.3.042.446 0 .231.188.516.283.804.268.619 0 .953-.348.941-.922a1.909 1.909 0 0 0-.157-.736 1.785 1.785 0 0 0-.425-.6 1.587 1.587 0 0 0-.472-.622 1.443 1.443 0 0 0-.691-.3 1.621 1.621 0 0 0-1.238.388.942.942 0 0 0-.173-.161c-.706-.627-1.324-.334-1.943.201-.347-.374-.57-.989-1.238-.615a.813.813 0 0 0-.395.419.897.897 0 0 0-.038.596c.173.749.755.642 1.238.588l.309.922-1.089.468c-.069.329-.11.664-.124 1.001.059.319.191.616.383.866.192.249.439.443.719.564zm6.324-2.378c-.13.206-.185.457-.153.704.032.247.149.472.326.632a.693.693 0 0 0 1.09-.134.949.949 0 0 0 0-1.336.839.839 0 0 0-.993-.107.911.911 0 0 0-.27.241zm-1.683-6.679a.965.965 0 0 0-.085-.578.856.856 0 0 0-.398-.397c-.458-.107-1.089.841-.879 1.175.211.334 1.226.254 1.362-.2zm25.063 2.404c0 .414.867 1.136 1.312 1.149.446.013.743-.401.706-1.135-.037-.735-.297-1.189-.842-1.176-.742.094-1.237.521-1.176 1.162zm-17.81-14.427c-.149.588-.433 1.123.111 1.51a.845.845 0 0 0 1.139-.12.73.73 0 0 0 .261-.445.767.767 0 0 0-.088-.517c-.321-.574-.829-.521-1.423-.428zm1.535 9.351c-.322-.08-.656.428-.594.842.061.414.272.748.668.628.396-.121 1.015-.441.99-.775-.025-.334-.755-.695-1.064-.695zm-2.402-4.181c0 .08.186.414.273.401.086-.013.532 0 .581-.334.05-.334-.334-.454-.42-.427a.779.779 0 0 0-.434.36zm-13.057 13.532c-.174 0-.446.107-.446.467a.535.535 0 0 0 .142.428.44.44 0 0 0 .403.133.459.459 0 0 0 .356-.203.539.539 0 0 0 .089-.424.557.557 0 0 0-.206-.306.487.487 0 0 0-.338-.095zm15.112-7.401c-.297.321-.334.989 0 1.149.334.161.965.374 1.238 0 .272-.374-.161-.868-.334-1.082a.58.58 0 0 0-.184-.206.512.512 0 0 0-.512-.037.55.55 0 0 0-.208.176zm-14.333-.053a1.318 1.318 0 0 0-.354.48 1.43 1.43 0 0 0 .023 1.194c.09.183.217.342.373.462.156.121.336.201.526.234s.384.018.567-.044c.183-.062.351-.17.489-.314a1.35 1.35 0 0 0 .307-.516 1.81 1.81 0 0 0 .26-1.002.972.972 0 0 0 .251.585.841.841 0 0 0 .541.27.713.713 0 0 0 .566-.204.823.823 0 0 0 .181-.264.871.871 0 0 0 .07-.32.99.99 0 0 0-.246-.598.851.851 0 0 0-.546-.283.686.686 0 0 0-.555.176.78.78 0 0 0-.185.25.857.857 0 0 0-.077.308 1.128 1.128 0 0 0-.093-.441 1.058 1.058 0 0 0-.253-.36 1.544 1.544 0 0 0-.978-.116c-.329.07-.632.245-.867.503zm-1.844-5.196a.698.698 0 0 0-.076.825c.051.083.12.153.2.203.133.027.269.02.399-.022a.838.838 0 0 0 .344-.218c.136-.187.297-.815.099-1.029-.198-.214-.768.08-.966.241zm16.276 15.776a.982.982 0 0 0-.177.341 1.057 1.057 0 0 0 .067.762.957.957 0 0 0 .234.299.796.796 0 0 0 .65.104.812.812 0 0 0 .302-.155.928.928 0 0 0 .224-.269.91.91 0 0 0 .163-.622.877.877 0 0 0-.287-.567.762.762 0 0 0-.28-.196.71.71 0 0 0-.331-.048.737.737 0 0 0-.319.107.806.806 0 0 0-.246.244zm43.741-8.296a.786.786 0 0 0-.362.05.836.836 0 0 0-.31.208.92.92 0 0 0-.201.328 1.007 1.007 0 0 0-.056.389c.026.241.13.464.293.63a.92.92 0 0 0 .598.279.971.971 0 0 0 .626-.362c.16-.2.246-.456.241-.72a.897.897 0 0 0-.266-.581.772.772 0 0 0-.563-.221zm1.361-9.644c-.124 0-.384.24-.396.387-.012.147.124.654.371.614.248-.04.421-.427.421-.587a.626.626 0 0 0-.15-.261.56.56 0 0 0-.246-.153zm-7.649 8.402c.039.263.167.501.359.669a.954.954 0 0 0 .681.239c.631-.093 1.151-.628 1.114-1.162-.038-.534-.731-1.416-1.238-1.336-.508.08-.941.869-.916 1.59zm.928-11.541c-.099 0-.346.253-.334.334.012.08.198.44.359.48.161.04.557-.24.557-.4 0-.161-.409-.374-.582-.414zm.347 22.348c-.213.016-.42.078-.61.184a1.603 1.603 0 0 0-.492.43h2.104a1.29 1.29 0 0 0-.431-.441 1.165 1.165 0 0 0-.571-.173zm-.631-17.753c.065.273.201.522.391.715.191.194.428.326.685.38a.855.855 0 0 0 .57-.356.992.992 0 0 0 .173-.686.94.94 0 0 0-.099-.349.856.856 0 0 0-.222-.276.793.793 0 0 0-.306-.155.757.757 0 0 0-.338-.008c-.557-.027-.904.267-.854.735zm-2.08 15.909a.73.73 0 0 0 .317-.11.807.807 0 0 0 .245-.242.898.898 0 0 0 .119-.69c-.074-.427-.149-.908-.569-.895-.743.067-1.151.455-1.139.949-.001.14.026.28.079.408.052.129.13.243.227.337a.897.897 0 0 0 .336.206.855.855 0 0 0 .385.037zm-20.311-18.367c-.371 0-.594.267-.519.734.074.468.247.762.643.655.396-.107.99-.454.99-.815 0-.361-.816-.548-1.114-.574zm25.138 17.9c.33-.087.627-.284.849-.561.221-.278.358-.624.389-.989a1.617 1.617 0 0 0-.462-.766c-.22-.202-.49-.33-.776-.369-.241.017-.47.121-.649.296-.18.174-.3.409-.341.666-.062.975.409 1.75.99 1.723zm-1.027-17.82c-.074 0-.223.107-.21.227a.268.268 0 0 0 .161.251.235.235 0 0 0 .098.016c.161 0 .211-.214.211-.294 0-.08-.186-.2-.26-.2zm-2.847 2.378c0-.201-.099-.601-.309-.561a.527.527 0 0 0-.27.154.596.596 0 0 0-.151.286c0 .161.161.668.371.642.211-.027.372-.414.359-.521zm11.313 13.144a.945.945 0 0 0 .224.664.866.866 0 0 0 .269.213.8.8 0 0 0 .324.085.61.61 0 0 0 .306-.007.648.648 0 0 0 .269-.156.705.705 0 0 0 .175-.271.759.759 0 0 0 .042-.328.954.954 0 0 0-.023-.361.903.903 0 0 0-.157-.322.832.832 0 0 0-.262-.226.768.768 0 0 0-.325-.092.794.794 0 0 0-.566.223.923.923 0 0 0-.276.578zm3.899-2.899a.792.792 0 0 0 .361-.036.858.858 0 0 0 .317-.192.942.942 0 0 0 .215-.317.999.999 0 0 0 0-.767.948.948 0 0 0-.215-.316.874.874 0 0 0-.317-.193.806.806 0 0 0-.361-.035.998.998 0 0 0-.57.356 1.143 1.143 0 0 0-.247.659.867.867 0 0 0 .241.61.78.78 0 0 0 .266.179c.099.04.204.058.31.052zm3.54 5.598a.885.885 0 0 0-.573.33 1.02 1.02 0 0 0-.219.658.977.977 0 0 0 .243.716.864.864 0 0 0 .303.214.796.796 0 0 0 .357.059.884.884 0 0 0 .63-.336c.08-.098.14-.212.179-.336a1.08 1.08 0 0 0 .045-.384.99.99 0 0 0-.078-.38.933.933 0 0 0-.214-.313.844.844 0 0 0-.314-.191.798.798 0 0 0-.359-.037zm-5.261-13.626a.957.957 0 0 0-.519.307c-.14.158-.231.359-.26.575 0 .454.656.735 1.027.801.371.067 1.138-.467 1.126-.935-.012-.467-.965-.761-1.374-.748zm-3.589 15.442c0-.561-.792-1.523-1.238-1.509-.681 0-1.089.561-1.064 1.416.002.162.043.321.119.462.076.14.184.257.314.339h1.485a.79.79 0 0 0 .281-.298.866.866 0 0 0 .103-.41zm-.854-10.539c.371 0 .879-.789.755-1.069-.124-.281-.495-.374-.792-.414a.487.487 0 0 0-.254.01.52.52 0 0 0-.219.138.58.58 0 0 0-.146.506c.049.388.173.802.656.829zm-48.468 1.75c.116-.224.149-.486.091-.735a1 1 0 0 0-.401-.601.785.785 0 0 0-.645-.109.816.816 0 0 0-.3.157.89.89 0 0 0-.218.272.949.949 0 0 0-.178.716.953.953 0 0 0 .127.353.86.86 0 0 0 .249.267.969.969 0 0 0 .69.084c.232-.059.438-.201.585-.404zm46.339 3.687c.074.402.269.766.556 1.034.287.269.649.426 1.028.448.257-.061.484-.224.635-.456.151-.233.216-.518.182-.799-.062-.842-.52-1.336-1.238-1.336s-1.2.574-1.163 1.109zm-1.423 5.81h1.237a.89.89 0 0 0-.304-.256.824.824 0 0 0-.376-.091.72.72 0 0 0-.315.106.784.784 0 0 0-.242.241zm-7.352-8.188a.911.911 0 0 0 .02.434c.041.14.115.267.215.367a1.16 1.16 0 0 0 1.015.12c.594-.32.284-.881.161-1.456-.644-.12-1.189-.133-1.411.535zm-30.497 6.652a.927.927 0 0 0-.158.343.938.938 0 0 0 .13.736.848.848 0 0 0 .263.257c.346.227.557 0 .743-.267a.644.644 0 0 0 .036-.816.566.566 0 0 0-.222-.173 2.75 2.75 0 0 0-.792-.08zm2.797-2.912a.946.946 0 0 0-.161.725.947.947 0 0 0 .137.351.88.88 0 0 0 .259.26c.359.227.57 0 .743-.267.173-.267.198-.855-.173-.989a2.131 2.131 0 0 0-.805-.08zm2.772-11.648a1.2 1.2 0 0 0-.795.393 1.39 1.39 0 0 0-.356.862c0 .615.273 1.029.73 1.056.321-.014.628-.146.869-.375.241-.228.402-.54.456-.881a1.097 1.097 0 0 0-.26-.719.947.947 0 0 0-.644-.336zm-4.505-2.832a1.078 1.078 0 0 0-.516.084 1.159 1.159 0 0 0-.431.319c-.119.14-.207.308-.258.49-.05.183-.061.375-.033.563.016.196.067.386.152.56.085.174.201.327.342.452.141.125.303.217.478.273.174.056.358.073.538.051.337-.074.636-.278.844-.573.207-.295.308-.661.283-1.03 0-.842-.557-1.283-1.399-1.189zm3.107 14.119c.018.149.066.293.141.419a.994.994 0 0 0 .292.316.66.66 0 0 0 .681-.08c.396-.401.272-.869-.087-1.336-.446.053-.953.053-1.027.681zm5.99-11.635c.026.241.13.463.293.63a.92.92 0 0 0 .598.279.971.971 0 0 0 .626-.362c.16-.2.246-.456.241-.72a.893.893 0 0 0-.266-.581.772.772 0 0 0-.563-.221.786.786 0 0 0-.362.05.836.836 0 0 0-.31.208.92.92 0 0 0-.201.328 1.007 1.007 0 0 0-.056.389zm-1.213 12.637c-.656.601-.792 1.189-.421 1.804.094.162.216.303.36.414.145.111.308.19.481.232a1.244 1.244 0 0 0 1.016-.192 15.077 15.077 0 0 1 2.29-1.189c.656-.214 1.237-.989 1.101-1.469a1.003 1.003 0 0 0-.499-.43.918.918 0 0 0-.639-.011c-.533.36-.805 0-1.238-.147a2.406 2.406 0 0 0-1.238 0 2.074 2.074 0 0 0-.681.387 6.488 6.488 0 0 0-.532.601zm19.568-22.268a.76.76 0 0 0-.33.052.81.81 0 0 0-.284.191.925.925 0 0 0-.021 1.248.834.834 0 0 0 .536.286.786.786 0 0 0 .33-.073.828.828 0 0 0 .275-.208.894.894 0 0 0 .176-.309.97.97 0 0 0 .049-.359.778.778 0 0 0-.017-.329.719.719 0 0 0-.154-.285.648.648 0 0 0-.256-.179.617.617 0 0 0-.304-.035zm-22.427 23.417a.532.532 0 0 0-.052.317.497.497 0 0 0 .139.284c.111.12.569.254.693.08.124-.173-.074-.641-.198-.721a.45.45 0 0 0-.297-.085.465.465 0 0 0-.285.125zm3.305-2.351c0-.935-.371-1.683-.941-1.697a1.418 1.418 0 0 0-.827.444 1.614 1.614 0 0 0-.411.892c0 .561.557 1.203 1.176 1.256a1.02 1.02 0 0 0 .643-.263 1.17 1.17 0 0 0 .36-.632zm20.001-9.15c-.272-.067-.866.547-.804 1.001.062.455.346.481.643.468.297-.013.755-.361.619-.761-.136-.401-.198-.642-.458-.708zM52.677 108.923a.7.7 0 0 0-.1-.721.503.503 0 0 0-.544 0 .595.595 0 0 0 0 .561c.025.147.495.414.644.16zm104.016 28.68c0-.467-.371-.721-.891-.694-.78 0-1.238.334-1.238.801a.99.99 0 0 0 .186.521h1.795c.1-.191.152-.408.148-.628zm-30.373-16.096c-.074.067-.111.387 0 .481a.525.525 0 0 0 .557 0c.099-.094.223-.575.062-.722-.161-.147-.532.107-.619.241zm29.606 10.018c-.755.722-.916 1.123-.631 1.63a.85.85 0 0 0 .404.401c.174.08.367.094.549.04a.92.92 0 0 0 .578-.331c.15-.181.235-.414.239-.658-.075-.721-.644-.881-1.139-1.082zm-13.838 5.705a.39.39 0 0 0-.198 0 1.25 1.25 0 0 0-.408-.642 2.314 2.314 0 0 0-1.29-.155 2.393 2.393 0 0 0-1.186.569 1.578 1.578 0 0 0-.21 1.149h4.443c-.322-.374-.829-.921-1.151-.921zm-16.325-8.51c-.174.173-.381.3-.606.374a1.206 1.206 0 0 0-.692.363c-.19.196-.316.453-.361.733-.074.467.681 1.336 1.238 1.456.197.026.397.026.594 0a1.518 1.518 0 0 0-.351.466c-.087.179-.14.374-.156.576 0 .547.668 1.082 1.312 1.055.643-.027 1.237-.387 1.237-1.069a1.655 1.655 0 0 0-.38-.969 1.444 1.444 0 0 0-.857-.5c-.081.019-.16.046-.235.08a.69.69 0 0 0 .099-.16c.198-.494.458-.949.68-1.429a.757.757 0 0 0 .227-.262.827.827 0 0 0 .035-.695.903.903 0 0 0-.819-.536.902.902 0 0 0-.618.25.328.328 0 0 0-.216.07.373.373 0 0 0-.131.197zm.941 9.485a1.05 1.05 0 0 0-.09-.654.93.93 0 0 0-.455-.442.95.95 0 0 0-.792.063 1.02 1.02 0 0 0-.316.274 1.141 1.141 0 0 0-.192.385.687.687 0 0 0 .062.4h1.783v-.026zm25.942-.454c-.193-.222-.32-.5-.367-.8a1.647 1.647 0 0 1 .107-.884 1.556 1.556 0 0 0-.225-.856 1.387 1.387 0 0 0-.642-.56 1.682 1.682 0 0 0-.894.315 1.858 1.858 0 0 0-.615.767c-.112.415-.322.976.136 1.229.222.134.415.315.569.534.153.218.263.469.322.735h1.695a.59.59 0 0 0-.086-.48zm-83.26-7.201c-.31-.414-.47-1.042-1.127-.761a.831.831 0 0 0-.437.38.939.939 0 0 0-.107.595c.099.748.68.708 1.237.721l.21.949-1.126.347a5.39 5.39 0 0 0-.222.989c.025.301.118.592.272.845.153.254.361.464.606.611.459.133 1.003-.281 1.238-.975a8.49 8.49 0 0 0 .235-.682 2.575 2.575 0 0 0 1.51-.521l.335.254c.345.134.722.132 1.066-.004.344-.137.633-.4.815-.744a1.855 1.855 0 0 0-.203-1.262 1.626 1.626 0 0 0-.948-.768 1.652 1.652 0 0 0-1.238.227l-.16-.174c-.62-.695-1.276-.468-1.956-.027zm14.765-15.575c.1-.081.174-.628.062-.722-.111-.093-.532.12-.656.241a.61.61 0 0 0 0 .494.623.623 0 0 0 .594-.013zm-13.231-2.886a1.043 1.043 0 0 0 .1 1.336c.08.089.176.159.283.208a.815.815 0 0 0 .954-.208c.156-.203.232-.464.211-.726a1.03 1.03 0 0 0-.322-.677.86.86 0 0 0-.29-.192.79.79 0 0 0-.665.037.851.851 0 0 0-.27.222zm-2.463 13.238a1.235 1.235 0 0 0-.295.44 1.316 1.316 0 0 0 .041 1.059c.08.162.192.302.328.411-.235.254-.136.655.199.962a.475.475 0 0 0 .69.057.548.548 0 0 0 .151-.217c.084-.19.139-.393.161-.601.188-.085.354-.218.483-.388.22-.249.352-.575.373-.92a1.553 1.553 0 0 0-.262-.963 1.544 1.544 0 0 0-1.869.16zm5.384.414c-.445-.173-1.163.695-.99 1.056.173.36 1.238.441 1.362 0a.918.918 0 0 0-.002-.603.84.84 0 0 0-.37-.453zm.049-7.066c.125-.227.199-.695.063-.842a.74.74 0 0 0-.384-.109.74.74 0 0 0-.384.109c-.148.134-.297.828-.123.989.173.16.767-.014.829-.147zm-.432 11.288c0 .2.371.48.52.44.3-.062.57-.243.755-.507.185-.521-.248-.762-.595-.975-.52.147-.841.467-.68 1.042zm-6.313-10.019a.637.637 0 0 0-.176.226.687.687 0 0 0 0 .576.64.64 0 0 0 .176.227.777.777 0 0 0 .755-.147c.161-.161.384-.775.21-1.002-.172-.227-.754.04-.965.12zm4.345.281c.52 1.335-.446 1.335-.36 2.471.03.162.08.319.15.467.086.205.226.378.401.5a1.028 1.028 0 0 0 1.177 0 1.16 1.16 0 0 0 .402-.5 7.61 7.61 0 0 0 .618-1.816 1.932 1.932 0 0 0-.256-1.097 1.717 1.717 0 0 0-.808-.72c-.371-.187-1.238-.16-1.324.695zm8.639 8.575a.935.935 0 0 0-.248-.414.832.832 0 0 0-.308-.177.785.785 0 0 0-.677.103.871.871 0 0 0-.252.261c-.08.092-.14.2-.18.317a.99.99 0 0 0 .04.727.909.909 0 0 0 .214.292c.21.127.455.171.692.125.237-.047.452-.18.608-.379a.563.563 0 0 0 .086-.2c.06.436.256.837.557 1.135a1.459 1.459 0 0 0 1.814-.031c.174-.138.319-.314.426-.516a1.645 1.645 0 0 0 .186-1.617.54.54 0 0 0 .337.053.56.56 0 0 0 .307-.16c.272-.347-.062-.881-.223-1.122a.574.574 0 0 0-.162-.203.514.514 0 0 0-.692.043.99.99 0 0 0-.297.641 1.635 1.635 0 0 0-1.095-.126c-.368.087-.7.3-.948.607a1.671 1.671 0 0 0-.185.641zm-.842-10.566a.933.933 0 0 0 .164-.333.981.981 0 0 0-.094-.731.88.88 0 0 0-.243-.272.675.675 0 0 0-.253-.188.622.622 0 0 0-.595.06.7.7 0 0 0-.216.235.907.907 0 0 0-.179.324.96.96 0 0 0 .068.733.88.88 0 0 0 .234.279.83.83 0 0 0 1.114-.107zm-4.542 18.742a.746.746 0 0 0-.588-.127.794.794 0 0 0-.501.354 1.028 1.028 0 0 0-.136 1.028h1.547c.078-.219.089-.459.03-.685a1.1 1.1 0 0 0-.352-.57zm-11.102-12.263a.8.8 0 0 0 .993.031.903.903 0 0 0 .245-.272.767.767 0 0 0 .158-.283.818.818 0 0 0-.069-.642.736.736 0 0 0-.213-.237.886.886 0 0 0-.638-.203.902.902 0 0 0-.6.31 1.018 1.018 0 0 0 .124 1.296zm19.939-4.582c.285.347.693 0 .78-.187.087-.187.408-1.176.186-1.43-.223-.253-.966.241-1.003.388-.074.387-.26.881.037 1.229zm-1.472 3.273c.185-.281 0-.815-.421-1.122a.45.45 0 0 0-.624-.04.508.508 0 0 0-.144.187.8.8 0 0 0-.111.845.75.75 0 0 0 .173.237.88.88 0 0 0 .58.153.902.902 0 0 0 .546-.26zm-4.951-10.901a.946.946 0 0 0 .294-.293c.078-.12.129-.257.151-.401 0-.615-.743-.762-1.027-.655a.833.833 0 0 0-.213.268.893.893 0 0 0 .126.988.633.633 0 0 0 .668.093zm1.151 9.07c.12.118.26.208.414.263a1.073 1.073 0 0 0 .936-.103c.14-.087.262-.205.358-.347a1.19 1.19 0 0 0 .268-.385 1.282 1.282 0 0 0-.207-1.351 1.573 1.573 0 0 0-2.03.214 1.427 1.427 0 0 0-.161.906c.047.313.197.598.421.803zm-2.39-3.967c0 .067-.098.241 0 .321a.262.262 0 0 0 .086.062.236.236 0 0 0 .201 0 .263.263 0 0 0 .085-.062c.099-.134 0-.307 0-.374a.29.29 0 0 0-.194-.041.306.306 0 0 0-.177.094zm-.346 15.857a.607.607 0 0 0-.359.213 1.05 1.05 0 0 0-.236.668c0 .247.084.484.236.668a.75.75 0 0 0 .334.227c.043.118.116.22.21.294.32.122.668.121.987-.003.318-.124.586-.364.759-.678.384-.615.186-1.216-.52-1.71a1.156 1.156 0 0 0-.751-.114 1.21 1.21 0 0 0-.672.381s.012.027.012.054zm-4.406 1.642c-.248.294-.173.668.21.882.384.214.718.267.867-.133.148-.401.284-1.123 0-1.336-.285-.214-.879.347-1.077.587zm-8.862-17.913a1.15 1.15 0 0 0-.387-.302 1.073 1.073 0 0 0-.934 0 1.15 1.15 0 0 0-.387.302 1.33 1.33 0 0 0-.124 1.657 1.578 1.578 0 0 0 2.08-.187c.135-.235.185-.515.14-.787a1.126 1.126 0 0 0-.388-.683zm-3.726-1.336a.753.753 0 0 0-1.101.094.93.93 0 0 0-.196.304.99.99 0 0 0 0 .727.924.924 0 0 0 .196.305.926.926 0 0 0 .619.242.926.926 0 0 0 .619-.242 1.178 1.178 0 0 0-.136-1.43zm4.939-6.265a1.179 1.179 0 0 0 .111 1.336.75.75 0 0 0 .251.19.697.697 0 0 0 .6 0 .757.757 0 0 0 .25-.19.985.985 0 0 0 .257-.668.983.983 0 0 0-.256-.668.845.845 0 0 0-.619-.277c-.232 0-.455.1-.619.277h.025zm-1.374 16.952a1.361 1.361 0 0 0-.916-.361c-.335 0-.66.128-.916.361-.232.263-.37.608-.385.971-.016.363.09.72.299 1.006a1.83 1.83 0 0 0 2.067-.08 1.528 1.528 0 0 0-.149-1.897zm-3.255 5.209a1.768 1.768 0 0 0-.306 1.145c.032.409.203.791.48 1.073.307.262.695.39 1.086.357.39-.032.756-.222 1.022-.532.267-.31.416-.717.418-1.14a1.76 1.76 0 0 0-.41-1.143 1.514 1.514 0 0 0-.554-.357 1.43 1.43 0 0 0-1.256.132 1.585 1.585 0 0 0-.48.465zm-4.79-5.49c-.532-.454-1.04-.133-1.51.107a5.263 5.263 0 0 0 0 .628 1.79 1.79 0 0 0-.253.718c-.032.257-.009.519.067.765.09.224.248.408.45.52.2.112.43.145.652.094.256-.093.477-.274.629-.515.152-.241.227-.529.212-.821a2.09 2.09 0 0 0-.11-.24 1.05 1.05 0 0 0-.137-1.256zm-3.045 2.792c-.594.762-.643 1.336-.148 1.804.257.162.555.231.851.197a1.35 1.35 0 0 0 .795-.384c.11-.3.14-.627.084-.943a1.76 1.76 0 0 0-.393-.847.775.775 0 0 0-.295-.178.738.738 0 0 0-.653.096.815.815 0 0 0-.24.255zm68.26-2.631a1.208 1.208 0 0 0-.272-.647 1.057 1.057 0 0 0-.57-.355.817.817 0 0 0-.555.274.944.944 0 0 0-.237.607.925.925 0 0 0 .2.641.795.795 0 0 0 .561.301.782.782 0 0 0 .594-.216.91.91 0 0 0 .279-.605zm-65.908-3.888c-.532.428-.928.842-.631 1.47a.82.82 0 0 0 .3.29.756.756 0 0 0 .393.097 1.2 1.2 0 0 0 .46-.263 1.33 1.33 0 0 0 .32-.445c.21-.641-.384-.788-.842-1.149zm5.013-1.055a1.251 1.251 0 0 0-.226.721c0 .261.08.515.226.722.668.681 1.485.841 1.88.374a1.837 1.837 0 0 0-.185-2.004 1.394 1.394 0 0 0-1.695.187zm6.2 15.75c.075-.321 1.411-.682 1.56-1.79a2.02 2.02 0 0 0-.349-1.366 1.751 1.751 0 0 0-1.124-.732 2.81 2.81 0 0 0-1.59.46c-.48.312-.869.764-1.12 1.304-.223.868.656 1.456.63 1.696-.024.241-1.014.655-1.41 1.496h3.973c-.297-.534-.62-.935-.57-1.068zm-6.374-30.591a1.131 1.131 0 0 0-.175.608c0 .217.061.429.175.608.31.32.953 0 1.238-.227.285-.227.483-1.216.173-1.537-.309-.32-1.2.254-1.41.548zm7.699 13.559a1.743 1.743 0 0 0-.935-.332 1.73 1.73 0 0 0-.959.238c-.109.13-.19.283-.24.45a1.309 1.309 0 0 0 .116 1.007c.085.149.2.276.334.373.446.441 1.04.321 1.572-.32a.996.996 0 0 0 .228-.306 1.07 1.07 0 0 0-.116-1.11zm-1.955-5.45a.91.91 0 0 0-.252.587.93.93 0 0 0 .19.615.87.87 0 0 0 .282.212.804.804 0 0 0 .673 0 .875.875 0 0 0 .282-.212.7.7 0 0 0 .2-.252.754.754 0 0 0 0-.645.7.7 0 0 0-.2-.252.822.822 0 0 0-.26-.216.75.75 0 0 0-.641-.029.8.8 0 0 0-.275.192zm.445 14.333c-.205.213-.33.499-.35.805-.02.306.064.609.238.851a.92.92 0 0 0 .642.323.908.908 0 0 0 .67-.243c.172-.269.256-.593.238-.92a1.535 1.535 0 0 0-.337-.883.756.756 0 0 0-.261-.171.713.713 0 0 0-.598.036.78.78 0 0 0-.242.202zm-7.092-16.591a.54.54 0 0 0-.171.198.584.584 0 0 0 0 .525c.04.081.1.149.17.199.31.254.644.441.991.08a1.17 1.17 0 0 0 .126-.7 1.13 1.13 0 0 0-.3-.636c-.26-.093-.569.12-.816.334zm2.549 25.581c.36-.357.615-.822.73-1.336a.194.194 0 0 0 .1-.08c.099-.133 0-.454-.136-.601a1.751 1.751 0 0 0-.421-.735 1.78 1.78 0 0 0-.64-.385 1.701 1.701 0 0 0-1.427.153 1.858 1.858 0 0 0-.557.513 1.898 1.898 0 0 0-.381.612 2.012 2.012 0 0 0 0 1.447c.088.229.218.437.38.612h2.117l.235-.2zm-3.862-12.183c-.47.601-.507 1.189-.16 1.523a.924.924 0 0 0 .325.222.86.86 0 0 0 .752-.051.957.957 0 0 0 .297-.264.938.938 0 0 0 .017-1.01.831.831 0 0 0-.24-.246c-.334-.24-.705-.521-.99-.174zm-.26 5.851a1.32 1.32 0 0 0 1.672-.08c.13-.265.175-.57.126-.866a1.366 1.366 0 0 0-.398-.764.706.706 0 0 0-.58-.161.706.706 0 0 0-.285.123.773.773 0 0 0-.212.239c-.533.641-.656 1.189-.322 1.509zm-1.348 1.483a1.393 1.393 0 0 1-.783-.281 1.561 1.561 0 0 1-.517-.694 1.327 1.327 0 0 0-.718-.432 1.255 1.255 0 0 0-.817.098 1.98 1.98 0 0 0-.42.917c-.061.341-.036.693.074 1.02.198.374.42.922.916.748a1.74 1.74 0 0 1 .755-.063c.254.034.498.124.718.263a1.544 1.544 0 0 0-.272.518 1.61 1.61 0 0 0-.063.591c.47.281.867.695 1.374.254a.813.813 0 0 0 .297-.516.852.852 0 0 0-.123-.593l-.186-.214c.088-.091.16-.2.21-.32.236-.468.038-1.229-.445-1.296zm29.718 0a1.498 1.498 0 0 0-.964.483 1.73 1.73 0 0 0-.448 1.04c.087.435.326.816.667 1.065.342.249.759.346 1.165.271.333-.075.635-.266.858-.544.224-.277.357-.626.38-.993.099-.761-.78-1.322-1.659-1.322zm1.336-14.801a.717.717 0 0 0 .062.641c.111.121.594.281.705.08a.674.674 0 0 0 .001-.338.637.637 0 0 0-.162-.289c-.21-.107-.544-.281-.606-.094zm.743 10.874c.06.008.122.001.18-.02a.406.406 0 0 0 .156-.102.468.468 0 0 0 .122-.359c0-.281-.273-.441-.496-.601-.222-.161-.383-.348-.656-.321-.272.027-.383.468-.185.801.21.316.524.532.879.602zm-.161-14.654a.28.28 0 0 0 0 .32.25.25 0 0 0 .179.078.25.25 0 0 0 .18-.078.328.328 0 0 0 .017-.203.31.31 0 0 0-.104-.171c-.037-.067-.235-.067-.272.054zm1.794 1.376a.756.756 0 0 0-.647-.115.79.79 0 0 0-.3.159.87.87 0 0 0-.216.276c-.322.508-.322.989 0 1.189a1.3 1.3 0 0 0 .768.109c.26-.042.505-.164.705-.349.11-.214.139-.466.081-.702a.944.944 0 0 0-.39-.567zm7.897 13.318a.896.896 0 0 0 .733.201.895.895 0 0 0 .359-.155.982.982 0 0 0 .27-.3.92.92 0 0 0-.083-1.012.823.823 0 0 0-.264-.217c-.36-.2-.755-.427-1.003 0-.384.601-.384 1.189-.012 1.483zm-9.493 3.566c.247-.467.544-.895.817-1.336a.717.717 0 0 0 .257-.23.82.82 0 0 0 .105-.692.768.768 0 0 0-.177-.306.904.904 0 0 0-.63-.341.884.884 0 0 0-.67.234c-.238.18-.501.319-.78.414a.641.641 0 0 0-.532-.052.682.682 0 0 0-.238.142.742.742 0 0 0-.17.23.786.786 0 0 0 0 .201 1.37 1.37 0 0 0-.235.467c-.124.454.532 1.443 1.027 1.59.495.147.904.307 1.226-.321zm6.04-1.683a.751.751 0 0 0-.94.041.85.85 0 0 0-.212.28c-.52.828-.507 1.336 0 1.817.272.125.574.155.863.086.289-.07.55-.235.746-.474.084-.308.086-.636.005-.946a1.74 1.74 0 0 0-.462-.804zm-4.209-7.547a1.356 1.356 0 0 0-.396-.12.528.528 0 0 0 0-.455c-.16-.173-.532 0-.68.161a.419.419 0 0 0-.08.247c0 .09.028.177.08.247a.442.442 0 0 0 .21.08 1.21 1.21 0 0 0 .021.596c.057.193.16.365.3.5.347.227.558 0 .743-.268.186-.267.186-.788-.198-.988zm0 7.681a2.784 2.784 0 0 1-.31.748c-.19.252-.288.57-.276.894.011.325.132.634.339.869.42.534.928.508 1.485-.321.167-.632.3-1.274.396-1.923a.908.908 0 0 0-.16-.646.807.807 0 0 0-.242-.219.748.748 0 0 0-.303-.097.758.758 0 0 0-.597.142.878.878 0 0 0-.332.553z" fill="#98A2B3" fill-opacity=".15"/><path d="M112.953 122.281c.124.668.668.455.928.615.158.107.335.178.519.209s.372.022.553-.028c.181-.05.35-.14.498-.263.147-.122.27-.277.361-.452a1.437 1.437 0 0 0-.005-.849 1.328 1.328 0 0 0-.478-.674.94.94 0 0 0-.668-.285.944.944 0 0 0-.669.285c-.334.36-1.163.775-1.039 1.442zm2.809-11.033c-.111-.602-.816-.668-1.076-.535a.82.82 0 0 0-.197.283.883.883 0 0 0 0 .69.82.82 0 0 0 .197.283.658.658 0 0 0 .668 0c.235-.12.458-.508.408-.721zm-1.076 5.944a.279.279 0 0 0 0 .321.238.238 0 0 0 .179.083.238.238 0 0 0 .179-.083.325.325 0 0 0-.086-.374s-.235.053-.272.053zm-30.448 8.229c-.024.16-.014.325.031.481.046.155.124.297.229.414.07.081.155.145.25.186a.636.636 0 0 0 .591-.044.706.706 0 0 0 .224-.222.866.866 0 0 0-.087-1.029c-.235-.347-1.151-.147-1.238.214zm34.52 8.121c.277-.07.523-.241.696-.485.174-.243.264-.543.257-.85a1.251 1.251 0 0 0-.652-.54 1.15 1.15 0 0 0-.821.019 1.005 1.005 0 0 0-.375.502 1.088 1.088 0 0 0-.019.644c.059.212.18.397.345.527a.89.89 0 0 0 .569.197v-.014zm-39.57-8.789a.897.897 0 0 0-.204.302.956.956 0 0 0 0 .732.897.897 0 0 0 .204.302.979.979 0 0 0 .62.223.98.98 0 0 0 .618-.223.885.885 0 0 0 .21-.301.94.94 0 0 0 0-.735.88.88 0 0 0-.21-.3.813.813 0 0 0-.276-.237.74.74 0 0 0-.686 0 .813.813 0 0 0-.276.237zm21.648 11.902a1.75 1.75 0 0 0-.675-.313 1.68 1.68 0 0 0-.733 0c-.242.054-.472.16-.674.313a1.908 1.908 0 0 0-.505.574 1.849 1.849 0 0 0-.36 1.002h3.516a1.608 1.608 0 0 0-.059-.883 1.48 1.48 0 0 0-.51-.693zm-22.069-10.366c-.235-.267-.52.107-.656.241-.136.133 0 .454 0 .48a.618.618 0 0 0 .557 0 .473.473 0 0 0 .131-.146.518.518 0 0 0 .055-.394.508.508 0 0 0-.087-.181zm14.259 11.795a.484.484 0 0 0-.291-.099.485.485 0 0 0-.291.099.218.218 0 0 0-.074.174h.742a1.001 1.001 0 0 0-.086-.174zm2.772-22.829c.334.214.693.348 1.003 0 .31-.347 0-1.229-.31-1.336-.309-.106-.569.187-.792.428a.564.564 0 0 0-.138.219.604.604 0 0 0 .056.511.536.536 0 0 0 .181.178zm6.733.521a.976.976 0 0 0 .062 1.216.842.842 0 0 0 .64.222.857.857 0 0 0 .598-.329.778.778 0 0 0 .147-.917.71.71 0 0 0-.209-.245.823.823 0 0 0-.288-.21.774.774 0 0 0-.678.03.841.841 0 0 0-.272.233zm-7.154 15.896c.112-.133 0-.454-.074-.614-.074-.16-.42-.254-.594-.08-.173.174.074.561.186.694a.41.41 0 0 0 .241.08.41.41 0 0 0 .241-.08zm8.751-7.467a.89.89 0 0 0-.661-.131.945.945 0 0 0-.577.371 1.02 1.02 0 0 0-.116.733.992.992 0 0 0 .144.345.915.915 0 0 0 .257.258.796.796 0 0 0 .944-.105.896.896 0 0 0 .207-.282.82.82 0 0 0 .046-.965.725.725 0 0 0-.244-.224zm-.978-3.099a1.284 1.284 0 0 0 .018 1.447c.099.137.223.249.366.33.495.387 1.077.2 1.534-.495.175-.19.273-.447.273-.714 0-.268-.098-.525-.273-.715a1.716 1.716 0 0 0-.978-.223 1.736 1.736 0 0 0-.94.37zm-12.377-.521c-.26.401.1 1.336.644 1.803a.933.933 0 0 0 .709.101 1 1 0 0 0 .59-.435 1.417 1.417 0 0 0-.16-1.656 1.452 1.452 0 0 0-.92-.213c-.319.033-.62.173-.863.4zm1.56 5.771a.81.81 0 0 0 .328.256.75.75 0 0 0 .402.051c.164-.071.311-.18.433-.318s.215-.303.272-.483c.149-.695-.47-.775-.953-1.029-.482.468-.829.935-.482 1.523zM89.981 110.7a.624.624 0 0 0 0 .574c.111.107.545.307.68.067a.705.705 0 0 0 .014-.383.664.664 0 0 0-.187-.325.54.54 0 0 0-.507.067zm-.347 17.179a2.017 2.017 0 0 0-.166 1.322c.096.447.34.842.686 1.109.401.227.86.307 1.306.228a2.04 2.04 0 0 0 1.17-.669.71.71 0 0 0 .242.278.64.64 0 0 0 .34.109.786.786 0 0 0 .543-.096.881.881 0 0 0 .372-.438c.125-.212.172-.467.13-.715a1.019 1.019 0 0 0-.353-.621 1.072 1.072 0 0 0-1.336.201.94.94 0 0 0-.706-.227c-.507 0-.359 0-.668-.481a.932.932 0 0 0-.324-.374.831.831 0 0 0-.912 0 .932.932 0 0 0-.324.374zm3.886 6.679a1.28 1.28 0 0 0-1.56-.147 2.043 2.043 0 0 0-.136 1.964c.236.347.509.868.979.641a1.92 1.92 0 0 1 1.708.107.653.653 0 0 0 .61.008.709.709 0 0 0 .246-.21.778.778 0 0 0 .134-.306c.173-.534-.111-1.269-.582-1.242a1.38 1.38 0 0 1-.81-.184 1.526 1.526 0 0 1-.588-.631zm11.103-2.445a.475.475 0 0 0 .289-.044.524.524 0 0 0 .218-.21.829.829 0 0 0 .399-.062.893.893 0 0 0 .332-.245c.141-.287.191-.617.142-.938a1.515 1.515 0 0 0-.415-.838.729.729 0 0 0-.59-.157.741.741 0 0 0-.29.121.804.804 0 0 0-.221.236 1.412 1.412 0 0 0-.074 1.456c-.075.08-.149.174-.137.214.013.04.198.44.347.467zm-8.379 0c-.446.695-.508 1.256-.161 1.536.266.148.57.201.865.15.296-.05.57-.201.781-.43a1.44 1.44 0 0 0 .04-.876 1.338 1.338 0 0 0-.473-.714c-.36-.254-.755-.12-1.052.334zm-.05-14.307a.938.938 0 0 0-.171.327.98.98 0 0 0 .074.731.886.886 0 0 0 .233.278c.193.14.426.196.655.159a.915.915 0 0 0 .583-.359c.122-.228.163-.496.115-.754a1.097 1.097 0 0 0-.375-.649.734.734 0 0 0-.61-.122.78.78 0 0 0-.288.139.837.837 0 0 0-.216.25zm1.498 5.33a1.25 1.25 0 0 0 .099 1.43c.743.601 1.572.668 1.918.16.132-.332.165-.7.097-1.054a1.804 1.804 0 0 0-.48-.923 1.384 1.384 0 0 0-.873-.078 1.461 1.461 0 0 0-.761.465zm-1.72-14.734a1.087 1.087 0 0 0-.105.63c.029.217.122.418.265.572.335.281.941-.093 1.238-.374.297-.28.36-1.255 0-1.536-.359-.28-1.188.388-1.398.708zm5.94 19.343a1.266 1.266 0 0 0-.967-.331 1.3 1.3 0 0 0-.902.505 1.51 1.51 0 0 0-.306 1.044c.03.379.198.729.467.973.335.16.705.214 1.067.155s.7-.229.976-.489a1.51 1.51 0 0 0 .162-.997 1.439 1.439 0 0 0-.497-.86zm-.792-9.297a1.163 1.163 0 0 0-.806-.171c-.279.044-.536.19-.728.412a1.415 1.415 0 0 0-.112 1.669c.336.186.719.245 1.09.168a1.66 1.66 0 0 0 .952-.595c.12-.256.145-.551.072-.826a1.134 1.134 0 0 0-.468-.657zm-1.918 14.841a1.798 1.798 0 0 0-.181 1.179c.075.404.285.764.59 1.012.68.587 1.435.414 2.042-.455.146-.149.259-.332.33-.536.07-.203.097-.421.078-.638a1.49 1.49 0 0 0-.189-.61 1.388 1.388 0 0 0-.417-.46 1.474 1.474 0 0 0-.587-.295 1.414 1.414 0 0 0-.647-.006 1.462 1.462 0 0 0-.591.285 1.602 1.602 0 0 0-.428.524zm2.364-22.576c-.108.218-.144.47-.101.713.043.243.161.463.336.623a.73.73 0 0 0 .574.18c.102-.014.2-.05.289-.106a.767.767 0 0 0 .226-.221c.153-.2.229-.455.212-.713a1.052 1.052 0 0 0-.298-.676.877.877 0 0 0-.655-.159.915.915 0 0 0-.583.359z" fill="#98A2B3" fill-opacity=".15"/></svg>