<svg xmlns="http://www.w3.org/2000/svg" viewBox="0 0 250 140"><defs><style>.cls-1{fill:#20377d}.cls-2{fill:#294492}.cls-3{fill:#0a89db}.cls-5{fill:#00bfb3}.cls-6{fill:#fec514}.cls-7{fill:#ff957d}.cls-8{fill:#f04e98}.cls-9{fill:#7de2d1}</style></defs><g id="Layer_1" data-name="Layer 1"><path class="cls-1" d="M80.64 19.05a.66.66 0 0 0-.13.76.61.61 0 0 0 .72.08.46.46 0 0 0 .13-.53c-.19-.31-.52-.45-.72-.31ZM80.8 21.08a.36.36 0 0 0-.07.49.72.72 0 0 0 .33.29l.5-.22a1 1 0 0 0 0-.56c-.03-.21-.56-.23-.76 0ZM80.31 18c.15.15.39.05.51 0s.11-.24 0-.37-.32-.2-.41-.07-.25.25-.1.44ZM81.86 17.28a.51.51 0 0 0 .67.2.77.77 0 0 0 .18-.93.52.52 0 0 0-.66-.07.54.54 0 0 0-.19.8ZM85 18.35a.59.59 0 0 0 .2-.88.63.63 0 0 0-.81-.25c-.27.14-.32.63-.11 1a.48.48 0 0 0 .72.13ZM82.43 19.18a.8.8 0 0 0 1 .31.83.83 0 0 0 .25-1c-.17-.32-.62-.38-1-.14a.62.62 0 0 0-.25.83ZM84.52 20.42c-.12-.16-.27-.15-.43 0a.38.38 0 0 0-.18.31ZM76.75 23.79a.25.25 0 0 0 .06-.41.46.46 0 0 0-.34-.14c-.1 0-.28.33-.19.47a.33.33 0 0 0 .47.08ZM74.9 21.3c.16-.07.08-.3 0-.37a.21.21 0 0 0-.28-.1.23.23 0 0 0-.07.29c.06.07.2.25.35.18ZM74.53 24.76c.1 0 .17-.18.17-.24a.24.24 0 0 0-.17-.19c-.08 0-.16.11-.18.18a.28.28 0 0 0 .18.25ZM74.7 23.78a.38.38 0 0 0 .41.27.3.3 0 0 0 .31-.26c0-.28-.14-.4-.38-.52-.19.15-.42.24-.34.51ZM79.91 18.26a.42.42 0 0 0 .06-.34.3.3 0 0 0-.46-.06.64.64 0 0 0-.07.28c.15.2.37.24.47.12ZM75.8 23.28a.56.56 0 0 0 .13-.41c0-.14-.33-.19-.45-.07s-.09.22-.12.29c.14.23.35.31.44.19ZM73.4 21.57c.23.26.64 0 .63-.2s-.34-.43-.51-.34-.35.29-.12.54ZM73.37 19.17c.12-.09 0-.23 0-.29a.24.24 0 0 0-.23 0 .27.27 0 0 0 0 .24s.1.15.23.05ZM77.34 22.59a.66.66 0 0 0 .74.65h.1l.24-.12c.16-.17.18-.4.41-.33a.27.27 0 0 1 .12.07l1-.46c-.09-.06-.17-.09-.17-.14s.09-.45-.19-.51c-.58-.14-.56.42-.75.43S78.3 22 78 22s-.7.19-.66.59ZM77.42 20.93c.1.18.51.22.75.08a.45.45 0 0 0 .2-.62.6.6 0 0 0-.76-.25.64.64 0 0 0-.19.79ZM79.38 20c.13-.11.08-.42 0-.52a.29.29 0 0 0-.44 0 .23.23 0 0 0 0 .38c.06.01.32.22.44.14ZM77.06 19.1c.08-.15.37-.32.28-.5s-.39-.12-.56-.18l-.08.09a.35.35 0 0 0 .09.41.44.44 0 0 0 .27.18ZM77.07 19.39v.1c0 .01.09.09.14.07s0-.08 0-.13-.11-.05-.14-.04ZM73.53 24.37c.08-.14-.18-.58-.39-.53a.37.37 0 0 0-.26.41c.06.21.57.27.65.12ZM65.58 31.11c.13-.09.09-.3-.06-.42s-.32-.13-.41 0-.23.38 0 .52.35-.02.47-.1ZM60.51 36a.67.67 0 0 0 .06-.81.65.65 0 0 0-.85 0 .67.67 0 0 0 .15.88.45.45 0 0 0 .64-.07ZM82.63 21a.32.32 0 0 0 .14-.46.35.35 0 0 0-.5-.14.39.39 0 0 0-.12.52.36.36 0 0 0 .48.08ZM58.44 38.1a.36.36 0 0 0-.36-.26c-.18 0-.22.16-.13.54a.33.33 0 0 0 .49-.28ZM56.15 42.72a.27.27 0 0 0-.42.06.53.53 0 0 0-.08.6v.24a.08.08 0 0 0 .08 0c.17-.28.36-.56.53-.84a.68.68 0 0 0-.11-.06ZM56.74 41.7a.37.37 0 0 0 0 .39c.11-.18.22-.37.34-.55a.55.55 0 0 0-.34.16ZM49.84 57.68a.49.49 0 0 0-.13.42c0 .09.13.18.23.22.06-.24.1-.48.16-.72a.37.37 0 0 0-.26.08ZM73.46 24.64v.2c0 .02.19.14.28.05s0-.23 0-.24a.29.29 0 0 0-.28-.01ZM106.1 30.08a.39.39 0 0 0 .2 0s.08-.16.06-.19a.31.31 0 0 0-.23-.08s0 0-.07 0ZM50.19 53.75a.26.26 0 0 0-.09-.41.44.44 0 0 0-.37 0c-.09.05-.15.4 0 .5a.35.35 0 0 0 .46-.09ZM52 46.87c.12-.13 0-.27-.11-.36a.26.26 0 0 0-.41.07c0 .12-.14.37.05.46s.38-.04.47-.17ZM51.56 51.51c-.17.07-.54 0-.79.09s-.62.45-.44.82a.66.66 0 0 0 .92.35c.49-.21.19-.68.54-.69.15-.41.28-.81.44-1.21a.35.35 0 0 0-.11 0c-.6.05-.39.56-.56.64ZM50.75 47.23a.5.5 0 0 0 0 .28c.21.14.43.11.48 0a.45.45 0 0 0 0-.34.31.31 0 0 0-.48.06ZM50.76 48.87a.23.23 0 0 0 .11.36c.1.06.4.17.48 0s-.07-.42-.17-.5-.31-.02-.42.14ZM53.05 48.55A.46.46 0 0 0 53 48c-.29-.22-.65-.25-.79 0a.65.65 0 0 0 .14.76.6.6 0 0 0 .7-.21ZM71.39 25.93a.37.37 0 0 0-.49.06.41.41 0 0 0 0 .53.19.19 0 0 0 .1.05.77.77 0 0 0-.11.83.2.2 0 0 0 .08.08l1-.71a1.34 1.34 0 0 0-.07-.18.62.62 0 0 0-.5-.28.48.48 0 0 0-.01-.38ZM65.08 26.93c0-.06.12-.21 0-.26a.26.26 0 0 0-.26 0c0 .05-.11.25 0 .3a.22.22 0 0 0 .26-.04ZM65.31 24.29c.11-.11 0-.23-.09-.29a.23.23 0 0 0-.2 0 .29.29 0 0 0 0 .24.22.22 0 0 0 .29.05ZM63.56 28.38c-.29.26-.3.45 0 .73s.43.43.64.64c-.37.42-.36.49.06.71.27-.12.3-.32.19-.58.55-.42.46-.81-.21-1.1a.71.71 0 0 1 0-.14c0-.21-.09-.3-.26-.37a.37.37 0 0 0-.42.11ZM65.42 25.67a.2.2 0 0 0 .3-.08.22.22 0 0 0-.08-.27.19.19 0 0 0-.27 0 .21.21 0 0 0 .05.35ZM64.13 33.09a.91.91 0 0 0-.91.3.56.56 0 0 0 0 .64ZM63.75 27.92c.17-.22.1-.36 0-.45s-.3-.14-.38 0a.41.41 0 0 0 0 .39c.1.14.28.05.38.06ZM53.45 45.83a.76.76 0 0 0-.15-.93.56.56 0 0 0-.55 1 .51.51 0 0 0 .7-.07ZM61.92 32.22a.48.48 0 0 0 .72-.15.63.63 0 0 0-.17-.94.65.65 0 0 0-.84.16.72.72 0 0 0 .29.93ZM71.26 24.25a.56.56 0 0 0 .22-.61.37.37 0 0 0-.08-.18.24.24 0 0 0 0-.22c-.07-.08-.27-.27-.45-.14a.19.19 0 0 0-.08.19c-.19 0-.44 0-.53.15s.11.33.15.45c.11.33.51.52.77.36ZM69 27.19c.09.06.3-.11.32-.17a.27.27 0 0 0-.12-.26.29.29 0 0 0-.27.1.3.3 0 0 0 .07.33ZM66.92 30.25a.8.8 0 0 0 .27.12l.66-.55a.75.75 0 0 0-.29-.67.76.76 0 0 0-.89.17c-.21.28-.1.68.25.93ZM68.92 24.41a.38.38 0 0 0 0-.49.33.33 0 0 0-.48 0 .39.39 0 0 0 0 .5.32.32 0 0 0 .48-.01ZM68.26 27.16a.63.63 0 0 0 0-.84.56.56 0 0 0-.69.19.52.52 0 0 0 .15.68c.21.17.4.15.54-.03ZM69.44 28.55l.57-.44a.49.49 0 0 0-.32-.31.41.41 0 0 0-.3.73ZM54.93 41.6a.33.33 0 0 0 .07.4c.21.24.34.25.67.08.25.07.46.16.68.2a.24.24 0 0 0 .26-.37c-.16-.21-.27-.48-.58-.55l-.33.18c-.34-.12-.7-.11-.77.06ZM54.8 40.5a.33.33 0 0 0 .45-.31c0-.11-.25-.2-.4-.28a.14.14 0 0 0-.22.05.45.45 0 0 0 .17.54ZM56.34 36.18a.36.36 0 0 0-.36-.26.32.32 0 0 0-.14.54.33.33 0 0 0 .5-.28ZM54.2 46.47l.1-.17a1 1 0 0 0-.43.3.59.59 0 0 0-.06.69ZM56.87 39c.07-.09 0-.23-.06-.25s-.16-.11-.25 0a.14.14 0 0 0 0 .21c.08.04.24.11.31.04ZM55.08 43.77c.08-.17-.26-.68-.48-.67s-.31.52-.13.68.53.15.61-.01ZM58.91 31.58a.44.44 0 0 0 0-.54.53.53 0 0 0-.67 0 .59.59 0 0 0 0 .72c.1.15.44.07.67-.18ZM61.24 29.65c0-.24 0-.47-.23-.56a.32.32 0 0 0-.42.17.45.45 0 0 0 0 .36c.17.24.41.18.65.03ZM60.46 33.57a.65.65 0 0 0-.06-.81.59.59 0 0 0-.75.1c-.19.21-.14.44.14.67s.55.18.67.04ZM57.47 40.76a.33.33 0 0 0 0-.47.29.29 0 0 0-.43.07.27.27 0 0 0 0 .39.28.28 0 0 0 .43.01ZM61.84 35.46l.45-.51a.78.78 0 0 0-.29-.45.37.37 0 0 0-.51.12.52.52 0 0 0 0 .74.67.67 0 0 0 .35.1ZM57.47 35.79c0 .07 0 .15-.07.23a.74.74 0 0 0 .28.77.87.87 0 0 0 .84 0 .44.44 0 0 0 .19-.27.68.68 0 0 0-.48-.83L58 35.6a4.28 4.28 0 0 0 .14-.43c.07-.27 0-.39-.25-.5a.55.55 0 0 0-.63.13.48.48 0 0 0-.07.59 2.43 2.43 0 0 0 .28.4ZM51.91 83.2a.29.29 0 0 0 .33-.27.33.33 0 0 0-.33-.34.3.3 0 0 0-.28.33.27.27 0 0 0 .28.28ZM54.58 89.62a.83.83 0 0 0-.74-.72c-.37 0-.64.34-.65.82a.61.61 0 0 0 .61.63.8.8 0 0 0 .78-.73ZM54.25 85.16a2.81 2.81 0 0 0 0-.58c0-.16-.1-.22-.28-.21s-.11.09-.11.13a.84.84 0 0 1-.23.47.4.4 0 0 0 .08.34.44.44 0 0 0 .35.1c.08-.01.17-.16.19-.25ZM53.73 87.07a.63.63 0 0 0-.62.58c0 .3.38.59.78.58a.48.48 0 0 0 .5-.54.59.59 0 0 0-.66-.62ZM52.59 86.13c.22 0 .51-.26.5-.44s-.29-.42-.62-.41-.28.14-.29.32.21.54.41.53ZM52.7 84.44a.43.43 0 0 0 .39-.37c0-.17-.26-.44-.4-.43a.53.53 0 0 0-.41.48.37.37 0 0 0 .42.32ZM53.32 83.24c0 .28.21.43.55.41s.42-.21.39-.55-.15-.4-.34-.4a.81.81 0 0 0-.6.54ZM52.24 93.46a.23.23 0 0 0 .32.21c.11 0 .41-.12.38-.29s-.32-.27-.44-.27-.28.15-.26.35ZM88.41 130.26a1 1 0 0 0 0-.2l-.7-.29a.36.36 0 0 0 0 .36c.23.24.47.17.7.13ZM53.41 98.18c0 .11.15.19.19.25.27 0 .45-.14.39-.29a.59.59 0 0 0-.29-.31c-.14-.06-.33.17-.29.35ZM55.14 91.46a.33.33 0 0 0 .31-.37.31.31 0 0 0-.32-.35.36.36 0 0 0-.38.36.39.39 0 0 0 .39.36ZM53.41 91.37c-.37 0-.65.21-.64.46a.69.69 0 0 0 .6.5.62.62 0 0 0 .43-.58.46.46 0 0 0-.39-.38ZM55 93c.26 0 .56-.17.58-.37 0-.4-.36-.55-.56-.61s-.47.34-.4.67A.37.37 0 0 0 55 93ZM51.38 92.41c.26 0 .4-.2.34-.34a.42.42 0 0 0-.26-.23c-.15 0-.33.21-.27.37s.15.16.19.2ZM51.44 98.71c-.14-.08-.54.07-.55.26s.07.46.41.39.29-.57.14-.65ZM50.72 94.45c-.2 0-.3.28-.43.4v.11a.32.32 0 0 0 .39.13A.42.42 0 0 0 51 95c-.07-.19-.08-.53-.28-.55ZM51.72 102c-.1 0-.36.09-.34.31s.27.21.36.19a.35.35 0 0 0 .24-.23.23.23 0 0 0-.26-.27ZM50.69 91.09a.45.45 0 0 0-.36-.5.46.46 0 0 0-.43.4c0 .18.27.36.61.36.04-.05.17-.15.18-.26ZM53.79 100.66c-.08-.15-.6-.14-.66.07a.38.38 0 0 0 .22.43c.22.05.52-.36.44-.5ZM53.67 105.59a.27.27 0 0 0-.05.28.33.33 0 0 0 .32.1c.1 0 .06-.31 0-.36a.26.26 0 0 0-.27-.02ZM52.79 94.47c-.32 0-.63.28-.6.53a.64.64 0 0 0 .58.56c.21 0 .45-.33.45-.61a.44.44 0 0 0-.43-.48ZM55.1 96.16c.25-.49-.28-.65 0-.89s.37.11.72-.25.24-.88-.1-1-.54.18-.61.14-.35-.3-.55-.09c-.4.43.08.69 0 .86s-.41.35-.55.58a.6.6 0 0 0 .18.91.66.66 0 0 0 .91-.26ZM50.16 83.91c-.07-.08-.32 0-.48 0a.15.15 0 0 0-.14.18.46.46 0 0 0 .48.31.33.33 0 0 0 .14-.49ZM54.58 97.32a.49.49 0 0 0-.29.23c0 .1.14.41.31.4a.35.35 0 0 0 .31-.37.26.26 0 0 0-.33-.26ZM51.61 90.92c-.18 0-.34.17-.27.32s.12.38.33.32.24-.3.25-.43-.16-.22-.31-.21ZM51.51 98.11c.07 0 .29 0 .31-.19s-.22-.22-.3-.21-.23.05-.23.19.14.2.22.21ZM51.86 89.88c.3 0 .54-.25.52-.47a.76.76 0 0 0-.71-.63.54.54 0 0 0-.4.54.53.53 0 0 0 .59.56ZM49 98c-.06 0-.15.14-.13.19a.23.23 0 0 0 .18.16c.06 0 .22 0 .2-.21S49 98 49 98ZM49.11 88.12a.19.19 0 0 0-.15.15c0 .07.12.14.2.15s.2 0 .2-.16-.18-.14-.25-.14ZM48.38 92.64A.35.35 0 0 0 48 93c0 .22.15.35.34.34s.51-.23.49-.4-.26-.3-.45-.3ZM48.4 88.57c0-.1-.12-.16-.18-.17s-.26.07-.26.16.19.18.25.18.19-.08.19-.17ZM51.46 95.09c0-.06-.06-.06-.09-.1s-.09.06-.1.1 0 .09.07.08.12-.03.12-.08ZM64.28 115.12a.5.5 0 0 0 .09.44.41.41 0 0 0 .39.06.43.43 0 0 0 .13-.65.38.38 0 0 0-.61.15ZM62.66 111.52a.26.26 0 0 0-.27-.32.43.43 0 0 0-.33.18c-.05.09.06.42.23.44a.33.33 0 0 0 .37-.3ZM63.25 109.28c.2-.12.28 0 .43 0-.28-.48-.55-1-.81-1.42a1.24 1.24 0 0 0-.27 0 .9.9 0 0 0-.6 1c.1.29.49.21.63 0s.1-.11.15-.11a.16.16 0 0 1 0 .12c-.11.14-.47.26-.65.47s-.32.69 0 .92a.65.65 0 0 0 1-.14c.31-.4-.19-.65.12-.84ZM64.67 111c-.2 0-.44.25-.46.5a.47.47 0 0 0 .47.56c.3 0 .54-.11.55-.35a.31.31 0 0 0 0-.08c-.13-.19-.27-.38-.39-.58a.44.44 0 0 0-.17-.05ZM60 101.92c-.46-1.12-.88-2.25-1.26-3.36-.23 0-.46.23-.46.41a.69.69 0 0 0 .56.59h.11a.82.82 0 0 0-.11.3 1.18 1.18 0 0 0 .21.78.63.63 0 0 1 .07.3c0 .39.15.59.54.59a.39.39 0 0 0 0 .14c0 .12.17.23.34.25ZM68.57 116.84c0 .3.12.59.34.61a.71.71 0 0 0 .57-.36c-.21-.23-.4-.46-.6-.7a.48.48 0 0 0-.31.45ZM60.82 109.17h.09c.21 0 .51-.24.56-.52a.46.46 0 0 0-.35-.56c-.3 0-.66.17-.68.42a.68.68 0 0 0 .19.49c-.01.09.11.15.19.17ZM62.13 115.56c.09.12.67-.16.7-.32s-.28-.33-.56-.26-.22.46-.14.58ZM73.13 122.42a.35.35 0 0 0 .44-.28.37.37 0 0 0-.29-.43.45.45 0 0 0-.46.29.36.36 0 0 0 .31.42ZM79.4 127.62a.37.37 0 0 0 0 .45c.17.11.56-.14.53-.3s-.41-.31-.53-.15ZM79.89 126.24a.51.51 0 0 0-.37.11c-.13.18 0 .32.15.45s.39-.09.39-.33c0-.08-.06-.23-.17-.23ZM72.54 120.31a.47.47 0 0 0-.41.4.4.4 0 0 0 .37.39.32.32 0 0 0 .23-.07c0 .06.16.13.24.08a.2.2 0 0 0 .06-.24.35.35 0 0 0-.17-.13.37.37 0 0 0-.32-.43ZM59.7 106.31c0-.09-.11-.16-.18-.17s-.26.08-.25.17.18.18.24.17.19-.07.19-.17ZM69.06 118.39a.35.35 0 0 0 .27.4.34.34 0 0 0 .43-.28.39.39 0 0 0-.32-.47.36.36 0 0 0-.38.35ZM73.8 121.8a.24.24 0 0 0-.07.4.93.93 0 0 0 .32.15.38.38 0 0 0 .09-.53c-.14-.13-.22-.09-.34-.02ZM59.11 107.69c-.2-.06-.35.22-.5.31v.12a.34.34 0 0 0 .36.2.45.45 0 0 0 .31-.09c-.03-.16.02-.49-.17-.54ZM57.67 101.61a.21.21 0 0 0 .21-.13c0-.09-.08-.18-.15-.2s-.26 0-.28.12.15.21.22.21ZM56.88 94.55a.66.66 0 0 0 .61.6.27.27 0 0 0 .19-.11c-.08-.32-.18-.64-.26-1a.61.61 0 0 0-.54.51Z"/><path class="cls-1" d="M57.71 101.24a.44.44 0 0 0 0-.67.38.38 0 0 0-.57.27.49.49 0 0 0 .17.41.42.42 0 0 0 .4-.01ZM57.47 97.34a.73.73 0 0 0-.67-.6.56.56 0 0 0-.37.57.47.47 0 0 0 .56.47c.31-.03.51-.21.48-.44ZM55 99.17a.47.47 0 0 0 .39.77 2.92 2.92 0 0 0 .78-.09.74.74 0 0 0 .45-.74c0-.17-.11-.29-.27-.3a2.1 2.1 0 0 0-1.21.22.6.6 0 0 0-.14.14ZM61.94 113.84c.08-.08 0-.25-.06-.28a.27.27 0 0 0-.26 0c-.07.06 0 .2 0 .26a.27.27 0 0 0 .32.02ZM61.66 111.91a.62.62 0 0 0-.23-.37c-.13-.07-.36.12-.35.3s.11.21.14.27c.27.05.47-.05.44-.2ZM60.52 105.52a.44.44 0 0 0-.21-.27c-.15-.06-.37.15-.34.31a.76.76 0 0 0 .15.24c.26.01.43-.12.4-.28ZM55.09 84.12c0 .29.24.44.61.4 0-.35-.07-.7-.1-1a.21.21 0 0 0-.1 0c-.23-.06-.43.28-.41.6ZM60.55 105c.21 0 .3-.26.33-.39s-.11-.24-.27-.26-.35.11-.32.27.06.38.26.38ZM61 106.19a1.26 1.26 0 0 0 .28-.2.38.38 0 0 0-.41-.35c-.17 0-.19.15-.18.29s.13.32.31.26ZM56 89.89a.33.33 0 0 0 .29-.38.39.39 0 0 0-.42-.33.29.29 0 0 0-.26.35.37.37 0 0 0 .39.36ZM60.9 104.25a.25.25 0 0 0 .25.27c-.08-.15-.14-.31-.21-.46a.38.38 0 0 0-.04.19ZM56.53 92.85c.08.12.39.08.6 0-.12-.52-.23-1-.34-1.54-.4 0-.7.43-.54.69s.36.24.34.35-.19.34-.06.5ZM55 86.25a.61.61 0 0 0 .37.52c.14 0 .41-.19.45-.37a.29.29 0 0 0-.28-.33c-.33-.07-.54.04-.54.18ZM58.66 101.17a.18.18 0 0 0-.17.12c0 .07.09.15.16.19s.21 0 .23-.12-.15-.17-.22-.19ZM61.05 107.25c.12 0 .43 0 .43-.21s-.27-.34-.39-.36-.29.11-.31.3a.23.23 0 0 0 .27.27ZM81.66 128.84a.52.52 0 1 0-.55-.87c-.25.17-.38.53-.25.72a.72.72 0 0 0 .8.15ZM85.2 129.3a.64.64 0 0 0 .29-.53l-.92-.43a.58.58 0 0 0-.14.75.62.62 0 0 0 .77.21ZM76.73 127.17a.38.38 0 0 0-.12.51.35.35 0 0 0 .5.15.37.37 0 0 0 .14-.5.45.45 0 0 0-.52-.16ZM80.08 125.89a.61.61 0 0 0 .32.43.69.69 0 0 0 .53.06ZM77.55 125.74a.27.27 0 0 0-.21-.16.29.29 0 0 0-.27.13.4.4 0 0 0 0 .34h.08a.41.41 0 0 0 .06.24.36.36 0 0 0 .52.07.37.37 0 0 0 .11-.54.4.4 0 0 0-.29-.08ZM54.62 100c.06-.08-.06-.24-.12-.26a.23.23 0 0 0-.25 0c0 .06 0 .2.07.25s.24.08.3.01ZM75.58 125.91c-.16.1-.07.35 0 .46a.24.24 0 0 0 .34.16c.17-.08.28-.32.17-.43s-.36-.3-.51-.19ZM87.16 129.51l-.49-.2a.22.22 0 0 0-.11.05.35.35 0 0 0 0 .51c.12.13.24.28.4.18s.28-.37.2-.54ZM59.64 108.33s-.1 0-.11.08 0 .1 0 .1.13 0 .14-.07 0-.06-.03-.11ZM59.25 103a.51.51 0 0 0-.49.55.41.41 0 0 0 .33.38.45.45 0 0 0-.17.24c0 .18.2.4.53.46.06 0 .2-.12.23-.22a.48.48 0 0 0-.15-.5.31.31 0 0 0 .21-.32c-.01-.25-.31-.59-.49-.59ZM58.46 112.17c-.06.26 0 .45.33.45s.39-.51.26-.62-.55 0-.59.17ZM60 119.17a.32.32 0 0 0-.1.27.33.33 0 0 0 .3.16c.1 0 .11-.29.08-.36a.31.31 0 0 0-.28-.07ZM59.31 111c-.08 0-.24 0-.27.15s.1.21.18.24.3 0 .34-.13-.18-.21-.25-.26ZM60.34 114.29a.4.4 0 0 0 .14.47c.21.09.58-.26.52-.42s-.56-.24-.66-.05ZM63.87 113a2.1 2.1 0 0 0-1.24 0 .85.85 0 0 0-.16.11.47.47 0 0 0 .25.82 2.9 2.9 0 0 0 .78.06.72.72 0 0 0 .57-.65c.01-.18-.07-.34-.2-.34ZM62.26 117.77a.67.67 0 0 0-.59-.8.54.54 0 0 0-.65.43c-.06.38.26.88.58.9a.62.62 0 0 0 .66-.53ZM56.73 110.89a.25.25 0 0 0-.17.16c0 .07.09.19.15.2s.23 0 .24-.17-.15-.18-.22-.19ZM56.61 106.77a.8.8 0 0 0-.67.72.72.72 0 0 0 .67.71 1 1 0 0 0 .75-.81.7.7 0 0 0-.75-.62ZM55.15 101.06c-.26.12-.14.49 0 .59s.62-.28.63-.44-.37-.28-.63-.15ZM64 117.68c0 .21-.05.47.25.55a.35.35 0 0 0 .44-.21.43.43 0 0 0 0-.35c-.19-.19-.36-.17-.69.01ZM54.92 103.12a.54.54 0 0 0-.57.54c0 .39.42.82.73.78a.62.62 0 0 0 .56-.64.67.67 0 0 0-.72-.68ZM58.49 101.82a.38.38 0 0 0-.35-.39.39.39 0 0 0-.39.36.42.42 0 0 0 .39.42.38.38 0 0 0 .35-.39ZM58.74 115.24c-.1 0-.37 0-.4.24s.24.26.33.26a.32.32 0 0 0 .27-.18.23.23 0 0 0-.2-.32ZM57.13 105.48a.34.34 0 0 0-.4.33.31.31 0 0 0 .27.39c.23 0 .54-.13.55-.3s-.23-.39-.42-.42ZM57.3 103.41c.05.21 0 .47.34.49a.35.35 0 0 0 .4-.28.46.46 0 0 0-.1-.34c-.15-.16-.32-.12-.64.13ZM71.09 123.3c-.06 0 0 .17 0 .24s.15.15.24.1 0-.22 0-.29a.19.19 0 0 0-.24-.05ZM71.57 121.82c-.14 0-.45.06-.46.25s.22.27.33.31a.25.25 0 0 0 .35-.15c.05-.18-.07-.43-.22-.41ZM75.59 123.88c-.18-.1-.37-.23-.57 0s-.32.29-.49.43a.3.3 0 0 0-.2.45.39.39 0 0 0 .53.19.94.94 0 0 1 .4-.07.56.56 0 0 0 .59-.24c.15-.18-.07-.64-.26-.76ZM73.11 124.43a.89.89 0 0 0-1.19 0c-.2.23.07.53.29.56s.14 0 .22.26a.38.38 0 0 0 .56.23s.05 0 .07 0 .29-.32.27-.37l-.06-.16a.92.92 0 0 0-.16-.52ZM71 124.39a.24.24 0 0 0-.21.11s0 .25.11.27.18-.15.21-.22-.04-.16-.11-.16ZM74.4 124.05a.73.73 0 0 0 .71-.57c0-.22-.23-.48-.51-.5a.5.5 0 0 0-.57.48c-.03.31.13.54.37.59ZM71.15 119.08a.6.6 0 0 0 .19-.06c-.28-.27-.54-.56-.81-.84a.59.59 0 0 0-.06.16s0 0 0 .07a.62.62 0 0 0-.39.07.7.7 0 0 0-.27.93 1 1 0 0 0 1.07.25.62.62 0 0 0 .27-.58ZM67.93 119.33a.38.38 0 0 0-.34-.42c-.18 0-.22.12-.24.25a.25.25 0 0 0 .26.32 1.19 1.19 0 0 0 .32-.15ZM66.34 118.28a.77.77 0 0 0-.38-.67.5.5 0 0 0-.58.45c0 .23.15.44.48.5a.37.37 0 0 0 .48-.28ZM65.66 120.77c-.07 0-.27 0-.28.12s.14.21.21.21.2 0 .21-.13-.08-.18-.14-.2ZM67.51 116.4a.36.36 0 0 0-.36-.39.7.7 0 0 0 .07-.37.64.64 0 0 1 .09-.5.6.6 0 0 0 .06-.55l-.37-.49a.66.66 0 0 0-.33-.07h-.07a.63.63 0 0 0 .18-.22c-.16-.22-.34-.43-.5-.65-.24 0-.5.14-.53.32a.7.7 0 0 0 .45.69h.11a.56.56 0 0 0-.16.27 1.19 1.19 0 0 0 0 .81.44.44 0 0 1 0 .3.48.48 0 0 0 .43.68.27.27 0 0 0 0 .14c0 .16.18.33.4.36a.44.44 0 0 0 .53-.33ZM65.14 115.89a.38.38 0 0 0-.44.28.43.43 0 0 0 .31.49.37.37 0 0 0 .41-.33.37.37 0 0 0-.28-.44ZM68.38 123a.89.89 0 0 0-.77.9c0 .31.44.29.61.15s.13-.08.34 0 .56 0 .56-.36a.76.76 0 0 0-.74-.69ZM69.57 120.75c-.2.07-.41.13-.38.42s0 .43 0 .64a.31.31 0 0 0 .21.46.42.42 0 0 0 .49-.29 1.1 1.1 0 0 1 .2-.35.55.55 0 0 0 .2-.61c-.05-.18-.51-.34-.72-.27ZM67.07 120.52c-.18 0-.22.11-.24.25s.09.34.26.31a1.12 1.12 0 0 0 .31-.15.36.36 0 0 0-.33-.41ZM124.22 137.55c-.06 0-.23 0-.23.18s.19.13.26.14.15-.12.13-.15a.27.27 0 0 0-.16-.17ZM122.15 137.46c-.13 0-.23.23-.2.44a.21.21 0 0 0 .27.2c.17 0 .31-.11.3-.32a.39.39 0 0 0-.37-.32ZM123.87 135.36a.61.61 0 0 0-.57.7.75.75 0 0 0 .79.64.81.81 0 0 0 .61-.78c-.02-.36-.37-.59-.83-.56ZM122.67 134.54a.17.17 0 0 0-.27 0 .39.39 0 0 0 0 .32.51.51 0 0 0 .1.29c.11.1.25 0 .29-.16a.56.56 0 0 0-.12-.45ZM126.64 132.93c-.38-.05-.75-.12-1.12-.18.14.14.24.35.5.39a.68.68 0 0 0 .62-.21ZM126.87 135.77c-.29 0-.42.28-.35.64a.5.5 0 0 0 .5.37c.23 0 .6-.45.57-.64a.64.64 0 0 0-.72-.37ZM124.3 133.24c-.21.17-.11.59.12.9a.68.68 0 0 0 .87 0 .69.69 0 0 0-.15-.94.68.68 0 0 0-.84.04ZM122.12 136.22a.41.41 0 0 0 .18-.32.3.3 0 0 0-.34-.32.33.33 0 0 0-.29.33c-.01.15.33.39.45.31ZM126.86 134.27c0-.24.15-.46-.1-.6a.37.37 0 0 0-.48.09.3.3 0 0 0 0 .4c.11.23.33.19.58.11ZM127.2 133a.67.67 0 0 0 0 .2c0 .32.17.46.4.43s.52-.25.48-.51ZM119.07 137.61a.6.6 0 0 0-.5-.4.39.39 0 0 0-.29.45.37.37 0 0 0 .45.28c.27-.03.38-.17.34-.33ZM118.77 135.48c.19 0 .37-.41.33-.7a.44.44 0 0 0-.48-.32.51.51 0 0 0-.44.5.67.67 0 0 0 .59.52ZM117.34 131.51a.71.71 0 0 0-.47.66.64.64 0 0 0 .6.41.47.47 0 0 0 .39-.42c-.04-.4-.27-.68-.52-.65ZM120.7 135.15a.26.26 0 0 0-.24.34c.05.11.11.24.23.26s.35-.25.31-.43-.17-.18-.3-.17ZM120.89 132.07a.38.38 0 0 0-.43-.15.43.43 0 0 0-.32.43c.06.29.31.33.53.39.33-.31.33-.48.22-.67ZM119.69 137.33c-.09 0-.14.17-.13.22s.06.24.15.22a.26.26 0 0 0 .17-.2c0-.06-.1-.26-.19-.24ZM119.41 131.92c.27 0 .42-.18.45-.35l-.73-.18a.45.45 0 0 0 0 .2c.05.17.1.35.28.33ZM119.87 133.09a.52.52 0 0 0-.44 0c-.25.15-.09.36 0 .59.28 0 .52 0 .59-.27a.35.35 0 0 0-.15-.32ZM130.54 134.65a.21.21 0 0 0-.2.06c0 .07 0 .18.1.23s.2.05.25 0-.08-.25-.15-.29ZM138.53 136.68a.49.49 0 0 0-.69.26c-.13.29-.07.59.16.68a.71.71 0 0 0 .85-.3c.15-.2-.06-.53-.32-.64ZM137.83 135.55a.38.38 0 0 0-.13-.51.45.45 0 0 0-.53.13.36.36 0 0 0 .16.5.35.35 0 0 0 .5-.12ZM136.32 137.83a.27.27 0 0 0-.15-.22.38.38 0 0 0-.48.1.27.27 0 0 0 0 .39c.13.2.3.2.51.15 0 .14 0 .28.09.33s.38-.21.38-.26 0-.38-.15-.48a.16.16 0 0 0-.2-.01ZM137.63 134a.36.36 0 0 0-.06-.45h-.81a.65.65 0 0 0 .18.15.39.39 0 0 0 .22.47.34.34 0 0 0 .47-.17ZM135.2 134c-.12.05-.42.22-.4.35s.35.22.48.24.27-.2.23-.36-.14-.31-.31-.23ZM139.14 134.6c-.31-.15-.76 0-.81.29a.54.54 0 0 0 .26.59.42.42 0 0 0 .58-.07c.13-.13.47-.33.4-.59s-.31-.16-.43-.22ZM141.42 135.42a.85.85 0 0 0-.11-.16.48.48 0 0 0-.83.23 2.94 2.94 0 0 0-.06.78.72.72 0 0 0 .63.59c.18 0 .54-.1.48-.44-.36-.42.04-.59-.11-1ZM142.26 134.09a.52.52 0 1 0-.92-.46.59.59 0 0 0 .15.74.72.72 0 0 0 .77-.28ZM140 137.94v-.12a.11.11 0 0 0-.15 0 .12.12 0 0 0 .07.14s.08.04.08-.02ZM139.7 134.2a.35.35 0 0 0 .27.35c.2 0 .41-.41.3-.52s-.55-.03-.57.17ZM128.73 137.17c-.12.05-.41.22-.4.37s.37.19.5.18.25-.13.2-.31-.13-.29-.3-.24ZM135.05 133.59h-1.17c0 .08 0 .15-.07.23a.31.31 0 0 0 .05.5.42.42 0 0 0 .56-.11 1 1 0 0 1 .3-.27.58.58 0 0 0 .33-.35ZM130.09 138.85c-.09 0-.16.2-.15.26s.09.18.18.17.15-.12.15-.19-.09-.25-.18-.24ZM128.66 135.61a.41.41 0 0 0-.33.46.34.34 0 0 0 .38.29.37.37 0 0 0 .37-.42.41.41 0 0 0-.42-.33ZM130.16 133.35l-1.08-.1a.8.8 0 0 0 .43.65c.29.1.43-.01.65-.55ZM116.29 133.77a.42.42 0 0 0-.33.47.34.34 0 0 0 .38.28.37.37 0 0 0 .37-.42.41.41 0 0 0-.42-.33ZM130 136.43a.19.19 0 0 0 .12.07.12.12 0 0 0 .09-.1c0-.05-.06-.11-.12-.1a.13.13 0 0 0-.09.13ZM133.13 135.52a.77.77 0 0 0-.48-.86.89.89 0 0 0-1 .6c-.05.3.33.42.54.33s.14 0 .32.11h.06a.66.66 0 0 0-.11.45c0 .32.31.47.67.41a.51.51 0 0 0 .46-.63.54.54 0 0 0-.46-.41ZM134.43 136.87s-.06.24 0 .29.22-.08.27-.14a.15.15 0 0 0-.05-.19.26.26 0 0 0-.22.04ZM132.54 133.52l-1.23-.07a.71.71 0 0 0 .68.45.76.76 0 0 0 .55-.38ZM131.15 134.68a.62.62 0 0 0-.53.56.43.43 0 0 0 .43.38.52.52 0 0 0 .45-.55.36.36 0 0 0-.35-.39ZM162.93 127.71c.1-.07.25-.25.21-.33a.37.37 0 0 0-.31-.16c-.09 0-.29.22-.27.32s.32.2.37.17ZM168.18 123.32a.64.64 0 0 0 .62.52.71.71 0 0 0 .48-.67.55.55 0 0 0-.62-.34c-.36.06-.51.22-.48.49ZM171 120.17c.19 0 .55-.47.53-.63a.39.39 0 0 0-.12-.24l-.76.7a.37.37 0 0 0 .35.17ZM127.29 135.35c.1-.07.26-.24.22-.32a.39.39 0 0 0-.3-.18c-.09 0-.3.21-.28.31s.31.22.36.19ZM115.08 132.78a.49.49 0 0 0 .57.47c.27 0 .51-.27.47-.47a.74.74 0 0 0-.73-.53.45.45 0 0 0-.31.53ZM143.87 134a.31.31 0 0 0 .17.44.42.42 0 0 0 .5-.18.39.39 0 0 0-.2-.49.36.36 0 0 0-.47.23ZM136.29 136.3a.37.37 0 0 0 .18-.17s-.09-.15-.13-.15-.23 0-.24.16.16.17.19.16ZM136 134.59c-.13 0-.44-.09-.51.08s.12.33.21.41a.24.24 0 0 0 .38 0c.14-.18.12-.45-.08-.49ZM151.69 131.15a.25.25 0 0 0 .19.15c.06 0 .15-.12.15-.18a.31.31 0 0 0 0-.08l-.32.1ZM142.45 139a.38.38 0 0 0-.54.15.4.4 0 0 0 .2.53.38.38 0 0 0 .53-.18.4.4 0 0 0-.19-.5ZM176.93 115a.59.59 0 0 0-.67-.26.46.46 0 0 0-.26.48c.11.35.39.57.62.48a.64.64 0 0 0 .31-.7ZM177 113.69a.37.37 0 0 0 .18-.46c-.15.19-.31.38-.47.56a.54.54 0 0 0 .29-.1ZM166.68 123.34l-.25.19a.33.33 0 0 0 .25-.19ZM177.56 113.1c.25 0 .5-.27.47-.47a.56.56 0 0 0-.17-.34l-.58.71a.44.44 0 0 0 .28.1ZM115.4 135c-.17 0-.36.35-.29.46a.42.42 0 0 0 .36.13.22.22 0 0 0 .24-.28c-.04-.13-.1-.31-.31-.31ZM114.17 130.1c-.09 0-.33.12-.33.24s.25.23.35.25a.27.27 0 0 0 .27-.33.37.37 0 0 0-.29-.16ZM113.82 132.36a.29.29 0 0 0-.32.34.35.35 0 0 0 .37.36.36.36 0 0 0 .34-.35.37.37 0 0 0-.39-.35ZM115.67 130.8c0-.26-.26-.4-.6-.35s-.43.19-.41.4.39.58.6.56.45-.27.41-.61ZM123.75 134.71a.32.32 0 0 0 .19-.23.41.41 0 0 0-.15-.32c-.23-.12-.34.07-.46.23.07.22.18.37.42.32ZM122.72 133.38a1.21 1.21 0 0 1 .32-.11.54.54 0 0 0 .5-.5c0-.28-.13-.43-.54-.38a5.55 5.55 0 0 0-.68.4.34.34 0 0 0-.07.49.34.34 0 0 0 .47.1ZM121.88 132.36a.7.7 0 0 0 .44-.21l-.87-.2a.3.3 0 0 0 0 .13.34.34 0 0 0 .43.28ZM151.48 131.64c.1 0 .18.11.3.08s.13-.21 0-.33a.6.6 0 0 0-.39-.17h-.13a.18.18 0 0 0-.06.18.43.43 0 0 0 .28.24ZM145.54 132.69l-.83.16h.06a.62.62 0 0 0 .77-.16ZM171.35 121.34a.41.41 0 0 0-.48-.3.4.4 0 0 0-.27.45.41.41 0 0 0 .45.27.36.36 0 0 0 .3-.42ZM170.57 122.92a.33.33 0 0 0 .23-.42.43.43 0 0 0-.54-.26 1.18 1.18 0 0 0-.17.39c-.01.21.26.37.48.29ZM172.58 119.48a.55.55 0 0 0-.49.66.67.67 0 1 0 1.33-.2c-.05-.34-.42-.53-.84-.46ZM173.29 117.48l-.4.39c0 .15.15.27.34.24s.31-.14.24-.33a.78.78 0 0 0-.18-.3ZM170.31 120.43l-.06-.05-.4.37.09.15a.14.14 0 0 0 .2.08.46.46 0 0 0 .17-.55ZM149 132.79c-.07-.07-.27-.12-.33-.07a.6.6 0 0 0-.26.37c0 .28.25.27.48.34.11-.22.26-.43.11-.64ZM151.86 132.38a.33.33 0 0 0 .11.43c.12.1.5-.05.51-.19a.41.41 0 0 0-.17-.34.3.3 0 0 0-.45.1ZM155.06 132a.3.3 0 0 0-.12-.13l.1-.12v-.19a.28.28 0 0 0-.24 0 .21.21 0 0 0 0 .29c-.06 0-.11.1-.1.13s.19.13.27.13.1-.11.09-.11ZM152.2 136.94a.12.12 0 0 0 .06.14s.11 0 .12-.06a.11.11 0 0 0 0-.13.12.12 0 0 0-.18.05ZM151.32 136.11a.36.36 0 0 0 .21.48.35.35 0 0 0 .48-.21c.1-.21.07-.4-.08-.47a.61.61 0 0 0-.61.2ZM151.11 133c-.17-.06-.24 0-.31.16s0 .35.14.38.27.05.35 0-.01-.44-.18-.54ZM153.18 136.76v.29c0 .03.22-.08.26-.14s0-.19 0-.19a.27.27 0 0 0-.26.04ZM154.15 131.17c-.06 0-.08.09-.07.13s.09.07.12.06.09-.05.08-.1a.11.11 0 0 0-.13-.09ZM154.82 130.34a.52.52 0 0 0-.19-.24l-.6.22v.1a.37.37 0 0 0 .46.26c.24-.04.37-.18.33-.34ZM154 131.25a.79.79 0 0 0-.2-.84c-.36.13-.71.27-1.07.39a.59.59 0 0 0 .29.74.76.76 0 0 0 .98-.29ZM154 133.16a.39.39 0 0 0-.48.11c-.06.12.07.32.26.42a.2.2 0 0 0 .31-.11c.07-.16.09-.32-.09-.42ZM150.6 138.64a.26.26 0 0 0 .12.27.24.24 0 0 0 .23-.06.24.24 0 0 0 0-.23c-.11-.03-.31-.08-.35.02ZM152 135.24c0 .09.07.22.11.24s.23.08.26 0a.25.25 0 0 0-.06-.25c-.02-.04-.23-.08-.31.01ZM145.81 139.12a.33.33 0 0 0-.46.14.41.41 0 0 0 .14.55.41.41 0 0 0 .5-.18.45.45 0 0 0-.18-.51ZM146.28 135.66a.72.72 0 0 0-.85.31c-.1.17 0 .45.26.56a.5.5 0 0 0 .71-.21c.12-.25.06-.58-.12-.66ZM145.9 133.94a.71.71 0 0 0 .29.76.65.65 0 0 0 .68-.27.47.47 0 0 0-.14-.56c-.35-.19-.73-.16-.83.07ZM145.15 137.21a.37.37 0 0 0-.51.12.28.28 0 0 0 .1.45.35.35 0 1 0 .41-.57ZM149.6 134.31a.43.43 0 0 0-.53.21.5.5 0 0 0 .17.65.68.68 0 0 0 .76-.17c.07-.2-.14-.56-.4-.69ZM144.38 134.93c-.24-.12-.47 0-.63.3a.4.4 0 0 0 .11.56.75.75 0 0 0 .79-.18.48.48 0 0 0-.27-.68ZM143.26 135.63a.36.36 0 0 0-.3.15c-.05.08-.08.34 0 .41s.32-.08.4-.16a.26.26 0 0 0-.1-.4ZM148 138c.12 0 .23-.11.31-.22a.22.22 0 0 0-.1-.36c-.16-.07-.32-.1-.43.08s.05.5.22.5ZM147.7 135.91a.42.42 0 0 0-.51.16.43.43 0 0 0 .2.54.34.34 0 0 0 .45-.16.37.37 0 0 0-.14-.54ZM165.88 131.08c-.09 0-.15.21-.14.27s.1.18.19.17.15-.14.15-.21-.08-.24-.2-.23ZM164.31 127.91a.42.42 0 0 0-.31.48.33.33 0 0 0 .39.27.37.37 0 0 0 .35-.44.4.4 0 0 0-.43-.31ZM169 124.3c-.14 0-.17.36-.14.46s.19.15.3.15a.19.19 0 0 0 .18-.27c-.07-.11-.23-.37-.34-.34ZM164.45 129.47c-.12.05-.4.24-.38.38s.37.17.51.17a.23.23 0 0 0 .18-.33c-.05-.15-.15-.29-.31-.22ZM163.08 132.52c-.11 0-.38.21-.35.31s.29.22.41.24.26-.13.25-.34a.23.23 0 0 0-.31-.21ZM162.92 125.94a.29.29 0 0 0 .25 0c.3 0 .48-.26.44-.5ZM165.85 128.63a.11.11 0 0 0-.13-.09.12.12 0 0 0-.07.13s.09.07.12.06.09-.05.08-.1ZM168.15 125.34c0-.38-.35-.7-.65-.67a.91.91 0 0 0-.7.82.72.72 0 0 0 .76.56.69.69 0 0 0 .59-.71ZM166.76 126.87a.63.63 0 0 0-.51.58.43.43 0 0 0 .45.37.55.55 0 0 0 .43-.57c-.03-.25-.13-.39-.37-.38ZM166.32 125.38a.38.38 0 0 0-.13-.48c-.06 0-.17-.08-.22-.05a4.32 4.32 0 0 0-.48.31c-.44-.12-.79 0-.87.23a.76.76 0 0 0 .47.77c.3.1.43 0 .64-.62.27.06.48.15.59-.16ZM162.21 126.72l.25-.06a1.32 1.32 0 0 0 0-.44l-.63.37a.33.33 0 0 0 .09.21s.21 0 .26 0 .03-.06.03-.08ZM157.34 134.59v.34a.34.34 0 0 0 .32-.07c.06-.07.08-.35 0-.4s-.3.07-.32.13ZM157.89 130.05c-.13 0-.22.24-.18.45a.21.21 0 0 0 .27.19c.17 0 .31-.13.29-.33a.38.38 0 0 0-.38-.31ZM159 130.46a.22.22 0 0 0-.36.12v.47c0 .04.35-.11.44-.19s.05-.29-.08-.4ZM157.68 132.7a.35.35 0 1 0-.68.11.3.3 0 0 0 .36.3.36.36 0 0 0 .32-.41ZM155.43 130a.26.26 0 0 0-.13.23c0 .08.08.23.16.2a.23.23 0 0 0 .16-.2c0-.03-.1-.23-.19-.23ZM159.1 133.9c-.09 0-.25.14-.25.22s.16.21.25.22.33-.15.32-.25-.26-.21-.32-.19ZM163.26 128.49a.65.65 0 0 0-.74-.34c-.28.06-.4.3-.32.65a.52.52 0 0 0 .52.36c.28-.05.59-.49.54-.67ZM155.53 135a.35.35 0 1 0-.31.62.29.29 0 0 0 .45-.12.36.36 0 0 0-.14-.5ZM159.52 127.88h-.06l-.29.14a.63.63 0 0 0-.2.56.75.75 0 0 0 .82.6.78.78 0 0 0 .57-.8c-.03-.38-.36-.56-.84-.5ZM160 130c-.06 0-.22 0-.22.19s.19.13.27.13.13-.12.12-.15a.31.31 0 0 0-.17-.17ZM190.54 38.34h-.07l.35.72a.62.62 0 0 0 .16-.54.33.33 0 0 0-.44-.18ZM189.52 36.57c.17.31.34.63.5 1a.6.6 0 0 0 .13-.56.63.63 0 0 0-.63-.44ZM195.63 80a.34.34 0 0 0-.34-.38.36.36 0 0 0-.38.36.45.45 0 0 0 .36.4.36.36 0 0 0 .36-.38ZM194.73 83a.75.75 0 0 0-.14.76c.1.19.19.39.48.31s.42-.08.63-.12a.31.31 0 0 0 .41-.28.41.41 0 0 0-.36-.44.91.91 0 0 1-.38-.14.57.57 0 0 0-.64-.09ZM189.94 89.92a.49.49 0 0 0 .41-.17.39.39 0 0 0-.67-.41.38.38 0 0 0 .26.58ZM196.76 48.1a.78.78 0 0 0-.43.63.5.5 0 0 0 .67.32c.22-.06.32-.33.23-.65a.37.37 0 0 0-.47-.3ZM195.39 43.54a.69.69 0 0 0-.79-.39.74.74 0 0 0-.51.56.52.52 0 0 0-.4-.17.82.82 0 0 0-.76.37c.19.49.37 1 .55 1.48h.07a.36.36 0 0 0 .25-.45.09.09 0 0 0 0-.07.68.68 0 0 0 .48-.55.43.43 0 0 0 0-.05.61.61 0 0 0 .7.12.74.74 0 0 0 .28-.14.32.32 0 0 0 .13.23.5.5 0 0 0 .67-.19.62.62 0 0 0-.06-.68.49.49 0 0 0-.61-.07ZM197.67 50a.35.35 0 0 0-.38-.3.46.46 0 0 0-.3.19c-.11.19 0 .34.31.58.18-.09.43-.15.37-.47ZM195.67 81.32c-.18 0-.41.13-.37.29s.14.42.33.41.23-.27.25-.38a.24.24 0 0 0-.21-.32ZM193.48 42.68a.32.32 0 0 0 .42.23.36.36 0 0 0 .29-.44.4.4 0 0 0-.47-.27.41.41 0 0 0-.24.48ZM194.27 40.77c.17-.14.06-.31 0-.46s-.41 0-.46.22a.31.31 0 0 0 .11.27.49.49 0 0 0 .35-.03ZM198.91 52.32a.63.63 0 0 0-.77-.36.68.68 0 0 0-.45.89.55.55 0 0 0 .68.4.86.86 0 0 0 .54-.93ZM198.63 55a.7.7 0 0 0-1 0 .5.5 0 0 0 0 .74.64.64 0 0 0 1 .07.65.65 0 0 0 0-.81ZM194.68 77a.73.73 0 0 0 .2-.84.48.48 0 0 0-.33-.26c-.12.45-.26.9-.4 1.35a3.65 3.65 0 0 0 .53-.25ZM196.29 50.52a.54.54 0 0 0 0-.64.48.48 0 0 0-.55-.21 2.14 2.14 0 0 0-.46.17 2.12 2.12 0 0 0-.2-.12.89.89 0 0 0-.32-.08c.13.5.26 1 .37 1.5l.05-.06a.43.43 0 0 0-.09-.35.69.69 0 0 0 .11-.13l.1-.14a.36.36 0 0 0 .21 0l.2.14a.37.37 0 0 0 .58-.08ZM198.25 58.9c.17-.12.21-.28.06-.4s-.31-.33-.5-.19 0 .41 0 .54.29.15.44.05ZM199.24 61.26a.75.75 0 0 0 0-.9.66.66 0 0 0-1 0 .55.55 0 0 0-.11.81.75.75 0 0 0 1.11.09ZM196.87 73.83a.38.38 0 0 0-.38-.36c.13-.09.14-.24 0-.37s-.27-.18-.37 0-.24.4-.15.52.13 0 .23 0a.4.4 0 0 0-.1.26.38.38 0 0 0 .39.4.41.41 0 0 0 .38-.45ZM196.73 76.84c.16 0 .17-.24.05-.41a.22.22 0 0 0-.37 0c-.08.09-.22.37-.16.44s.37.01.48-.03ZM195.67 72.38a.38.38 0 0 0 .09-.56.4.4 0 0 0-.26-.12c-.05.24-.09.48-.14.72a.35.35 0 0 0 .31-.04ZM197.25 65.2a.53.53 0 0 0-.7 0 .64.64 0 0 0-.25.32s0 .06 0 .1a.38.38 0 0 0 .08.24.64.64 0 0 0 .79.14.67.67 0 0 0 .08-.8ZM198.11 63.11a.37.37 0 0 0 .06-.52.39.39 0 0 0-.59.5.42.42 0 0 0 .53.02ZM197.3 61.73a1 1 0 0 0 .16-.81.53.53 0 0 0-.78 0c-.2.17-.19.42 0 .7s.46.25.62.11ZM191.57 36.79a.31.31 0 0 0 .18-.44.41.41 0 0 0-.48-.22.4.4 0 0 0-.2.49.38.38 0 0 0 .5.17ZM200.69 53.33s.09-.26 0-.34-.32 0-.36.09a.29.29 0 0 0 .06.28.34.34 0 0 0 .3-.03ZM199.29 47.59c0 .06.15.22.23.2s.12-.23.1-.29-.12-.16-.21-.13-.13.15-.12.22ZM201.1 61.89a.37.37 0 0 0-.11.55.64.64 0 0 0 .82.19.56.56 0 0 0 0-.71.52.52 0 0 0-.71-.03ZM200.51 54.4c-.27.1-.27.33-.18.62.23 0 .44.15.59-.09a.31.31 0 0 0-.06-.44.42.42 0 0 0-.35-.09ZM199 52.28a.43.43 0 0 0 .53.09.52.52 0 0 0 .18-.65.59.59 0 0 0-.7-.19c-.16.12-.17.47-.01.75ZM197.33 67.64a.7.7 0 0 0-.89-.26.89.89 0 0 0-.21 1.06.72.72 0 0 0 .93.12.71.71 0 0 0 .17-.92ZM198.76 46.54c.18-.06.27-.23.17-.37a1.13 1.13 0 0 0-.28-.22.37.37 0 0 0-.21.49c.07.16.2.14.32.1ZM195.62 52.59c-.07 0-.11.11-.12.21a2.38 2.38 0 0 1 .05.26.75.75 0 0 0 .09.15c.19.21.51 0 .58-.14s-.44-.52-.6-.48ZM203.14 60.05a.2.2 0 0 0 0 .31.22.22 0 0 0 .29 0 .19.19 0 0 0 0-.26.21.21 0 0 0-.29-.05ZM195.64 45.62a.35.35 0 0 0 .23-.42.33.33 0 0 0-.44-.26.39.39 0 0 0-.28.49.37.37 0 0 0 .49.19ZM197.85 56.49c.21-.08.13-.32.09-.4a.34.34 0 0 0-.29-.16.23.23 0 0 0-.19.32c.04.1.19.32.39.24ZM196.86 69.66a.62.62 0 0 0-.16.75.42.42 0 0 0 .57.11.55.55 0 0 0 .1-.71.36.36 0 0 0-.51-.15ZM196.21 57.05a.87.87 0 0 0 0-1 .55.55 0 0 0-.23-.17c.06.42.12.84.16 1.25ZM195.81 54.6c0 .22.06.43.09.64a.36.36 0 0 0 .34-.33c0-.16-.24-.29-.43-.31ZM196.56 58.23c-.05-.07-.19-.09-.34-.09 0 .31.05.62.07.93h.1a.63.63 0 0 0 .17-.84ZM194 45.84a.4.4 0 0 0-.28.37l.16.45a.46.46 0 0 0 .55.09c.29-.1.48-.38.4-.58a.75.75 0 0 0-.83-.33ZM195.06 48.1a.41.41 0 0 0-.5-.23.31.31 0 0 0-.19.2c.11.39.24.78.34 1.18a.47.47 0 0 0 .11-.53.24.24 0 0 0 .27-.17.42.42 0 0 0 .13.07.35.35 0 0 0 .34-.29.32.32 0 0 0-.5-.23ZM191.45 85a.43.43 0 0 0-.13-.26l-.3.67c.25-.08.45-.26.43-.41ZM189.68 88h.06a.53.53 0 0 1 .3-.07c.39 0 .6-.14.6-.53a.23.23 0 0 0 .14 0 .42.42 0 0 0 .29-.46.44.44 0 0 0-.43-.45.37.37 0 0 0-.32.42h-.07c-.18.4-.38.77-.57 1.09ZM193.61 79.53c-.07.08-.15.25-.11.32s.25.11.33.07.21-.29.15-.37-.32-.06-.37-.02ZM191.48 40.46c.11.23.21.47.31.7h.05a1.29 1.29 0 0 0 .67.14l.08.15a.67.67 0 0 0 .86.14.7.7 0 0 0 0-1 .77.77 0 0 0-.53-.18.3.3 0 0 0 0-.1c-.1-.38-.4-.44-.73-.42 0-.21 0-.46-.29-.5a.34.34 0 0 0-.39.23c-.11.28.12.39.32.51l-.11.38Z"/><path class="cls-1" d="M197.52 53.43a.6.6 0 0 0 .08-.76c-.15-.22-.38-.23-.68 0a.6.6 0 0 0-.2.65.66.66 0 0 0 .8.11ZM196.91 71.77s.05-.09 0-.13a.12.12 0 0 0-.16 0 .13.13 0 0 0 0 .16.17.17 0 0 0 .16-.03ZM198.07 81.6s-.15.06-.14.13a.25.25 0 0 0 .15.19c.06 0 .24-.06.24-.15s-.17-.16-.25-.17ZM198.15 86.15c-.1 0-.14.17-.14.25s.08.15.15.15.13-.13.15-.2-.05-.2-.16-.2ZM198 84.19c0-.22-.05-.55-.45-.49a.76.76 0 0 0-.54.85.89.89 0 0 0 1 .61c.29-.1.21-.49 0-.63s-.01-.11-.01-.34ZM198.16 73.76c-.08.06 0 .26 0 .31a.23.23 0 0 0 .25.05.23.23 0 0 0 0-.25c-.01-.05-.18-.16-.25-.11ZM197.54 66.33c-.11.09 0 .4.1.48s.25 0 .34 0a.18.18 0 0 0 0-.31c-.07-.1-.34-.26-.44-.17ZM198 75.29a.32.32 0 0 0 .17.24.43.43 0 0 0 .34-.06.35.35 0 0 0-.12-.5c-.08-.06-.39.08-.39.32ZM198.29 79.3c-.13.09-.33.17-.35.36s.22.21.29.19.47-.2.47-.34-.36-.24-.41-.21ZM194.67 93.17a.28.28 0 0 0 0 .28.31.31 0 0 0 .28.06.32.32 0 0 0 .11-.32c-.06-.1-.33-.07-.39-.02ZM194.44 80.81a.36.36 0 0 0-.41-.32.38.38 0 0 0-.38.41.45.45 0 0 0 .47.33.39.39 0 0 0 .32-.42ZM193.11 86c0 .17.15.19.29.19a.24.24 0 0 0 .26-.31.88.88 0 0 0-.2-.28.37.37 0 0 0-.35.4ZM196.49 89.78a.71.71 0 0 0-.63.75.81.81 0 0 0 .71.68.71.71 0 0 0 .72-.67 1.05 1.05 0 0 0-.8-.76ZM195.33 86.15a.93.93 0 0 0-.2-.29.37.37 0 0 0-.35.4c0 .18.15.19.29.19s.32-.14.26-.3ZM197 78.44a.73.73 0 0 0-.68-.61c-.22 0-.44.31-.41.59a.49.49 0 0 0 .57.48c.34-.02.57-.22.52-.46ZM195.44 87.43c-.09 0-.16.11-.17.18s.07.26.16.26.18-.19.18-.25-.08-.19-.17-.19ZM202 59.15c-.07.06 0 .22 0 .26s.18.16.24.1a.22.22 0 0 0 0-.25c.01-.06-.18-.18-.24-.11ZM202 68s-.17.14-.12.26.23.06.25 0a.34.34 0 0 0 .06-.24S202 68 202 68ZM202.67 69.51a.37.37 0 0 0-.36.33.3.3 0 0 0 .17.36c.26.12.42 0 .6-.23-.08-.23-.08-.48-.41-.46ZM193.26 82.83a.48.48 0 0 0-.54-.23.77.77 0 0 0-.29-.47c-.16.38-.31.76-.47 1.13h.1a.75.75 0 0 0 .31-.06.33.33 0 0 0 .06.26.49.49 0 0 0 .7 0 .62.62 0 0 0 .13-.63ZM201.89 57.6c-.09-.08-.31-.13-.38-.07s-.1.25-.13.34c.16.22.32.19.43.1s.19-.25.08-.37ZM203.61 65.39c-.34 0-.64.4-.54.67a.55.55 0 0 0 .53.37.43.43 0 0 0 .46-.37c0-.18.23-.53 0-.71s-.32.02-.45.04ZM203.59 63.29a.34.34 0 0 0-.1.47.38.38 0 0 0 .49.07.32.32 0 0 0 .1-.46.38.38 0 0 0-.49-.08ZM200.32 67c-.12-.12-.28-.17-.38 0s-.25.41-.16.51.41 0 .53 0 .13-.43.01-.51ZM200 63.7a.38.38 0 0 0-.14-.48.37.37 0 0 0-.5 0 .56.56 0 0 0 0 .68.53.53 0 0 0 .64-.2ZM198.26 63.87a.45.45 0 0 0-.61 0 1.07 1.07 0 0 0 0 .42c.09.19.39.18.56 0a.34.34 0 0 0 .05-.42ZM198.74 69.46a.62.62 0 0 0 0 .81.58.58 0 0 0 .84-.79.61.61 0 0 0-.84-.02ZM201 74.07c-.05.05 0 .18 0 .25s.16.13.24.07 0-.23 0-.29a.19.19 0 0 0-.24-.03ZM200.57 58.15c.19.08.31 0 .41-.16a.34.34 0 0 0 0-.41c-.19-.35-.36-.4-.71-.19s-.52.3-.78.45c-.31-.45-.38-.46-.7-.11.05.29.24.37.52.33.26.63.66.65 1.12.07ZM201.47 65.28a.4.4 0 0 0-.52-.1.38.38 0 0 0-.07.48.46.46 0 0 0 .53.11.37.37 0 0 0 .06-.49ZM190.07 35.41a.69.69 0 0 0 .32-.74.63.63 0 0 0-.67-.28.47.47 0 0 0-.29.5c.12.38.4.61.64.52ZM196.77 46.69c.07.16.2.14.32.1a.24.24 0 0 0 .17-.37 1 1 0 0 0-.27-.21.36.36 0 0 0-.22.48ZM191.26 95.11a.23.23 0 0 0-.28.25c0 .1.09.36.31.35s.21-.28.2-.37a.33.33 0 0 0-.23-.23ZM190.94 88.59a.38.38 0 0 0-.4.35.39.39 0 0 0 .36.39.42.42 0 0 0 .42-.39.37.37 0 0 0-.38-.35ZM190.29 91.32c-.16 0-.28.34-.16.6s.49.14.59 0-.27-.59-.43-.6ZM192.89 91.46a.68.68 0 0 0-.7.72.54.54 0 0 0 .54.57c.38 0 .82-.41.79-.72a.62.62 0 0 0-.63-.57ZM189.72 93.28c-.15.08-.15.59.06.66a.38.38 0 0 0 .43-.22c.06-.22-.35-.52-.49-.44ZM193 89.46a.35.35 0 0 0-.28-.4.45.45 0 0 0-.33.1c-.17.15-.12.31.12.64.21-.05.49-.03.49-.34ZM192.69 87.36c-.22 0-.58.3-.59.48a.49.49 0 0 0 .54.5c.24 0 .41-.23.41-.56a.36.36 0 0 0-.36-.42ZM192.35 84a.41.41 0 0 0-.42.39.38.38 0 0 0 .42.32.36.36 0 0 0 .35-.33.34.34 0 0 0-.35-.38ZM188.35 90.44c-.15.25-.29.52-.45.77a1.73 1.73 0 0 0 .21.69.46.46 0 0 0 .14.14.47.47 0 0 0 .76-.38 2.91 2.91 0 0 0-.07-.78.68.68 0 0 0-.59-.44ZM187.21 93a.63.63 0 0 0-.33.29c0 .14.18.34.35.3s.2-.15.25-.19c0-.24-.13-.4-.27-.4ZM188.79 92.55a.28.28 0 0 0 0 .25c.07.06.2 0 .25-.06s.06-.24 0-.3-.22.06-.25.11ZM146.46 9.19a.5.5 0 0 0 0-.78.49.49 0 0 0-.76-.12.58.58 0 0 0-.09.83.62.62 0 0 0 .85.07ZM162 16.48c.18 0 .21-.13.23-.26s-.11-.34-.28-.3a1.06 1.06 0 0 0-.3.16.37.37 0 0 0 .35.4ZM165.52 23.85a2.15 2.15 0 0 0 1.23-.06.56.56 0 0 0 .16-.13.47.47 0 0 0-.29-.8 2.56 2.56 0 0 0-.78 0 .74.74 0 0 0-.55.67c0 .15.06.29.23.32ZM159.45 16.37c.19-.08.4-.15.36-.44s0-.43 0-.64a.32.32 0 0 0-.23-.45.42.42 0 0 0-.48.31 1 1 0 0 1-.18.36.55.55 0 0 0-.17.62.77.77 0 0 0 .7.24ZM157.85 12.8a.26.26 0 0 0 .21-.12c0-.06 0-.25-.13-.26s-.17.15-.2.22.04.16.12.16ZM157.6 18.28c.33.25.68.49 1 .74a.59.59 0 0 0 .07-.2.82.82 0 0 0 0-.32.33.33 0 0 0 .27 0 .48.48 0 0 0 .09-.68.61.61 0 0 0-.64-.22.51.51 0 0 0-.3.51.83.83 0 0 0-.49.17ZM162.49 13.29s.16-.06.16-.13-.1-.15-.17-.18-.21 0-.22.14.16.16.23.17ZM164.11 21a.39.39 0 0 0 .43-.3.43.43 0 0 0-.34-.47.36.36 0 0 0-.39.34.37.37 0 0 0 .3.43ZM163.36 16.16c.06 0 .26 0 .27-.13s-.15-.2-.22-.21a.22.22 0 0 0-.21.15c-.01.09.1.17.16.19ZM165.2 19.16c0-.21 0-.46-.28-.53a.35.35 0 0 0-.43.23.48.48 0 0 0 .06.35c.12.18.29.15.65-.05ZM161.72 20.62a.36.36 0 0 0 .37.37.69.69 0 0 0 0 .36.71.71 0 0 1-.07.48c.56.5 1.1 1 1.63 1.51a.69.69 0 0 0-.47-.57H163a.58.58 0 0 0 .15-.28 1.22 1.22 0 0 0-.09-.8.52.52 0 0 1 0-.3.47.47 0 0 0-.45-.66.37.37 0 0 0 0-.14c0-.16-.2-.32-.42-.34a.44.44 0 0 0-.47.37ZM163.2 19.33a.49.49 0 0 0 .56-.48c0-.23-.17-.43-.5-.47a.36.36 0 0 0-.46.3.78.78 0 0 0 .4.65ZM157.41 15.39c.13 0 .43-.08.44-.27s-.23-.26-.35-.3a.24.24 0 0 0-.33.18c-.05.17.08.42.24.39ZM161.52 18.1c.17 0 .21-.12.22-.25s-.1-.34-.27-.31a1.14 1.14 0 0 0-.31.17.36.36 0 0 0 .36.39ZM149.56 12.19c.12-.08 0-.41-.07-.53a.21.21 0 0 0-.36 0c-.12.12-.2.26-.08.38s.39.23.51.15ZM147.67 12.47l.66.3a.33.33 0 0 0 0-.37.37.37 0 0 0-.54-.13.34.34 0 0 0-.12.2ZM156.5 17a.45.45 0 0 0 .39-.43.4.4 0 0 0-.38-.37.37.37 0 0 0-.37.37.38.38 0 0 0 .36.43ZM150.21 10a.2.2 0 0 0 .07-.24.2.2 0 0 0-.24-.05c-.06 0-.18.2-.13.28s.25.09.3.01ZM146.31 5.59a.28.28 0 0 0 .37-.14c.13-.25 0-.43-.19-.61-.23.07-.48.08-.49.37a.37.37 0 0 0 .31.38ZM147.82 11.26v-.14c0-.03-.09-.06-.13 0a.1.1 0 1 0 .12.17ZM149.46 13.27v.06l.59.28a.33.33 0 0 0 .2-.29.41.41 0 0 0-.38-.42.38.38 0 0 0-.41.37ZM155.45 15.07s-.06 0-.06.1a.36.36 0 0 0 .31.41.44.44 0 0 0 .44-.31.35.35 0 0 0-.33-.4s-.05 0-.07 0 0-.06 0-.08-.27-.24-.36-.18-.09.31 0 .36a.41.41 0 0 0 .07.1ZM154.32 14.37a.48.48 0 0 0 .54-.5c0-.31-.15-.57-.39-.57a.71.71 0 0 0-.68.6c-.03.22.21.47.53.47ZM150.68 7.22s.14-.16.09-.25-.23 0-.29 0a.16.16 0 0 0 0 .2c-.01.08.13.07.2.05ZM155.79 12.54c.18 0 .24-.19.23-.27s-.14-.48-.28-.5-.28.33-.26.38.13.35.31.39ZM151.46 11.91a.27.27 0 0 0 .26-.14.4.4 0 0 0 0-.34.35.35 0 0 0-.51.06c-.09.11.01.39.25.42ZM152.83 12.15c.08-.06.07-.36 0-.48s-.23-.18-.41-.08a.22.22 0 0 0-.06.37c.12.09.39.25.47.19ZM160.53 14.07a.88.88 0 0 0 .73-.94c-.06-.3-.46-.27-.62-.11s-.12.08-.34 0-.56 0-.54.39a.76.76 0 0 0 .77.66ZM166.79 25.25a.26.26 0 0 0 .29.31.51.51 0 0 0 .32-.19c0-.09-.08-.42-.25-.44a.35.35 0 0 0-.36.32ZM160.08 18.7a.36.36 0 0 0-.29-.39.34.34 0 0 0-.42.3.4.4 0 0 0 .34.46.37.37 0 0 0 .37-.37ZM160.64 20.22c0-.3-.15-.59-.37-.59a.66.66 0 0 0-.51.32l.76.61a.62.62 0 0 0 .12-.34ZM165 21.73a.53.53 0 0 0-.12-.43.41.41 0 0 0-.39 0 .44.44 0 0 0-.1.66.39.39 0 0 0 .61-.23ZM169.15 28.18a.67.67 0 0 0-.51-.64c-.21 0-.49.27-.53.55v.07l.37.46c.32.03.66-.2.67-.44ZM167.13 21.2c-.09-.12-.66.19-.69.35s.3.32.58.23.19-.47.11-.58ZM130.1 6.93h-.1s-.08.1-.05.14.08 0 .14 0 .03-.07.01-.14ZM121.93 6a.49.49 0 0 0-.38-.21.38.38 0 0 0-.31.24.43.43 0 0 0 .4.53.38.38 0 0 0 .29-.56ZM167.4 22.91c-.07.07 0 .24.08.27a.23.23 0 0 0 .25 0c.07-.06 0-.2 0-.26s-.26-.09-.33-.01ZM152.73 13.74a.13.13 0 0 0-.11-.11s-.09.07-.09.1a.12.12 0 0 0 .07.11c.05 0 .13-.03.13-.1ZM112.56 8.76a.44.44 0 0 0 0-.57.4.4 0 0 0-.54 0 .37.37 0 0 0 0 .52.4.4 0 0 0 .39.13.32.32 0 0 0 .15-.08ZM142.94 10c.05 0 0-.24 0-.33a.18.18 0 0 0-.32 0c-.08.09-.25.34-.17.45s.4-.03.49-.12ZM166.33 15.92a.79.79 0 0 0 .76-.62.71.71 0 0 0-.57-.79 1 1 0 0 0-.86.7.71.71 0 0 0 .67.71ZM146.46 11.23a.44.44 0 0 0 .15-.56.54.54 0 0 0-.7-.15.37.37 0 0 0-.19.49.61.61 0 0 0 .74.22ZM170.17 25.58c.08 0 .24 0 .25-.16a.23.23 0 0 0-.19-.24c-.07 0-.29 0-.33.15s.19.24.27.25ZM169 22.37a.36.36 0 0 0-.17-.45c-.21-.08-.56.28-.5.44s.55.21.67.01ZM170 28.29s.09-.05.11-.08 0-.1-.06-.09-.12 0-.13.07.01.06.08.1ZM169.08 17.49a.27.27 0 0 0 .09-.27c0-.06-.2-.19-.3-.15s-.1.3-.06.36.19.09.27.06ZM167.77 24.82a.65.65 0 0 0 .25.35c.13.07.36-.13.34-.31a.77.77 0 0 0-.16-.27c-.27-.03-.46.08-.43.23ZM167.52 19.77a.54.54 0 0 0 .63-.47c0-.38-.3-.86-.62-.87a.63.63 0 0 0-.64.56.69.69 0 0 0 .63.78ZM172.75 25.6a.25.25 0 0 0 .16-.17c0-.07-.1-.18-.16-.18a.21.21 0 0 0-.24.18c0 .15.17.17.24.17ZM167.43 27.38c.24-.3.29-.71-.06-.92a.65.65 0 0 0-.76 0c.28.29.55.61.82.92ZM170.61 28.28a.44.44 0 0 0-.31.1c.07.16 0 .49.22.54s.34-.24.49-.34v-.12a.34.34 0 0 0-.4-.18ZM170.37 24.6c.14.1.55 0 .59-.19s0-.46-.36-.44-.36.53-.23.63ZM170.53 21.35c.1 0 .37 0 .38-.26s-.24-.24-.33-.24a.35.35 0 0 0-.27.2.23.23 0 0 0 .22.3ZM120.27 6.07a.37.37 0 1 0 .6-.43.43.43 0 0 0-.57-.09.37.37 0 0 0-.03.52ZM144.73 6c.12 0 .08-.22.05-.24a.32.32 0 0 0-.23-.08s-.09.15-.07.18.13.14.25.14ZM117.78 8.07c-.2-.21-.51-.28-.66-.13a.39.39 0 0 0-.12.23ZM124.7 5.27a.24.24 0 0 0 .17-.19c0-.08-.13-.15-.21-.15s-.22.1-.21.2.19.15.25.14ZM123.41 7.06a.29.29 0 0 0 .39.08 2.11 2.11 0 0 0 .82-.93.5.5 0 0 0 0-.2.47.47 0 0 0-.78-.35 3.18 3.18 0 0 0-.56.54.75.75 0 0 0 .13.86ZM110.52 8.31a.37.37 0 0 0 .51.07.44.44 0 0 0 .08-.54.36.36 0 0 0-.51 0 .34.34 0 0 0-.08.47ZM115.84 7.37a.33.33 0 0 0-.08.5.39.39 0 0 0 .56.08.36.36 0 0 0 0-.52.35.35 0 0 0-.48-.06ZM114.48 8.43s0 .06-.06.08l.85-.12-.09-.08a.37.37 0 0 0 .17-.21c.07-.24-.17-.51-.43-.55a.62.62 0 0 0-.6.31.5.5 0 0 0 .16.57ZM116.9 6c.12-.13.06-.23 0-.34a.25.25 0 0 0-.41 0 1.09 1.09 0 0 0-.09.33.37.37 0 0 0 .5.01ZM118.84 7.59a.36.36 0 0 0 .52 0 .87.87 0 0 0 .23.29l1.52-.1a1.21 1.21 0 0 0-.59-.43.57.57 0 0 1-.24-.19.48.48 0 0 0-.79-.14.19.19 0 0 0-.07-.12.41.41 0 0 0-.53.06.43.43 0 0 0-.05.63ZM138.82 6.36c.28-.19.41-.6.26-.8a.57.57 0 0 0-.72 0 .5.5 0 0 0-.07.69c.15.19.34.24.53.11ZM138.77 9.19a.38.38 0 0 0-.12.16l.69.18a.36.36 0 0 0-.57-.34ZM136.58 8.87l.79.16a.75.75 0 0 0 .15-1 .75.75 0 0 0-.9-.12.66.66 0 0 0-.05 1ZM140.17 8.11a.54.54 0 0 0-.16-.66.37.37 0 0 0-.49.11.36.36 0 0 0 0 .49.57.57 0 0 0 .65.06ZM143.42 10.77l1.26.47a.72.72 0 0 0 0-.61.69.69 0 0 0-.9-.23.81.81 0 0 0-.36.37ZM143.72 7.94c.11-.09 0-.41 0-.54s-.3-.15-.43 0-.18.26-.05.38.38.22.48.16ZM142 6.71a.46.46 0 0 0 .15-.52.36.36 0 0 0-.48-.1.41.41 0 0 0-.15.52.4.4 0 0 0 .48.1ZM140.05 9.19a.44.44 0 0 0-.07.5l.38.11h.11a.36.36 0 0 0 .06-.55.33.33 0 0 0-.48-.06ZM128.05 6.81a.59.59 0 0 0-.25.68c.1.21.45.24.75.07a.43.43 0 0 0 .13-.52.52.52 0 0 0-.63-.23Z"/><path class="cls-1" d="m128.52 7.79 1 .06a.42.42 0 0 0-.08-.28.65.65 0 0 0-.81-.09.38.38 0 0 0-.11.31ZM126.5 6.27c.14 0 .15-.35 0-.45a.65.65 0 0 0-.31-.08c-.21.17-.27.38-.13.46a.57.57 0 0 0 .44.07ZM130.93 7.1c.17-.11.06-.41.09-.58l-.1-.07a.36.36 0 0 0-.39.14.48.48 0 0 0-.14.29c.16.12.37.33.54.22ZM131.68 8.06ZM133.89 7.08l.22.45c-.48.29-.49.35-.16.7.29 0 .38-.21.36-.5.65-.21.7-.61.15-1.11v-.13c0-.04 0-.31-.13-.43A.36.36 0 0 0 134 6c-.26.12-.36.24-.34.43a.26.26 0 0 0-.2.07c-.18.15-.26.49-.14.61s.42.09.57-.03Z"/><path class="cls-1" d="M131.37 6.47c.07-.22.19-.43 0-.6a.32.32 0 0 0-.45 0 .44.44 0 0 0-.11.34c.04.31.27.33.56.26ZM134.43 5.21c-.08-.13-.24-.23-.36-.1a.42.42 0 0 0-.11.37c.06.1.25.12.34.16.23-.15.21-.31.13-.43ZM125.7 7.21a.26.26 0 0 0 .42 0 .5.5 0 0 0 .09-.36c0-.09-.36-.23-.49-.12a.33.33 0 0 0-.02.48ZM57 62.89a1.8 1.8 0 0 1 1.15 2.37 13.41 13.41 0 0 0-1.25 5.34 2.12 2.12 0 0 1-2.14 1.85 2 2 0 0 1-2.14-2 15.92 15.92 0 0 1 1.48-6.31 2.35 2.35 0 0 1 2.9-1.25Z"/><ellipse class="cls-1" cx="53.97" cy="79.3" rx="2.08" ry="1.7"/><path class="cls-1" d="M94.5 122.3a2.72 2.72 0 0 1 3.11-.16 21.07 21.07 0 0 0 5.8 2.62 1.86 1.86 0 0 1 1.49 2.24c-.31.93-1.68 1.45-3 1a24.75 24.75 0 0 1-6.87-3.1c-1.13-.66-1.33-1.9-.53-2.6Z"/><ellipse class="cls-1" cx="112.61" cy="129.73" rx="2.08" ry="1.7"/><path class="cls-1" d="M171.93 108.66a1.71 1.71 0 0 1 .77-2.47 18.73 18.73 0 0 0 4.84-3.72 2.68 2.68 0 0 1 3.06-.47 1.62 1.62 0 0 1 .28 2.66 21.85 21.85 0 0 1-5.72 4.4 2.54 2.54 0 0 1-3.23-.4Z"/><ellipse class="cls-1" cx="186.15" cy="96.84" rx="2.08" ry="1.7"/><path class="cls-1" d="M181.72 44.92a2.38 2.38 0 0 1-2.63-1.36 15 15 0 0 0-2.82-4.92 1.68 1.68 0 0 1 .4-2.53 2.53 2.53 0 0 1 3.18.6 17.64 17.64 0 0 1 3.33 5.82 1.78 1.78 0 0 1-1.46 2.39Z"/><ellipse class="cls-1" cx="172.4" cy="30.19" rx="2.08" ry="1.7"/><path class="cls-2" d="M185 50.16c-.75-1.6-3.26-2.48-3.91.38a50 50 0 0 1-2.73 9.86c-2.77 6.48-9.49 4.55-8.77-4.63a2.44 2.44 0 0 0 0-.28c1.55-14.35-10.23-30.15-26.93-36.31s-26-5.82-27.92-5.72c-2.08.11-3.85 1.82-.71 3.17a79.21 79.21 0 0 1 10.69 5.05c6.39 3.89 4.34 8.18-3.6 6.57-16-4.49-37-1.08-47.43 8.93s-14.82 18.54-15.29 20 .91 3.56 3.46 1.54A69.85 69.85 0 0 1 71.07 52c6-3.49 11 1.23 6.41 6.49a30.72 30.72 0 0 0-2.33 2.07l-.2.15a.39.39 0 0 0-.19.23c-10.83 10.91-13.69 28.17-4.93 40.37s16.92 17.37 18.51 18.2c1.76.92 4.42.4 2.86-2.22a55 55 0 0 1-5-9.24c-2.2-5.86 3.6-8.56 8.8-3.05 8.49 12.21 28.44 19.6 44.79 16.39s25.48-7.58 26.95-8.56c1.62-1.07 1.86-3.31-1.66-2.92a86.84 86.84 0 0 1-12.28 1c-7.56-.13-7.62-5.46.41-7.68.87-.16 1.73-.34 2.59-.55h.32a.82.82 0 0 0 .3-.11c15.47-4 29-16.4 30.2-28.73s-.91-22.24-1.62-23.68Zm-25.48 21.61 9.62.73Z"/><path class="cls-1" d="M107.68 14.09a2.25 2.25 0 0 1-2.39 1.63 23.75 23.75 0 0 0-6.58.67 2.48 2.48 0 0 1-2.81-1.09c-.42-.91.32-2 1.68-2.29a27.79 27.79 0 0 1 7.78-.8c1.42.02 2.45.91 2.32 1.88Z"/><ellipse class="cls-1" cx="87.71" cy="16.8" rx="2.08" ry="1.7"/><path class="cls-3" d="m127.18 44 8.18-1.47c8.8-1.58 17.32 3.49 18.21 10.85l.82 6.82a10.82 10.82 0 0 0 2 5l4.23 5.92c4.56 6.37 1.31 14.58-7 17.54L146 91.41a15.11 15.11 0 0 0-5.22 3.11l-5.56 5.12c-6 5.53-16.52 5.53-22.51 0l-5.56-5.12a15 15 0 0 0-5.22-3.11l-7.67-2.75c-8.26-3-11.51-11.17-7-17.54l4.23-5.92a10.94 10.94 0 0 0 2-5l.81-6.82c.89-7.36 9.41-12.43 18.22-10.85l8.21 1.47a17.93 17.93 0 0 0 6.45 0ZM141.48 98.29c.09-.06.07-.31.08-.48a.14.14 0 0 0-.13-.18.44.44 0 0 0-.43.37.33.33 0 0 0 .48.29ZM141.18 99.49a.73.73 0 0 0 .71-.56c0-.2-.18-.42-.42-.45a.5.5 0 0 0-.62.42c-.03.27.15.56.33.59Z"/><path class="cls-3" d="m136.31 98.63-.31.28a.7.7 0 0 0 .31-.28ZM123.66 103.77h-.47a.69.69 0 0 0 .47 0ZM134.27 100.56a.23.23 0 0 0 0-.13 2.31 2.31 0 0 1-.24.2h.05a.31.31 0 0 0 .19-.07ZM134.18 102.39a.33.33 0 0 0 .3.38.39.39 0 0 0 .43-.31c0-.2-.09-.3-.28-.34a.38.38 0 0 0-.45.27ZM162.65 56.92a.42.42 0 0 0 .44-.31.44.44 0 0 0-.36-.45.34.34 0 0 0-.38.29.37.37 0 0 0 .3.47ZM165.37 57.72a.74.74 0 0 0-.88.18c-.19.26-.12.42.38.82-.13.2-.29.4 0 .61a.38.38 0 0 0 .49 0 .27.27 0 0 0 .12-.2 4.45 4.45 0 0 0-.14-.55c.22-.34.26-.71.03-.86ZM121.75 103.76a.72.72 0 0 0 1-.06c-.39 0-.78-.07-1.17-.12a.38.38 0 0 0 .17.18ZM162.81 59.49a.36.36 0 0 0 .47-.23.61.61 0 0 0-.39-.66.43.43 0 0 0-.49.3.54.54 0 0 0 .41.59ZM163.29 61.54c.16.05.36-.26.3-.54s-.43-.26-.56-.19.11.68.26.73ZM163.13 57.35a.33.33 0 0 0 .16.28.23.23 0 0 0 .33-.17c0-.11 0-.38-.21-.42s-.27.22-.28.31ZM145.87 98.22a.5.5 0 0 0 .87-.35 3.42 3.42 0 0 0-.17-.77.76.76 0 0 0-.79-.36c-.17.05-.48.26-.32.57.48.33.14.57.41.91ZM162.91 54.33a.52.52 0 0 0-.5.37c0 .24.27.72.46.73s.51-.27.55-.59-.14-.47-.51-.51ZM163.1 77.42c.09-.35-.08-.6-.46-.72a9.61 9.61 0 0 1 0 1.2.72.72 0 0 0 .46-.48ZM88 53.66c-.1-.13-.54-.06-.57.14a.33.33 0 0 0 .25.36c.19.03.42-.38.32-.5ZM119.26 103.71a.33.33 0 0 0 .19.26.48.48 0 0 0 .44-.1.5.5 0 0 0 .32.11c.21 0 .29-.16.37-.32l.1-.18c-.3 0-.6-.12-.89-.19a.38.38 0 0 0-.52.21.25.25 0 0 0-.2-.17c-.18 0-.35.06-.34.23a1 1 0 0 0 .13.33.37.37 0 0 0 .4-.18ZM90.15 89.75a1.26 1.26 0 0 0 .29.27c.16.07.28 0 .32-.2s0-.3-.14-.36a.41.41 0 0 0-.47.29ZM88.41 90.68a.73.73 0 0 0 .94-.21.41.41 0 0 0 .17.2.32.32 0 0 0 .45-.15.37.37 0 0 0-.17-.46.31.31 0 0 0-.39.07.81.81 0 0 0-.43-.67.66.66 0 0 0-.83.29.63.63 0 0 0 .26.93ZM89.79 86.23a.18.18 0 0 0-.13.2.27.27 0 0 0 .23.18c.09 0 .13-.15.12-.24l-.14-.11s-.05-.04-.08-.03ZM85.21 76.58a.5.5 0 0 0 0 .17s0 0 .06.08v-.42a.54.54 0 0 0 0 .11ZM88.31 87.48a.82.82 0 0 0 .71-.41c0-.26-.1-.47-.41-.56s-.46 0-.55.38.02.54.25.59ZM84.83 78.72a1.18 1.18 0 0 0 .41.4h.15a12.36 12.36 0 0 1-.14-1.35v-.46a.4.4 0 0 0-.15-.14 15.24 15.24 0 0 0-.27 1.55ZM92.14 88.24a.22.22 0 0 0 .14.24c0 .13 0 .24.12.37s.36.41.59.21.11-.38.05-.44-.08-.26 0-.21.17 0 .25-.14c-.29-.13-.58-.25-.86-.39a.48.48 0 0 0-.06.21.2.2 0 0 0-.23.15ZM89 85.71a.29.29 0 0 0 .15 0c-.21-.2-.41-.41-.61-.61a.65.65 0 0 0 .46.61ZM90.66 87.89a.14.14 0 0 0-.09-.21c-.1 0-.16 0-.2.09a.13.13 0 0 0 .08.2c.11.03.17.03.21-.08ZM96.64 96.57a.52.52 0 0 0 .62-.26.6.6 0 0 0-.29-.67c-.21-.08-.49.14-.59.46a.42.42 0 0 0 .26.47ZM95.41 94c0-.07-.1-.16-.16-.19s-.21 0-.23.11.14.18.21.2.17-.07.18-.12ZM97.54 100.14c0-.21.06-.47-.24-.55a.33.33 0 0 0-.44.2.43.43 0 0 0 0 .35c.14.18.31.17.68 0ZM93 89.65s.18 0 .19-.07a.3.3 0 0 0-.06-.23.21.21 0 0 0-.29.05c-.05.13.16.21.16.25ZM94.56 90.05c.15-.11.13-.23-.1-.54a.32.32 0 0 0-.33.45.33.33 0 0 0 .43.09ZM92.67 92.23a.48.48 0 0 0 .19-.34c0-.27-.28-.33-.54-.32-.14.17-.27.35-.12.56a.32.32 0 0 0 .47.1ZM93.37 93.49a.59.59 0 1 0 .27-1.13.46.46 0 0 0-.54.37c-.1.27.06.7.27.76ZM165.29 65.2a.52.52 0 0 0-.33.58.36.36 0 0 0 .42.26.35.35 0 0 0 .36-.33c.03-.3-.33-.51-.45-.51ZM159.23 67.72a.35.35 0 0 0 .25.46.41.41 0 0 0 .5-.28.37.37 0 0 0-.33-.41.36.36 0 0 0-.42.23ZM161.9 57.84s.13 0 .13-.09-.06-.11-.1-.12-.09.07-.1.1a.12.12 0 0 0 .07.11ZM160.73 63.12c.19-.11.19-.28 0-.66-.21 0-.46-.08-.57.21a.36.36 0 0 0 .18.46.47.47 0 0 0 .39-.01ZM161.25 56.46c.16 0 .32 0 .31-.22s-.09-.45-.24-.48-.28.3-.32.43.06.27.25.27ZM160.81 60.76h.11a.48.48 0 0 0 .46.45.6.6 0 0 0 .64-.54.56.56 0 0 0-.35-.54.53.53 0 0 0-.38-.59.85.85 0 0 0-.95.51.62.62 0 0 0 .47.71ZM160 64.78a.75.75 0 0 0 .69-.31.47.47 0 0 0-.19-.52s.1 0 .1-.07 0-.23-.08-.27-.21.11-.21.14a.33.33 0 0 0 0 .13h-.06c-.23-.07-.45.12-.54.44a.36.36 0 0 0 .29.46ZM147 44.37a14.18 14.18 0 0 1 1.45.91c.09-.07.17-.13.22-.12s.3.6.75.64a.68.68 0 0 0 .45-.12 21.94 21.94 0 0 0-1.83-2 .36.36 0 0 0-.14 0 .22.22 0 0 0-.18 0 1.2 1.2 0 0 0-.72.69ZM150.33 46.32h.08l-.42-.55a.44.44 0 0 0 .34.55ZM145.84 43.72q.32.14.63.3a.42.42 0 0 0 0-.63 1.23 1.23 0 0 1 .41.1.43.43 0 0 0 .35-.09 2.82 2.82 0 0 1 .36-.24l-.67-.59-.07.06-.25-.14a.33.33 0 0 0-.21-.05.23.23 0 0 0 .19-.15l-.43-.35a.63.63 0 0 0-.12.23c0 .17.09.27.26.27h.06a.4.4 0 0 0-.2.09.54.54 0 0 0-.12.56.33.33 0 0 0 .19.26.51.51 0 0 0-.38.37ZM145 41.65a.31.31 0 0 0 .44-.18l-.54-.38a.37.37 0 0 0-.1.16.32.32 0 0 0 .2.4ZM152.08 49.11c-.17-.33-.35-.67-.55-1h-.22a13.06 13.06 0 0 1 .77 1ZM165.4 53.77a.67.67 0 0 0 .51.24l-.21-1.07a.68.68 0 0 0-.3.83ZM165.26 56.14a.47.47 0 0 0 .36.6.83.83 0 0 0 .57-.47c0-.21-.1-.35-.39-.4s-.5.04-.54.27ZM164 59.23c-.1.19.17.53.33.54a.76.76 0 0 0-.49.51.7.7 0 0 0 1.33.39.9.9 0 0 0-.56-.92.74.74 0 0 0-.21 0c.15-.09.25-.52.08-.63a.39.39 0 0 0-.48.11ZM165.48 52.39h.1c0-.17-.07-.34-.11-.51a.27.27 0 0 0-.16.25.31.31 0 0 0 .17.26ZM165.22 50.83a.18.18 0 0 0 .05.23c-.02-.06-.03-.15-.05-.23ZM164 55.07c-.11 0-.3.24-.29.3s.15.32.25.3a.36.36 0 0 0 .25-.24c.02-.09-.11-.35-.21-.36ZM161.7 63.59a.4.4 0 0 0 .76.2.44.44 0 0 0 0-.23h.08a.26.26 0 0 0 .26-.1.45.45 0 0 0 .61.13.39.39 0 0 0-.11-.63.57.57 0 0 0-.44.06.44.44 0 0 0-.06.12c0-.14-.1-.28-.19-.29s-.3.27-.36.39a.16.16 0 0 0 0 .07.44.44 0 0 0-.55.28ZM87.33 59.76a.32.32 0 0 0-.3 0c-.15.12 0 .3.06.34s.46.2.57.11 0 0 0-.09h.07a.33.33 0 0 0-.07-.5.3.3 0 0 0-.29 0 .35.35 0 0 0-.04.14ZM166.5 62.36c.06-.36-.05-.56-.32-.61a.66.66 0 0 0-.58.23 1.21 1.21 0 0 0 0-.46.5.5 0 0 0-.1-.17.47.47 0 0 0-.84.18 3.15 3.15 0 0 0-.09.42.46.46 0 0 0-.14.2.19.19 0 0 0 .14.25.77.77 0 0 0 .57.53c.17 0 .32 0 .37-.18l.09-.33a.67.67 0 0 0 .43.41c.16.04.43-.2.47-.47ZM166.46 58c0-.21 0-.42-.06-.63-.09 0-.16.12-.17.31a.32.32 0 0 0 .23.32ZM165.47 55.32a.38.38 0 0 0 .05-.49.3.3 0 0 0-.37-.15c-.27.09-.29.31-.29.58.23.1.41.27.61.06ZM162.14 51.75s.07.17.1.17a.32.32 0 0 0 .22-.12.22.22 0 0 0-.11-.27c-.15-.04-.19.15-.21.22ZM163.12 46s.13 0 .13-.09-.06-.11-.1-.12a.17.17 0 0 0-.1.1s.02.11.07.11ZM162.7 50.1a.38.38 0 0 0 .41-.25c0-.14-.15-.29-.36-.32s-.26 0-.27.2.02.33.22.37ZM162.16 46.54a.32.32 0 0 0 .22-.12c0-.05 0-.25-.11-.26s-.19.14-.21.21.07.17.1.17ZM163.64 47.63c.06 0 .28 0 .28-.11a.25.25 0 0 0-.18-.19c-.08 0-.24 0-.24.08a.24.24 0 0 0 .14.22ZM163.82 46.84a.39.39 0 0 0 .2-.05c-.07-.23-.15-.45-.22-.67a.38.38 0 0 0-.2.3c-.03.24.06.41.22.42ZM163.88 52.72c.36.08.68-.19.77-.64a.61.61 0 0 0-.51-.75.78.78 0 0 0-.84.58.82.82 0 0 0 .58.81ZM164.57 50.42a.3.3 0 0 0 .4-.24.32.32 0 0 0-.23-.37c-.15-.05-.47.2-.43.34a.41.41 0 0 0 .26.27ZM95.18 95.23c.08-.26-.06-.45-.4-.55s-.58.07-.63.25a.65.65 0 0 0 .38.71.6.6 0 0 0 .65-.41ZM96.56 92.49a.5.5 0 0 0-.18-.57 4.23 4.23 0 0 0-.42-.25 2 2 0 0 0 0-.24.75.75 0 0 0-.58-.59.86.86 0 0 0-.75.37.45.45 0 0 0-.07.32.69.69 0 0 0 .78.56h.25a3.14 3.14 0 0 0 0 .45c.05.27.16.36.43.35a.55.55 0 0 0 .54-.4ZM95.76 96.81c0 .09.09.19.15.2s.26 0 .28-.1-.14-.22-.21-.23-.2.04-.22.13ZM126.88 104.32a.75.75 0 0 0 .66-.29.35.35 0 0 0 .41.15c.17-.08.17-.21 0-.55a.27.27 0 0 0-.25 0 .63.63 0 0 0 0-.27c-.43.09-.87.17-1.31.22a.84.84 0 0 0 .49.74ZM133.18 101.54a.32.32 0 0 0 .42-.22.41.41 0 0 0-.09-.36l-.57.38a.33.33 0 0 0 .24.2ZM136.24 100.6a.37.37 0 0 0-.35-.39.4.4 0 0 0-.19 0 .85.85 0 0 0-.59-.52c-.26.24-.53.46-.81.68a.8.8 0 0 0 .52.68.78.78 0 0 0 .7-.26.25.25 0 0 0 .2.16.62.62 0 0 0 .52-.35ZM129.66 102.86l-.37.11a.5.5 0 0 0 .37-.11ZM135 104c0-.13-.16-.29-.37-.32a.21.21 0 0 0-.27.2.81.81 0 0 0 0 .16.31.31 0 0 0-.28.23.31.31 0 0 0 .23.41.36.36 0 0 0 .47-.23.28.28 0 0 0 0-.22.4.4 0 0 0 .22-.23ZM129.65 103.56c-.07.21 0 .34.19.35s.33 0 .37-.14-.1-.31-.2-.4-.32.03-.36.19Z"/><path class="cls-3" d="M143.65 43a16.35 16.35 0 0 1 1.58.55c.72-.17.71-.74.51-1.22a.77.77 0 0 0-.33-.38.8.8 0 0 0-.68 0c-.25.08-.5 0-.7.13a1.18 1.18 0 0 0-.38.92ZM85.76 61.52c.07-.06 0-.23-.05-.29a.15.15 0 0 0-.2 0 .23.23 0 0 0 0 .24s.18.12.25.05ZM86.53 82.51a.34.34 0 0 0 .19.44.65.65 0 0 0 .22.08c-.14-.22-.29-.44-.41-.66a.65.65 0 0 1 0 .14ZM86.55 57.49a.49.49 0 0 0 0 .74c.23.22.54.25.69.06a.68.68 0 0 0 .1-.69.14.14 0 0 0 .1-.05s0-.1 0-.13a.12.12 0 0 0-.15 0 .56.56 0 0 1 0-.08.53.53 0 0 0-.74.15ZM87.69 87.12a.42.42 0 0 0 .1-.79.57.57 0 0 0-.6.33.54.54 0 0 0 .5.46ZM87 85.76c.15 0 .38-.24.4-.43a.26.26 0 0 0 0-.12.37.37 0 0 0 .38-.22.42.42 0 0 0-.26-.51.41.41 0 0 0-.47.24.41.41 0 0 0 .08.33c-.3 0-.5.1-.51.25a.31.31 0 0 0 0 .08.54.54 0 0 0-.26-.2c-.09.06-.27.12-.35.25s0 .43.25.5a.34.34 0 0 0 .42-.24.34.34 0 0 0 0-.22.63.63 0 0 0 .32.29ZM91.73 92c.12-.28-.19-.54-.18-.87 0-.78-.57-.89-1.09-.81a.84.84 0 0 0-.44.25.8.8 0 0 0-.18.65c0 .27-.15.48 0 .72a1.12 1.12 0 0 0 1.21.58.92.92 0 0 0 .68-.52ZM90.53 93.13a.17.17 0 0 0 .11.16.24.24 0 0 0 .21-.11c0-.05 0-.25-.1-.27s-.19.14-.22.22ZM85.81 84.28c-.26 0-.3.24-.28.46a.42.42 0 0 0 .65 0c-.04-.27-.1-.5-.37-.46ZM94.48 96.67a1.12 1.12 0 0 0-.31.15.36.36 0 0 0 .32.42c.18 0 .22-.11.24-.24a.25.25 0 0 0-.25-.33ZM166.33 58.4a.57.57 0 0 0 .21.51c0-.24 0-.47-.06-.71a.29.29 0 0 0-.15.2ZM163.78 71.73a.32.32 0 0 0 .22-.12s0-.22-.11-.26-.18.14-.21.21.07.17.1.17Z"/><path class="cls-3" d="M163.36 70.83a.28.28 0 0 0-.27.17 1.11 1.11 0 0 0-.79-.28.77.77 0 0 0-.48.16.78.78 0 0 0-.29.62c0 .26-.24.44-.15.69a1.53 1.53 0 0 0 .14.29v.08a3.13 3.13 0 0 1 .15.32.86.86 0 0 0 .36 0 1 1 0 0 0 .47.09.86.86 0 0 0 .77-.38c.18-.26-.08-.57 0-.89a1.22 1.22 0 0 0 0-.17.33.33 0 0 0 .36 0c.15-.1.23-.26.12-.41s-.26-.29-.39-.29ZM89.37 58.87a.41.41 0 0 0 .17.54.37.37 0 0 0 .53-.16.39.39 0 0 0-.15-.5.38.38 0 0 0-.55.12ZM89.07 55.11a.5.5 0 0 0-.1-.17.47.47 0 0 0-.84.19 3.41 3.41 0 0 0-.11.78.74.74 0 0 0 .61.61c.17 0 .54-.06.5-.41-.33-.48.07-.58-.06-1ZM164.57 65.65c.23 0 .43-.14.51-.47a.55.55 0 0 0-.28-.61.7.7 0 0 0-.72.39.41.41 0 0 0 0 .11.66.66 0 0 0-.26-.18 1.19 1.19 0 0 0-.81 0 .51.51 0 0 1-.3 0 .48.48 0 0 0-.71.37.19.19 0 0 0-.13-.06c-.17 0-.35.15-.39.37a.43.43 0 0 0 .29.54.35.35 0 0 0 .42-.32.66.66 0 0 0 .36.09.72.72 0 0 1 .45.12.77.77 0 0 0 .75 0 .66.66 0 0 0 .41-.61v-.07a.57.57 0 0 0 .41.33ZM148.33 99.6c-.15.18-.2.36 0 .52s.25.07.29 0a.47.47 0 0 0 .16-.35c-.06-.2-.27-.18-.45-.17ZM135.81 101.65c0-.09-.12-.19-.17-.19s-.24 0-.25.09a.25.25 0 0 0 .14.21c.06.02.28-.02.28-.11ZM164.81 68.32a.51.51 0 0 0 .52-.4.68.68 0 0 0 .62-.37c0-.2-.23-.54-.48-.61a.32.32 0 0 0-.41.24 1.49 1.49 0 0 0 0 .21.48.48 0 0 0-.12 0 .41.41 0 0 0 0-.08.38.38 0 0 0-.29-.44.4.4 0 0 0-.47.31.43.43 0 0 0 .19.43.37.37 0 0 0-.08.18c0 .21.25.5.52.53ZM166.64 60.62v-.76a1.43 1.43 0 0 0 0 .29c-.16.25-.11.42 0 .47ZM139 100.66c.22 0 .48-.18.55-.5a.27.27 0 0 0-.23-.36.52.52 0 0 0-.62.25.6.6 0 0 0 .3.61ZM147.52 98.6c-.19.05-.26.52-.12.59s.53-.13.49-.33a.36.36 0 0 0-.37-.26ZM140.18 99.37a.43.43 0 0 0-.36-.45.35.35 0 0 0-.38.29.38.38 0 0 0 .31.47.4.4 0 0 0 .43-.31ZM135.19 103.86a.41.41 0 0 0 .64 0c0-.23-.09-.46-.37-.42s-.3.2-.27.42ZM136.34 100.77a.48.48 0 0 0 .39.62.59.59 0 0 0 .77-.48.63.63 0 0 0-.39-.75c-.29-.09-.68.22-.77.61ZM137.85 101.27c0 .19.29.48.58.52a.43.43 0 0 0 .44-.37.51.51 0 0 0-.36-.56.66.66 0 0 0-.66.41ZM90.13 87.83a.52.52 0 0 0-.33-.63.35.35 0 0 0-.52.18.74.74 0 0 0 0 .65.41.41 0 0 0-.22 0 .61.61 0 0 0-.36.67.52.52 0 0 0 .3.3.71.71 0 0 0 .94-.34 2.6 2.6 0 0 0-.19-.42.27.27 0 0 0-.08-.07.67.67 0 0 0 .46-.34ZM92.19 57.19a.29.29 0 0 0 .07.46.36.36 0 0 0 .52-.08.36.36 0 0 0-.08-.48.37.37 0 0 0-.51.1ZM135.56 41.64c-.28 0-.49.15-.48.36a1 1 0 0 0 .31.5c.21 0 .41 0 .62-.08a.62.62 0 0 0 .11-.37c0-.26-.2-.41-.56-.41Z"/><path class="cls-3" d="M135.06 41.06a.35.35 0 0 0-.46.24.33.33 0 0 0 .19.44c.23.07.56 0 .61-.19s-.16-.42-.34-.49ZM133.85 41.36a.43.43 0 0 0-.35.41.38.38 0 0 0 .37.37.42.42 0 0 0 .37-.43.41.41 0 0 0-.39-.35ZM134.63 39.28a.4.4 0 0 0-.45.22.45.45 0 0 0 .27.58.47.47 0 0 0 .48-.48.3.3 0 0 0-.3-.32ZM140.21 41.75c-.35-.13-.69 0-.77.19a.36.36 0 0 0-.36.26c.44 0 .88 0 1.31.08v-.06a.47.47 0 0 0-.18-.47ZM90.59 56c.09.07.33-.07.41-.14a.26.26 0 0 0-.1-.4.36.36 0 0 0-.31.13c-.05.03-.1.29 0 .41ZM88.05 56.67a.13.13 0 0 0 .16 0 .17.17 0 0 0 0-.14s-.1 0-.13 0a.1.1 0 0 0-.03.14ZM90 54.47a.38.38 0 0 0 0 .53.4.4 0 0 0 .56 0 .37.37 0 0 0 0-.56.39.39 0 0 0-.56.03ZM90.26 56.86a.31.31 0 0 0-.05.29c.05.09.18.21.27.2.25 0 .32-.3.28-.43a.34.34 0 0 0-.5-.06ZM94.1 51.42a.34.34 0 0 0 0 .34c0 .07.3.18.38.12s0-.33 0-.37-.31-.13-.38-.09ZM93 55.87a.46.46 0 0 0 .24.57.5.5 0 0 0 .71-.16l.06-.47a.36.36 0 0 0-.14-.21.75.75 0 0 0-.87.27ZM92.05 54.78c-.23-.14-.47 0-.64.26a.4.4 0 0 0 .08.57.79.79 0 0 0 .8-.14.48.48 0 0 0-.24-.69ZM92.33 52a.56.56 0 0 0 .22.73.57.57 0 0 0 .64-.95.83.83 0 0 0-.86.22ZM91.64 51.29a.44.44 0 0 0-.48 0 .38.38 0 0 0-.47.13.57.57 0 0 0 .19.69.33.33 0 0 0 .46-.12s0-.05 0-.07a.32.32 0 0 0 .28-.1.41.41 0 0 0 .02-.53ZM130.52 36.24a.51.51 0 0 0-.65-.25.76.76 0 0 0-.25.91.53.53 0 0 0 .63.13.68.68 0 1 0 1 .74.9.9 0 0 0-.69-.83.53.53 0 0 0-.24.06.53.53 0 0 0 .2-.76ZM130.17 39.2c-.09 0 0 .22 0 .29a.19.19 0 0 0 .2.07c.06 0 .06-.17 0-.25s-.1-.16-.2-.11ZM117.05 35.82c.06 0 .22-.14.17-.24s-.21-.07-.25 0-.16.1-.11.21a.13.13 0 0 0 .19.03ZM114.5 35.47a.33.33 0 0 0 0-.57.34.34 0 0 0-.38.22.32.32 0 0 0 .38.35ZM94.56 52a.39.39 0 0 0 0 .24c0-.1 0-.21.07-.31ZM123.92 37.86c.24-.14.29-.37.12-.67s-.37-.28-.67-.11a.4.4 0 0 0-.21.48.81.81 0 0 0 .76.3ZM131.06 40.32c.08 0 .08-.24 0-.3a.2.2 0 0 0-.23-.09c-.08 0-.09.17-.07.24s.24.19.3.15ZM159.84 70a.57.57 0 0 0 .15-.12.52.52 0 0 0 .26.36.72.72 0 0 0 1-.08.83.83 0 0 0 0-.74.34.34 0 0 0 .37-.25.4.4 0 0 0-.3-.44.37.37 0 0 0-.45.26s0 0 0 .07a.68.68 0 0 0-.69.22.62.62 0 0 0-.54-.46.89.89 0 0 0-.32 0 .29.29 0 0 0 0-.26.47.47 0 0 0-.61-.2ZM159.25 66c0-.17-.1-.22-.23-.25s-.35.06-.33.23a1.19 1.19 0 0 0 .12.32.37.37 0 0 0 .44-.3ZM161.09 66.1a.54.54 0 0 0-.64.08.43.43 0 0 0-.1.58c.08.13.16.4.33.5a.28.28 0 0 0-.08.15.75.75 0 0 0 .54.72.43.43 0 0 0 .52-.38.47.47 0 0 0-.42-.63h-.17a.41.41 0 0 1 .07-.15.6.6 0 0 0-.05-.87ZM132.12 36.76a.4.4 0 1 0 .26.75c.16-.09.21-.4.06-.7a.54.54 0 0 0-.32-.05ZM132.86 39.23c0-.37-.14-.55-.41-.56a.65.65 0 0 0-.61.53.69.69 0 0 0 .58.58c.21 0 .44-.28.44-.55ZM112.7 99.64l-.15-.14h-.07c.14.22.31.48.52.76a1 1 0 0 1 .37-.12c-.23-.14-.46-.3-.67-.5ZM113.53 101l.33.37a.61.61 0 0 0-.33-.37ZM116.25 102.05c-.44-.22-.87-.45-1.29-.71-.19.12-.48.28-.53.6.28.27.59.54.92.82a1.34 1.34 0 0 0 .9-.71ZM118.71 103.16a.37.37 0 0 0 0-.18l-.62-.19-.37.07a.33.33 0 0 0-.18-.11.36.36 0 0 0-.18 0c-.14-.11-.21-.06-.46.15 0 .16.23.35 0 .47a2.91 2.91 0 0 0-.37-.33.49.49 0 0 0-.53 0l-.07.06c.27.21.56.41.87.61v.06a16.78 16.78 0 0 0 1.75 1l.15-.1c.27-.26.25-.5-.05-.88a2.55 2.55 0 0 0 .06-.63ZM133.27 103.3c-.29-.06-.59.08-.63.3a.8.8 0 0 0 .58.79c.22 0 .46-.18.51-.48s-.08-.54-.46-.61ZM121.65 105a.51.51 0 0 0-.38-.24.66.66 0 0 0-.28 0c0-.06 0-.12-.08-.15-.2-.13-.41-.05-.54.23v.1c0 .03-.19.18-.31 0a1.53 1.53 0 0 0-.11-.16.64.64 0 0 0-.72-.13.55.55 0 0 0-.29.21c.54.24 1.11.46 1.72.67a1.09 1.09 0 0 0 .08-.15.8.8 0 0 0 .31.27c.34.11.7.21 1.07.3a1.1 1.1 0 0 0 .1-.45c-.01-.16-.31-.42-.57-.5ZM133.43 105.92a.38.38 0 0 0-.09-.44.51.51 0 0 0-.58 0 .36.36 0 0 0-.24.21.5.5 0 0 0-.37-.32.31.31 0 0 0-.37.26.57.57 0 0 0 .12.43.4.4 0 0 0 .61-.12 1.2 1.2 0 0 1 0 .42.32.32 0 0 0 0 .16l1-.13-.18-.16ZM136 105.47a.38.38 0 0 0-.21 0 .49.49 0 0 0-.25-.16.75.75 0 0 0-.75.25.85.85 0 0 0-.51.15.16.16 0 0 0-.08 0c-.14 0-.18.14-.21.21s0 .1.07.13a.62.62 0 0 0 0 .19c.78-.13 1.58-.28 2.41-.45a.57.57 0 0 0-.47-.32ZM132 103.27c.17.07.44 0 .59-.35a.38.38 0 0 0 .41-.26.37.37 0 0 0-.31-.43.24.24 0 0 0-.17 0 .4.4 0 0 0-.43-.2c-.3.09-.32.29-.43.24s-.12-.1-.21-.15a3.88 3.88 0 0 1-.36.15 1.23 1.23 0 0 0 0 .62c0 .09.27.28.12.43a3.39 3.39 0 0 1-.34.23.37.37 0 0 0-.27.16.49.49 0 0 0 .08.33.65.65 0 0 0 .15.65c.28.21.41-.07.61-.12a.48.48 0 0 0 .39-.5c0-.27-.19-.52-.15-.65s.08-.23.32-.15ZM125.83 105.43a.45.45 0 0 0 .17-.2c0-.19-.23-.53-.48-.6a.31.31 0 0 0-.41.23.63.63 0 0 0 .17.69.3.3 0 0 0 0 .29.32.32 0 0 0 .45.18.46.46 0 0 0 .24-.31.38.38 0 0 0-.14-.28ZM130.06 105.34a.35.35 0 0 0 .41.16.32.32 0 0 0 0-.56c-.3-.1-.47.24-.41.4ZM124.82 104.6a.71.71 0 0 0-.69-.82h-.41a.77.77 0 0 0-.33.15.8.8 0 0 0-.28.61c0 .27-.23.45-.14.7a1.24 1.24 0 0 0 .34.51h-.07c-.21.09-.38.2-.62 0s-.34 0-.43.21c.62.15 1.27.28 2 .38a1 1 0 0 0-.06-.44.9.9 0 0 0 .73-.39.5.5 0 0 0 0-.4.36.36 0 0 0 .14-.11.39.39 0 0 0-.18-.4Z"/><path class="cls-3" d="M129.85 105.92a.36.36 0 0 0-.46 0l-.24.14-.09-.06a1 1 0 0 0 0-.24.65.65 0 0 0 0-.2.71.71 0 0 0 .7-.52.71.71 0 0 0-1.37-.32.79.79 0 0 0 0 .34.85.85 0 0 0-.56.23.55.55 0 0 0-.43-.48c-.45-.1-.85.09-.91.43a.58.58 0 0 0 0 .29.36.36 0 0 0-.32 0 .38.38 0 0 0-.23.44c0 .23.22.27.42.31a.56.56 0 0 0-.31.28s0 0 0 .08h1a.74.74 0 0 0-.36-.4.35.35 0 0 0-.11 0 .87.87 0 0 0 .18-.38.63.63 0 0 0 .26.15.79.79 0 0 0 .71-.3.67.67 0 0 0 .66.56h.24a.86.86 0 0 1 0 .16.43.43 0 0 0-.05.21h1.37a1.36 1.36 0 0 1 0-.24c.05-.21.05-.4-.1-.48ZM96.7 102.18a.43.43 0 0 0-.14.65.38.38 0 0 0 .61-.14.54.54 0 0 0-.08-.44.42.42 0 0 0-.39-.07ZM93.16 100.26l-.5-.19.77.91c.18-.41.11-.58-.27-.72ZM94.18 98.59c0-.18-.08-.35-.25-.32a1.06 1.06 0 0 0-.32.14.36.36 0 0 0 .33.42c.17.01.21-.11.24-.24ZM93.23 94.74a.89.89 0 0 0 .79-.89c0-.3-.44-.3-.61-.15s-.13.07-.34 0a.45.45 0 0 0-.5.11.35.35 0 0 0-.14-.06.59.59 0 0 0-.5.11.35.35 0 0 0-.33-.19c-.25 0-.32.22-.41.44.16.17.31.39.57.25h.06a.91.91 0 0 0 .53.42.36.36 0 0 0 .37-.21.89.89 0 0 0 .51.17ZM92.39 96.54v-.64a.32.32 0 0 0-.2-.46.41.41 0 0 0-.5.28s0 .07 0 .1a.64.64 0 0 0-.44-.31.65.65 0 0 0-.89.53.73.73 0 0 0 .58.84.62.62 0 0 0 .44-.14.82.82 0 0 0 .62.26c.19-.11.41-.16.39-.46Z"/><path class="cls-3" d="M90.48 95.61c0-.19-.21-.28-.32-.33a.77.77 0 0 0 .34-.45.81.81 0 0 0-.51-.85.68.68 0 0 0-.83.42 1.1 1.1 0 0 0 .57 1 1 1 0 0 0 .17 0 .43.43 0 0 0 0 .07c-.06.18 0 .43.21.42s.35-.1.37-.28ZM142.74 40.49a.69.69 0 0 0-.21.81c.11.24.55.26.9.12a.67.67 0 0 0 .26-.83.69.69 0 0 0-.95-.1ZM91.17 98.12l.36.49a.5.5 0 0 0-.07-.27.66.66 0 0 0-.29-.22ZM93.83 101.31h-.1l.27.31c0-.1-.09-.29-.17-.31ZM92.77 97.19a.64.64 0 1 0 1.24.29c.07-.31-.23-.65-.64-.73a.5.5 0 0 0-.6.44ZM89.12 92.37a.66.66 0 0 0-.75-.43.69.69 0 0 0-.3.9.67.67 0 0 0 .74.38c.27-.05.38-.47.31-.85ZM99.09 106a.32.32 0 0 0-.35.2l.43.36a.26.26 0 0 0 .14-.11c.06-.06-.05-.4-.22-.45ZM96.77 101.63a.43.43 0 0 0-.3-.49.36.36 0 0 0-.41.32.37.37 0 0 0 .26.45.39.39 0 0 0 .45-.28ZM95.66 99.22h-.13a.3.3 0 0 0 .27-.3.45.45 0 0 0-.15-.33c-.25-.15-.43 0-.6.24.1.19.16.4.38.41a.31.31 0 0 0-.25.27.74.74 0 0 0 .36.67.5.5 0 0 0 .59-.44c.05-.24-.13-.45-.47-.52Z"/><path class="cls-3" d="M95.24 102.21a.48.48 0 0 0-.4-.69.21.21 0 0 0 0-.13c0-.17-.18-.34-.4-.37a.43.43 0 0 0-.52.33.37.37 0 0 0 .34.4 1 1 0 0 0 0 .18c.35.38.71.76 1.07 1.13a1.46 1.46 0 0 0-.09-.54.66.66 0 0 1 0-.31ZM98.93 104.74a.46.46 0 0 0-.23-.82 2.91 2.91 0 0 0-.78-.07.72.72 0 0 0-.58.63.29.29 0 0 0 .2.35 2.06 2.06 0 0 0 1.23 0 .55.55 0 0 0 .16-.09ZM136.84 104.19a.35.35 0 0 0-.21-.25c-.15 0-.46.2-.42.35a.6.6 0 0 0 .06.11.63.63 0 0 0 .44.47c.14 0 .38-.24.39-.43s-.1-.22-.26-.25ZM162 80.89l.15-.23h-.06c0 .05-.02.14-.09.23ZM162.64 78.5c0 .26-.09.52-.14.79.32 0 .52 0 .57-.18a.63.63 0 0 0-.43-.61ZM162.39 79.7a.52.52 0 0 0 0-.27 2.8 2.8 0 0 1 0 .27ZM163 78.09a.35.35 0 0 0 .22.44.33.33 0 0 0 .14 0c.09-.18.18-.37.26-.56a.27.27 0 0 0-.13-.1.39.39 0 0 0-.49.22ZM156.47 95.31s-.21 0-.23.11.15.18.22.2a.19.19 0 0 0 .17-.12c.01-.07-.09-.16-.16-.19ZM164 73.79a.31.31 0 0 0-.26-.26.44.44 0 0 0-.46.28.34.34 0 0 0 .12.31c-.15.24-.23.55-.33.57s-.43-.25-.78-.25a10.12 10.12 0 0 1 .37 1.66.45.45 0 0 0 .23 0 .31.31 0 0 0 .11-.1s-.06.06-.07.09a.61.61 0 0 0 .35.64.74.74 0 0 0 .45.84c.18-.42.36-.86.53-1.31a1 1 0 0 0-.46 0 .45.45 0 0 0-.22-.49.61.61 0 0 0-.53.14c.11-.16.15-.37.21-.39s.54.34 1 .21a.61.61 0 0 0 .31-.24c.1-.28.19-.56.28-.85a1.07 1.07 0 0 0-.38-.68 1 1 0 0 0-.47-.17ZM153.41 97a.42.42 0 0 0-.5.28 1.1 1.1 0 0 1-.2.35.54.54 0 0 0-.22.6c0 .1.19.19.36.25l.76-.52v-.5a.31.31 0 0 0-.2-.46ZM154.64 95.22c-.17.14-.13.07-.35 0s-.56 0-.57.36a.76.76 0 0 0 .73.69.88.88 0 0 0 .79-.89c-.04-.31-.44-.31-.6-.16ZM165.06 70.61a.2.2 0 0 0-.21-.24.23.23 0 0 0-.2.2.19.19 0 0 0 .15.23.2.2 0 0 0 .26-.19ZM166.31 65.77a.72.72 0 0 0 .17.59v-.89a.5.5 0 0 0-.17.3ZM165.93 68.32a.33.33 0 0 0 .28.27c0-.25.08-.5.11-.75a.34.34 0 0 0-.16 0 .38.38 0 0 0-.23.48ZM165.82 70.88c0-.11 0-.22.07-.33a.29.29 0 0 0-.09.15.36.36 0 0 0 .02.18ZM166.29 63.63a.41.41 0 0 0 0 .19h-.05c-.19-.07-.41.13-.43.36a.34.34 0 0 0 .32.36.44.44 0 0 0 .4-.32h.06v-1a.46.46 0 0 0-.3.41ZM165 72.8a.51.51 0 0 0-.69.35c-.07.27 0 .57.25.62a.71.71 0 0 0 .65-.26c0-.13.08-.27.11-.4a.52.52 0 0 0-.32-.31ZM165.05 74.05c0-.13.07-.25.1-.38a.84.84 0 0 0-.16.24 1.14 1.14 0 0 0 .06.14Z"/><path class="cls-3" d="M165.37 69.22c-.25-.07-.56.06-.6.26a.28.28 0 0 0 0 .09.74.74 0 0 0-.52-.38.65.65 0 0 0-.24 0 1 1 0 0 0 .06-.92.71.71 0 0 0-.85-.19c-.21.1-.38.21-.62 0a.2.2 0 0 0-.22 0h-.05a.39.39 0 0 0-.42.27.32.32 0 0 0 .24.41.46.46 0 0 0 .32-.13.31.31 0 0 0 .18 0 3.18 3.18 0 0 0 .38.59.81.81 0 0 0 .68.15.74.74 0 0 0-.19.44c-.07.52.06.71.48.81a.7.7 0 0 0 .84-.63s0-.06 0-.1a.72.72 0 0 0 .44.4c.2.06.45-.14.52-.4s-.08-.57-.43-.67ZM164.7 71.4a.35.35 0 0 0-.22-.43.34.34 0 0 0-.45.17c-.08.22 0 .56.16.61s.27 0 .4-.16a.56.56 0 0 0 .42.7 2 2 0 0 0 .51 0c.09-.35.17-.69.25-1.05a.67.67 0 0 0-.33-.24.89.89 0 0 0-.74.4ZM151.38 96.8a.25.25 0 0 0-.38.2c-.05.17.06.42.22.41s.44-.06.46-.24-.19-.32-.3-.37ZM143.26 100.28a.38.38 0 0 0 .34.4.37.37 0 0 0 .38-.36.32.32 0 0 0-.3-.37.42.42 0 0 0-.42.33ZM141.49 102.71c-.18 0-.37 0-.4.17s.08.52.28.55a.4.4 0 0 0 .48-.35.34.34 0 0 0-.36-.37ZM141.55 100.37a.62.62 0 0 0-.48.29.52.52 0 0 0-.35-.38.36.36 0 0 0-.41.32.42.42 0 0 0 .25.47.64.64 0 0 0 .44-.15.47.47 0 0 0 .29.41c.4.07.73-.07.77-.32a.7.7 0 0 0-.51-.64ZM141.68 102.23a.82.82 0 0 0-.38-.72c-.27-.06-.46.09-.53.43s.1.45.43.51a.37.37 0 0 0 .48-.22Z"/><path class="cls-3" d="M142.05 100a.26.26 0 0 0-.33.19.3.3 0 0 0 .16.4.34.34 0 0 0 .42-.23.3.3 0 0 0-.25-.36ZM138 102.32a.63.63 0 0 0-.6.23.44.44 0 0 0 .09.36h-.09c-.12 0-.26 0-.31.15s.14.4.33.42.21-.11.23-.25a.26.26 0 0 0 0-.15.28.28 0 0 0 .38-.18c.09-.29.08-.51-.03-.58ZM140.54 103.49a.68.68 0 0 0-.54-.5.35.35 0 0 0-.15 0 .62.62 0 0 0 .12-.42c-.07-.28-.32-.19-.56-.19-.1.27-.15.5.09.65a.31.31 0 0 0 .17 0 .65.65 0 0 0-.21.42.51.51 0 0 0 .34.52.45.45 0 0 0 .22 0c.18.28.32.36.52.29a.35.35 0 0 0 .25-.37.41.41 0 0 0-.25-.4ZM143.21 99.6c.26 0 .45-.14.5-.48a.41.41 0 0 0-.27-.51c-.22 0-.67.22-.7.42s.13.51.47.57ZM138.88 104c-.37-.07-.65 0-.69.28a.66.66 0 0 0 .48.61.65.65 0 0 0 .52-.45.41.41 0 0 0-.31-.44ZM140 101.85s0-.13-.1-.14-.27-.19-.39-.34a.39.39 0 0 0-.35 0 .45.45 0 0 0-.18.31c0 .08.11.2.2.24a2.49 2.49 0 0 0 .55.16c.2.03.27-.08.27-.23ZM144 102.87a.12.12 0 0 0-.16.11c0 .08 0 .23.12.27s.19-.14.18-.18 0-.18-.14-.2ZM148.2 100.47a.7.7 0 0 0-.41.38h-.1c-.38-.08-.57.15-.71.46-.21-.07-.4-.24-.58 0a.35.35 0 0 0 0 .45c.2.24.4.08.6 0l.13.13c.63-.33 1.25-.68 1.86-1a.68.68 0 0 0-.79-.42ZM137.46 104.91a.41.41 0 0 0-.31 0c-.12.07-.07.24.07.32a.6.6 0 0 0 .45.05.18.18 0 0 0 .09-.26.36.36 0 0 0-.3-.11ZM150 97.16a.36.36 0 0 0-.3-.43.35.35 0 0 0-.44.27.37.37 0 0 0 .28.44.44.44 0 0 0 .46-.28ZM145.25 101.67a.33.33 0 0 0-.39.28.54.54 0 0 0 0 .31c-.19 0-.38.13-.39.28s.22.29.43.38l.36-.18a.75.75 0 0 0 0-.2.39.39 0 0 0 .41-.29.57.57 0 0 0-.42-.58ZM146.12 99.25a.7.7 0 0 0-.64.5.52.52 0 1 0 1 .15.58.58 0 0 0-.36-.65ZM143.46 101.66a.61.61 0 0 0-.67.43.62.62 0 0 0 .41.69.85.85 0 0 0 .73-.52.57.57 0 0 0-.47-.6ZM150.3 98.06a.4.4 0 0 0-.06.79.43.43 0 0 0 .41-.39.4.4 0 0 0-.35-.4ZM144.15 98c-.11 0-.28.18-.33.27s.09.37.24.34a.35.35 0 0 0 .24-.23c.02-.12-.03-.38-.15-.38ZM92.2 98.92a.35.35 0 0 0-.36.11c.17.23.36.46.54.68a.77.77 0 0 0 0-.21.48.48 0 0 0 .07-.18.34.34 0 0 0-.25-.4ZM126.76 34.21a.44.44 0 0 0 .21-.08l-.47-.08a.2.2 0 0 0 .26.16ZM126.13 37.72a.28.28 0 0 0 .41.12c.24-.12.39-.42.3-.6a.59.59 0 0 0-.63-.25c-.21.1-.21.45-.08.73ZM125.9 35.05a.63.63 0 0 0 .3-.56.53.53 0 0 0-.54-.23.27.27 0 0 0-.17.38c.1.29.26.45.41.41ZM88.25 91.5c.06-.27-.19-.29-.27-.4a.59.59 0 0 0-.85-.14c.18.42.38.86.6 1.29a.59.59 0 0 0 0-.08.43.43 0 0 0 0-.4c.27-.02.47-.07.52-.27ZM128.41 34.37l-.5-.09a.36.36 0 0 0 .3.17.32.32 0 0 0 .2-.08ZM127.63 38.89a.59.59 0 0 0 .54-.63.61.61 0 0 0-.62-.52.58.58 0 0 0 .08 1.15ZM128.76 37c.25 0 .42-.1.44-.3a.61.61 0 0 0-.49-.59.44.44 0 0 0-.44.38.53.53 0 0 0 .49.51ZM128 36.11c.27-.12.36-.6.18-1a.49.49 0 0 0-.71-.21.59.59 0 0 0-.26.87.63.63 0 0 0 .79.34ZM122.79 33.75a.15.15 0 0 0 0-.09h-.36a.37.37 0 0 0 .08.14c.08.02.23.03.28-.05ZM121 35.71c.2.06.39.21.55.13a.36.36 0 0 0 .21-.25.57.57 0 0 0 .07-.34.78.78 0 0 0-.4-.55.58.58 0 0 0-.61.09.47.47 0 0 0-.15.47.6.6 0 0 0 .33.45ZM129.79 35.12a.62.62 0 0 0 .33-.38l-1.38-.3a.79.79 0 0 0 0 .46c.17.34.61.43 1.05.22ZM122.75 37.11c0 .1.17.14.25.15s.15-.07.15-.14S123 37 123 37s-.24 0-.25.11ZM125.17 38.41a.38.38 0 0 0 .1-.52.41.41 0 0 0-.5-.18.52.52 0 0 0-.21.55.54.54 0 0 0 .61.15ZM123.93 35.88c.25-.15.28-.4.09-.72a.52.52 0 0 0-.6-.16.87.87 0 0 0-.3.81.64.64 0 0 0 .81.07ZM124.81 36.82a.77.77 0 0 1 .52 0c.08 0 .23-.12.27-.22a.43.43 0 0 0-.07-.36c0-.06-.21-.07-.3 0a2.71 2.71 0 0 0-.52.24c-.15.07-.16.19-.06.34s.12.02.16 0ZM124.14 34.43c.3-.18.43-.43.34-.62l-.85-.08a.69.69 0 0 0 0 .58.42.42 0 0 0 .51.12ZM130.69 35.88c-.1.22-.23.45.05.61a.38.38 0 0 0 .5-.05s.11-.15.09-.21-.15-.34-.23-.52a.89.89 0 0 0 .08-.71l-.64-.16a.77.77 0 0 0-.36.3c-.18.28-.05.43.51.74ZM138.51 41.28c.21 0 .35-.19.4-.31s-.06-.26-.21-.31-.37 0-.37.2-.02.4.18.42ZM137.6 37.36c0-.09-.11-.19-.18-.22a.19.19 0 0 0-.19.08c0 .07.06.17.12.22s.21.02.25-.08ZM137.92 37.27l-.28-.12a.33.33 0 0 0 .13.11.4.4 0 0 0 .15.01ZM139.26 38.51a.75.75 0 0 1 .57 0 .42.42 0 0 0 .51-.17c-.61-.3-1.25-.59-1.92-.88a.79.79 0 0 0 0 .13c.17.25.4.58.64.89a.26.26 0 0 0 .2.03ZM137.83 41.7a.71.71 0 0 0 .1.26c.25.07.45 0 .45-.19a.41.41 0 0 0-.16-.31c-.13-.09-.39.07-.39.24ZM139.92 39.63s.05-.05.05-.08a.76.76 0 0 0-.42-.85.48.48 0 0 0-.43.15.32.32 0 0 0-.17-.06.55.55 0 0 0-.33.45.4.4 0 0 0 .42.38.49.49 0 0 0 .26.18.47.47 0 0 0 .16 0 .51.51 0 0 0-.09.25.7.7 0 0 0 .46.52.68.68 0 0 0 .59-.55c.02-.21-.19-.35-.5-.39ZM143.09 40a1 1 0 0 1 .24 0s0 0 .06 0c-.32-.2-.66-.4-1-.59a.32.32 0 0 1 .12.15.48.48 0 0 0 .58.44ZM141.62 41.88a.47.47 0 0 0-.17 0 1.12 1.12 0 0 0-.73.51c.45.06.89.12 1.33.2a.29.29 0 0 1 0-.09.42.42 0 0 0 .18-.21.33.33 0 0 0-.18-.45.38.38 0 0 0-.43.04ZM140.94 41a.8.8 0 0 0 1-.39.77.77 0 0 0-.13-.67.56.56 0 0 0 .21-.17c.06-.09.1-.19.19-.36-.21-.13-.42-.25-.65-.37a.57.57 0 0 0-.13 0c-.39.08-.5.34-.32.63a.91.91 0 0 0-.5.52.62.62 0 0 0 .33.81ZM132.44 41.09a.34.34 0 0 0 .37.31.45.45 0 0 0 .36-.49 1.25 1.25 0 0 0-.36-.24c-.21-.04-.38.19-.37.42ZM132.6 35.91h.15a.23.23 0 0 0 .16-.06.61.61 0 0 0 .15-.24l-1-.28v.08a.63.63 0 0 0 .54.5Z"/><path class="cls-3" d="M132 36.11c.08-.09.28-.28.15-.44s-.39-.08-.51 0-.12.24-.05.37.28.19.41.07ZM132.54 36.77c0 .19 0 .41.25.45.09 0 .24-.09.3-.18a.28.28 0 0 0 0-.29c-.18-.18-.36-.13-.55.02ZM130.92 39.07c-.07 0-.17.17-.19.27s.07.27.23.23.41-.14.4-.28-.36-.23-.44-.22ZM118.78 34.08c.09 0 .22.14.12.18s-.16.14-.08.39a.38.38 0 0 0 .47.32.56.56 0 0 0 .43-.67c-.06-.31-.24-.32-.26-.53a.27.27 0 0 0-.23-.24h-.59a.22.22 0 0 0-.12.19c-.03.28.16.36.26.36ZM136.72 36.78l-.4-.14a.41.41 0 0 0 .35.15ZM136.32 38.82h-.14c-.34-.06-.5.07-.52.41s0 .56.42.69a1.36 1.36 0 0 1-.37.17.36.36 0 0 0-.34.35.5.5 0 0 0 .22.55c.67.39.89.35 1.36-.25h.05a.86.86 0 0 0-.12.27.24.24 0 0 0 .22.32.29.29 0 0 0 .35-.26.75.75 0 0 0-.15-.34.33.33 0 0 0 .12 0 .47.47 0 0 1 .1 0c.06 0 .21-.08.26-.18a.44.44 0 0 0-.15-.6.47.47 0 0 0-.45.09h-.07c-.25.07-.36-.07-.53-.19.32-.54.21-.85-.26-1.03ZM134.08 37.16a.9.9 0 0 0 .13 1 .76.76 0 0 0 .5.17.4.4 0 0 0 .32 0l.07-.06a1 1 0 0 0 .47-.38.37.37 0 0 1 .37-.19.44.44 0 0 0 .35-.33.1.1 0 0 0 .07 0 .23.23 0 0 0 .24-.08.22.22 0 0 0-.11-.23.4.4 0 0 0-.22 0c-.06-.15-.19-.18-.35-.16a.86.86 0 0 1-.42 0 9.2 9.2 0 0 1-.86-.39 2.42 2.42 0 0 0 0-.49l-.88-.28a.49.49 0 0 0-.27.71 4.61 4.61 0 0 0 .59.71ZM124.94 35.24c.06 0 .25-.06.26-.15s-.18-.19-.24-.19a.22.22 0 0 0-.2.16c0 .09.11.17.18.18ZM82.18 64.48a.2.2 0 0 0 0 .21s.19 0 .25 0 .11-.18 0-.25-.19-.01-.25.04ZM80.81 58.91a.53.53 0 0 0 .12 0 .64.64 0 0 0 .57-.35.47.47 0 0 0-.07-.43ZM82.93 60.66a1 1 0 0 1-.16-.38.55.55 0 0 0-.37-.52c-.18-.06-.59.21-.65.42s-.15.41.1.56a6.28 6.28 0 0 1 .52.38.31.31 0 0 0 .49.1.41.41 0 0 0 .07-.56ZM82.83 62.47a.9.9 0 0 0 .25 1.17c.27.14.5-.19.48-.41s0-.15.21-.27a.38.38 0 0 0 0-.67.76.76 0 0 0-.94.18ZM80.06 62.05c-.11.13 0 .24.06.33a.24.24 0 0 0 .4 0 1.21 1.21 0 0 0 .07-.34.37.37 0 0 0-.53.01ZM77.7 65.77a.81.81 0 0 0 0 1 .73.73 0 0 0 1 .06 1 1 0 0 0 0-1.1.71.71 0 0 0-1 .04ZM79.41 63.33s-.13.23-.07.29.26 0 .3 0 .09-.18 0-.25-.17-.08-.23-.04ZM83.78 58.05a.21.21 0 0 0 0-.06.54.54 0 0 0 .31-.24c0-.16 0-.38-.11-.49s-.3.08-.32.15 0 .06 0 .09a.35.35 0 0 0-.5 0 .46.46 0 0 0 .07.57.4.4 0 0 0 .55-.02ZM79.55 61a1.21 1.21 0 0 0 .07-.34.41.41 0 0 0-.11-.07l-.33.45c.13.09.3.09.37-.04ZM75.19 67ZM87.24 88.91c.06-.54-.08-.63-.58-.8a.53.53 0 0 0-.57.22l.34 1 .12.06a.33.33 0 0 0 .24 0 .52.52 0 0 0 .45-.48ZM86.07 83.68a.47.47 0 0 0-.26-.62.31.31 0 0 0-.41.16.39.39 0 0 0 0 .5.43.43 0 0 0 .67-.04ZM86.42 87a.76.76 0 0 0-.5-.81.8.8 0 0 0-.46 0c.11.43.23.86.37 1.3a.74.74 0 0 0 .59-.49ZM87.24 90.27a.43.43 0 0 0-.48-.16c.11.28.23.56.36.85a1.45 1.45 0 0 0 .09-.22c.04-.15.14-.29.03-.47ZM117.12 34.35a.3.3 0 1 0-.43-.34c-.05.18.05.26.43.34ZM85.22 58.33a.35.35 0 0 0 0-.51.37.37 0 0 0-.53 0 .44.44 0 0 0 0 .54.36.36 0 0 0 .53-.03ZM85 55.48c.07-.19-.26-.52-.41-.45s-.2.51 0 .6a.36.36 0 0 0 .41-.15ZM83.79 59.23c-.06.11-.21.39-.07.51s.35 0 .45-.08a.24.24 0 0 0 .08-.37c-.1-.14-.37-.2-.46-.06ZM85.16 82a.61.61 0 0 0 .27 0q0 .17.27.27a.56.56 0 0 0 .73-.07 10.57 10.57 0 0 1-.57-1.34 1.08 1.08 0 0 0-.44-.23.58.58 0 0 0-.7.31v.68a.74.74 0 0 0 .44.38ZM85 83h-.13c0 .22.05.43.08.65a.35.35 0 0 0 .32-.3A.28.28 0 0 0 85 83ZM94.12 50.32c-.11.16 0 .51.25.62a.33.33 0 0 0 .44-.18c.16-.3.17-.52 0-.63a.62.62 0 0 0-.69.19ZM95.22 47c.32 0 .35.28.46.49a.38.38 0 0 0 .61.13l.07-.05a.25.25 0 0 0 .12.13.7.7 0 0 0 .3.09c.12-.14.23-.3.35-.44a1.66 1.66 0 0 0-.23-.23.38.38 0 0 0-.38-.05.47.47 0 0 0-.24-.3c-.15-.1-.33-.15-.32-.44.1 0 .25-.09.28-.17v-.06l-1.19.66a.4.4 0 0 0 .07.19s.07.05.1.05ZM95.25 49.42a.53.53 0 0 1 .36 0 8.33 8.33 0 0 1 .51-.8.87.87 0 0 1-.74 0A.29.29 0 0 0 95 49c-.11.17.05.45.25.42ZM93.88 54.64a.46.46 0 0 0 .31 0l.1-.88c-.28-.12-.56-.09-.66.1a.68.68 0 0 0 .25.78ZM94.64 49.66a.38.38 0 0 0 0-.48.38.38 0 0 0-.53 0 .29.29 0 0 0 0 .46.36.36 0 0 0 .53.02ZM85 55.14a.35.35 0 0 0 .51-.09.36.36 0 0 0-.11-.51.43.43 0 0 0-.53.1.36.36 0 0 0 .13.5ZM103.24 43.27h-.07ZM114.57 33.71l.17.16a.75.75 0 0 0 .83.06.78.78 0 0 0 .26-.34c-.7 0-1.39.07-2.08.12a.63.63 0 0 0 .33.09 3 3 0 0 0 .49-.09ZM100.19 44.77v-.08a1 1 0 0 0 0-.3.36.36 0 0 0 .19-.07.3.3 0 0 0 .1.14h.08l.75-.4a.94.94 0 0 0-.07-.22c-.73.25-1.47.53-2.25.86a2.83 2.83 0 0 1-.06.42.82.82 0 0 0 0 .44 12.76 12.76 0 0 1 1.26-.79ZM97.61 45.77l-.06.06c-.06.11-.14.24-.08.34s.41.14.53 0 0-.24 0-.34a.25.25 0 0 0-.22-.1.41.41 0 0 0 .12-.09.38.38 0 0 0 0-.36l-.88.43a.28.28 0 0 0 .1.09.85.85 0 0 0 .49-.03ZM86 55.27a3.07 3.07 0 0 0 .72.31.76.76 0 0 0 .75-.43c.06-.16.07-.54-.27-.59-.55.2-.55-.22-1-.2a.61.61 0 0 0-.19.06.47.47 0 0 0-.01.85ZM87 53c.06.07.3.17.4.1s0-.21 0-.32a.28.28 0 0 0 0-.32.33.33 0 0 0-.26-.13.5.5 0 0 0-.28.27.23.23 0 0 0 0 .18.38.38 0 0 0 .14.22ZM87.38 52.08a.53.53 0 0 0 .32.1.74.74 0 0 0 .52-.21l.08.06a.56.56 0 0 0 .77-.12.28.28 0 0 0 .23.1.26.26 0 0 0 .37 0 .35.35 0 0 0 .15-.43.3.3 0 0 0-.26-.21.34.34 0 0 0-.38-.07l-.11-.24.45-.23a1.9 1.9 0 0 0 0-.41.18.18 0 0 0 0-.09c-.79.59-1.56 1.22-2.31 1.87a.3.3 0 0 0 .15-.07s0-.03.02-.05ZM85.54 57.13a.73.73 0 0 0 .87-.26c.12-.19 0-.53-.28-.66a.5.5 0 0 0-.71.23.49.49 0 0 0 .12.69ZM90.89 50.36a1.28 1.28 0 0 0 1-1c0-.26-.21-.41-.33-.51q-.7.48-1.41 1a.79.79 0 0 0 .74.51ZM91.59 53.83a.3.3 0 0 0 .15.44.4.4 0 0 0 .51-.15.39.39 0 0 0-.18-.5.37.37 0 0 0-.48.21ZM92.53 50.73a.67.67 0 0 0 .69-1.16s0 0-.07 0a.63.63 0 0 0-.1-.3.87.87 0 0 0 .68-.44.76.76 0 0 0-.27-1.06s0 0-.06 0l-1 .65a.67.67 0 0 0 .12.65h-.06c-.13.12 0 .41.07.54a1.08 1.08 0 0 0-.18.23.57.57 0 0 0 .18.89ZM89.09 53.31a.58.58 0 0 0 .11.75.7.7 0 0 0 .78-.23.52.52 0 1 0-.89-.52Z"/><ellipse cx="124.56" cy="71.65" rx="23.77" ry="22.91" style="fill:#1c1e23"/><circle class="cls-5" cx="32.54" cy="34.28" r="1.93"/><circle class="cls-5" cx="223.42" cy="67.02" r="1.93"/><path class="cls-6" d="M145 86.21c.35-.52 33.13 20.58 33.66 20.93a1.14 1.14 0 0 1-1.26 1.9c-.56-.35-32.78-22.3-32.4-22.83ZM140.63 50.56c-.49-.39 23.57-31.07 24-31.56a1.14 1.14 0 1 1 1.77 1.43c-.4.49-25.28 30.57-25.77 30.13ZM87.44 93.64c.21.59-36.2 14.52-36.79 14.74a1.14 1.14 0 0 1-.79-2.14c.59-.24 37.36-13.19 37.58-12.6ZM100.59 92.3c.31.55-33.15 20.56-33.69 20.88a1.14 1.14 0 0 1-1.15-2c.55-.29 34.52-19.42 34.84-18.88Z"/><path class="cls-7" d="M204.47 18.65c-5.1 0-7.1 2-7.1 7.1 0-5.1-2-7.1-7.09-7.1 5.09 0 7.09-2 7.09-7.1 0 5.1 2 7.1 7.1 7.1ZM68.84 18.65c-3.93 0-5.48 1.55-5.48 5.48 0-3.93-1.54-5.48-5.48-5.48 3.94 0 5.48-1.55 5.48-5.48 0 3.93 1.55 5.48 5.48 5.48ZM184.17 79.21c-4.61 0-6.43 1.81-6.43 6.42 0-4.61-1.81-6.42-6.42-6.42 4.61 0 6.42-1.81 6.42-6.43 0 4.62 1.82 6.43 6.43 6.43ZM55.68 124.7c-5.66 0-7.89 2.22-7.89 7.89 0-5.67-2.22-7.89-7.89-7.89 5.67 0 7.89-2.23 7.89-7.89 0 5.66 2.21 7.89 7.89 7.89Z"/><path class="cls-8" transform="rotate(-37.34 91.867 34.685)" d="M90.25 33.05h3.26v3.26h-3.26z"/><path class="cls-5" transform="rotate(-20.15 123.026 113.882)" d="M121.32 112.16h3.45v3.45h-3.45z"/><path class="cls-5" transform="rotate(-20.15 184.222 7.506)" d="M182.53 5.79h3.45v3.45h-3.45z"/><path class="cls-9" d="m157.62 75.65-.92-1.37-1.64.1-.74 1.48.92 1.37 1.64-.1.74-1.48z"/><path class="cls-8" d="m190.14 106.28 4.55 5.92 4.84-4.14-9.39-1.78zM35.22 67.85l.22 5.54 9-2.13-9.22-3.41z"/><path class="cls-5" d="m70.39 84.46 1.47 4.25 4.25-2.84-5.72-1.41zM146.29 27.82l-4.45-.64.57 5.08 3.88-4.44z"/><path class="cls-2" transform="rotate(-21.9 105.258 51.411)" d="M103.66 49.81h3.16v3.16h-3.16z"/><path class="cls-2" transform="rotate(-37.12 128.074 97.071)" d="M126.85 95.84h2.46v2.46h-2.46z"/><circle class="cls-9" cx="126.66" cy="56.78" r="1.21"/><circle class="cls-9" cx="109.51" cy="82.54" r=".73"/><circle class="cls-9" cx="141.21" cy="61.97" r=".48"/><circle class="cls-9" cx="127.33" cy="88.64" r=".48"/><circle class="cls-2" cx="121.37" cy="71.16" r=".48"/><circle class="cls-2" cx="129.94" cy="75.81" r="1.21"/><circle class="cls-2" cx="110.91" cy="63.5" r="1.21"/></g></svg>