<svg width="24" height="24" fill="none" xmlns="http://www.w3.org/2000/svg"><path d="M8.491 9.292c.829 2.533 1.142 7.05 3.564 7.05.184 0 .37-.018.558-.053-2.201-.514-2.463-4.982-3.806-7.296-.107.098-.212.197-.316.3Z" fill="url(#a)"/><path d="M8.807 8.993c1.343 2.314 1.604 6.782 3.806 7.296.176-.034.35-.08.52-.14-1.976-.969-2.522-5.308-4.048-7.397a9.83 9.83 0 0 0-.278.24Z" fill="url(#b)"/><path d="M10.743 7.617c-.184 0-.371.018-.559.053-.49.093-.987.304-1.489.623.137.135.268.29.39.459.51-.424 1.018-.736 1.523-.925a3.41 3.41 0 0 1 .568-.158 1.761 1.761 0 0 0-.433-.052Z" fill="#14559A"/><path d="M14.675 15.256c.21-.168.413-.346.608-.532-.842-2.52-1.143-7.103-3.582-7.103-.174 0-.35.016-.526.048 2.222.553 2.506 5.386 3.5 7.587Z" fill="url(#c)"/><path d="M11.176 7.67a1.753 1.753 0 0 0-.434-.053l.96.003c-.175 0-.35.016-.526.05Z" fill="#3092C4"/><path d="M14.633 15.792a3.642 3.642 0 0 1-.275-.297c-.41.29-.82.51-1.225.654a1.891 1.891 0 0 0 .846.194c.455 0 .816-.054 1.122-.201a2.134 2.134 0 0 1-.469-.35Z" fill="#1969BC"/><path d="M10.607 7.828c1.99 1.04 2.163 5.753 3.75 7.667.107-.075.213-.155.318-.239-.994-2.201-1.278-7.035-3.5-7.587-.189.036-.378.088-.568.159Z" fill="url(#d)"/><path d="M9.085 8.752c1.526 2.089 2.072 6.428 4.048 7.396a5.038 5.038 0 0 0 1.225-.654c-1.588-1.913-1.761-6.626-3.75-7.666-.506.188-1.012.5-1.523.924Z" fill="url(#e)"/><path d="M7.516 9.231c-.24.54-.484 1.252-.779 2.18.587-.828 1.173-1.541 1.755-2.119a6.35 6.35 0 0 0-.26-.676c-.25.192-.489.397-.716.615Z" fill="url(#f)"/><path d="M8.444 8.46c-.07.05-.14.102-.211.156.092.202.178.43.258.676.104-.101.21-.201.316-.3a4.189 4.189 0 0 0-.363-.532Z" fill="#2B74B1"/><path d="M8.695 8.293a7.359 7.359 0 0 0-.25.167c.13.16.25.34.362.533a8.34 8.34 0 0 1 .278-.241 3.714 3.714 0 0 0-.39-.459Z" fill="#125A9E"/><path d="M22.266 7.424c-1.125 4.34-3.476 7.825-5.446 8.704h-.004l-.106.045-.013.005-.03.012-.014.005-.05.018-.02.007-.024.008-.024.008-.02.007-.043.013-.018.005-.028.008-.02.005-.03.008-.038.008c.09.033.182.05.282.05 1.868 0 3.752-3.349 6.87-8.917h-1.224Z" fill="url(#g)"/><path d="m6.331 7.793.004-.003.004-.003h.002l.03-.011.007-.003.008-.004.032-.011h.002l.072-.025.01-.003.03-.01.015-.004.03-.01.013-.002.103-.027.014-.003.03-.006.014-.004.03-.006h.008l.062-.012h.012l.03-.005.016-.003.027-.004.015-.003.067-.006a2.15 2.15 0 0 0-.199-.01c-2.104 0-5.003 3.904-6.309 8.96h.252c.39-.697.77-1.402 1.137-2.112.914-3.581 2.777-6.024 4.432-6.67" fill="url(#h)"/><path d="M7.516 9.232c.227-.218.466-.424.716-.616a3.366 3.366 0 0 0-.17-.33c-.193.234-.369.542-.546.946ZM7.688 7.822c.138.115.261.274.374.464.035-.044.071-.084.108-.122a2.112 2.112 0 0 0-.508-.355l.022.01.004.003Z" fill="#0D82CA"/><path d="M1.899 14.463c1.919-3.697 2.828-6.037 4.432-6.67-1.654.647-3.517 3.09-4.432 6.67Z" fill="url(#i)"/><path d="M8.17 8.165a1.924 1.924 0 0 0-.109.121c.06.101.117.211.172.33.07-.054.141-.105.211-.156a2.877 2.877 0 0 0-.274-.295Z" fill="#127BCA"/><path d="m2.77 16.56-.035.003H2.73l-.03.003h-.005l-.07.005h-.008c1.942-.054 2.83-1.027 3.27-2.437.335-1.069.61-1.97.85-2.725-.812 1.145-1.63 2.51-2.451 4.038-.396.737-.998 1.045-1.515 1.11" fill="url(#j)"/><path d="M2.77 16.558c.517-.066 1.119-.373 1.515-1.11.821-1.529 1.639-2.893 2.452-4.039.295-.928.54-1.638.778-2.179-1.62 1.542-3.245 4.106-4.745 7.327" fill="url(#k)"/><path d="M1.899 14.463c-.368.71-.747 1.415-1.137 2.113h.732c.092-.712.228-1.417.405-2.112" fill="#05A1E6"/><path d="m6.951 7.633-.015.003-.028.004-.016.003-.029.005-.012.003-.063.01h-.007l-.03.007-.015.004-.03.006-.014.003-.102.027-.012.003-.031.01-.014.003-.031.01-.011.002-.072.025-.032.012-.014.005-.03.012-.01.004c-1.605.634-2.514 2.974-4.432 6.67-.178.696-.313 1.401-.405 2.113H1.6l.704-.003h.323l.07-.005h.005l.03-.003h.006l.035-.004c1.5-3.222 3.126-5.785 4.746-7.327.178-.403.353-.712.545-.945a1.797 1.797 0 0 0-.372-.464l-.004-.003-.023-.011L7.64 7.8l-.022-.01-.026-.011-.02-.009-.043-.018-.018-.006-.031-.013-.018-.006-.044-.015h-.003l-.051-.014-.012-.004-.043-.012-.01-.003a1.472 1.472 0 0 0-.106-.023l-.011-.003-.047-.008-.009-.003-.054-.007h-.01l-.042-.005-.068.007" fill="url(#l)"/><path d="M17.87 9.826c-.369 1.183-.667 2.159-.928 2.961 1.013-1.394 2.011-3.147 2.961-5.17-1.108.347-1.7 1.144-2.032 2.21Z" fill="url(#m)"/><path d="M16.974 16.054a3.471 3.471 0 0 1-.154.074c1.97-.879 4.32-4.365 5.446-8.704h-.228c-2.585 4.618-3.417 7.71-5.064 8.63Z" fill="url(#n)"/><path d="M15.688 15.666c.428-.523.777-1.413 1.254-2.879a14.395 14.395 0 0 1-1.657 1.934l-.003.005c.12.362.254.682.405.94" fill="#079AE1"/><path d="M15.688 15.666a1.756 1.756 0 0 1-.587.476c.186.1.39.165.601.19l.098.008h.006l.048.003h.16l.018-.003.035-.003h.018l.038-.004h.003l.012-.003.041-.007h.012l.046-.007h.008l.092-.02c-.255-.093-.467-.312-.65-.625" fill="#1969BC"/><path d="M12.055 16.343c.184 0 .37-.018.558-.054.176-.033.35-.08.52-.14a1.906 1.906 0 0 0 .846.194h-1.924Zm1.924 0c.455 0 .816-.054 1.122-.201.186.1.39.165.601.19l.098.008h.006l.048.003h.056-1.931Z" fill="#1E5CB3"/><path d="M15.91 16.343h.105l.018-.003.036-.003h.018l.038-.005h.003l.012-.003.04-.006.013-.003.047-.007h.007l.092-.02c.089.033.182.05.282.05l-.71.003v-.003Z" fill="#1D60B5"/><path d="M15.283 14.726v-.003a8.8 8.8 0 0 1-.607.533c-.104.082-.21.162-.318.238.09.107.18.206.276.297.144.14.3.259.468.35a1.758 1.758 0 0 0 .587-.476 5.053 5.053 0 0 1-.405-.939" fill="#175FAB"/><path d="M21.316 7.424h-1.148l-.182.009-.084.18c-.95 2.024-1.948 3.778-2.961 5.172-.476 1.466-.826 2.356-1.254 2.879.183.313.396.532.65.625l.02-.004h.003l.015-.003.032-.008.018-.005.029-.007.017-.006.043-.012.02-.008.024-.008.025-.008.02-.007.05-.018.013-.005.03-.012.013-.004.106-.046h.004c.051-.022.103-.047.154-.074 1.647-.92 2.479-4.011 5.064-8.63h-.722.001Z" fill="url(#o)"/><path d="m7.019 7.627.011.003.03.003h.01l.055.007.01.003.046.008.011.003.107.023.01.003.042.012.012.004.05.014.005.003.044.016.017.005.032.013.018.006.042.018.02.009.026.01.023.012.022.011c.184.09.352.21.509.356.058-.06.118-.115.18-.164a1.986 1.986 0 0 0-1.332-.374" fill="#7DCBEC"/><path d="M8.17 8.164c.096.09.188.189.274.296.084-.058.168-.115.251-.167A2.649 2.649 0 0 0 8.35 8a1.683 1.683 0 0 0-.18.164Z" fill="#5EC5ED"/><path d="m6.969 7.639.156-.007c.447 0 .834.138 1.176.38.36-.284.797-.384 1.402-.384H6.77l.199.01Z" fill="url(#p)"/><path d="M9.703 7.629c-.605 0-1.04.1-1.402.384.119.084.235.183.344.293.503-.32 1-.531 1.49-.623.188-.035.374-.053.558-.053h-.99v-.001Z" fill="url(#q)"/><path d="M16.942 12.788c.261-.803.56-1.779.93-2.962.332-1.065.923-1.862 2.03-2.21l.086-.18c-1.806.107-2.651 1.026-3.076 2.387-.743 2.377-1.193 3.917-1.627 4.899a14.46 14.46 0 0 0 1.657-1.934Z" fill="url(#r)"/><defs><linearGradient id="a" x1="10.593" y1="7.557" x2="10.593" y2="18.534" gradientUnits="userSpaceOnUse"><stop stop-color="#0994DC"/><stop offset=".35" stop-color="#66CEF5"/><stop offset=".846" stop-color="#127BCA"/><stop offset="1" stop-color="#127BCA"/></linearGradient><linearGradient id="b" x1="11.006" y1="7.293" x2="11.006" y2="18.521" gradientUnits="userSpaceOnUse"><stop stop-color="#0E76BC"/><stop offset=".36" stop-color="#36AEE8"/><stop offset=".846" stop-color="#00ADEF"/><stop offset="1" stop-color="#00ADEF"/></linearGradient><linearGradient id="c" x1="13.228" y1="16.076" x2="13.228" y2="7.142" gradientUnits="userSpaceOnUse"><stop stop-color="#1C63B7"/><stop offset=".5" stop-color="#33BDF2"/><stop offset="1" stop-color="#33BDF2" stop-opacity=".42"/></linearGradient><linearGradient id="d" x1="12.625" y1="6.12" x2="12.625" y2="17.808" gradientUnits="userSpaceOnUse"><stop stop-color="#166AB8"/><stop offset=".4" stop-color="#36AEE8"/><stop offset=".846" stop-color="#0798DD"/><stop offset="1" stop-color="#0798DD"/></linearGradient><linearGradient id="e" x1="11.764" y1="6.211" x2="11.764" y2="18.64" gradientUnits="userSpaceOnUse"><stop stop-color="#124379"/><stop offset=".39" stop-color="#1487CB"/><stop offset=".78" stop-color="#165197"/><stop offset="1" stop-color="#165197"/></linearGradient><linearGradient id="f" x1="6.643" y1="9.88" x2="8.397" y2="9.88" gradientUnits="userSpaceOnUse"><stop stop-color="#33BDF2" stop-opacity=".698"/><stop offset="1" stop-color="#1DACD8"/></linearGradient><linearGradient id="g" x1="19.927" y1="15.844" x2="19.927" y2="7.14" gradientUnits="userSpaceOnUse"><stop stop-color="#136AB4"/><stop offset=".6" stop-color="#59CAF5" stop-opacity=".549"/><stop offset="1" stop-color="#59CAF5" stop-opacity=".235"/></linearGradient><linearGradient id="h" x1=".417" y1="11.962" x2="6.925" y2="11.962" gradientUnits="userSpaceOnUse"><stop stop-color="#05A1E6" stop-opacity=".247"/><stop offset="1" stop-color="#05A1E6"/></linearGradient><linearGradient id="i" x1="4.15" y1="16.068" x2="4.15" y2="7.157" gradientUnits="userSpaceOnUse"><stop stop-color="#318ED5"/><stop offset="1" stop-color="#38A7E4"/></linearGradient><linearGradient id="j" x1="4.63" y1="16.116" x2="4.63" y2="7.431" gradientUnits="userSpaceOnUse"><stop stop-color="#05A1E6"/><stop offset="1" stop-color="#05A1E6" stop-opacity=".549"/></linearGradient><linearGradient id="k" x1="5.175" y1="16.57" x2="5.175" y2="9.231" gradientUnits="userSpaceOnUse"><stop stop-color="#1959A6"/><stop offset=".5" stop-color="#05A1E6"/><stop offset=".918" stop-color="#7EC5EA"/><stop offset="1" stop-color="#7EC5EA"/></linearGradient><linearGradient id="l" x1="5.395" y1="16.084" x2="3.995" y2="8.147" gradientUnits="userSpaceOnUse"><stop stop-color="#165096"/><stop offset="1" stop-color="#0D82CA"/></linearGradient><linearGradient id="m" x1="18.377" y1="11.582" x2="18.377" y2="7.434" gradientUnits="userSpaceOnUse"><stop stop-color="#05A1E6"/><stop offset=".874" stop-color="#0495D6"/><stop offset="1" stop-color="#0495D6"/></linearGradient><linearGradient id="n" x1="20.399" y1="7.067" x2="18.713" y2="16.631" gradientUnits="userSpaceOnUse"><stop stop-color="#38A7E4" stop-opacity=".329"/><stop offset=".962" stop-color="#0E88D3"/><stop offset="1" stop-color="#0E88D3"/></linearGradient><linearGradient id="o" x1="18.807" y1="7.408" x2="18.807" y2="16.457" gradientUnits="userSpaceOnUse"><stop stop-color="#168CD4"/><stop offset=".5" stop-color="#1C87CC"/><stop offset="1" stop-color="#154B8D"/></linearGradient><linearGradient id="p" x1="6.569" y1="6.525" x2="17.091" y2="10.889" gradientUnits="userSpaceOnUse"><stop stop-color="#97D6EE"/><stop offset=".703" stop-color="#55C1EA"/><stop offset="1" stop-color="#55C1EA"/></linearGradient><linearGradient id="q" x1="9.43" y1="8.995" x2="17.74" y2="5.228" gradientUnits="userSpaceOnUse"><stop stop-color="#7ACCEC"/><stop offset="1" stop-color="#3FB7ED"/></linearGradient><linearGradient id="r" x1="17.573" y1="7.9" x2="17.573" y2="16.751" gradientUnits="userSpaceOnUse"><stop stop-color="#1DA7E7"/><stop offset="1" stop-color="#37ABE7" stop-opacity="0"/></linearGradient></defs></svg>