<svg width="24" height="24" fill="none" xmlns="http://www.w3.org/2000/svg"><path d="M12 6.195C5.674 6.195.545 8.794.545 12c0 3.206 5.129 5.805 11.455 5.805 6.326 0 11.455-2.599 11.455-5.805 0-3.206-5.129-5.805-11.455-5.805ZM9.02 13.13c-.274.256-.578.361-.912.47-.334.109-.76.086-1.277.086H5.66l-.325 1.876h-1.37l1.222-6.375H7.82c.792 0 1.37.227 1.733.643.363.416.472 1.006.327 1.75-.06.308-.16.593-.302.847-.148.263-.336.5-.558.703Zm3.995.556.54-2.703c.062-.317.04-.552-.067-.667-.107-.115-.335-.192-.682-.192h-1.085l-.7 3.563H9.663L10.884 7.5h1.358l-.324 1.688h1.21c.761 0 1.286.152 1.575.418.289.265.376.63.26 1.224l-.568 2.857h-1.38Zm7.549-2.095c-.06.307-.16.587-.303.841a2.801 2.801 0 0 1-.557.698c-.273.256-.577.361-.911.47-.334.109-.76.086-1.277.086h-1.173l-.325 1.876H14.65l1.221-6.375h2.633c.792 0 1.37.227 1.732.643.363.416.473 1.016.328 1.76Zm-2.58-1.467h-.937l-.511 2.625h.833c.551 0 .963-.054 1.233-.262.27-.208.452-.53.547-1.017.09-.467.05-.831-.124-1.023-.173-.192-.52-.323-1.04-.323Zm-10.684 0h-.938l-.511 2.625h.833c.551 0 .963-.054 1.233-.262.27-.208.452-.53.547-1.017.09-.467.05-.831-.124-1.023-.173-.192-.52-.323-1.04-.323Z" fill="#6181B6"/></svg>