<svg width="560" height="372" fill="none" xmlns="http://www.w3.org/2000/svg"><path d="M207.415 293.637a1.59 1.59 0 0 0 .888-1.856 2.248 2.248 0 0 0-2.617-.92 1.633 1.633 0 0 0 .495 2.98c.422.098.866.025 1.234-.204ZM160.241 167.216c.286-.27.889-1.047.683-1.428-.207-.38-1.222-.111-1.587 0s-.523.635-.174 1.079c.349.444.714.698 1.078.349ZM157.244 198.161a1.016 1.016 0 0 0-1.38-.365c-.587.254-1.095.603-1.095 1.364 0 2.253.412 2.76 2.617 3.173h.159a2.84 2.84 0 0 0-.873 0 .685.685 0 0 0-.475 1.015.804.804 0 0 0 .807.614.8.8 0 0 0 .351-.091 2.16 2.16 0 0 0 .65-.856.952.952 0 0 0 1.285.349 1.13 1.13 0 0 0 .481-1.392 1.126 1.126 0 0 0-.307-.433c-.539-.523-.349-1.015-.285-1.586 1.681.111 2.379-.634 2.093-2.062a4.253 4.253 0 0 0-.126-.412c-.349-.936-.905-1.158-1.793-.714-.888.444-1.427.777-1.158 2.078-.476-.317-.793-.444-.951-.682ZM157.275 195.481a.919.919 0 0 0 .397-1.237 1.157 1.157 0 0 0-1.206-.825 1.323 1.323 0 0 0-1.101 1.05 1.33 1.33 0 0 0 .007.537c.093.157.216.293.362.403a1.374 1.374 0 0 0 1.541.072ZM298.955 324.28a1.669 1.669 0 0 0 .476 2.173 1.686 1.686 0 1 0 2.11-2.633 2.467 2.467 0 0 0-2.586.46ZM161.225 169.404a1.071 1.071 0 0 0-.647.666 1.062 1.062 0 0 0 .123.921 1.195 1.195 0 0 0 1.491.428 1.288 1.288 0 0 0 .397-1.586 1.013 1.013 0 0 0-1.364-.429ZM161.003 157.412c.286-.206.825-.952.666-1.205-.158-.254-1.015-.302-1.38-.238-.365.063-.587.618-.333 1.158a.636.636 0 0 0 1.047.285ZM171.678 262.103a1.84 1.84 0 0 0-.254 2.458 2.123 2.123 0 0 0 2.855-.206 1.449 1.449 0 0 0 .484-1.079 1.449 1.449 0 0 0-.484-1.078 1.759 1.759 0 0 0-.572-.452 1.758 1.758 0 0 0-1.425-.052 1.73 1.73 0 0 0-.604.409ZM175.342 243.431a.386.386 0 0 0 .227-.284.395.395 0 0 0-.1-.35.387.387 0 0 0-.282-.24.38.38 0 0 0-.353.113.393.393 0 0 0-.214.488c.02.062.056.117.103.162a.396.396 0 0 0 .619.111ZM167.538 223.51c.169.453.382.888.634 1.3a5.82 5.82 0 0 0-.317.619 2.194 2.194 0 0 0-.152 1.252c.074.423.27.815.564 1.127a2.433 2.433 0 0 0 2.142.413 2.904 2.904 0 0 0 0 1.189l.745.349c-.967-2.665-1.824-5.393-2.633-8.137a1.85 1.85 0 0 0-.428.222 1.442 1.442 0 0 0-.555 1.666ZM174.216 248.128a.558.558 0 0 0 .666-.27.759.759 0 0 0-.27-.809c-.222-.142-.571.143-.682.365-.111.222.016.635.286.714ZM174.676 258.326a1.585 1.585 0 0 0 .254-1.697.83.83 0 0 0-.914-.351.816.816 0 0 0-.307.161c-.746.507-1.079 1.062-.857 1.459a1.84 1.84 0 0 0 1.824.428ZM175.437 252.886a1.884 1.884 0 0 0-.174-2.253 1.922 1.922 0 0 0-1.999.238 1.27 1.27 0 0 0 0 1.586c.841.762 1.697.936 2.173.429ZM155.086 179.713a2.05 2.05 0 0 0-.936 2.57 2.077 2.077 0 0 0 2.459 1.19 2.67 2.67 0 0 0 1.11-2.967 2.077 2.077 0 0 0-2.633-.793ZM178.61 246.541c-.413-.777-.809-1.586-1.206-2.348-.603.381-.84.936-.603 1.412a2.483 2.483 0 0 0 1.809.936ZM180.497 257.756c-.285.618-.523 1.253.207 1.586.729.333 1.126-.08 1.427-.651a1.202 1.202 0 0 0-1.104-1.016 1.188 1.188 0 0 0-.53.081ZM170.647 231.964c-.286.111-.397.286-.27.587s.302.381.603.27a.418.418 0 0 0 .307-.397.4.4 0 0 0-.037-.174c-.111-.286-.286-.413-.603-.286ZM180.513 262.579a.874.874 0 0 0-.184.305.868.868 0 0 0 .061.695.875.875 0 0 0 .234.269 1.07 1.07 0 0 0 .793.355 1.07 1.07 0 0 0 .998-.688.955.955 0 0 0-.3-1.063 1.115 1.115 0 0 0-.828-.28 1.111 1.111 0 0 0-.774.407ZM181.703 269.019a1.144 1.144 0 0 0 1.586 0 1.046 1.046 0 0 0 0-1.428.934.934 0 0 0-1.396-.143 1.048 1.048 0 0 0-.19 1.571ZM178.483 254.171a.797.797 0 0 0-.138.669.81.81 0 0 0 .423.536c.746.508 1.396.603 1.586.254a1.827 1.827 0 0 0-.285-1.84 1.589 1.589 0 0 0-1.586.381ZM137.765 208.551c-.381-.714-.841-.698-1.222-.492-.38.206-.713.619-.38 1.031.333.413.809.524 1.062.397.254-.127.413-.682.54-.936ZM140.35 225.318a1.583 1.583 0 0 0-.825 1.776 1.763 1.763 0 0 0 1.936.905c.618-.254.793-1.254.38-2.158a1.237 1.237 0 0 0-1.491-.523ZM139.43 217.308c-.65-.254-1.221-.651-1.776 0a.95.95 0 0 0 0 1.316 1.259 1.259 0 0 0 .967.428c.793-.206.904-.872.809-1.744ZM156.276 244.511c-.619 0-1.142 1.333-.714 1.888.428.555 1.428.698 1.761.254.333-.445-.413-1.999-1.047-2.142ZM152.025 232.503l-.492.524a10.057 10.057 0 0 0-.968-.889 1.025 1.025 0 0 0-.793-.372 1.037 1.037 0 0 0-.793.372 1.587 1.587 0 0 0-.412 1.856 1.43 1.43 0 0 0 1.586.873 6.803 6.803 0 0 0 1.412-.286c.159.17.334.324.523.46a2.17 2.17 0 0 0 2.411.175 2.52 2.52 0 0 0 .92-2.284 1.263 1.263 0 0 0-.476-.825 1.975 1.975 0 0 0-1.547-.451 1.978 1.978 0 0 0-1.371.847ZM159.068 255.758a.843.843 0 0 0-.281.634.86.86 0 0 0 .281.635.795.795 0 0 0 1.142.079.845.845 0 0 0 .238-1.222.952.952 0 0 0-1.38-.126ZM145.173 210.201c0-.841-.508-1.174-1.349-1.19-.46-1.967-1.586-2.205-3.172-.746a1.999 1.999 0 0 1-.397-.142.95.95 0 0 0-1.269.269 1.032 1.032 0 0 0-.206 1.19c.365 1.11.857 1.348 1.951.904l2.475-.952c.682 1.476.872 1.523 1.967.667ZM147.551 216.419a1.88 1.88 0 0 0-1.083-1.228 1.879 1.879 0 0 0-1.635.095 1.878 1.878 0 0 0-.935 1.344c-.043.281-.023.567.06.838.084.272.228.52.421.728a2.08 2.08 0 0 0 2.824.349 1.474 1.474 0 0 0 .642-.986 1.45 1.45 0 0 0-.294-1.14ZM149.011 224.034a1.901 1.901 0 0 0-2.236-.793 1.731 1.731 0 0 0-.619 2.141c.349.73 1.015.873 1.951.413.635-.317 1.126-1.269.904-1.761ZM151.136 238.167a1.015 1.015 0 0 0-1.11.65.923.923 0 0 0 .787 1.066.927.927 0 0 0 .482-.067.952.952 0 0 0-.159-1.649ZM154.706 164.186c.238-.111.222-.714.126-.872-.095-.159-.444-.397-.682-.27a.62.62 0 0 0-.253.714c.111.174.587.555.809.428ZM151.628 185.347c.254.254.936.841 1.285.619.349-.222.095-1.158 0-1.428s-.682-.206-.968-.095a.521.521 0 0 0-.453.348.522.522 0 0 0 .136.556ZM150.93 176.351a1.808 1.808 0 0 0 .413-2.332 1.699 1.699 0 0 0-2.919.665c-.109.398-.069.821.111 1.191a1.729 1.729 0 0 0 2.395.476ZM147.282 207.077c-.539.27-.73.714-.349 1.142.381.429.745 1.095 1.332.778.587-.318.27-1.158.207-1.587-.064-.428-.698-.587-1.19-.333ZM145.569 199.78a2.209 2.209 0 0 0-.587 2.586 1.917 1.917 0 0 0 2.776.428 1.593 1.593 0 0 0 .867-.984 1.589 1.589 0 0 0-.169-1.3 2.162 2.162 0 0 0-2.887-.73ZM156.482 176.669a1.81 1.81 0 0 0 .809-2.094 1.24 1.24 0 0 0-1.586-.587 1.585 1.585 0 0 0-.619 1.999 1.066 1.066 0 0 0 1.396.682ZM157.672 171.038a.333.333 0 0 0 .079-.428c0-.095-.333-.111-.396 0a.294.294 0 0 0-.088.404.272.272 0 0 0 .08.082.283.283 0 0 0 .219.048.287.287 0 0 0 .106-.042v-.064ZM153.199 189.359a1.588 1.588 0 0 0 2.046.318c.92-.524 1.189-1.111.809-1.825a1.84 1.84 0 0 0-2.205-.793 2.015 2.015 0 0 0-.65 2.3ZM146.283 183.078c.285-.27.92-1.063.698-1.396-.222-.333-1.174-.206-1.587-.111-.412.095-.507.825-.222 1.237.286.413.794.619 1.111.27ZM140.461 178.651c0 .096.429.318.524.254.095-.063.587-.333.476-.682-.111-.349-.635-.285-.714-.206a.952.952 0 0 0-.286.634ZM141.048 187.106a1.04 1.04 0 0 0 1.364.539 1.034 1.034 0 0 0 .54-1.364 1.36 1.36 0 0 0-1.491-.555 1.082 1.082 0 0 0-.413 1.38ZM146.584 161.917c.174-.096.174-.492.127-.714-.048-.222-.413-.46-.682-.317-.27.142-.127.65 0 .856a.565.565 0 0 0 .555.175ZM139.621 174.306c.265.037.534-.023.759-.168.224-.146.388-.368.462-.625a.826.826 0 0 0-.333-1.111c-.698-.46-1.237-.111-1.824.381.143.714.111 1.444.936 1.523ZM146.187 194.053a1.668 1.668 0 0 0 .349-1.967 1.58 1.58 0 0 0-1.951.301 1.191 1.191 0 0 0 1.587 1.587l.015.079ZM140.509 197.067c.682-.381.872-.904.555-1.587a1.859 1.859 0 0 0-2.268-.967 1.587 1.587 0 0 0-.301 2.078 1.488 1.488 0 0 0 2.014.476ZM157.719 261.944c-.317 0-.682.634-.983 1.031a.425.425 0 0 0 0 .65 1.332 1.332 0 0 0 1.586-.238.96.96 0 0 0 .066-.875.97.97 0 0 0-.669-.568ZM237.728 309.99c-.302-.603-1.111-.761-2.015-.365-.666.318-1.158 1.206-.936 1.713a2.017 2.017 0 0 0 2.173 1 1.29 1.29 0 0 0 .286-.159 1.815 1.815 0 0 0 0 .92 3.582 3.582 0 0 0 1.412 1.919c.238.184.42.431.523.714a1.398 1.398 0 0 0 .773 1.092 1.404 1.404 0 0 0 1.337-.061.662.662 0 0 0 .079.397 1.238 1.238 0 0 0 1.586.269 1.266 1.266 0 0 0 .746-1.586 1.09 1.09 0 0 0-.659-.521 1.08 1.08 0 0 0-.832.109 2.047 2.047 0 0 0-.413-.999 1.981 1.981 0 0 1-.539-1.396c0-.857-.603-1.38-1.19-1.856a1.988 1.988 0 0 0-2.094.095l-.158.143a1.877 1.877 0 0 0-.079-1.428ZM261.457 324.219c.238.476.984.333 1.317.269a.715.715 0 0 0 .619-.936c-.143-.507-.809-.951-1.19-.666-.381.286-.984.857-.746 1.333ZM271.561 321.045a1.454 1.454 0 0 0-.808.876 1.437 1.437 0 0 0 .126 1.186c.413.841 1.222 1.237 1.84.888a2.124 2.124 0 0 0 .873-2.506 1.592 1.592 0 0 0-2.031-.444ZM271.942 328.104c-.285.46.222 1.015.46 1.269a.692.692 0 0 0 .555.275.705.705 0 0 0 .556-.275c.349-.396.38-1.19 0-1.364-.381-.175-1.285-.349-1.571.095ZM263.805 318.191a1.085 1.085 0 0 0-.66-.658 1.072 1.072 0 0 0-.926.103 1.119 1.119 0 0 0-.592.991 1.126 1.126 0 0 0 .592.991.634.634 0 0 0 .428.667 3.67 3.67 0 0 0 1.015 0 1.108 1.108 0 0 0 .08-1.016 1.16 1.16 0 0 0 .063-1.078ZM230.034 309.515c.809-.397 1.158-1.111.841-1.714a2.181 2.181 0 0 0-1.101-.872 2.18 2.18 0 0 0-1.405-.016 1.59 1.59 0 0 0-.365 1.951 1.37 1.37 0 0 0 .859.814 1.373 1.373 0 0 0 1.171-.163ZM208.097 300.694c.225.168.486.282.762.333.666-.349.888-.968.555-1.301a1.324 1.324 0 0 0-.968-.349c-.46.079-.618.952-.349 1.317ZM219.359 298.775c.714-.254 1.317-1.062 1.142-1.586-.349-1.094-1.586-1.079-2.189-1.047-.602.032-.904 1.459-.333 2.284a1.043 1.043 0 0 0 1.38.349ZM320.67 320.918c-.713.27-.523.873-.396 1.444.618.285 1.174.333 1.586-.302a.917.917 0 0 0-.127-.856 1.217 1.217 0 0 0-1.063-.286ZM319.401 325.375c.27.174.492.396.841.349.349-.048.476-.556.206-.952a1.707 1.707 0 0 0-1.126-.666.5.5 0 0 0-.539.356.5.5 0 0 0-.016.231 1.114 1.114 0 0 0 .634.682ZM325.381 315.541c.841.111 1.174-.444 1.491-1.158-.222-.27-.412-.555-.618-.761l-1.587.349a1.481 1.481 0 0 0-.127.713.85.85 0 0 0 .241.605.831.831 0 0 0 .6.252ZM337.611 311.765c.079 0 .333 0 .381-.126.047-.127 0-.302 0-.381a.335.335 0 0 0-.46 0 .361.361 0 0 0 .079.507ZM321.828 319.491a1.933 1.933 0 0 0 1.793-1.872 1.999 1.999 0 0 0-3.95.365c-.079.825 1.047 1.427 2.157 1.507ZM328.918 326.549a.607.607 0 0 0 0 .841c.318.301.667-.143.825-.301.159-.159 0-.54-.079-.572a.813.813 0 0 0-.746.032ZM330.045 315.541c0-.349 0-1.031-.27-1.126a1.113 1.113 0 0 0-.968.349c-.142.206-.126 1.047.127 1.206.254.158 1.031-.27 1.111-.429ZM305.49 324.726a1.015 1.015 0 0 0 .492 1.428c.46.222.968.476 1.269 0 .492-.793.444-1.475 0-1.808a1.18 1.18 0 0 0-.969-.222 1.189 1.189 0 0 0-.792.602ZM304.587 319.698a1.587 1.587 0 0 0 .602 1.856.924.924 0 0 0 1.317-.428c.555-.841.603-1.491.174-1.825a1.808 1.808 0 0 0-2.093.397ZM296.401 329.356a.912.912 0 0 0-.14.743.901.901 0 0 0 .474.59 1.222 1.222 0 0 0 1.586-.317 1.191 1.191 0 0 0-.397-1.507 1.1 1.1 0 0 0-.868-.085 1.087 1.087 0 0 0-.655.576ZM315.69 317.303a1.727 1.727 0 0 0 2.3-.445 2.255 2.255 0 0 0 .111-1.586l-3.331.508a2.12 2.12 0 0 0 .92 1.523ZM311.534 322.045a1 1 0 0 0 1.459-.429c.635-.983.603-1.665-.111-2.125a1.792 1.792 0 0 0-2.03.507 2.03 2.03 0 0 0 .682 2.047ZM170.266 237.009a.427.427 0 0 1 0 .269c-.133.051-.26.115-.38.191-.175-.238-.54-.286-1.158.095a1.106 1.106 0 0 0-.555 1.586 1.578 1.578 0 0 0 1.586.872c.12.133.273.232.444.286.587.174 1.158.603 1.586.365a1.055 1.055 0 0 0 .587-.746c.18-.306.253-.663.206-1.015a2.604 2.604 0 0 0-.412-.904 2.694 2.694 0 0 0 0-.508c-.079-.634-.222-1.586-1.095-1.459-.872.127-.872.682-.809.968ZM160.622 179.318c-.714 0-1.459 0-1.459 1.031a1.139 1.139 0 0 0 .825 1.189.818.818 0 0 0 .682 0c.349-.396.634-.856.983-1.332a3.312 3.312 0 0 0 1.586-.444v-2.11a2.186 2.186 0 0 0-1.427-.618c-.952-.048-1.19.428-1.19 2.284ZM163.192 205.998a1.327 1.327 0 0 0 1.586.412l.095-.111c-.127-.666-.254-1.332-.365-1.998a1.575 1.575 0 0 0-1.015 0 1.143 1.143 0 0 0-.529.781 1.152 1.152 0 0 0 .228.916ZM161.13 187.122a.929.929 0 0 0 .729-.475c.222-.667-.158-1.079-.824-1.333-.476.302-1.063.587-.794 1.301a1.21 1.21 0 0 0 .889.507ZM166.38 228.537c.206.365.492.714 1.015.508a1.174 1.174 0 0 0 .444-1.586 3.463 3.463 0 0 0-1.158 0c-.476.174-.539.65-.301 1.078ZM165.952 211.74a1.39 1.39 0 0 0 .349 1.586c-.111-.571-.254-1.078-.349-1.586ZM165 219.781a1.982 1.982 0 0 0 2.49-.539 1.58 1.58 0 0 0 .127-.746c-.095-.333-.206-.65-.285-.983a1.715 1.715 0 0 0-.952-.841 2.012 2.012 0 0 0-2.363.635c-.524.634.063 1.776.983 2.474ZM162.288 189.818c-.968.222-2.078.587-2.316 1.761a2.708 2.708 0 0 0 1.6 2.783c.35.154.729.233 1.112.231a.926.926 0 0 1 .841.396 136.235 136.235 0 0 1-.397-7.645 14.507 14.507 0 0 0-.84 2.474ZM170.393 248.841a.388.388 0 0 0 .132-.102.387.387 0 0 0 .011-.469c-.143-.174-.444-.507-.793-.365-.349.143-.143.683 0 .762.142.079.365.349.65.174ZM169.758 231.965a1 1 0 0 0-.904-.904c-.555 0-.713.333-.666 1.475a.967.967 0 0 0 1.57-.571ZM167.221 245.812c.02.081.058.157.111.222a1.065 1.065 0 0 0 .856.412c.302 0 .603.159 1.031 0a2.254 2.254 0 0 0 1.238-1.586 1.72 1.72 0 0 0-.683-1.586 1.459 1.459 0 0 0-1.475-.079 1.73 1.73 0 0 0-1.015 1.269.64.64 0 0 0-.46 0c-.73.174-1.586.158-2.157.904l.095 1.078c-.745.666-1.11 1.586-.777 2.046a1 1 0 0 0 1.189.381c.873-.285 1.063-.618.984-1.713.428-.571.745-.92 1.063-1.348ZM165.412 254.171c.587-.571.524-1.253-.19-1.951a1.106 1.106 0 0 0-.741-.465 1.1 1.1 0 0 0-.845.227 2.318 2.318 0 0 0-.286 2.348c.651.666 1.349.602 2.062-.159ZM198.485 288.909c0-.318-.587-.413-.762-.365a.73.73 0 0 0-.475.571c0 .254.428.412.634.412.206 0 .635-.317.603-.618ZM164.096 232.837a.38.38 0 0 0 0 .587c.142.158.555.523.793.317.238-.206 0-.666 0-.746 0-.079-.508-.38-.793-.158Z" fill="#E6EBF2"/><path d="M163.763 235.612c.27 0 .666.397.381.492-.286.095-.445.444-.222 1.174a1.118 1.118 0 0 0 .493.77 1.13 1.13 0 0 0 .902.15 1.663 1.663 0 0 0 1.238-1.983c-.191-.904-.73-.952-.793-1.586-.064-.635-.429-.746-1.063-.841-.635-.095-1.586-.174-1.682.714-.095.888.476 1.11.746 1.11ZM164.175 210.154c.635-.364.651-1.316 0-2.3a1.448 1.448 0 0 0-1.681-.333 2.082 2.082 0 0 0-.65 1.92 2.015 2.015 0 0 0 2.331.713ZM161.019 215.356a3.178 3.178 0 0 0-3.173-.999 2.03 2.03 0 0 0-.634 2.665 2.36 2.36 0 0 0 2.775.888 1.983 1.983 0 0 0 1.032-2.554ZM151.422 192.911a3.517 3.517 0 0 0 0-1.253c-.174-.587-1.031-.698-1.586-.333a.985.985 0 0 0-.222 1.396 1.314 1.314 0 0 0 1.808.19ZM157.656 235.454c-.143.539.159.777 1.269.999a.952.952 0 0 0-.159-1.586.995.995 0 0 0-1.11.587ZM149.296 196.464a1.194 1.194 0 0 0 1.587.333 1.14 1.14 0 0 0 .317-1.491 1.208 1.208 0 0 0-1.586-.317 1.093 1.093 0 0 0-.318 1.475ZM158.735 226.302a.971.971 0 0 0-1.073.35.962.962 0 0 0-.165.364 1.266 1.266 0 0 0 .27 1.11c.619.492 1.237.175 1.777-.349-.016-.571-.096-1.285-.809-1.475ZM157.069 221.812c.571-.491.286-1.11 0-1.776-.698 0-1.427-.238-1.729.587a.635.635 0 0 0 0 .238 2.528 2.528 0 0 0-1.967.111 1.07 1.07 0 0 0-.447.689 1.07 1.07 0 0 0 .178.802 1.588 1.588 0 0 0 2.014.793 1.763 1.763 0 0 0 .857-1.222 1.01 1.01 0 0 0 1.094-.222ZM162.161 227.301c1.586 1.713 2.982.825 3.934-.381.322-.4.5-.897.507-1.411a2.374 2.374 0 0 0-.904-1.761c-.587-.539-.603-1.348-1.348-1.586a3.273 3.273 0 0 0-2.083-.083 3.273 3.273 0 0 0-1.708 1.193c-.286.337-.482.74-.57 1.173-.089.432-.068.88.062 1.302.301.856 1.475.824 2.11 1.554ZM152.77 202.079c.667-.381.762-1.11.254-2.015-.507-.904-1.094-1.031-1.586-.697a2.782 2.782 0 0 0-.857 2.252 1.587 1.587 0 0 0 2.189.46ZM157.354 212.12a1.582 1.582 0 0 0 .492-1.587 1.087 1.087 0 0 0-.684-.6 1.094 1.094 0 0 0-.902.124 1.222 1.222 0 0 0-.539 1.476 1.727 1.727 0 0 0 1.633.587ZM153.5 225.619a1.919 1.919 0 0 0-.904 2.331 1.95 1.95 0 0 0 2.538.651 1.367 1.367 0 0 0 .616-.832 1.342 1.342 0 0 0-.156-1.024c-.365-.761-1.507-1.364-2.094-1.126ZM151.85 209.836c.27.508 1.856.682 2.491.27a1.587 1.587 0 0 0 .38-1.682 1.584 1.584 0 0 0-2.014-.777 1.81 1.81 0 0 0-.857 2.189ZM154.293 217.005a1.906 1.906 0 0 0 1.156-1.233 1.922 1.922 0 0 0-.268-1.669 2.138 2.138 0 0 0-2.886-.714c-.4.383-.664.886-.752 1.433a2.546 2.546 0 0 0 .26 1.596 1.738 1.738 0 0 0 1.117.837 1.748 1.748 0 0 0 1.373-.25ZM271.181 324.329c.079-.555-.904-1.586-1.586-1.681-.682-.095-1.253-.191-1.587.602-.333.794-.539 1.127-.824 1.698a.913.913 0 0 0-.371.737.923.923 0 0 0 .371.738 1.187 1.187 0 0 0 1.586-.111 3.26 3.26 0 0 1 .983-.666 1.587 1.587 0 0 0 1.428-1.317ZM283.109 324.677v.08c-.159.634.428.84.888 1.031.635-.27.984-.698.698-1.333-.095-.222-.539-.491-.729-.428l-.365.19a.896.896 0 0 0 .095-.317.961.961 0 0 0-.489-.65.964.964 0 0 0-.812-.048.934.934 0 0 0-.312.31.93.93 0 0 0-.132.42 1.128 1.128 0 0 0 .524.856.732.732 0 0 0 .634-.111ZM278.287 331.531a1.086 1.086 0 0 0 .1-1.261 1.059 1.059 0 0 0-.307-.325 1.317 1.317 0 0 0-1.586.174 1.091 1.091 0 0 0-.22.854 1.078 1.078 0 0 0 .49.732 1.018 1.018 0 0 0 1.209.121c.125-.075.231-.175.314-.295ZM281.602 318.888a.952.952 0 0 0-1.396.206 1.065 1.065 0 0 0-.248.373 1.06 1.06 0 0 0 .053.873 1.126 1.126 0 0 0 1.876.15 1.206 1.206 0 0 0-.285-1.602ZM279.905 335.068a1.598 1.598 0 0 0-2.237.301 1.598 1.598 0 0 0 .302 2.237 2.158 2.158 0 0 0 2.617-.571c.38-.492.016-1.523-.682-1.967ZM276.843 327.406a1.047 1.047 0 0 0 1.46-.413 1.07 1.07 0 0 0 .206-.861 1.085 1.085 0 0 0-.508-.725 1.319 1.319 0 0 0-1.586.508 1.173 1.173 0 0 0 .428 1.491ZM272.545 338.019c-.143.412-.333 1.443 0 1.697s1.174-.444 1.19-.603c0-.475.19-1.094-.238-1.443-.429-.349-.873.143-.952.349Z" fill="#E6EBF2"/><path d="M276.954 320.491a1.675 1.675 0 0 0 1.142-.682 2.175 2.175 0 0 0 .365-1.761c3.278.381 6.567.661 9.866.841-.079.269-.127.539-.19.825a3.77 3.77 0 0 0-1.824.872l-.444-.238a1.995 1.995 0 0 0-2.253 1.19 2.034 2.034 0 0 0 1.777 2.173 2.129 2.129 0 0 0 1.586-.492l.222.19c.904.714 1.697.334 2.459-.301.46.428.761 1.126 1.586.682a1.034 1.034 0 0 0 .523-1.221c-.238-.873-.967-.714-1.586-.635-.143-.38-.269-.729-.412-1.078l1.38-.603c.073-.387.11-.78.111-1.174l3.854.095h.159c.158.023.318.023.476 0h3.489a1.584 1.584 0 0 0 .762 1.491 1.957 1.957 0 0 0 2.325-.05c.22-.17.4-.386.53-.632.166-.277.243-.598.222-.92l2.728-.127a1.206 1.206 0 1 0 0-2.411c-29.265.286-58.388-6.345-83.069-22.397a136.019 136.019 0 0 1-37.625-37.228 71.573 71.573 0 0 1-5.266-8.613.487.487 0 0 0-.178-.365.478.478 0 0 0-.393-.095l-.429-.746a1.933 1.933 0 0 0-1.427.206 1.385 1.385 0 0 0-.438 1.016 1.395 1.395 0 0 0 .438 1.015 1.054 1.054 0 0 0 .734.497 1.05 1.05 0 0 0 .852-.244l.143.334a.914.914 0 0 0-.127 1.062.81.81 0 0 0 .793.429 71.81 71.81 0 0 0 3.759 7.058 1.19 1.19 0 0 0 .037.527c.053.17.143.326.265.457a.965.965 0 0 0 .507.285c.317.524.651 1.063.984 1.586-.397.635-.318 1.206.364 1.872.344.34.802.539 1.285.555.286.397.555.825.857 1.222-.466.016-.913.19-1.269.491-.984.778-.841 2.411 0 2.681s1.269-.174 1.427.127c.159.301.191 1.063.794 1.19.602.127 1.094-.667 1.459-1.222a209.286 209.286 0 0 0 2.427 3.173 1.432 1.432 0 0 0 .174 1.189 1.715 1.715 0 0 0 1.253.54c.159.174.302.364.46.555a65.75 65.75 0 0 0 3.173 3.537 1.38 1.38 0 0 0-.809.365 1.584 1.584 0 0 0 .285 1.967 1.387 1.387 0 0 0 1.071.509 1.382 1.382 0 0 0 1.071-.509c.088-.095.163-.202.222-.317a127.701 127.701 0 0 0 5.916 5.789 1.149 1.149 0 0 0 0 .984 1.584 1.584 0 0 0 1.158.587.78.78 0 0 0 .333-.143 182.77 182.77 0 0 0 3.728 3.172 2.615 2.615 0 0 0 0 2.253 1.807 1.807 0 0 0 2.332 1.046c.379-.157.707-.415.951-.745a100.9 100.9 0 0 0 2.618 1.951c.132.166.308.292.507.365a99.494 99.494 0 0 0 8.899 5.821 1.18 1.18 0 0 0 0 .666 1.902 1.902 0 0 0 2.3.968.513.513 0 0 0 .19-.174 111.88 111.88 0 0 0 3.537 1.935c-.02.217.018.436.111.634.508 1.126 1.793 1.856 2.649 1.491.212-.097.401-.238.556-.412a82.23 82.23 0 0 0 4.933 2.284 1.17 1.17 0 0 0 1.348.587c1.729.745 3.474 1.459 5.234 2.125 0 .603.651.714 1.238.619v-.127l2.331.841a1.488 1.488 0 0 0 0 .507 1.073 1.073 0 0 0 .571.596 1.062 1.062 0 0 0 .825.007l.191-.095c.144.347.382.647.688.865.305.219.666.348 1.041.372h.142a1.877 1.877 0 0 0-.142 2.078c.126.285.297.548.507.777a.911.911 0 0 0-.634.444 1.427 1.427 0 0 0 .745 1.904 1.811 1.811 0 0 0 1.935-.381 1.44 1.44 0 0 0 0-1.729 2.046 2.046 0 0 0 .905-2.411 2.261 2.261 0 0 0-.936-1.047c3.029.889 6.091 1.587 9.168 2.316a.662.662 0 0 0 .159.764.644.644 0 0 0 .238.14 3.67 3.67 0 0 0 1.015 0c.095-.181.149-.382.158-.587 1.333.275 2.665.529 3.998.762.061.09.136.171.222.238a.936.936 0 0 0 1.3 0c.746.127 1.491.254 2.237.349-.165.25-.293.522-.381.809a.882.882 0 0 0-.698-.318 1.414 1.414 0 0 0-1.237 1.587 1.803 1.803 0 0 0 1.317 1.459 1.457 1.457 0 0 0 1.506-.872c.323.148.676.219 1.031.206a.351.351 0 0 0 .603 0ZM294.006 333.846a1.05 1.05 0 0 0-.92.301c-.174.222-.365.968-.095 1.206s.983-.111 1.221-.302a.758.758 0 0 0 .063-.978.755.755 0 0 0-.269-.227ZM288.724 343.586a1.173 1.173 0 0 0 .365 1.586 1.088 1.088 0 0 0 .872.186 1.076 1.076 0 0 0 .714-.535 1.155 1.155 0 0 0-.333-1.507 1.105 1.105 0 0 0-.868-.222 1.096 1.096 0 0 0-.75.492ZM291.294 326.773a1.45 1.45 0 0 0-1.165-.209 1.443 1.443 0 0 0-.929.732 1.714 1.714 0 0 0 .174 2.205 2.114 2.114 0 0 0 2.332-.508 1.447 1.447 0 0 0 .32-1.208 1.46 1.46 0 0 0-.732-1.012ZM283.045 338.986a.364.364 0 0 0 .127.428c.08 0 .333 0 .381-.127.047-.127 0-.301 0-.381a.344.344 0 0 0-.273-.08.337.337 0 0 0-.235.16ZM159.639 246.653c.127-.174.38-.539.143-.84-.238-.302-.698 0-.746.127a.599.599 0 0 0 0 .729.386.386 0 0 0 .305.131.39.39 0 0 0 .298-.147ZM288.724 332.53a1.57 1.57 0 0 0-.27-.523 1.383 1.383 0 0 0-2.474.38 8.795 8.795 0 0 0-.492 2.237 2.159 2.159 0 0 0 1.586 1.935c.492.095 1.587-.079 1.587-1.094-.825-1.476.365-1.682.063-2.935ZM282.807 345.442a1.199 1.199 0 0 0-.444.904c.159.698 1.047.745 1.38.571a.954.954 0 0 0-.079-1.46.874.874 0 0 0-.857-.015ZM285.933 328.04c-.27-.381-1.587-.302-1.714.285a1.016 1.016 0 0 0 .651 1.127c.571.111 1.348-1.031 1.063-1.412ZM249.069 326.692c-.444.254-.349.619-.191.968.159.349.746.714 1.127.381.225-.258.412-.546.555-.857a1.08 1.08 0 0 0-1.491-.492ZM252.242 335.559a.564.564 0 0 0-.238.571c.095.19.491.238.713.206.222-.032.476-.365.365-.651-.111-.285-.603-.19-.84-.126ZM257.825 322.901a2.137 2.137 0 0 0-2.221.444c-.396.476-.825.968-.301 1.587.523.618.682 1.046 1.031 1.586a.895.895 0 0 0 .805.846.907.907 0 0 0 .416-.053 1.187 1.187 0 0 0 .777-1.459 2.777 2.777 0 0 1 0-1.19c.108-.31.117-.646.027-.961a1.592 1.592 0 0 0-.534-.8ZM267.913 334.067c-.127.112-.27.683 0 .857.27.175.666-.159.825-.301.158-.143.127-.46 0-.571a.815.815 0 0 0-.825.015Z" fill="#E6EBF2"/><path d="M252.559 317.508a.46.46 0 0 1-.46-.793 2.062 2.062 0 0 0-.682-2.776 2.287 2.287 0 0 0-1.84-.143v-.095a1.254 1.254 0 0 0-1.793-.555 1.366 1.366 0 0 0-.971 1.482c.027.214.104.418.226.596a1.83 1.83 0 0 0 1.285 1.063c.07.4.292.757.618.999.496.228 1.053.29 1.586.175a1.3 1.3 0 0 0 0 .84 1.033 1.033 0 0 0 1.301.571.96.96 0 0 0 .705-.5.96.96 0 0 0 .025-.864ZM296.1 323.965a1.44 1.44 0 0 0-.127-1.935 1.192 1.192 0 0 0-1.586.127 1.698 1.698 0 0 0 .412 2.078.954.954 0 0 0 1.301-.27ZM245.896 329.515c-.19 0-.618.476-.523.714.095.237.698.285.872.206a.639.639 0 0 0 .334-.666.622.622 0 0 0-.683-.254ZM249.291 322.378a1.071 1.071 0 0 0-1.061-.617 1.06 1.06 0 0 0-.414.125c-.444.254-.349.619-.191.968a.718.718 0 0 0 1.127.381c.226-.254.408-.543.539-.857ZM263.599 326.977a2.589 2.589 0 0 0-3.173 1.349c-.269.856.793 1.348 1.412 1.173.619-.174.444 0 .92.444a1.118 1.118 0 0 0 1.032.446 1.128 1.128 0 0 0 .903-.668 2.218 2.218 0 0 0-1.094-2.744ZM264.804 330.135a.731.731 0 0 0-.333.619c0 .159.428.587.698.476.27-.111.206-.635.159-.857a.447.447 0 0 0-.524-.238ZM267.675 320.569a1.08 1.08 0 0 0-.981-.691 1.095 1.095 0 0 0-.415.073 1.299 1.299 0 0 0-.666 1.427 1.054 1.054 0 0 0 .587.581 1.05 1.05 0 0 0 .825-.025 1.022 1.022 0 0 0 .629-.537 1.014 1.014 0 0 0 .021-.828ZM258.459 317.524c-.158.222.111.746.27.841a.495.495 0 0 0 .744-.629.496.496 0 0 0-.125-.148c-.143-.127-.762-.27-.889-.064ZM256.144 330.753a2.616 2.616 0 0 0-.508 3.458c.587.666 1.586 0 1.729-.603.143-.603.206-.397.856-.555a1.114 1.114 0 0 0 1.032-1.214 1.102 1.102 0 0 0-.207-.547 2.254 2.254 0 0 0-2.902-.539ZM319.48 341.047a.356.356 0 0 0-.021.234.357.357 0 0 0 .132.195c.096 0 .349 0 .381-.127.032-.127.079-.302 0-.381a.32.32 0 0 0-.265-.08.315.315 0 0 0-.131.054.312.312 0 0 0-.096.105ZM328.459 336.892a1.093 1.093 0 0 0 .269 1.586.834.834 0 0 0 1.085.117c.11-.075.2-.175.263-.291a1.027 1.027 0 0 0 .098-1.196 1.03 1.03 0 0 0-.288-.311 1.121 1.121 0 0 0-1.427.095ZM323.462 323.076a1.793 1.793 0 0 0 .397 2.601 2.255 2.255 0 0 0 2.95-.476 2.367 2.367 0 0 0-.523-2.855 1.974 1.974 0 0 0-2.304.102c-.215.17-.392.384-.52.628ZM322.383 340.89c-.127.095-.19.729 0 .84.191.111.667-.142.825-.301.159-.159 0-.539 0-.571a.834.834 0 0 0-.825.032ZM324.715 330.912c-.222.317 0 .952.587 1.285a.586.586 0 0 0 .952-.191c.254-.428.365-.888-.111-1.269a1.147 1.147 0 0 0-1.428.175ZM320.242 327.693a.919.919 0 0 0 .143 1.269c.317.333 1.475 0 1.586-.365a1.244 1.244 0 0 0-.349-1.047.856.856 0 0 0-1.38.143ZM319.671 336.051a.714.714 0 0 0 .222.73c.206.111.635.317.761 0a.735.735 0 0 0-.095-.746c-.111-.047-.761-.222-.888.016ZM343.163 316.177c-.159.222.111.745.269.84a.495.495 0 0 0 .744-.629.508.508 0 0 0-.125-.148c-.143-.127-.73-.206-.888-.063ZM319.084 337.969a1.748 1.748 0 0 0-1.808.27 1.113 1.113 0 0 0 .428 1.475 1.03 1.03 0 0 0 1.475-.428c.349-.524.334-1.047-.095-1.317ZM297.528 332.227c-.635-.444-1.364-.206-1.935.635a1.176 1.176 0 0 0-.302.86 1.195 1.195 0 0 0 .397.821 2.284 2.284 0 0 0 2.379-.238 1.394 1.394 0 0 0-.539-2.078ZM352.077 314.542a.542.542 0 0 0-.619.095c-.111.159 0 .524.207.698.206.175.555.222.745 0 .19-.222-.238-.666-.333-.793ZM340.498 325.011c-.159.317-.333 1.222 0 1.38.333.159 1.063-.174 1.348-.396.286-.222.254-.809-.206-1.19a.637.637 0 0 0-.961-.106.637.637 0 0 0-.181.312ZM334.804 312.75a1.22 1.22 0 0 0-1.587.285 1.27 1.27 0 0 0 .381 1.587.998.998 0 0 0 1.38-.286 1.099 1.099 0 0 0 .119-1.253 1.1 1.1 0 0 0-.293-.333ZM337.897 315.717c-.429-.206-.905-.27-1.095.206-.19.476-.317 1.333 0 1.586.317.254 1.126-.428 1.38-.729.254-.302.27-.746-.285-1.063ZM335.295 336.195c-.127.254-.222.809 0 .984a1.005 1.005 0 0 0 .984-.096c.174-.158.349-.983.111-1.158-.238-.174-1 .096-1.095.27ZM332.36 316.413a1.907 1.907 0 0 0-2.204.873c-.46.729-.191 1.443.729 1.998a1.491 1.491 0 0 0 1.793-.364 2.57 2.57 0 0 0-.318-2.507ZM304.761 330.055c-.952-.682-1.999-.729-2.427-.111a2.046 2.046 0 0 0 .555 2.3 1.852 1.852 0 0 0 2.046-.507 1.35 1.35 0 0 0-.174-1.682ZM307.013 337.97c.095-.116.164-.251.204-.396a1.079 1.079 0 0 0-.121-.865 1.087 1.087 0 0 0-.305-.325 1.206 1.206 0 0 0-1.586.27 1.27 1.27 0 0 0 .364 1.586 1.025 1.025 0 0 0 .78.174 1.016 1.016 0 0 0 .664-.444ZM305.808 348.075c-.223.222-.413 1.491 0 1.824.412.333 1.491-.508 1.76-.889a1.218 1.218 0 0 0-.254-1.411c-.396-.318-1.142.158-1.506.476ZM298.907 339.145a1.102 1.102 0 0 0-.827-.264 1.085 1.085 0 0 0-.759.422.837.837 0 0 0-.152 1.076.856.856 0 0 0 .279.273 1.024 1.024 0 0 0 .816.335 1.016 1.016 0 0 0 .77-.431 1.042 1.042 0 0 0-.127-1.411ZM307.584 340.952c-.428-.237-.888-.396-1.269 0a1.32 1.32 0 0 0 .444 1.587c.349 0 .714-.254.984-.54a.652.652 0 0 0-.159-1.047ZM300.176 335.64a1.367 1.367 0 0 0 .572 1.729 1.453 1.453 0 0 0 1.148.302 1.464 1.464 0 0 0 .993-.651 1.476 1.476 0 0 0-.127-1.951 2.137 2.137 0 0 0-2.586.571ZM298.702 345.157a1.203 1.203 0 0 0 .206 1.586 1.174 1.174 0 0 0 1.586-.333 1.27 1.27 0 0 0-.349-1.586.966.966 0 0 0-1.443.333ZM312.93 332.402a1.282 1.282 0 0 0-1.586.428 1.586 1.586 0 0 0 .253 1.951 1.937 1.937 0 0 0 2.253-.285c.254-.46-.206-1.602-.92-2.094ZM314.199 345.379a.736.736 0 0 0 .238.824.66.66 0 0 0 .682-.095.7.7 0 0 0 0-.682c-.207-.127-.762-.333-.92-.047ZM317.276 320.791a1.588 1.588 0 0 0-.127-2.078c-.539-.618-1.205-.571-1.872.428a18.89 18.89 0 0 0-.444 2.285.973.973 0 0 0 .219.75.954.954 0 0 0 .701.344 1.013 1.013 0 0 0 1.158-.841 3.62 3.62 0 0 1 .365-.888ZM318.132 330.801c.27-.222.127-1.253-.349-1.586-.476-.333-.698 0-.936.349a.722.722 0 0 0-.175.651.708.708 0 0 0 .445.507c.349.174.746.301 1.015.079ZM311.502 325.012c-.111-1.269-.365-1.713-1.063-1.777a1.064 1.064 0 0 0-1.142.651 1.219 1.219 0 0 0 .317 1.586c.746.38 1.317-.08 1.888-.46ZM309.884 318.221a1.695 1.695 0 0 0 1.983.111 2.326 2.326 0 0 0 .174-2.204c-1.586.174-3.172.349-4.758.476.111.396.38.745.745.713.365-.052.736.006 1.067.168.331.161.606.417.789.736ZM311.645 327.771a1.063 1.063 0 0 0-.936-.349 1.666 1.666 0 0 0-.872.967c-.159.841.618.905 1.253 1.19.587-.571 1.015-1.126.555-1.808ZM270.435 327.851c-.507.174-.333.824-.19.999.143.174 1.063 1.031 1.443.888.381-.143.238-1.253.096-1.348-.143-.095-.825-.714-1.349-.539ZM184.034 270.62c-.571.238-.365 1.586.429 2.253a1.08 1.08 0 0 0 1.443 0c.587-.476.904-1.46.555-1.92-.666-.92-1.808-.587-2.427-.333ZM183.828 280.232a1.779 1.779 0 0 0-.317 2.332 1.915 1.915 0 0 0 2.379.111c.476-.397.365-1.586-.174-2.221a1.321 1.321 0 0 0-1.888-.222ZM182.083 277.536c-.396-.285-1.253 0-1.586.238a.85.85 0 0 0-.236.668.858.858 0 0 0 .347.617.683.683 0 0 0 1.11-.143c.27-.285.73-1.078.365-1.38ZM188.333 289.702c-.286-.396-.904 0-1.079.127-.174.127-.412.571-.127.873a.683.683 0 0 0 .873 0c.19-.048.618-.587.333-1ZM182.226 295.413a.638.638 0 0 0 0 .65.713.713 0 0 0 .714 0c.127-.127.397-.555 0-.857-.396-.301-.492.112-.714.207ZM181.703 284.119a.759.759 0 0 0 0 .412.422.422 0 0 0 .301 0c0-.126.206-.301.111-.428-.095-.127-.269.016-.412.016ZM193.282 283.088a1.339 1.339 0 0 0-.222 1.063c.127.285 1.11.618 1.459.285a.998.998 0 0 0 0-1.412.764.764 0 0 0-.978-.184.76.76 0 0 0-.259.248ZM196.47 280.835a.958.958 0 0 0 .331-.839.965.965 0 0 0-.505-.747c-.302-.111-.857.381-1.269.65a.453.453 0 0 0-.237.275.445.445 0 0 0 .047.36 1.316 1.316 0 0 0 1.633.301ZM189.015 292.241c-.476.111-1.062 1.205-.713 1.586.349.38 1.031.856 1.586 0 .555-.857-.397-1.761-.873-1.586ZM195.852 298.791c-.206.222-.635.904-.159 1.364.476.46 1.015-.079 1.174-.269a1.05 1.05 0 0 0 0-.968.668.668 0 0 0-1.015-.127ZM196.248 294.493c.175 0 .429-.412.318-.666-.112-.254-.492-.317-.683-.254-.19.063-.602.476-.507.714.095.238.698.285.872.206ZM198.009 291.844a.24.24 0 0 0-.127.127c-.492 0-1.586.872-1.269 1.427a1.08 1.08 0 0 0 1.316.524c.349-.175.445-.809.365-1.301h.175c.127 0 .491-.381.38-.666-.111-.286-.634-.175-.84-.111ZM179.276 284.151c-.476.349-.127 1.221-.191 1.729l.302.174a1.019 1.019 0 0 0 1.126-.476c.224-.238.359-.546.381-.872-.524-.159-1.174-.889-1.618-.555ZM192.299 285.894c-.397.143-.381 1.047 0 1.333.283.128.593.188.904.174.603-.523.714-1.158.317-1.364a1.592 1.592 0 0 0-1.221-.143ZM192.187 279.55c-.38-1.586-1.871-.873-1.744-1.904.126-1.031 1.015-.476 1.094-1.951.079-1.475-1.142-2.411-2.046-1.903-.904.507-.841 1.443-1.079 1.491-.238.047-1.348 0-1.38.841 0 1.744 1.586 1.395 1.586 1.919 0 .523-.237 1.586-.095 2.332.206 1.11 1 1.998 2.142 1.586a1.92 1.92 0 0 0 1.522-2.411ZM165.476 260.515a.808.808 0 0 0 0 1.253 1.474 1.474 0 0 0 1.903.397 1.71 1.71 0 0 0 .254-1.951c-.46-.476-1.459-.317-2.157.301ZM180.989 274.379a1.779 1.779 0 0 0-.143-2.11 1.397 1.397 0 0 0-1.586-.095c-.793.73-1.031 1.745-.524 2.252a1.934 1.934 0 0 0 2.253-.047ZM162.795 256.502a1.591 1.591 0 0 0 0 1.841 1.077 1.077 0 0 0 1.226.256c.137-.059.259-.147.36-.256a1.24 1.24 0 0 0 .159-1.587 1.584 1.584 0 0 0-1.745-.254ZM171.154 250.824a2.481 2.481 0 0 0-1.411-.444c-.587-.206-1.904.111-2.11.619-.206.507.349.888.888 1.094.099.317.273.605.508.841.618.602 1.364.507 2.109-.27a1.585 1.585 0 0 0 .016-1.84ZM163.493 273.284a.523.523 0 0 0 0 .603c.143.158.523 0 .73 0 .206 0 .333-.508.142-.746-.19-.238-.698.064-.872.143ZM162.557 242.083c-.364-.666-.555-1.507-1.411-1.856l-1.016.349a2.889 2.889 0 0 0-.84-.396.26.26 0 0 0 0-.111c-.127-.302-.635-.222-.73-.143l-.206.175a.755.755 0 0 0-.381.222.996.996 0 0 0 0 1.253c.492.777.857.872 1.888.539.601.342 1.22.649 1.856.92a.713.713 0 0 0 .84-.952ZM241.757 321.188a1.485 1.485 0 0 0-.816.853 1.473 1.473 0 0 0 .07 1.178c.238.65 1.063.856 1.967.491a1.059 1.059 0 0 0 .826-.992 1.073 1.073 0 0 0-.08-.451 2.29 2.29 0 0 0-1.967-1.079ZM168.077 255.552c-.317-.349-.666-.286-1.031.095 0 .143-.079.397 0 .508.288.424.428.931.397 1.443 0 .238.523.587.824.619a1.375 1.375 0 0 0 .968-.46 1.102 1.102 0 0 0-.095-.904 10.367 10.367 0 0 0-1.063-1.301ZM175.485 274.507c-.302-.397-.762-.175-1.095.143-.333.317-.396 1.031 0 1.221.397.19 1.016.603 1.364.095.349-.508-.031-1.174-.269-1.459ZM176.849 276.964a1.34 1.34 0 0 0-1.015 0c-.397.223-.333 1.111.111 1.349.266.085.547.112.825.079.507-.555.507-1.221.079-1.428ZM178.467 266.067a2.444 2.444 0 0 0-3.03-.159c-.84.666-.761 1.983.159 3.061a1.763 1.763 0 0 0 1.222.648 1.79 1.79 0 0 0 1.316-.425 2.362 2.362 0 0 0 .333-3.125ZM170.583 284.673a1 1 0 0 0 0 1.587.92.92 0 0 0 .298.246.927.927 0 0 0 .754.052.931.931 0 0 0 .328-.203c.492-.492.666-1.475.317-1.824a1.587 1.587 0 0 0-1.697.142ZM170.933 276.377a1.332 1.332 0 0 0-.159 1.698c.365.396 1.285.301 2.03-.365 0-.206 0-.65-.095-.92a1.315 1.315 0 0 0-1.776-.413ZM170.425 269.827a1.626 1.626 0 0 0-.352 1.197 1.627 1.627 0 0 0 1.795 1.447c.43-.046.824-.261 1.095-.598a1.493 1.493 0 0 0 .222-2.03 2.19 2.19 0 0 0-2.76-.016ZM162.065 275.601c-.158.111-.428.666-.253.857.174.19.761 0 .888-.095a.492.492 0 0 0 .176-.336.5.5 0 0 0-.811-.426ZM225.276 317.524a.723.723 0 0 0-.369.104.72.72 0 0 0-.266.276c-.095.238.254.54.46.603.206.063.698-.095.777-.397.08-.301-.396-.586-.602-.586ZM230.304 320.204c-.159-.46-1.221-.38-1.792.238-.571.619.158 1.476.555 1.587.396.111 1.396-1.38 1.237-1.825ZM230.399 313.544c-.238-.429-.587-.698-1.047-.54a6.35 6.35 0 0 0-3.061 1.935 1.976 1.976 0 0 0-.206.54 1.36 1.36 0 0 0 1.136 1.697c.256.035.516-.004.751-.111a8.54 8.54 0 0 0 2.062-1.031 2.17 2.17 0 0 0 .365-2.49ZM222.659 321.744a1.108 1.108 0 0 0 1.063.936c.65-.095 1.031-1.586.65-1.84-.381-.254-1.777.27-1.713.904ZM220.152 326.582c-.254.142-.888.65-.587 1.237.302.587.984.254 1.206.127a1.042 1.042 0 0 0 .381-.889.688.688 0 0 0-.378-.493.679.679 0 0 0-.622.018ZM223.69 312.59a1.014 1.014 0 0 0 .46-1.332.778.778 0 0 0-1.19-.365 1.366 1.366 0 0 0-.539.936c-.048.317.761 1.031 1.269.761ZM221.056 313.226c-.428 0-.713.872-.412 1.285.301.412.619.365.793.46.746-.302 1.063-.857.761-1.19a1.743 1.743 0 0 0-1.142-.555ZM229.416 334.37a.848.848 0 0 0 .159.809.973.973 0 0 0 .999 0c.206-.253-.175-.92-.365-1.015a.842.842 0 0 0-.793.206ZM238.378 325.455a1.017 1.017 0 0 0 .761-1.206 1.348 1.348 0 0 0-.634-.809c-.571-.269-.984 0-1.587 1.063.349.508.587 1.221 1.46.952ZM220.866 309.023a1.928 1.928 0 0 0 1.512-.436c.207-.176.374-.393.491-.637.116-.245.18-.512.186-.783.143-1.586-1.491-1.443-1.031-2.379.46-.936 1.126-.111 1.682-1.475.555-1.365-.286-2.649-1.317-2.475-1.031.175-1.253 1.079-1.491 1.063-.238-.016-1.285-.444-1.586.333-.635 1.586.967 1.808.936 2.348-.032.539-.746 1.395-.873 2.189-.174 1.11.302 2.204 1.491 2.252ZM238.695 334.386a2.32 2.32 0 0 0-1.031 2.681 2.097 2.097 0 0 0 2.586 1.205 3.174 3.174 0 0 0 1.173-3.029 2.091 2.091 0 0 0-2.728-.857ZM237.966 320.332a1.158 1.158 0 0 0-.873-2.126 1.145 1.145 0 0 0-.65 1.396 1.25 1.25 0 0 0 1.523.73ZM234.984 316.334a1.115 1.115 0 0 0-1.001.322 1.115 1.115 0 0 0-.284 1.011 1.49 1.49 0 0 0 .904.92 1.247 1.247 0 0 0 1.078-.429 1.263 1.263 0 0 0 .08-1.076 1.273 1.273 0 0 0-.777-.748ZM230.13 326.295a1.593 1.593 0 0 0-1.081 1.463c-.006.216.033.43.113.631a2.523 2.523 0 0 0 2.855 1.332 1.838 1.838 0 0 0 .825-2.347 2.002 2.002 0 0 0-1.122-1.128 1.99 1.99 0 0 0-1.59.049ZM200.943 304.93a1.008 1.008 0 0 0-.562.606c-.045.135-.06.278-.045.42a.974.974 0 0 0 .132.402.928.928 0 0 0 .196.333.934.934 0 0 0 .696.295.91.91 0 0 0 .377-.089c.634-.286 1.126-1.174.904-1.586a1.668 1.668 0 0 0-1.698-.381ZM208.383 318.967a.698.698 0 0 0-.159.634.748.748 0 0 0 .682.254c.159 0 .555-.396.333-.793-.222-.397-.666-.19-.856-.095ZM209.287 307.293c-.555.175-.523 1.095-.745 1.587.078.085.152.175.222.269a1.032 1.032 0 0 0 1.221 0c.29-.155.515-.408.634-.714-.38-.333-.761-1.316-1.332-1.142ZM208.494 303.422c.111-.301-.46-.793-.682-.824a.82.82 0 0 0-.666.491.868.868 0 0 0 .428.714.97.97 0 0 0 .92-.381ZM203.323 289.417c-.302-.365-1.285 0-1.587.825-.301.824.635 1.348 1.063 1.364.428.016.825-1.809.524-2.189ZM207.669 298.109c.285.27.666.587 1.047.318.38-.27.333-1.111.206-1.476a.459.459 0 0 0-.365-.333 1.837 1.837 0 0 0-.476-1.253 2 2 0 0 0-2.918-.127 1.584 1.584 0 0 0-.334 2.11 1.021 1.021 0 0 0-.824-.111 1.33 1.33 0 0 0-.714 1.586c.222.476 1.11.698 2.046.317 0-.206.286-.602.206-.904a1.085 1.085 0 0 0-.158-.333 2.734 2.734 0 0 0 2.284.206ZM201.673 285.61a2.17 2.17 0 0 0-.444-2.507.855.855 0 0 0-1.174-.158 6.107 6.107 0 0 0-2.252 2.839 1.765 1.765 0 0 0 0 .571 1.388 1.388 0 0 0 .871 1.207 1.386 1.386 0 0 0 1.461-.287 9.134 9.134 0 0 0 1.538-1.665ZM214.918 305.087a1.82 1.82 0 0 0-1.063 2.11 1.9 1.9 0 0 0 2.205.888c.571-.222.872-1.38.571-2.157a1.332 1.332 0 0 0-1.713-.841ZM215.886 318.08c-.492 0-1.396.793-1.222 1.332.175.54.698 1.158 1.586.603.889-.555.127-1.872-.364-1.935ZM211.46 308.435s.254.19.285.158c.032-.031.286-.222.238-.364-.047-.143-.222-.111-.349-.159-.081.109-.14.233-.174.365ZM215.394 316.397c.222 0 .793-.396.666-.872s-.857-.333-1.063-.238c-.206.095-.571.396-.412.777a.663.663 0 0 0 .809.333ZM218.773 299.964a2.095 2.095 0 0 0-2.856.096 2.318 2.318 0 0 0-.095 2.871 2.099 2.099 0 0 0 2.84.285 3.048 3.048 0 0 0 .111-3.252ZM214.172 298.585a1.763 1.763 0 0 0 .555-2.046 1.358 1.358 0 0 0-1.475-.619c-.983.428-1.586 1.301-1.221 1.967a1.933 1.933 0 0 0 2.141.698ZM214.172 301.98c-.269-.413-1.173-.397-1.506-.27a.845.845 0 0 0-.318 1.237.678.678 0 0 0 .485.405.679.679 0 0 0 .61-.167c.269-.206.983-.793.729-1.205ZM464.587 183.315H444.95v19.637h19.637v-19.637ZM510 228.729h-19.637v19.637H510v-19.637ZM464.587 228.729H444.95v19.637h19.637v-19.637ZM419.189 183.315h-19.637v19.637h19.637v-19.637ZM419.189 228.729h-19.637v19.637h19.637v-19.637ZM368.97 183.315h-19.637v19.637h19.637v-19.637Z" fill="#E6EBF2"/><path d="M300.081 83.21a101.518 101.518 0 1 0 0 203.036 101.518 101.518 0 0 0 0-203.037Zm0 165.107a63.654 63.654 0 1 1 63.655-63.638 63.643 63.643 0 0 1-39.296 58.799 63.627 63.627 0 0 1-24.359 4.839Z" fill="#1BA9F5"/><path d="m367.88 226.663-24.9 24.899 64.583 64.583 24.9-24.9-64.583-64.582Z" fill="#0A89DB"/><path d="M223.103 183.187a1.144 1.144 0 0 0 1.364-.936c.025-.31-.055-.62-.227-.88a1.387 1.387 0 0 0-.725-.548 1.79 1.79 0 0 0-1.459 1.174c-.064.381.571 1.095 1.047 1.19ZM247.578 146.674c.349.127.555-.428.539-.539-.015-.111-.079-.524-.412-.587a.36.36 0 0 0-.321.049.358.358 0 0 0-.155.284c-.016.222-.016.666.349.793ZM249.957 145.5c.365-.476.73-.968 1.126-1.428a1.033 1.033 0 0 0-.349-.254c-.666-.206-1.586.207-1.586.762-.079.285.349.65.809.92ZM213.681 188.264a1.115 1.115 0 0 0 1.1-.593c.068-.131.109-.275.121-.422.127-.666-.333-1.586-.904-1.586a1.377 1.377 0 0 0-1.586 1.031 1.289 1.289 0 0 0 .26 1.087 1.298 1.298 0 0 0 1.009.483ZM214.458 169.277l.523-.539H213.3c.341.264.737.448 1.158.539ZM204.655 172.608a1.02 1.02 0 0 0 .888-.127 2.14 2.14 0 0 0 .698-2.379 1.029 1.029 0 0 0-1.189-.777 1.761 1.761 0 0 0-1.587 1.475 4.364 4.364 0 0 0 0 .428v.095a9.59 9.59 0 0 0 1.19 1.285ZM209.065 168.738h-.968.127c.274.086.567.086.841 0ZM200.42 188.82a2.654 2.654 0 0 0 1.126 2.014c.666.191 1.459-.475 1.682-1.427.222-.952-.143-1.364-1.19-1.586a1.332 1.332 0 0 0-1.618.999ZM213.015 180.666c.29-.428.419-.945.364-1.459-.19-.492-.793-.809-1.269-1.269.254-.444.556-.999 0-1.586-1.475 0-1.586.301-.92 1.586a5.008 5.008 0 0 0-.555 1.713c.103.555.375 1.064.778 1.459.412.508 1.173.286 1.602-.444ZM202.371 177.462a3.034 3.034 0 0 0 3.077 1.047c.778-.349.603-1.396.809-1.586.207-.191 1.412.555 2.348 0a2.555 2.555 0 0 0 .904-2.824 2.479 2.479 0 0 0-1.19-1.428 2.06 2.06 0 0 0-2.268.397c-.492.619-.507 1.824-.793 1.951-.286.127-1.428-.682-2.332-.127a1.807 1.807 0 0 0-.555 2.57ZM215.87 184.919a1.418 1.418 0 0 0 1.047-.508c.46-.809-.111-1.316-.762-1.792-.618.254-1.316.492-1.3 1.301a.953.953 0 0 0 .288.722.968.968 0 0 0 .727.277ZM233.001 139.075c.65.174 1.412-.524 1.586-1.459a.833.833 0 0 0-.101-.68.83.83 0 0 0-.581-.367c-.761-.222-1.681.174-1.808.745a1.725 1.725 0 0 0 .904 1.761ZM228.226 144.611c-.19.381.238 1.301.73 1.587a.817.817 0 0 0 .964-.212.804.804 0 0 0 .162-.312c.333-.825.302-1.475-.095-1.681a1.852 1.852 0 0 0-.965.069 1.853 1.853 0 0 0-.796.549ZM231.478 151.068h1.237c.41-.232.717-.612.857-1.063a1.287 1.287 0 0 0-.92-1.284c-1.095-.175-1.904.158-2.015.84a1.822 1.822 0 0 0 .841 1.507ZM241.439 138.743a.975.975 0 0 0 1.222-.666.88.88 0 0 0-.714-1.047.782.782 0 0 0-.319-.028.773.773 0 0 0-.303.099.786.786 0 0 0-.377.5.834.834 0 0 0 .491 1.142ZM239.742 141.551c-.793-.174-1.348.254-1.586 1.237-.238.984.285 1.349 1.253 1.586a1.128 1.128 0 0 0 1.396-.65 2.322 2.322 0 0 0-1.063-2.173ZM240.265 132.145c.27-.174.207-.92.238-1.412a.435.435 0 0 0-.082-.349.457.457 0 0 0-.314-.174 1.297 1.297 0 0 0-1.237 1.11.967.967 0 0 0 1.395.825ZM237.569 140.281a1.59 1.59 0 0 0 1.586-.809 1.585 1.585 0 0 0-1.063-1.587 1.096 1.096 0 0 0-1.221.936 1.24 1.24 0 0 0 .698 1.46ZM233.588 141.138a1.35 1.35 0 0 0-.54.904c0 .223.333.587.587.698a9.274 9.274 0 0 0 1.586.476c.476.111.73-.127.809-.65-.079-.111-.142-.365-.285-.412a2.317 2.317 0 0 1-1.142-.984 1.114 1.114 0 0 0-1.015-.032ZM223.69 148.324c-.111-.667-.27-1.317-1.079-1.222-.809.095-.888.714-.809 1.348a1.2 1.2 0 0 0 .974.394 1.205 1.205 0 0 0 .914-.52ZM232.287 183.885a1.22 1.22 0 0 0 1.38-.729 1.68 1.68 0 0 0-.777-1.586 1.486 1.486 0 0 0-1.46.888 1.125 1.125 0 0 0 .107.907 1.105 1.105 0 0 0 .75.52ZM233.365 188.025a1.825 1.825 0 0 0 2.094-1.063c.143-.555-.92-1.744-1.586-1.871a1.495 1.495 0 0 0-1.535 1.274 1.49 1.49 0 0 0 1.107 1.66h-.08ZM226.703 169.675v.285c-.174.444-.444.619-.856.286-.143-.127-.238-.318-.397-.429a1.92 1.92 0 0 0-2.157 0 1.587 1.587 0 0 0-.73 1.967 2.768 2.768 0 0 0 1.856 1.967c-.131.43-.221.87-.269 1.317 0 1.3.856 1.808 1.998 1.158a1.467 1.467 0 0 0 .869-1.089 1.453 1.453 0 0 0-.441-1.322 10.235 10.235 0 0 0-.999-.873c.444-.269.73-.603 1.015-.603a1.38 1.38 0 0 0 1.491-1.411c.065-.229.162-.448.286-.651.333-.729.254-1.284-.222-1.586h-.762a1.44 1.44 0 0 0-.682.984ZM221.183 177.493c-.809 0-1.697-.254-2.347.619a1.833 1.833 0 0 1-1.412.824 1.73 1.73 0 0 0-1.444 1.587 4.237 4.237 0 0 0 2.348 2.347c.809-.365 1.888-.809 2.95-1.3.127 0 .191-.445.159-.651a2.054 2.054 0 0 1 .412-1.586c.476-.698.064-1.808-.666-1.84ZM226.497 178.492c-.698-.158-1.364.54-1.586 1.587a1.416 1.416 0 0 0 1.015 1.364 2.04 2.04 0 0 0 1.761-.984 1.982 1.982 0 0 0-1.19-1.967ZM234.793 175.48a1.995 1.995 0 0 0-2.442 1.253 3.165 3.165 0 0 0 1.586 2.823 2.025 2.025 0 0 0 2.252-1.586 2.343 2.343 0 0 0-1.396-2.49ZM229.606 192.12c-.761-.159-1.3.317-1.586 1.332-.285 1.015.127 1.491.746 1.586a2.753 2.753 0 0 0 2.141-1.11 1.586 1.586 0 0 0-1.301-1.808ZM236.474 183.457c0-1.058.048-2.115.143-3.173a2.211 2.211 0 0 0-.777 1.285 2.01 2.01 0 0 0 .065 1.029c.112.331.308.627.569.859ZM236.871 191.992c0-.507-.111-1.031-.158-1.586-.143.206-.254.444-.349.587-.096.143.015.809.507.999ZM211.428 185.964a1.592 1.592 0 0 0-.761-1.047c-.888-.349-1.158.492-1.666 1.079.46.761.873 1.348 1.745 1.063a.881.881 0 0 0 .577-.401.881.881 0 0 0 .105-.694ZM232.351 170.815a1.94 1.94 0 0 0-2.205-1.269 2.016 2.016 0 0 0 1.3 3.76c.778-.159 1.079-1.396.905-2.491ZM203.941 186.583c-.142.523.223 1.38.698 1.412a3.17 3.17 0 0 0 2.205-.302c.952-.682 1.015-.777.46-1.998-.571 0-1.031-.143-1.491-.238a1.725 1.725 0 0 0-1.872 1.126ZM237.553 147.642c.095-.714-.698-1.586-1.586-1.729-.888-.143-1.412.349-1.586 1.412a1.587 1.587 0 0 0 .999 1.586c.635.079 2.094-.714 2.173-1.269ZM226.354 141.234a1.763 1.763 0 0 0 2.269-1.412 1.877 1.877 0 0 0-1.174-2.189c-.841-.27-1.967.618-2.253 1.776a1.456 1.456 0 0 0 .169 1.173 1.435 1.435 0 0 0 .989.652ZM227.417 150.195a.83.83 0 0 0-.268-.63.81.81 0 0 0-.652-.21c-.888 0-1.491.285-1.586.729a1.474 1.474 0 0 0 .587.968h1.412c.256-.224.434-.524.507-.857Z" fill="#0D90E0"/><path d="M221.628 169.833a1.493 1.493 0 0 0 .365-1.095h-6.139c.222.888 0 1.237-.999.936a1.821 1.821 0 0 0-2.221.888 1.856 1.856 0 0 0 0 2.268 1.496 1.496 0 0 0 1.573.742c.204-.038.397-.118.568-.234a4.21 4.21 0 0 0 1.364-1.285c.302-.412.556-.714 1.079-.682.761 0 1.015-.412 1.015-1.11a2.238 2.238 0 0 0 3.395-.428ZM217.059 176.05a1.288 1.288 0 0 0 1.428.698 1.11 1.11 0 0 0 1.079-.967c.095-.809-1.079-2.078-1.587-1.999a2.35 2.35 0 0 0-.92 2.268ZM214.791 175.94a1.298 1.298 0 0 0-1.459.84 1.682 1.682 0 0 0 .777 1.825 1.871 1.871 0 0 0 2.141-1c.143-.634-.492-1.332-1.459-1.665ZM221.025 144.359c0-.603-.286-.889-.809-1a1.07 1.07 0 0 0-1.146.415 1.082 1.082 0 0 0-.171.394.945.945 0 0 0 .185.738.946.946 0 0 0 .672.357 1.129 1.129 0 0 0 1.269-.904ZM210.413 188.137c-.761-.207-1.285.539-1.428.967-.142.428.682 1.269 1.587 1.031a1.172 1.172 0 0 0 .682-.761 1.04 1.04 0 0 0-.155-.799 1.03 1.03 0 0 0-.686-.438ZM209.414 182.093c-1.063-2.728-2.665-2.966-4.473-.793a3.736 3.736 0 0 1-.556-.175 1.176 1.176 0 0 0-1.586.476 1.463 1.463 0 0 0 0 1.682c.746 1.586 1.46 1.824 2.824 1.11 1.031-.523 2.093-1.015 3.172-1.586 1.269 1.998 1.586 2.062 2.824.761a1.777 1.777 0 0 0-.25-.702 1.743 1.743 0 0 0-.518-.536 1.762 1.762 0 0 0-1.437-.237ZM218.661 149.593a.907.907 0 0 0 .667 1.206 1.097 1.097 0 0 0 1.38-.682 1.06 1.06 0 0 0-.166-.807 1.065 1.065 0 0 0-.691-.446.971.971 0 0 0-1.033.375.971.971 0 0 0-.157.354ZM239.821 151.068h1.809a.779.779 0 0 0-.445-.365 1.042 1.042 0 0 0-.935.159c-.127.063-.286.111-.429.206ZM209.874 208.552a1.793 1.793 0 0 0-2.015 1.016 1.239 1.239 0 0 0 .809 1.491 1.587 1.587 0 0 0 1.777-1.063 1.07 1.07 0 0 0 .021-.843 1.078 1.078 0 0 0-.592-.601ZM218.757 202.572a1.967 1.967 0 0 0 2.014-1.269c.159-.618-.507-1.443-1.301-1.586-1.031-.222-1.586 0-1.824.825a1.86 1.86 0 0 0 1.111 2.03ZM219.264 205.332c0-.349-.127-1.253-.539-1.317-.413-.063-.841.793-.904 1.11-.064.318.38.619.666.73.285.111.825-.032.777-.523ZM221.739 210.598c-.397 0-1.396.175-1.46.572-.063.396.746.935 1.095 1.126.349.19.936-.27.999-.778.064-.507-.127-.935-.634-.92ZM219.407 221.352a.843.843 0 0 0-.492 1.047c.206.809.841.904 1.586.936.349-.634.857-1.142.318-1.76a1.125 1.125 0 0 0-1.412-.223ZM214.315 203.412a2.647 2.647 0 0 0-2.808 1.475 2.114 2.114 0 0 0 1.428 2.347 2.04 2.04 0 0 0 1.441-.195 2.047 2.047 0 0 0-.061-3.627ZM217.218 191.071a1.11 1.11 0 0 1-.317-1.206 1.301 1.301 0 0 0-1.222-1.316c-.698 0-.888.364-.936.935.014.415-.068.827-.238 1.206-.475.761-1.078 1.443-1.586 2.205-2.157-.603-2.807-.222-2.839 1.76a1.482 1.482 0 0 0 .528 1.33 1.469 1.469 0 0 0 1.407.257 13.391 13.391 0 0 0 2.379-1.301 2.615 2.615 0 0 0 2.903.238 2.734 2.734 0 0 0 .894-2.072 2.727 2.727 0 0 0-.973-2.036ZM209.953 202.192c-.535.079-1.065.19-1.586.333-1.063-.825-2.11-.968-2.602-.349a2.19 2.19 0 0 0 .397 2.617c.714.587 1.205.412 2.427-.983.587.428 1.142.935 1.792.222a1.145 1.145 0 0 0 .175-1.444c-.159-.19-.429-.412-.603-.396ZM213.776 212.486a1.795 1.795 0 0 0-1.856 1.475c-.175.92.381 1.587 1.443 1.761a1.493 1.493 0 0 0 1.681-.662c.112-.185.183-.392.207-.607a1.747 1.747 0 0 0-1.475-1.967ZM222.897 217.228c-.206 0-.666-.127-.809.206-.143.333.269.619.38.619a.882.882 0 0 0 .635-.286s-.095-.507-.206-.539ZM213.713 198.653a1.255 1.255 0 0 0-.334-.983.936.936 0 0 0-.84-.127c-.619.349-.603.904-.286 1.586.555.032 1.19.206 1.46-.476ZM222.912 195.657a1.393 1.393 0 0 0-1.063-1.587.917.917 0 0 0-1.11.651 1.176 1.176 0 0 0 .349 1.427c.151.093.319.153.494.178a1.287 1.287 0 0 0 .993-.267c.138-.11.253-.247.337-.402ZM236.617 205.681a1.584 1.584 0 0 0-1.237-1.586c-.761-.174-1.269.095-1.427.761a1.87 1.87 0 0 0 1.047 2.237 1.679 1.679 0 0 0 1.617-1.412ZM235.586 197.067c.238-.983-.507-1.887-1.776-2.173a1.596 1.596 0 0 0-1.305.153 1.584 1.584 0 0 0-.741 1.084 2.138 2.138 0 0 0 1.586 2.475 2.192 2.192 0 0 0 2.236-1.539ZM224.483 199.844c-.222.222-.698.492-.888.888-.191.397.301 1.222.967 1.317a.973.973 0 0 0 .739-.208.956.956 0 0 0 .356-.68 1.303 1.303 0 0 0-1.174-1.317ZM223.023 134.238a2.223 2.223 0 0 0 2.3-1.586 1.594 1.594 0 0 0-1.451-1.721 1.591 1.591 0 0 0-1.721 1.451 1.491 1.491 0 0 0 .872 1.856ZM231.985 216.182a1.722 1.722 0 0 0-2.522 0 1.59 1.59 0 0 0 .127 1.871 1.255 1.255 0 0 0 1.682.381c.491-.238 1.586-.444 1.681-1.253.095-.809-.682-.73-.968-.999ZM234.269 168.738c-.041.244-.002.494.111.714a3.306 3.306 0 0 0 3.522 1.713c.18-.814.37-1.623.571-2.427h-4.204ZM227.148 199.446a1.093 1.093 0 0 0 1.3-.793 1.127 1.127 0 0 0-.896-1.324 1.12 1.12 0 0 0-.848.174c-.248.168-.42.428-.476.722a1.266 1.266 0 0 0 .92 1.221ZM230.034 203.618a1.047 1.047 0 0 0-.904-1.126c-.872-.111-1.586.888-1.586 1.237a1.582 1.582 0 0 0 1.586 1.079 1.065 1.065 0 0 0 .904-1.19ZM226.291 188.9l-.095-.143c.199.219.435.402.698.539a.674.674 0 0 0 .632.049.684.684 0 0 0 .399-.493.834.834 0 0 0 .011-.702.828.828 0 0 0-.534-.456 1.965 1.965 0 0 0-1.047.206.982.982 0 0 0-.73-1.126 1.125 1.125 0 0 0-1.348 1.237c0 .762-.429.984-.889 1.412-1.173-1.206-2.188-1.126-2.918.143-.076.12-.14.248-.19.38-.365.936-.112 1.476.84 1.745.952.27 1.586.365 2.268-.777.133.374.218.763.254 1.158a1.033 1.033 0 0 0 .778 1.205 1.579 1.579 0 0 0 1.728-.285c1.523-1.697 1.555-2.363.143-4.092ZM227.608 209.758a1.171 1.171 0 0 0-1.253.729 1.344 1.344 0 0 0 .745 1.412 1.049 1.049 0 0 0 1.221-.745 1.205 1.205 0 0 0-.713-1.396ZM236.744 212.279a.968.968 0 0 0-1.237.651 1.095 1.095 0 0 0 .714 1.253.922.922 0 0 0 1.237-.635 1.146 1.146 0 0 0-.128-.763 1.152 1.152 0 0 0-.586-.506ZM215.315 136.49a1.33 1.33 0 0 0 1.38-.809c.253-1.047-.111-2.014-.825-2.157a1.936 1.936 0 0 0-1.856 1.3c-.143.572.619 1.555 1.301 1.666ZM207.701 226.602a.638.638 0 0 0-.175-.381l.175.381ZM206.241 148.608c.349 0 .984 0 1.111-.412.127-.413-.302-.904-.603-1.174-.301-.27-.682 0-.92.286l-.159.428a.67.67 0 0 0 .289.78.675.675 0 0 0 .282.092ZM209.017 151.068h.984c.221-.168.467-.302.729-.396a1.4 1.4 0 0 0 1.111-1.476c0-.793-.54-1.586-.429-1.887.111-.301.365-.793.936-.571.571.222 1.491-.111 1.888-1.301.396-1.189-.651-2.474-1.587-2.205-.935.27-.951.841-1.268.698-.318-.142-.746-.777-1.317-.539s-.603 2.078-.46 2.348c.143.269.825.824.365 1.269-.46.444-1.253.555-1.396 1.205-.143.65-.539 2.173.301 2.823l.143.032ZM211.412 140.804c1.095.381 1.809-.603 2.158-1.126.348-.524-.635-1.586-1.587-1.586a1.06 1.06 0 0 0-1.158.856c-.253.682.032 1.666.587 1.856ZM219.28 137.537a2.384 2.384 0 0 0 1.475 2.776 2.461 2.461 0 0 0 2.618-1.586c.301-1.015-.476-2.062-1.856-2.443a1.797 1.797 0 0 0-2.237 1.253ZM216.425 139.678a1.141 1.141 0 0 0-1.317.825 1.061 1.061 0 0 0 .825 1.174.943.943 0 0 0 .774-.059.932.932 0 0 0 .463-.623 1.004 1.004 0 0 0-.078-.825 1.01 1.01 0 0 0-.667-.492ZM218.503 131.636c.491.175.745-.285.825-.73.079-.444-.238-1.062-.698-.999-.46.064-1.158 0-1.174.682-.016.682.698.936 1.047 1.047ZM214.363 147.69c-.006.522.16 1.032.473 1.45.312.419.753.723 1.256.866.634.111 1.316-.54 1.459-1.412.143-.873-.222-1.586-1.316-1.793-.857-.158-1.745.254-1.872.889ZM215.997 130.446a1.27 1.27 0 0 0 .485-.189c.148-.095.274-.22.371-.366.206-.412-.349-1.11-.841-1.063a1.753 1.753 0 0 0-.729.397c-.111.666.254 1.221.714 1.221ZM207.225 196.386c.316-.115.624-.253.92-.413.983-.476 1.317-1.094 1.047-1.919a1.728 1.728 0 0 0-.848-1.003 1.71 1.71 0 0 0-1.309-.107 18.309 18.309 0 0 1-3.173.618c-.872 0-1.856.73-1.792 1.333a1.303 1.303 0 0 0 1.269.872c.761-.254.983.286 1.443.555.462.212.968.31 1.475.286.335-.004.665-.079.968-.222ZM202.086 208.664a1.027 1.027 0 0 0-.571 0l.523 2.078c.213-.03.412-.125.569-.273a1.04 1.04 0 0 0 .304-.552 1.22 1.22 0 0 0-.825-1.253ZM202.894 201.271a2.358 2.358 0 0 0-1.269-1.729c-.602-.158-1.047.222-1.221 1.063-.175.841 0 1.459.682 1.586.92.222 1.681-.174 1.808-.92ZM208.763 196.561a1.378 1.378 0 0 0-1.586.713c-.317 1.063 0 2.047.666 2.237a1.839 1.839 0 0 0 1.951-1.142 1.589 1.589 0 0 0-1.031-1.808ZM205.226 211.946a.337.337 0 0 0-.349.27c0 .095.175.301.254.301a.314.314 0 0 0 .333-.19.305.305 0 0 0 .004-.124.317.317 0 0 0-.242-.257ZM200.214 185.536a1.78 1.78 0 0 0-.508-2.014 1.093 1.093 0 0 0-1.062.126V186.726h.111a1.9 1.9 0 0 0 1.3-.254.697.697 0 0 0 .159-.936ZM199.897 177.081a1.724 1.724 0 0 0-.413-2.315c.204-.144.377-.327.508-.54a1.27 1.27 0 0 0 0-1.3c.164.014.328.014.492 0a2.383 2.383 0 0 0 1.824-2.665.805.805 0 0 0 .476 0 .932.932 0 0 0 .452-.994.932.932 0 0 0-.151-.355H201.8a1.064 1.064 0 0 0-.254.698 1.582 1.582 0 0 0-1.729-.253c-.46 2.966-.761 5.995-.951 9.057.333-.238.698-.555 1.031-1.333Z" fill="#0D90E0"/><path d="M129.072 298.822a3.902 3.902 0 0 1-3.41-2.014 78.204 78.204 0 0 1-3.981-8.518 3.87 3.87 0 0 1 .053-2.968 3.87 3.87 0 0 1 2.136-2.06 3.864 3.864 0 0 1 2.967.053 3.87 3.87 0 0 1 2.061 2.135 66.63 66.63 0 0 0 3.569 7.646 3.85 3.85 0 0 1-.054 3.837 3.85 3.85 0 0 1-3.341 1.889Zm-8.184-25.76a3.863 3.863 0 0 1-2.581-.995 3.864 3.864 0 0 1-1.258-2.463 68.883 68.883 0 0 1-.428-7.693v-1.745a3.884 3.884 0 0 1 3.965-3.775 3.882 3.882 0 0 1 2.705 1.212 3.879 3.879 0 0 1 1.054 2.77v1.586c0 2.289.128 4.577.381 6.852a3.87 3.87 0 0 1-3.426 4.267l-.412-.016Zm2.68-26.823a3.866 3.866 0 0 1-3.455-2.12 3.876 3.876 0 0 1-.225-2.955 64.74 64.74 0 0 1 3.569-8.772 3.875 3.875 0 0 1 7.147.482 3.876 3.876 0 0 1-.199 2.96 55.521 55.521 0 0 0-3.173 7.725 3.881 3.881 0 0 1-3.664 2.68Zm13.8-23.158a3.865 3.865 0 0 1-3.56-2.353 3.864 3.864 0 0 1 .768-4.198 68.431 68.431 0 0 1 6.98-6.345 3.866 3.866 0 0 1 4.488-.619 3.877 3.877 0 0 1 1.412 5.555c-.298.45-.687.832-1.142 1.123a61.82 61.82 0 0 0-6.186 5.647 3.812 3.812 0 0 1-2.76 1.142v.048Zm22.207-15.307a3.867 3.867 0 0 1-3.837-3.061 3.873 3.873 0 0 1 2.251-4.363 83.413 83.413 0 0 1 8.772-3.172 3.864 3.864 0 0 1 2.953.277 3.867 3.867 0 0 1 1.892 2.285 3.88 3.88 0 0 1-2.561 4.846 73.135 73.135 0 0 0-7.931 2.934c-.48.163-.986.233-1.491.206l-.048.048Zm80.611-6.345a3.87 3.87 0 0 1-2.804-6.579 3.872 3.872 0 0 1 2.725-1.162c2.934 0 5.9-.158 8.819-.285a3.874 3.874 0 0 1 .365 7.741c-2.998.126-6.028.238-9.026.285h-.079Zm-18.273 0h-.111c-2.95-.074-5.948-.185-8.994-.333a3.872 3.872 0 0 1-3.463-2.558 3.877 3.877 0 0 1 2.333-4.958 3.882 3.882 0 0 1 1.495-.225c2.982.143 5.932.254 8.835.318a3.888 3.888 0 0 1 3.595 3.923 3.888 3.888 0 0 1-3.69 3.833Zm-36.102-.254a3.871 3.871 0 0 1-.412-7.725c2.982-.333 6.075-.539 9.2-.634a3.798 3.798 0 0 1 2.798 1.029 3.814 3.814 0 0 1 1.199 2.73 3.864 3.864 0 0 1-1.055 2.77 3.869 3.869 0 0 1-2.705 1.212c-2.918.095-5.821.285-8.597.587l-.428.031Zm81.515-1.316a3.872 3.872 0 0 1-2.953-6.41 3.87 3.87 0 0 1 2.572-1.315c2.935-.301 5.885-.65 8.74-1.031a3.872 3.872 0 0 1 1.016 7.677c-2.935.397-5.949.746-8.978 1.063l-.397.016Zm26.966-4.061a3.871 3.871 0 0 1-.778-7.661c2.887-.603 5.774-1.238 8.566-1.935a3.877 3.877 0 1 1 1.84 7.534 280.252 280.252 0 0 1-8.851 1.983 4.3 4.3 0 0 1-.809-.064l.032.143Zm26.156-7.201a3.871 3.871 0 0 1-1.253-7.535 171.366 171.366 0 0 0 8.185-3.029 3.874 3.874 0 0 1 5.036 2.165 3.874 3.874 0 0 1-2.165 5.036 246.038 246.038 0 0 1-8.55 3.172 3.832 3.832 0 0 1-1.253.191Zm24.919-10.818a3.88 3.88 0 0 1-2.362-.829 3.884 3.884 0 0 1 .507-6.452 125.363 125.363 0 0 0 7.471-4.378 3.867 3.867 0 0 1 4.301.098 3.865 3.865 0 0 1 1.556 4.011 3.861 3.861 0 0 1-1.702 2.426 134.553 134.553 0 0 1-7.931 4.648 3.733 3.733 0 0 1-1.776.476h-.064Zm22.207-15.513a3.871 3.871 0 0 1-2.585-6.742 99.214 99.214 0 0 0 6.075-6.011 3.873 3.873 0 1 1 5.71 5.234 98.993 98.993 0 0 1-6.614 6.535 3.86 3.86 0 0 1-2.459.984h-.127Zm17.052-21.018a3.866 3.866 0 0 1-3.877-3.814 3.88 3.88 0 0 1 .483-1.928c.824-1.586 1.586-3.045 2.3-4.568.46-1.047.935-2.094 1.411-3.172a3.896 3.896 0 0 1 2.16-2.043 3.888 3.888 0 0 1 5.268 3.738 3.879 3.879 0 0 1-.337 1.477l-1.444 3.173c-.793 1.728-1.586 3.442-2.585 5.123a3.84 3.84 0 0 1-3.252 2.014h-.127Zm-21.731-19.24a3.899 3.899 0 0 1-1.443-.286 81.603 81.603 0 0 1-8.344-3.965 3.866 3.866 0 0 1-1.966-2.297 3.868 3.868 0 0 1 1.275-4.193 3.877 3.877 0 0 1 2.911-.814 3.864 3.864 0 0 1 1.46.499 74.549 74.549 0 0 0 7.693 3.632 3.875 3.875 0 0 1 1.976 1.741 3.868 3.868 0 0 1-3.435 5.73l-.127-.047Zm32.327-5.837a4.016 4.016 0 0 1-1.206-.191 3.87 3.87 0 0 1-2.458-4.901c.936-2.871 1.776-5.663 2.443-8.312a3.87 3.87 0 1 1 7.502 1.919 124.54 124.54 0 0 1-2.601 8.836 3.87 3.87 0 0 1-3.68 2.649Zm-54.93-8.788a3.829 3.829 0 0 1-2.776-1.174 46.326 46.326 0 0 1-6.028-7.614 3.875 3.875 0 0 1 6.551-4.14 38.138 38.138 0 0 0 5.028 6.345 3.869 3.869 0 0 1-2.775 6.567v.016Zm60.275-17.813h-.095a3.871 3.871 0 0 1-3.775-3.966v-1.49c.009-2.257-.15-4.51-.476-6.742a3.877 3.877 0 0 1 1.837-3.892 3.875 3.875 0 0 1 5.825 2.75c.391 2.625.582 5.276.571 7.93v1.698a3.871 3.871 0 0 1-3.95 3.712h.063Zm-71.379-6.345a3.887 3.887 0 0 1-3.981-3.537c0-1-.095-2.03-.095-3.046v-.254c.014-2.166.184-4.329.507-6.471a3.886 3.886 0 0 1 1.548-2.532 3.883 3.883 0 0 1 4.306-.174 3.886 3.886 0 0 1 1.747 2.4c.119.495.14 1.008.061 1.511a36.37 36.37 0 0 0-.429 5.314v.08c0 .856 0 1.68.095 2.506a3.888 3.888 0 0 1-3.6 4.14l-.159.063Zm63.988-19.256a3.857 3.857 0 0 1-3.062-1.492 31.728 31.728 0 0 0-5.631-5.567 3.885 3.885 0 0 1 1.892-6.922 3.883 3.883 0 0 1 2.867.783 39.404 39.404 0 0 1 7.027 6.948 3.868 3.868 0 0 1-.998 5.66 3.871 3.871 0 0 1-2.048.59h-.047Zm-55.993-5.949a3.873 3.873 0 0 1-3.823-4.502 3.875 3.875 0 0 1 .967-1.985 32.514 32.514 0 0 1 7.932-6.345 3.869 3.869 0 0 1 5.282 1.443 3.87 3.87 0 0 1-1.444 5.282 24.85 24.85 0 0 0-6.012 4.759 3.814 3.814 0 0 1-2.95 1.348h.048Zm33.31-8.248c-.338 0-.675-.049-.999-.143-2.59-.7-5.25-1.11-7.931-1.221a3.87 3.87 0 0 1-3.712-4.03 3.932 3.932 0 0 1 4.029-3.71c3.26.134 6.495.634 9.644 1.49a3.868 3.868 0 0 1 2.855 4.247 3.871 3.871 0 0 1-3.854 3.367h-.032Z" fill="#294492"/><path d="M380.994 123.452c-1.475 1.031-19.891 11.976-37.324 14.863a63.629 63.629 0 0 1 18.629 59.81 63.63 63.63 0 0 1-41.66 46.783c.999 12.785 2.331 25.554 3.759 38.307a101.518 101.518 0 0 0 56.596-159.763Z" fill="#1BA9F5"/><path d="M366.448 261.658c.049-.113.086-.229.111-.349-.492.428-.952.856-1.443 1.253a1.443 1.443 0 0 0 1.332-.904ZM377.33 257.138a2.604 2.604 0 0 0 2.379-.841 1.586 1.586 0 0 0-.698-1.586c0-.539-.428-.873-1.237-1.047a1.362 1.362 0 0 0-1.586.999c.009.442.147.872.396 1.238a1.588 1.588 0 0 0 .746 1.237ZM380.375 253.821a3.173 3.173 0 0 0 2.205-.285l.111-.095a.94.94 0 0 0 .904-.508 2.294 2.294 0 0 0-.73-2.252 1.147 1.147 0 0 0-.928-.039 1.173 1.173 0 0 0-.658.657 1.727 1.727 0 0 0-1.586 1.126c-.174.508.206 1.365.682 1.396ZM379.138 250.999c0-.127-.095-.396-.222-.444a1.992 1.992 0 0 1-.841-.936c-.365.429-.714.873-1.095 1.301.406.221.824.417 1.254.587.364.238.65.032.904-.508ZM376.061 251.903c-.159.19-.318.365-.492.539.088-.022.173-.054.254-.095a.62.62 0 0 0 .238-.444ZM375.172 261.388a.78.78 0 0 0 .587.618c.254 0 .46-.364.444-.618-.015-.254-.269-.555-.539-.508a.543.543 0 0 0-.492.508ZM376.727 271.714c.158-.396.254-.84-.238-1.11a1.159 1.159 0 0 0-1.475.619c.19.254.365.698.698.904.333.206.84.047 1.015-.413ZM372.063 268.605c.38.25.832.367 1.285.333.263.078.535.12.809.127.143-.238.286-.46.397-.682a3.14 3.14 0 0 0 .38-.301 6.602 6.602 0 0 0-.365-1.332 1.585 1.585 0 0 0-1.744-.92 1.742 1.742 0 0 0-1.364 1.776 1.466 1.466 0 0 0 .602.999ZM384.182 242.941l-.618-.603-.46.666c.358.075.73.053 1.078-.063ZM358.834 267.4l.254.27a.914.914 0 0 0 .175-.286 2.097 2.097 0 0 0 0-.317l-.429.333ZM386.213 255.979a1.176 1.176 0 0 0 .698-.777 1.02 1.02 0 0 0-.399-1.059 1.035 1.035 0 0 0-.363-.163c-.761-.222-1.285.524-1.427.952-.143.428.666 1.269 1.491 1.047ZM359.358 267.859l.761.761a.935.935 0 0 0-.761-.761ZM378.63 267.099a2.416 2.416 0 0 0-1.285-1.729.897.897 0 0 0-.46 0h-.095a1.314 1.314 0 0 0-.65 1.015c-.206.936 0 1.444.682 1.586.92.27 1.681-.127 1.808-.872ZM374.284 272.445c.349-.08.968-.381.936-.682a1.107 1.107 0 0 0-.666-.762c-.254 0-1.031.27-1.079.571-.048.302.65.904.809.873ZM391.019 270.032h-.191a1.379 1.379 0 0 0-.777-.698 2.651 2.651 0 0 0-2.807 1.459 2.076 2.076 0 0 0 1.427 2.348 2.042 2.042 0 0 0 2.411-1.285c.079-.35.079-.713 0-1.063a.314.314 0 0 0 .127-.126.401.401 0 0 0-.024-.536.396.396 0 0 0-.166-.099ZM389.433 264.465a1.141 1.141 0 0 0-.043-.522 1.137 1.137 0 0 0-.275-.445.916.916 0 0 0-.856-.143c-.603.349-.603.904-.27 1.586.555.048 1.174.222 1.444-.476ZM386.387 273.744a.979.979 0 0 0 1.205.46c.492-.238.508-.603 0-1.586a.954.954 0 0 0-1.205 1.126ZM393.414 254.695a1.404 1.404 0 0 0-1.19 0c-.21-.179-.47-.29-.745-.318-.682 0-.873.365-.92.936-.023.3-.071.597-.143.888a.41.41 0 0 0-.27-.317.392.392 0 0 0-.445.112.388.388 0 0 0-.078.142c0 .222-.127.666.206.841h.143c-.397.571-.857 1.142-1.317 1.729-2.141-.603-2.791-.222-2.823 1.776a1.478 1.478 0 0 0 1.198 1.64c.246.045.5.026.737-.054a5.207 5.207 0 0 0 1.095-.507c.586.444 1.126 1.142 2.046 1.11l.777-.745c.999.158 1.919-.111 2.078-.667a.944.944 0 0 0-.159-.92 2.866 2.866 0 0 0-.571-3.394 1.324 1.324 0 0 1-.301-.428c.233.183.529.269.825.238.523-.238.412-1.745-.143-2.062ZM400.171 259.072h.19l-.952-.952a.956.956 0 0 0 .762.952ZM398.601 257.343l-2.237-2.22-.159.222a3.03 3.03 0 0 0-.174.396c-.365.92-.111 1.46.841 1.729a1.846 1.846 0 0 0 1.729-.127ZM398.648 261.499a1.389 1.389 0 0 0-.563-1.446 1.374 1.374 0 0 0-.5-.219.874.874 0 0 0-.694.087.882.882 0 0 0-.416.563 1.14 1.14 0 0 0 .349 1.412 1.302 1.302 0 0 0 1.824-.397ZM383.611 265.274a1.822 1.822 0 0 0 1.935-1.142 1.587 1.587 0 0 0-1.063-1.808 1.322 1.322 0 0 0-1.142.253c.115-.219.195-.454.238-.698l.286-.126c.999-.492 1.332-1.111 1.062-1.936a1.726 1.726 0 0 0-2.157-1.11 20.018 20.018 0 0 1-3.172.635c-.857 0-1.84.713-1.777 1.316.064.603 1 .968 1.269.872.682-.237.936.191 1.333.476a1.03 1.03 0 0 0 0 .222 1.675 1.675 0 0 0 1.316 1.206 1.403 1.403 0 0 0 1.19-.349c-.302 1.11 0 2.062.682 2.189ZM386.403 250.808c-.888-.349-1.174.508-1.666 1.079.46.761.873 1.348 1.745 1.063a.9.9 0 0 0 .701-.737.883.883 0 0 0-.019-.358 1.713 1.713 0 0 0-.761-1.047ZM386.339 245.494c.103.555.374 1.064.777 1.459a.842.842 0 0 0 1.142 0l-1.887-1.887a.982.982 0 0 0-.032.428ZM389.718 251.554a1.363 1.363 0 0 0-1.491 1.031 1.324 1.324 0 0 0 .235 1.063 1.303 1.303 0 0 0 .955.523 1.142 1.142 0 0 0 1.221-1.031c.127-.729-.397-1.57-.92-1.586ZM391.59 250.745c.11.015.222.015.333 0l-1.269-1.269c-.016.11-.016.223 0 .333a.967.967 0 0 0 .936.936Z" fill="#0066B1"/><path d="M370.351 261.943c-.381.872-.207 1.586.428 1.856a2.17 2.17 0 0 0 1.221-.127c.124.58.465 1.09.952 1.428.952.491 2.189.364 2.316-.587a3.716 3.716 0 0 0-.698-2.411c-.333-.619-1.206-.397-.888-1.158a3.184 3.184 0 0 0 .206-1.935 2.007 2.007 0 0 0 1.507-1.047 1.288 1.288 0 0 0-.698-1.412c-1.047-.365-1.904-.175-2.126.492-.074.381-.007.776.191 1.11a1.889 1.889 0 0 0-1.793 1.079 2.11 2.11 0 0 0-1.063-1 85.694 85.694 0 0 1-2.522 2.332 1.586 1.586 0 0 0 1.206 1.19 2.725 2.725 0 0 0 2.3-1.253c.046.173.127.334.238.475a1.587 1.587 0 0 0-.777.968ZM378.487 249.112c.746 1.586 1.46 1.824 2.824 1.11a74.699 74.699 0 0 1 3.172-1.507c1.269 1.999 1.586 2.062 2.808.777a1.59 1.59 0 0 0-1.174-1.459.74.74 0 0 0 .254-.333.848.848 0 0 0-.012-.693.846.846 0 0 0-.528-.449.771.771 0 0 0-.884.136.773.773 0 0 0-.178.26c-1.047-1.776-2.459-1.713-4.013.159a3.197 3.197 0 0 1-.524-.159c-.555.714-1.126 1.412-1.697 2.11l-.048.048ZM392.208 282.2a1.442 1.442 0 0 0-.254-1.729 6.583 6.583 0 0 0-.999-.841 1.36 1.36 0 0 0-.095-.222v-.555a2.179 2.179 0 0 0-1.38-1.983 2.562 2.562 0 0 0-2.364.698 1.34 1.34 0 0 0-.333.904 1.937 1.937 0 0 0 .841 1.586c0 .778.476 1.364 1.444 1.507.11.008.222.008.333 0v.254c0 .825.301 1.126 1.094 1.221a1.582 1.582 0 0 0 1.713-.84ZM397.475 276.378c-.397 0-1.396.174-1.46.571-.063.396.746.935 1.095 1.126.349.19.936-.27.983-.777.048-.508-.111-.92-.618-.92ZM400.203 265.671c-.222.222-.698.492-.873.889-.174.396.302 1.221.968 1.316a.99.99 0 0 0 .983-.514.964.964 0 0 0 .111-.374 1.316 1.316 0 0 0-1.189-1.317ZM395.143 287.18a.827.827 0 0 0-.492 1.047c.206.809.841.904 1.586.936.349-.618.857-1.142.302-1.761a1.127 1.127 0 0 0-1.396-.222ZM398.632 283.056c-.206 0-.666-.127-.825.206-.158.333.286.619.397.619a.818.818 0 0 0 .634-.286s-.095-.507-.206-.539ZM394.223 271.619c.364.142.824 0 .777-.524-.048-.523-.143-1.237-.539-1.316-.397-.08-.857.793-.905 1.11-.047.317.381.73.667.73ZM395 278.058a.914.914 0 0 0 .454-.793.914.914 0 0 0-.122-.456.91.91 0 0 0-.332-.337c-.841-.285-1.364.682-1.19 1.158a.999.999 0 0 0 1.19.428ZM403.327 275.537a1.162 1.162 0 0 0-1.237.714 1.33 1.33 0 0 0 .73 1.412 1.031 1.031 0 0 0 1.221-.746 1.158 1.158 0 0 0-.714-1.38ZM412.353 271.508a1.188 1.188 0 0 0 0-.412l-1.221-1.237c-.762-.159-1.253.095-1.412.761-.238.952.286 2.094 1.031 2.236a1.68 1.68 0 0 0 1.602-1.348ZM412.448 278.106a.982.982 0 0 0-.757.061.952.952 0 0 0-.3.246.958.958 0 0 0-.18.343 1.096 1.096 0 0 0 .698 1.253.91.91 0 0 0 .764-.034.919.919 0 0 0 .473-.6 1.122 1.122 0 0 0-.698-1.269ZM407.69 282.008a1.758 1.758 0 0 0-1.262-.539 1.756 1.756 0 0 0-1.261.539 1.59 1.59 0 0 0 .127 1.872 1.236 1.236 0 0 0 1.666.38c.507-.238 1.586-.444 1.681-1.253.095-.809-.65-.729-.951-.999ZM405.786 269.446a1.065 1.065 0 0 0-.92-1.126 1.582 1.582 0 0 0-1.586 1.237 1.583 1.583 0 0 0 1.665 1.079 1.084 1.084 0 0 0 .841-1.19ZM394.492 268.447a1.964 1.964 0 0 0 2.015-1.269c.159-.619-.508-1.444-1.301-1.586-1.031-.222-1.586 0-1.824.825a1.855 1.855 0 0 0 1.11 2.03ZM402.931 265.276a1.094 1.094 0 0 0 1.285-.825 1.19 1.19 0 0 0-.983-1.333 1.144 1.144 0 0 0-1.238.905 1.243 1.243 0 0 0 .936 1.253ZM379.661 283.834a1.776 1.776 0 0 0-1.491.095 1 1 0 0 0-.315-.481 1.007 1.007 0 0 0-.525-.233c-.746-.143-1.063.476-1.412 1.079.143.206.285.444.428.634l.222.206c.12.106.266.175.424.2a.834.834 0 0 0 .465-.057l.206-.127c.06.193.151.375.269.539a.488.488 0 0 0 .254.349c.198.266.468.469.777.587a1.05 1.05 0 0 0 .823-.078 1.033 1.033 0 0 0 .51-.651 1.585 1.585 0 0 0-.635-2.062ZM377.06 279.835a1.552 1.552 0 0 0 0-.397 2.378 2.378 0 0 0 1.443-1.031c.413-.634 0-1.348-.095-2.094.119-.144.205-.311.254-.491a1.145 1.145 0 0 0-.206-.841c-.08-1.586-1.46-2.046-2.792-2.046a2.325 2.325 0 0 0-1.412.492c-.139.12-.266.252-.38.396a2.174 2.174 0 0 0-1.158-.619c-.841-.158-1.412.349-1.586 1.412a1.586 1.586 0 0 0 1.015 1.586c.391.018.78-.07 1.126-.253a1.838 1.838 0 0 0-.238 1.411 3.442 3.442 0 0 0 2.078 2.11v.095c-.095.413.825.888 1.205 1.015.381.127.714-.19.746-.745Z" fill="#0066B1"/><path d="M372.46 272.809a2.524 2.524 0 0 0-.698-2.998 1.917 1.917 0 0 0-2.522.46 1.811 1.811 0 0 0-.268 2.219c.14.229.329.425.553.573a2.124 2.124 0 0 0 2.935-.254ZM369.922 267.225a2.013 2.013 0 0 0-1.887-3.537c-.746.27-.873 1.586-.54 2.601a1.968 1.968 0 0 0 2.427.936ZM368.812 276.695c-.172.04-.334.116-.476.222l2.316 2.316c.082-.305.125-.62.127-.936a1.95 1.95 0 0 0-1.967-1.602ZM365.703 264.814a1.756 1.756 0 0 0-1.949.481 1.766 1.766 0 0 0-.351.614c-.333.856.444 2.094 1.586 2.522a1.577 1.577 0 0 0 1.238-.092 1.594 1.594 0 0 0 .792-.955c.413-1.523.032-1.856-1.316-2.57ZM391.827 291.511c-.587-.334-1.491.158-1.935 1.046a1.237 1.237 0 0 0 .524 1.491 1.585 1.585 0 0 0 1.903-.475 1.772 1.772 0 0 0-.492-2.062ZM364.862 269.146a1.794 1.794 0 0 0-1.983.658 1.79 1.79 0 0 0-.301.674c-.032.21-.032.424 0 .635l2.506 2.49c.539-.079.761-.492.983-.92a3.33 3.33 0 0 0 .365-.809c.079-.124.143-.257.191-.397.237-1.015-.476-1.998-1.761-2.331ZM384.911 282.817a1.981 1.981 0 0 0-1.078-2.379 1.345 1.345 0 0 0-1.745.809 2.014 2.014 0 0 0 .428 2.331 1.933 1.933 0 0 0 2.395-.761ZM361.579 265.384a1.17 1.17 0 0 0-.397.841c0 .317-.174.603 0 .92.175.317.698.222.968-.174.23-.387.304-.846.206-1.285a.51.51 0 0 0-.777-.302ZM386.006 287.687a1.667 1.667 0 0 0-1.935.413 1.883 1.883 0 0 0-.005 1.255c.141.407.417.753.782.981a1.727 1.727 0 0 0 2.047-.856c.364-.73.063-1.333-.889-1.793ZM385.594 274.38a1.792 1.792 0 0 0-1.999 1.031 1.22 1.22 0 0 0 .793 1.475 1.588 1.588 0 0 0 1.792-1.063 1.066 1.066 0 0 0-.225-1.207 1.07 1.07 0 0 0-.361-.236ZM383.167 270.715a.994.994 0 0 0 .365-.127 1.043 1.043 0 0 0 .507-.682l.238-.27c.587.428 1.142.936 1.777.222a1.128 1.128 0 0 0 .19-1.443c-.127-.175-.381-.413-.555-.397l-.571.095a1.112 1.112 0 0 0 .114-1.251 1.107 1.107 0 0 0-.289-.335 1.592 1.592 0 0 0-1.225-.381 1.598 1.598 0 0 0-1.106.651c-.21.257-.352.562-.413.888-.143 0-.284.029-.415.087a1.023 1.023 0 0 0-.346.246 2.241 2.241 0 0 0 .396 2.617.952.952 0 0 0 1.333.08ZM380.391 277.519c-.46.412-.936.872-.619 1.586a.964.964 0 0 0 .542.555.933.933 0 0 0 .775-.032 1.313 1.313 0 0 0 .698-.904c0-.761-.635-1.11-1.396-1.205Z" fill="#0066B1"/><path d="M465.995 66.38c4.606-4.988 5.21-11.922 1.348-15.488-3.861-3.566-10.726-2.413-15.332 2.575-4.606 4.988-5.209 11.922-1.348 15.488 3.862 3.566 10.726 2.413 15.332-2.575Z" fill="#294492"/><path d="M419.856 48.915c1.903 5.25 16.369 6.266 21.572 6.472a3.348 3.348 0 0 0 2.887-1.443l.634-.92a3.326 3.326 0 0 0 .318-3.173c-2.031-4.758-8.153-17.94-13.721-17.845-5.076.096-9.105 6.234-9.105 6.234s-4.314 5.917-2.585 10.675Z" fill="#7DE2D1"/><path d="M428.025 33.815c-.587 5.536 11.976 12.8 16.56 15.244a3.393 3.393 0 0 0 3.172 0l.968-.556a3.346 3.346 0 0 0 1.792-2.775c.254-5.203.524-19.701-4.536-22.065-4.6-2.14-10.913 1.587-10.913 1.587s-6.52 3.521-7.043 8.565Z" fill="#7DE2D1"/><path d="M431.483 31.96a7.648 7.648 0 0 0-3.347.903c-.082.313-.141.63-.175.952-.618 5.742 12.896 13.308 17.02 15.497-2.157-5.155-8.042-17.448-13.498-17.353Z" fill="#42D4C6"/><path d="M497.009 71.234c-1.903-5.235-16.37-6.345-21.572-6.456a3.331 3.331 0 0 0-2.887 1.443l-.619.92a3.31 3.31 0 0 0-.333 3.173c2.046 4.758 8.153 17.956 13.737 17.86 5.075-.095 9.104-6.233 9.104-6.233s4.299-5.933 2.57-10.707Z" fill="#7DE2D1"/><path d="M488.856 86.351c.587-5.552-11.992-12.8-16.576-15.259a3.35 3.35 0 0 0-3.173 0l-.967.54a3.315 3.315 0 0 0-1.761 2.791c-.27 5.203-.523 19.716 4.537 22.064 4.6 2.142 10.913-1.586 10.913-1.586s6.487-3.506 7.027-8.55Z" fill="#7DE2D1"/><path d="M471.82 70.853c2.221 5.14 8.121 17.449 13.514 17.353a7.657 7.657 0 0 0 3.347-.92 9 9 0 0 0 .175-.936c.602-5.742-12.96-13.324-17.036-15.497Z" fill="#42D4C6"/><path d="M185.081 110.238H50v17.686h135.081v-17.686Z" fill="#00BFB3"/><path d="M251.829 151.051h-142.79v17.686h142.79v-17.686Z" fill="#FF957D"/><path d="M199.896 168.738h51.949v-17.67h-47.491a99.952 99.952 0 0 0-4.458 17.67Z" fill="#FA744E"/><path d="M415.034 109.112a3.873 3.873 0 0 1-3.642-2.49 3.875 3.875 0 0 1 1.056-4.283 340.151 340.151 0 0 0 6.583-5.916 3.887 3.887 0 0 1 5.25 5.71 348.153 348.153 0 0 1-6.725 6.028 3.827 3.827 0 0 1-2.522.951Zm19.875-18.606a3.872 3.872 0 0 1-3.793-4.633 3.864 3.864 0 0 1 1.065-1.981c3.806-3.791 6.17-6.345 6.186-6.345a3.87 3.87 0 0 1 5.615 5.314c-.095.095-2.459 2.585-6.345 6.455a3.9 3.9 0 0 1-2.728 1.19Z" fill="#294492"/><path d="m178.214 55.675-30.25 30.25a9.057 9.057 0 0 0 0 12.809l30.25 30.25a9.058 9.058 0 0 0 12.809 0l30.25-30.25a9.057 9.057 0 0 0 0-12.81l-30.25-30.25a9.057 9.057 0 0 0-12.809 0Z" fill="#F04E98"/><path d="M123.553 118.09a1.482 1.482 0 0 0-.375-1.616 1.472 1.472 0 0 0-.498-.303c-.618-.302-1.364.127-1.761.999a1.084 1.084 0 0 0 .085 1.31c.103.118.232.213.375.276a2.314 2.314 0 0 0 2.174-.666ZM99.696 127.036c-.127.254.285.603.476.73a.43.43 0 0 0 .539-.191.692.692 0 0 0-.175-.682c-.127-.095-.713-.111-.84.143ZM105.311 115.488c.285.127.587-.317.698-.507a.56.56 0 0 0-.222-.571c-.191 0-.508.174-.651.349-.142.174-.095.603.175.729ZM111.148 124.72c-.618-.095-1.237-.286-1.84-.429a.905.905 0 0 0-1.443.27 1.187 1.187 0 0 0 .46 1.586c.34.212.632.493.856.825a1.752 1.752 0 0 0 1.063.936h.682a2.307 2.307 0 0 0 1.126-1.824c-.047-.587-.063-1.237-.904-1.364ZM113.956 118.312a.714.714 0 0 0-1.079.508c.015.342.084.679.207.999a1.104 1.104 0 0 0 .845-.037 1.1 1.1 0 0 0 .566-.629c.143-.492-.174-.698-.539-.841ZM127.55 117.439a1.094 1.094 0 0 0 1.475-.46c.007-.095.007-.19 0-.285a.999.999 0 0 0 .634-.651.966.966 0 0 0-.333-.809 1.202 1.202 0 0 0-.983 0 .864.864 0 0 0-.222.27 1.24 1.24 0 0 0-1.253.619 1.094 1.094 0 0 0 .682 1.316ZM119.127 126.322a1.016 1.016 0 0 0-1.316.476.984.984 0 0 0 .095 1.127h1.776a.886.886 0 0 0 .175-.254c.041-.137.055-.28.041-.422a1.092 1.092 0 0 0-.396-.73 1.063 1.063 0 0 0-.375-.197ZM118.683 121.771c.143-.492-.175-.682-.539-.841-.365-.158-1.031 0-1.079.508.011.342.081.68.206.999a1.065 1.065 0 0 0 1.412-.666ZM113.892 114.585a.618.618 0 0 0 .222.713c.238.111.571-.127.667-.285.095-.159.111-.777-.127-.873-.238-.095-.698.222-.762.445ZM104.518 118.296c-.888-.095-1.142 1.063-.841 1.587.302.523.127.412-.222.983s-.523 1.586.619 1.84a2.22 2.22 0 0 0 2.458-1.586 2.586 2.586 0 0 0-2.014-2.824ZM152.882 116.251c-.683-1.586-1.967-.65-2.316-1.063-.349-.412-.429-1.507-.889-2.173a1.74 1.74 0 0 0-1.939-.928c-.253.056-.49.167-.694.325a1.92 1.92 0 0 0-.317 2.808.92.92 0 0 0-.095.174 2.089 2.089 0 0 0 1.348 1.951c.312.082.64.082.952 0a1.238 1.238 0 0 0 0 1.206c.539 1.364 2.046 1.729 2.649.872.603-.856.174-1.586.365-1.792.19-.206 1.237-.619.936-1.38ZM156.514 118.107a1.287 1.287 0 0 0-.429 0 1.136 1.136 0 0 0-.745-.888 1.71 1.71 0 0 0-1.777 1.157.943.943 0 0 0 .395 1.035.932.932 0 0 0 .367.139c.238.072.491.072.729 0a1.27 1.27 0 0 0 .476 1.206c1.015.555 1.872-.302 2.3-.762.429-.46-.349-1.681-1.316-1.887ZM157.957 111.301a1.582 1.582 0 0 0-1.792-.841c-.286 0-.555.096-.857.143l-.285-.365h-4.045c0 .095.143.191.222.27.077.213.189.412.333.587-.317 1.094.317 1.681 1.19 2.157-.222.571-.762 1.11 0 1.681a.997.997 0 0 0 1.316 0c.714-.539.302-1.157 0-1.76l.841-.777 1.063 1.046c.391-.07.774-.182 1.142-.333.22-.136.4-.328.523-.555.206-.143.374-.334.492-.555a.708.708 0 0 0-.143-.698ZM131.801 116.901a1.093 1.093 0 0 0 0-1.84 1.496 1.496 0 0 0-1.301 0 1.234 1.234 0 0 0-.46 1.063 1.27 1.27 0 0 0 1.761.777ZM146.711 111.65c.206-.333-.127-1.158-.571-1.412h-.523a1 1 0 0 0-.603.936c.095.587 1.443.873 1.697.476ZM140.144 118.345c-.301.856 0 1.586.587 1.824a2.173 2.173 0 0 0 2.411-1.079 1.588 1.588 0 0 0-1.079-1.586 1.368 1.368 0 0 0-1.634.321c-.132.15-.229.328-.285.52ZM133.434 110.238h-1.316c.111.318.238.571.38.635.143.063.778-.159.936-.635ZM140.858 116.981c1.047-1.349 1.681-.318 2.744-1.031.148-.129.276-.279.381-.445a1.377 1.377 0 0 0 .053-1.483 1.376 1.376 0 0 0-1.322-.674 8.47 8.47 0 0 0-2.268.365 2.139 2.139 0 0 0-1.174 2.237c.079.491.65 1.443 1.586 1.031ZM143.19 113a.757.757 0 0 0 .687-.001.756.756 0 0 0 .407-.555 1.426 1.426 0 0 0-.254-1.062c-.222-.207-1.269-.111-1.443.333a1.017 1.017 0 0 0 .603 1.285ZM124.33 114.203c.618-.19.698-.698.428-1.872-.603-.111-1.285-.46-1.729.334a1.032 1.032 0 0 0 .286 1.395 1.208 1.208 0 0 0 1.015.143ZM163.779 124.704a1.065 1.065 0 0 0-1.428.587.945.945 0 0 0 .073.76.98.98 0 0 0 .256.295.965.965 0 0 0 .353.167 1.093 1.093 0 0 0 1.38-.698.86.86 0 0 0-.634-1.111ZM156.403 123.34a.596.596 0 0 0-.238 0 2.064 2.064 0 0 0-1.11-1.079 1.686 1.686 0 0 0-1.84 1.269 1.017 1.017 0 0 0 0 .381 3.406 3.406 0 0 0-.222 1.333c.111.301.682.951.158 1.316-.523.365-1.332.333-1.586.968l-.095.222a.901.901 0 0 0-.413-.238 1.586 1.586 0 0 0-1.158.349h4.553a1.447 1.447 0 0 1 0-.778c.174-.364.507-.713 1.031-.396.523.317 1.475.127 2.062-.999.587-1.127-.222-2.475-1.142-2.348ZM161.399 125.832c-.539-.143-1.38.555-1.491 1.237a.794.794 0 0 0 .381.856h2.078a.632.632 0 0 0 .174-.301 1.763 1.763 0 0 0-1.142-1.792ZM157.37 127.925h2.697a2.253 2.253 0 0 0-.778-.476 1.585 1.585 0 0 0-1.919.476ZM162.732 122.658c.285-1.079-.27-1.872-1.587-2.173a2.792 2.792 0 0 0-.856 0 1.138 1.138 0 0 0-1.063.539c-.19.24-.33.515-.412.809a1.95 1.95 0 0 0 1.76 2.269 1.99 1.99 0 0 0 2.158-1.444ZM172.011 123.42a.638.638 0 0 0 .54-.127l-2.554-2.554c-.279.246-.5.549-.651.888a1.43 1.43 0 0 0 .841 1.983 1.7 1.7 0 0 0 1.824-.19ZM165.983 126.941a1.127 1.127 0 0 0-1.078.983h2.125a.877.877 0 0 0-.265-.766.873.873 0 0 0-.782-.217ZM174.295 125.054c-.951-.127-2.125.079-2.474.634a.457.457 0 0 0-.095.27c.269.904-.445 1.237-.936 1.729a1.141 1.141 0 0 0-.175.238h2.966a1.028 1.028 0 0 1 .667-.476c.158.143.317.349.476.476h1.38c.092-.025.182-.057.269-.095a.61.61 0 0 0 .238-.524l-2.316-2.252Z" fill="#01ADA1"/><path d="M166.221 117.948a1.95 1.95 0 0 0-.587-.19c.174.029.351.029.524 0 .198-.048.382-.14.539-.27l-3.648-3.648c-.206.444-.381.824-.555.856-.175.032-1.587-1.158-2.824-.666a2.233 2.233 0 0 0-1.205 2.839 3.755 3.755 0 0 0 3.521 1.967c1.015-.269 1.047-1.586 1.332-1.697.286-.111 1.127.603 2.11.682a1.783 1.783 0 0 0-1.586 1.015 2.16 2.16 0 0 0-.175 1.301 1.73 1.73 0 0 0-.269.571 2.309 2.309 0 0 0 1.058 2.426c.268.164.566.272.877.318a2.239 2.239 0 0 0 2.371-.882c.172-.245.294-.522.357-.815a1.77 1.77 0 0 0-.254-1.586 2.343 2.343 0 0 0-1.586-2.221ZM149.471 124.102a.218.218 0 0 1 0-.095 1.19 1.19 0 0 0 .904-.904 1.096 1.096 0 0 0-.999-1.174 1.029 1.029 0 0 0-.587 0 1.978 1.978 0 0 0-2.205.809 1.958 1.958 0 0 0-.761-.317 1.172 1.172 0 0 0-1.587.698 2.271 2.271 0 0 0 1.111 2.125 1.332 1.332 0 0 0 1.018-.208 1.335 1.335 0 0 0 .568-.87c.158.139.334.257.523.349a1.422 1.422 0 0 0 1.097.229 1.42 1.42 0 0 0 .918-.642ZM135.052 127.925h1.666c-.14-.14-.3-.258-.476-.349a.892.892 0 0 0-1.19.349ZM135.909 122.262c.27-.698 0-1.681-.508-1.887a2.043 2.043 0 0 0-1.427.095 1.033 1.033 0 0 0-.619-.397 1.126 1.126 0 0 0-1.221.619 3.735 3.735 0 0 0-2.031-.286c-.3.032-.602-.023-.872-.158a1.4 1.4 0 0 0-1.953.058 1.393 1.393 0 0 0-.347.624.806.806 0 0 0-.333-.238 1.253 1.253 0 0 0-1.317.904 1.286 1.286 0 0 0 .587 1.713 1.079 1.079 0 0 0 1.364-.729c.286.228.624.381.984.444a2.093 2.093 0 0 1 1.38.618 2.217 2.217 0 0 0 2.125.524 1.936 1.936 0 0 0 1.476-1.586v-.207c.183.437.53.785.967.968.698.27 1.364-.175 1.745-1.079ZM138.828 111.413a1.377 1.377 0 0 0-1.294-.741 1.377 1.377 0 0 0-1.213.868 7.743 7.743 0 0 0-.618 1.792.27.27 0 0 0-.222-.222.336.336 0 0 0-.349.27c0 .095.174.285.254.301a.334.334 0 0 0 .238-.079.413.413 0 0 1 0 .111 2.182 2.182 0 0 0 1.443 2.094.857.857 0 0 0 1.126-.349 6.06 6.06 0 0 0 .873-3.506 2.403 2.403 0 0 0-.238-.539ZM133.942 126.973a1.213 1.213 0 0 0-1.33.279 1.218 1.218 0 0 0-.256.403.765.765 0 0 0 0 .27h2.237a1.088 1.088 0 0 0-.651-.952ZM142.111 123.77a1.932 1.932 0 0 0-2.459.397 1.939 1.939 0 0 0-.032 2.49c-.107.123-.184.27-.222.428a1.264 1.264 0 0 0 0 .841h1.809v-.095a1.15 1.15 0 0 0 0-.46 2.256 2.256 0 0 0 1.586-1.269 1.81 1.81 0 0 0-.682-2.332ZM150.216 127.371c.191-.444-.142-.952-.396-1.269-.254-.317-.92 0-1.126.38-.207.381 0 1 .364 1.111.365.111.968.206 1.158-.222ZM123.885 126.021c-.84-.317-1.776 0-1.998.524-.098.475-.007.97.254 1.38h2.68a1.364 1.364 0 0 0-.936-1.904ZM144.173 127.925h1.269a1.314 1.314 0 0 0-.476-.222.966.966 0 0 0-.793.222ZM144.379 121.31a1.077 1.077 0 0 0-.634-.746c-.27 0-1.031 0-1.158.349s.476.872.745 1.031c.27.159 1.047-.19 1.047-.634Z" fill="#01ADA1"/><path d="M188.492 99.596h-8.708l-2.903-27.109h14.514l-2.903 27.109ZM189.459 111.689a5.321 5.321 0 1 0-10.643-.001 5.321 5.321 0 0 0 10.643.001Z" fill="#fff"/></svg>