<svg width="148" height="96" fill="none" xmlns="http://www.w3.org/2000/svg"><g clip-path="url(#a)" fill="#DAE0EB"><path d="M-13.641 79.289C3.703 56.324 29.145 40.226 57.792 34.09a128.238 128.238 0 0 1 44.577-1.933c14.414 1.924 31.723 6.013 43.075 15.126a1.076 1.076 0 0 1 .207 1.425 1.187 1.187 0 0 1-1.431.437c-14.376-4.743-27.14-11.187-42.502-13.312a124.656 124.656 0 0 0-42.56 1.488C30.97 43.325 5.578 58.325-12.882 79.88c-.413.485-1.117-.169-.757-.604l-.002.014Z"/><path d="M140.408 28.398c2.704.892 3.431 6.235 4.083 8.406 1.099 3.669 2.585 7.41 3.31 11.179.504 2.592-.013 3.916-2.868 4.46a136.048 136.048 0 0 1-20.662 2.716.703.703 0 0 1-.47-.114.646.646 0 0 1-.205-.85.698.698 0 0 1 .367-.312 61.891 61.891 0 0 1 12.862-4.631c1.679-.435 3.891-.532 5.807-.887-.137-.478-.224-.992-.355-1.34l-2.484-7.394c-.869-2.619-2.528-6.972-1.683-10.734.238-.837 1.543-.755 2.298-.499Z"/></g><defs><clipPath id="a"><path fill="#fff" d="M0 0h148v96H0z"/></clipPath></defs></svg>